<svg width="60" height="60" viewBox="0 0 60 60" fill="none" xmlns="http://www.w3.org/2000/svg">
<g opacity="0.7">
<path d="M2 12C2 6.47715 6.47715 2 12 2H48C53.5229 2 58 6.47715 58 12V48C58 53.5229 53.5228 58 48 58H12C6.47715 58 2 53.5228 2 48V12Z" fill="#FF6500"/>
<path d="M30.9469 40.2735L30.5933 39.9199L30.9469 40.2735C31.2144 40.006 31.3647 39.6431 31.3647 39.2648V22.5883C31.3647 22.21 31.2144 21.8472 30.9469 21.5797C30.6793 21.3122 30.3165 21.1619 29.9382 21.1619C29.5599 21.1619 29.197 21.3122 28.9295 21.5797C28.662 21.8472 28.5117 22.21 28.5117 22.5883V39.2648C28.5117 39.6431 28.662 40.006 28.9295 40.2735C29.197 40.541 29.5599 40.6913 29.9382 40.6913C30.3165 40.6913 30.6793 40.541 30.9469 40.2735Z" fill="#FFDA58" stroke="#FFDA58"/>
<path d="M30.5469 19.4162L30.3563 19.8753L30.5469 19.4162C30.3736 19.3443 30.1878 19.3073 30.0001 19.3073C29.8125 19.3073 29.6267 19.3443 29.4534 19.4162L29.6439 19.8753L29.4534 19.4162C29.2802 19.488 29.1229 19.5933 28.9905 19.7261C28.9904 19.7262 28.9903 19.7262 28.9902 19.7263L23.4318 25.2847C23.1641 25.5524 23.0137 25.9156 23.0137 26.2942C23.0137 26.6728 23.1641 27.036 23.4318 27.3037C23.6996 27.5714 24.0627 27.7218 24.4413 27.7218C24.8199 27.7218 25.1831 27.5714 25.4508 27.3037L25.4509 27.3036L30.0001 22.7526L34.5494 27.3036L34.5495 27.3037C34.8172 27.5714 35.1803 27.7218 35.559 27.7218C35.9376 27.7218 36.3007 27.5714 36.5685 27.3037C36.8362 27.036 36.9866 26.6728 36.9866 26.2942C36.9866 25.9156 36.8362 25.5524 36.5685 25.2847L31.0101 19.7263C31.01 19.7262 31.0099 19.7262 31.0098 19.7261C30.8774 19.5933 30.72 19.488 30.5469 19.4162Z" fill="#FFDA58" stroke="#FFDA58"/>
<path d="M12 4H48V0H12V4ZM56 12V48H60V12H56ZM48 56H12V60H48V56ZM4 48V12H0V48H4ZM12 56C7.58172 56 4 52.4183 4 48H0C0 54.6274 5.37258 60 12 60V56ZM56 48C56 52.4183 52.4183 56 48 56V60C54.6274 60 60 54.6274 60 48H56ZM48 4C52.4183 4 56 7.58172 56 12H60C60 5.37258 54.6274 0 48 0V4ZM12 0C5.37258 0 0 5.37258 0 12H4C4 7.58172 7.58172 4 12 4V0Z" fill="white"/>
</g>
</svg>
