<svg width="63" height="62" viewBox="0 0 63 62" fill="none" xmlns="http://www.w3.org/2000/svg">
<rect width="62.5" height="62" rx="31" fill="white"/>
<path d="M62.5 31.1888C62.5 13.9619 48.5107 0 31.25 0C13.9893 0 0 13.9619 0 31.1888C0 46.7589 11.4258 59.6608 26.3672 62V40.2043H18.4326V31.1888H26.3672V24.3175C26.3672 16.502 31.0303 12.1831 38.1714 12.1831C41.5893 12.1831 45.166 12.7923 45.166 12.7923V20.4677H41.2232C37.3413 20.4677 36.1328 22.8739 36.1328 25.3409V31.1888H44.7997L43.4143 40.2043H36.1328V62C51.0742 59.6608 62.5 46.7589 62.5 31.1888Z" fill="#1877F2"/>
</svg>
