<svg width="30" height="30" viewBox="0 0 30 30" fill="none" xmlns="http://www.w3.org/2000/svg">
<path d="M15.9469 6.57967C15.6793 6.31215 15.3165 6.16187 14.9382 6.16187C14.5599 6.16187 14.197 6.31215 13.9295 6.57967C13.662 6.84718 13.5117 7.21001 13.5117 7.58834V24.2648C13.5117 24.6431 13.662 25.006 13.9295 25.2735C14.197 25.541 14.5599 25.6913 14.9382 25.6913C15.3165 25.6913 15.6793 25.541 15.9469 25.2735C16.2144 25.006 16.3647 24.6431 16.3647 24.2648V7.58834C16.3647 7.21001 16.2144 6.84718 15.9469 6.57967Z" fill="#FFDA58" stroke="#FFDA58"/>
<path d="M19.5494 12.3036L19.5495 12.3037C19.8172 12.5714 20.1803 12.7218 20.559 12.7218C20.9376 12.7218 21.3007 12.5714 21.5685 12.3037C21.8362 12.036 21.9866 11.6728 21.9866 11.2942C21.9866 10.9156 21.8362 10.5524 21.5685 10.2847L16.0101 4.72633C16.01 4.72628 16.01 4.72623 16.0099 4.72617C15.8774 4.5934 15.7201 4.48806 15.5469 4.41618C15.3736 4.34427 15.1878 4.30725 15.0001 4.30725C14.8125 4.30725 14.6267 4.34427 14.4534 4.41618C14.2802 4.48806 14.1228 4.5934 13.9904 4.72617C13.9903 4.72623 13.9902 4.72628 13.9902 4.72633L8.43182 10.2847C8.16408 10.5524 8.01367 10.9156 8.01367 11.2942C8.01367 11.6728 8.16408 12.036 8.43182 12.3037C8.69955 12.5714 9.06268 12.7218 9.44131 12.7218C9.81995 12.7218 10.1831 12.5714 10.4508 12.3037L10.4509 12.3036L15.0001 7.75265L19.5494 12.3036Z" fill="#FFDA58" stroke="#FFDA58"/>
</svg>
