<svg width="291" height="320" viewBox="0 0 291 320" fill="none" xmlns="http://www.w3.org/2000/svg">
<path d="M265.511 290.486C265.511 297.64 217.641 303.388 158.568 303.388C99.4951 303.388 51.6255 297.64 51.6255 290.486C51.6255 283.332 99.4951 277.584 158.568 277.584C217.641 277.584 265.511 283.396 265.511 290.486Z" fill="url(#paint0_radial_176_1551)"/>
<path d="M158.568 26.1872C85.9361 26.1872 26.7993 85.4596 26.7993 158.337C26.7993 231.214 85.9361 290.486 158.568 290.486C231.2 290.486 290.273 231.214 290.273 158.337C290.273 85.4596 231.2 26.1872 158.568 26.1872Z" fill="white"/>
<path d="M158.568 45.9234C96.7576 45.9234 46.5327 96.3816 46.5327 158.337C46.5327 220.355 96.8213 270.75 158.568 270.75C220.378 270.75 270.603 220.292 270.603 158.337C270.603 96.3177 220.315 45.9234 158.568 45.9234Z" fill="#0087A5"/>
<path d="M158.568 66.8092C108.279 66.8092 67.3481 107.878 67.3481 158.337C67.3481 208.795 108.216 249.864 158.568 249.864C208.856 249.864 249.787 208.795 249.787 158.337C249.787 107.878 208.856 66.8092 158.568 66.8092Z" fill="white"/>
<path d="M158.568 92.1022C122.156 92.1022 92.5562 121.802 92.5562 158.337C92.5562 194.871 122.156 224.571 158.568 224.571C194.979 224.571 224.58 194.871 224.58 158.337C224.516 121.802 194.916 92.1022 158.568 92.1022Z" fill="#00C5E7"/>
<path d="M158.568 111.711C132.915 111.711 112.099 132.66 112.099 158.337C112.099 184.013 132.978 204.963 158.568 204.963C184.222 204.963 205.037 184.013 205.037 158.337C205.037 132.66 184.158 111.711 158.568 111.711Z" fill="white"/>
<path d="M158.568 139.303C148.129 139.303 139.599 147.862 139.599 158.337C139.599 168.811 148.129 177.37 158.568 177.37C169.008 177.37 177.538 168.811 177.538 158.337C177.474 147.862 169.008 139.303 158.568 139.303Z" fill="#FF6500"/>
<path opacity="0.43" d="M158.568 26.1872C85.9361 26.1872 26.7993 85.4596 26.7993 158.337C26.7993 231.214 85.9361 290.486 158.568 290.486C231.2 290.486 290.273 231.214 290.273 158.337C290.273 85.4596 231.2 26.1872 158.568 26.1872Z" fill="url(#paint1_linear_176_1551)"/>
<path opacity="0.15" d="M161.114 158.4C160.223 157.506 158.759 157.506 157.868 158.4L108.725 207.709L65.948 206.943L35.4566 237.537L78.2337 238.303L73.2049 243.349L30.4278 242.583L0 273.113L43.732 273.879C43.732 274.454 43.9229 275.093 44.4322 275.54C44.8778 275.987 45.4507 276.243 46.0872 276.243L46.8511 320.122L77.3425 289.528L76.5787 246.607L81.6075 241.561L82.3714 284.482L112.863 253.888L112.099 210.966L161.242 161.658C162.006 160.764 162.006 159.295 161.114 158.4Z" fill="#655554"/>
<path d="M112.736 66.1705L82.2443 35.5762L81.4805 81.7551L111.908 112.285L112.736 66.1705Z" fill="#FF6500"/>
<path d="M77.2789 30.5943L46.7875 0L45.96 46.115L76.4514 76.7093L77.2789 30.5943Z" fill="#FF6500"/>
<path d="M45.9599 46.115L76.4513 76.7093L30.4914 77.5396L0 46.9453L45.9599 46.115Z" fill="#B84900"/>
<path d="M81.4806 81.7551L111.908 112.285L65.9485 113.116L35.457 82.5215L81.4806 81.7551Z" fill="#B84900"/>
<path d="M159.523 160.061L46.0239 46.1788" stroke="#FFDA58" stroke-width="2" stroke-miterlimit="10" stroke-linecap="round" stroke-linejoin="round"/>
<defs>
<radialGradient id="paint0_radial_176_1551" cx="0" cy="0" r="1" gradientUnits="userSpaceOnUse" gradientTransform="translate(158.553 290.524) scale(107.271 15.2946)">
<stop stop-color="#949494"/>
<stop offset="1" stop-color="white" stop-opacity="0"/>
</radialGradient>
<linearGradient id="paint1_linear_176_1551" x1="147.765" y1="122.259" x2="200.424" y2="297.198" gradientUnits="userSpaceOnUse">
<stop stop-color="white" stop-opacity="0"/>
<stop offset="1" stop-color="#71D1FF"/>
</linearGradient>
</defs>
</svg>
