<svg width="205" height="180" viewBox="0 0 205 180" fill="none" xmlns="http://www.w3.org/2000/svg">
<path d="M41.9022 160.034C32.0671 160.034 24.8957 157.577 20.2855 152.662C15.6753 147.747 13.2165 139.454 12.9092 127.884L33.5014 125.222C33.5014 128.498 33.7063 131.263 34.0136 133.515C34.4234 135.768 34.9357 137.406 35.5504 138.635C36.2675 139.761 36.9846 140.683 37.7018 141.092C38.5214 141.604 39.341 141.809 40.4679 141.809C43.1316 141.809 44.5659 139.863 44.5659 135.973C44.5659 132.184 43.7463 128.908 42.0046 126.143C40.263 123.379 37.4969 120.41 33.7063 117.133L27.4569 111.809C25.203 109.863 23.359 108.123 21.8222 106.587C20.3879 105.051 18.8512 103.208 17.4169 100.956C15.8802 98.7031 14.8557 96.3481 14.1386 93.686C13.4214 91.0239 13.1141 88.0546 13.1141 84.7782C13.1141 76.1775 15.6753 69.6246 20.9002 65.0171C26.0226 60.4095 33.194 58.0546 42.312 57.9522C58.6013 57.9522 66.7972 67.5768 66.8997 86.8259L45.8977 88.8737C45.8977 86.314 45.8977 84.3686 45.7952 83.0375C45.6928 81.7065 45.5903 80.3754 45.283 79.0444C44.9756 77.7133 44.5659 76.6894 43.9512 76.1775C43.3365 75.6655 42.5169 75.3584 41.4924 75.3584C40.0581 75.3584 38.9312 76.1775 38.1116 77.7133C37.3944 79.2491 36.9846 80.785 36.9846 82.3208C36.9846 83.1399 37.0871 83.959 37.1895 84.7782C37.292 85.5973 37.4969 86.314 37.5993 86.9283C37.7018 87.5427 38.0091 88.2594 38.4189 88.9761C38.8287 89.6928 39.1361 90.3072 39.341 90.7167C39.5459 91.1263 39.9557 91.7406 40.5703 92.4573C41.185 93.1741 41.5948 93.686 41.7997 93.9932C42.0046 94.3003 42.5169 94.8123 43.234 95.529C43.9512 96.2457 44.4634 96.6553 44.5659 96.8601C44.7707 96.9625 45.283 97.4744 46.1026 98.1911C47.0246 99.0102 47.4344 99.4198 47.5369 99.5222L53.274 104.642C55.7328 106.792 57.7817 108.84 59.4209 110.785C61.1626 112.73 62.6993 114.881 64.3385 117.338C65.8752 119.795 67.1046 122.56 67.8217 125.427C68.6413 128.396 68.9487 131.468 68.9487 134.846C68.9487 142.014 66.4899 147.952 61.6748 152.867C56.245 157.679 49.7907 160.034 41.9022 160.034Z" fill="#D0D1DE"/>
<path d="M78.9883 158.498V59.488H125.398V75.7679H103.269V97.8839H119.763V114.676H103.269V142.321H125.602V158.498H78.9883Z" fill="#D0D1DE"/>
<path d="M179.184 157.884C175.188 159.317 170.373 160.034 164.739 160.034C159.104 160.034 154.289 159.317 150.293 157.884C146.298 156.451 143.122 154.3 140.766 151.331C138.409 148.464 136.77 145.085 135.643 141.092C134.619 137.201 134.106 132.491 134.106 127.167V90.7167C134.106 85.3925 134.619 80.785 135.643 76.7918C136.668 72.901 138.409 69.4198 140.766 66.5529C143.122 63.686 146.298 61.5358 150.293 60C154.289 58.5665 159.104 57.8498 164.739 57.8498C170.373 57.8498 175.188 58.5665 179.184 60C183.179 61.4334 186.355 63.5836 188.712 66.5529C191.068 69.4198 192.81 72.7986 193.834 76.7918C194.859 80.6826 195.371 85.3925 195.371 90.7167V127.27C195.371 132.594 194.859 137.201 193.834 141.195C192.81 145.085 191.068 148.567 188.712 151.433C186.355 154.3 183.179 156.451 179.184 157.884ZM164.636 143.242C165.968 143.242 166.992 142.935 167.915 142.423C168.734 141.809 169.349 140.99 169.759 139.863C170.066 138.737 170.373 137.713 170.476 136.792C170.578 135.87 170.578 134.744 170.578 133.413V84.471C170.578 83.1399 170.578 82.0136 170.476 81.0921C170.373 80.1706 170.168 79.1468 169.759 78.1229C169.349 76.9966 168.837 76.1775 167.915 75.6655C167.095 75.0512 165.968 74.8464 164.636 74.8464C163.612 74.8464 162.69 75.0512 161.87 75.4607C161.153 75.8703 160.538 76.3822 160.128 76.9966C159.719 77.6109 159.411 78.3276 159.309 79.3515C159.104 80.3754 159.001 81.1945 159.001 81.8089C159.001 82.4232 159.001 83.3447 159.001 84.5734V133.515C159.001 134.642 159.001 135.563 159.001 136.177C159.001 136.894 159.104 137.713 159.309 138.737C159.514 139.761 159.821 140.58 160.128 141.092C160.538 141.706 161.05 142.218 161.87 142.628C162.69 143.038 163.612 143.242 164.636 143.242Z" fill="#D0D1DE"/>
<path d="M107.982 30.8191C107.982 30.8191 110.748 40.8533 112.182 42.4915C113.514 44.1297 118.022 46.587 118.022 46.587L116.793 48.7372C116.793 48.7372 108.597 44.5393 107.265 41.1604C106.445 39.215 105.933 37.4744 105.626 35.9386C105.421 34.7099 104.499 31.6382 104.908 30.4096C105.216 29.5905 107.367 29.1809 107.982 30.8191Z" fill="#00BAD1"/>
<path opacity="0.65" d="M107.982 30.8191C107.982 30.8191 110.748 40.8533 112.182 42.4915C113.514 44.1297 118.022 46.587 118.022 46.587L116.793 48.7372C116.793 48.7372 108.597 44.5393 107.265 41.1604C106.445 39.215 105.933 37.4744 105.626 35.9386C105.421 34.7099 104.499 31.6382 104.908 30.4096C105.216 29.5905 107.367 29.1809 107.982 30.8191Z" fill="#00A1CC"/>
<path d="M135.95 78.8396L137.999 76.8942C137.999 76.8942 146.195 76.2799 146.707 76.9966C147.22 77.7133 138.921 81.6041 137.897 81.5017C136.77 81.5017 136.053 79.6587 135.95 78.8396Z" fill="#110239"/>
<path d="M120.89 50.9897C120.89 50.9897 128.676 49.0444 129.291 50.273C129.905 51.6041 137.999 76.8942 137.999 76.8942L135.95 78.8396C135.95 78.8396 127.242 57.4403 124.783 55.2901C122.222 53.0375 119.66 51.9113 120.89 50.9897Z" fill="#F88667"/>
<path d="M120.89 50.9897C120.89 50.9897 128.676 49.0444 129.291 50.273C129.905 51.6041 137.999 76.8942 137.999 76.8942L135.95 78.8396C135.95 78.8396 127.242 57.4403 124.783 55.2901C122.222 53.0375 119.66 51.9113 120.89 50.9897Z" fill="#E45940"/>
<path d="M116.895 46.3822C117.51 46.1775 118.022 46.0751 118.534 45.7679C118.944 45.5631 119.354 45.256 119.866 45.3584C120.276 45.4607 123.247 46.6894 122.427 47.2014C122.12 47.4061 121.505 47.099 121.3 46.9966C120.89 46.8942 120.583 46.6894 120.173 46.4846C120.481 46.4846 122.12 47.2014 121.915 47.5085C121.608 48.1229 119.968 47.3037 119.559 47.099C119.866 47.099 120.89 47.5085 120.89 47.9181C120.89 48.5324 119.661 48.0205 119.456 47.9181C119.251 47.8157 119.149 47.7133 118.944 47.6109C118.739 47.6109 118.432 47.7133 118.227 47.7133C117.817 47.8157 117.407 47.8157 116.997 47.7133C116.792 47.7133 116.178 47.7133 116.075 47.5085C115.973 47.3037 116.075 46.7918 116.28 46.587C116.28 46.4846 116.588 46.4846 116.895 46.3822Z" fill="#F88667"/>
<path d="M116.895 46.3822C117.51 46.1775 118.022 46.0751 118.534 45.7679C118.944 45.5631 119.354 45.256 119.866 45.3584C120.276 45.4607 123.247 46.6894 122.427 47.2014C122.12 47.4061 121.505 47.099 121.3 46.9966C120.89 46.8942 120.583 46.6894 120.173 46.4846C120.481 46.4846 122.12 47.2014 121.915 47.5085C121.608 48.1229 119.968 47.3037 119.559 47.099C119.866 47.099 120.89 47.5085 120.89 47.9181C120.89 48.5324 119.661 48.0205 119.456 47.9181C119.251 47.8157 119.149 47.7133 118.944 47.6109C118.739 47.6109 118.432 47.7133 118.227 47.7133C117.817 47.8157 117.407 47.8157 116.997 47.7133C116.792 47.7133 116.178 47.7133 116.075 47.5085C115.973 47.3037 116.075 46.7918 116.28 46.587C116.28 46.4846 116.588 46.4846 116.895 46.3822Z" fill="#E45940"/>
<path d="M130.316 32.9693L132.16 33.686L125.91 48.8396L124.066 47.8157L130.316 32.9693Z" fill="#110239"/>
<path d="M124.681 47.6109H112.694V49.4539H124.681V47.6109Z" fill="#110239"/>
<path d="M91.5898 38.9078C93.229 37.9863 93.4339 36.9625 92.6143 33.686C91.6923 30.3072 94.0486 26.8259 96.3025 25.9044C97.9416 25.1877 99.3759 24.9829 100.4 23.1399C101.425 21.3993 99.4784 17.7133 102.654 14.9488C104.908 12.901 108.289 14.5392 108.289 14.5392C109.006 14.1297 109.313 18.3276 109.313 21.3993C105.318 27.5427 106.445 35.529 107.879 42.3891C107.879 42.5938 107.982 42.6962 107.982 42.7986C107.674 48.1229 107.367 52.5256 107.367 52.5256C107.367 52.5256 97.7367 57.9522 91.18 53.3447C84.7257 48.6348 88.4139 40.7508 91.5898 38.9078Z" fill="#110239"/>
<path d="M119.865 77.6109L122.324 79.0444C122.324 79.0444 125.295 86.7236 124.783 87.4403C124.271 88.157 118.124 81.2969 117.816 80.273C117.509 79.1468 119.148 77.9181 119.865 77.6109Z" fill="#110239"/>
<path d="M116.69 50.5802C116.69 50.5802 132.365 51.7065 133.799 53.0375C135.233 54.471 121.915 78.8396 121.915 78.8396L119.763 77.6109C119.763 77.6109 123.042 66.041 123.861 63.3788C124.681 60.7167 126.32 57.4403 126.013 57.0307C125.705 56.6212 109.928 58.9761 110.031 54.5734C110.338 50.0683 116.69 50.5802 116.69 50.5802Z" fill="#F88667"/>
<path d="M109.006 24.1638C109.006 24.1638 107.367 28.6689 108.392 31.9454L102.859 30.6143C102.859 30.6143 105.113 23.1399 106.035 21.8089C107.06 20.5802 109.006 24.1638 109.006 24.1638Z" fill="#F88667"/>
<path d="M106.65 28.157C104.806 28.157 103.884 29.4881 103.884 30.9215L102.859 30.7167C102.859 30.7167 105.113 23.2423 106.035 21.9113C106.957 20.5802 109.006 24.1638 109.006 24.1638C109.006 24.1638 108.289 26.2116 108.084 28.4642C107.674 28.3618 107.265 28.157 106.65 28.157Z" fill="#E45940"/>
<path d="M109.518 18.3276C109.518 18.3276 111.67 19.3515 112.182 20.1707C112.694 20.9898 112.284 22.2184 112.284 23.0375C112.284 23.8567 112.592 24.9829 112.387 25.1877C112.284 25.3925 111.465 25.1877 111.362 25.3925C111.26 25.5973 110.235 26.2116 109.928 26.9283C109.621 27.6451 109.211 27.7474 108.391 27.3379C107.674 26.9283 104.806 23.2423 104.806 21.5017C104.806 19.6587 107.469 17.6109 109.518 18.3276Z" fill="#F88667"/>
<path d="M107.776 15.9727C107.776 15.9727 108.801 17.9181 108.903 18.7372C109.006 19.5563 108.289 21.8089 107.776 22.116C107.264 22.4232 107.674 19.5563 106.547 20.3754C105.42 21.2969 106.65 22.9351 106.547 23.2423C106.445 23.5495 105.932 24.6758 104.805 24.7781C103.679 24.8805 101.732 19.0444 102.961 17.6109C104.293 16.2799 106.445 15.9727 107.776 15.9727Z" fill="#110239"/>
<path d="M107.571 14.744C107.571 14.744 109.416 13.3106 111.362 14.9488C113.309 16.4846 113.206 18.942 114.845 18.7372C114.845 18.7372 113.821 21.5017 111.465 20.785C109.108 20.0683 106.752 16.3823 107.571 14.744Z" fill="#110239"/>
<path d="M101.117 45.7679L108.391 45.256C108.391 45.256 112.182 49.4539 115.87 49.4539C119.558 49.4539 128.676 49.4539 128.676 49.4539C128.676 49.4539 128.061 55.2901 124.988 59.4881C124.988 59.4881 112.899 59.8976 106.957 59.3857C101.015 58.8737 95.38 52.4232 101.117 45.7679Z" fill="#FD425F"/>
<path d="M100.503 46.587C100.708 46.2799 100.913 45.9727 101.22 45.7679L108.494 45.256C108.494 45.256 112.182 49.3515 115.87 49.4539C111.363 49.8635 102.859 50.8874 100.503 46.587Z" fill="#E42244"/>
<path d="M125.398 50.273C123.553 50.0683 121.709 49.6587 119.968 49.4539H127.959C127.139 49.8635 126.729 50.4778 125.398 50.273Z" fill="#E42244"/>
<path d="M103.576 28.157C103.576 28.157 106.957 29.488 108.084 29.5904C108.084 29.5904 110.44 34.8123 111.363 36.1433C112.285 37.5768 109.006 42.901 108.904 45.256C108.904 45.256 106.957 47.099 101.118 45.9727C100.913 45.9727 99.376 31.4334 103.576 28.157Z" fill="#00BAD1"/>
<path opacity="0.65" d="M102.655 31.2287C103.679 30.7167 105.421 31.2287 105.933 32.2526C106.548 33.4812 105.933 35.7338 106.036 37.1672C106.138 38.6007 106.24 40.5461 106.548 41.8771C106.855 43.0034 107.572 44.3345 108.494 45.4608C107.777 45.8703 105.523 46.7918 101.016 45.9727C101.016 45.9727 100.093 37.0648 101.63 31.6382C102.04 31.4334 102.347 31.3311 102.655 31.2287Z" fill="#00A1CC"/>
<path d="M115.665 46.3822C116.28 46.1775 116.792 46.0751 117.305 45.7679C117.714 45.5631 118.124 45.256 118.636 45.3584C119.046 45.4607 122.017 46.6894 121.198 47.2014C120.89 47.4061 120.276 47.099 120.071 46.9966C119.661 46.8942 119.354 46.6894 118.944 46.4846C119.251 46.4846 120.89 47.2014 120.685 47.5085C120.378 48.1229 118.739 47.3037 118.329 47.099C118.636 47.099 119.661 47.5085 119.661 47.9181C119.661 48.5324 118.432 48.0205 118.227 47.9181C118.022 47.8157 117.919 47.7133 117.714 47.6109C117.51 47.6109 117.202 47.7133 116.997 47.7133C116.587 47.8157 116.178 47.8157 115.768 47.7133C115.563 47.7133 114.948 47.7133 114.846 47.5085C114.743 47.3037 114.846 46.7918 115.051 46.587C115.153 46.4846 115.461 46.4846 115.665 46.3822Z" fill="#F88667"/>
<path d="M116.178 46.2799L115.563 48.6348C115.563 48.6348 99.7861 46.7918 99.4788 44.0273C99.069 41.2628 100.093 28.2594 103.884 29.5904C107.675 30.9215 103.884 40.3413 104.499 41.058C105.113 41.8771 116.178 46.2799 116.178 46.2799Z" fill="#00BAD1"/>
<path d="M194.55 107.099H169.348C164.635 107.099 161.254 103.106 162.791 99.215C162.791 99.1126 162.791 99.1126 162.894 99.0102C165.25 93.7884 172.319 95.1194 174.163 97.5768C174.163 97.5768 169.45 88.9761 179.593 88.9761C188.096 88.9761 185.432 97.2696 185.432 97.2696C185.432 97.2696 187.072 90.8191 191.989 91.331C200.083 92.1502 195.267 100.137 195.267 100.137C195.267 100.137 203.361 98.2935 203.258 102.696C203.054 107.201 194.55 107.099 194.55 107.099Z" fill="#01C7E2"/>
<path d="M37.8035 109.863H20.4897C17.2113 109.863 14.9574 107.099 15.9819 104.437C15.9819 104.437 15.9819 104.334 16.0844 104.334C17.7235 100.751 22.5386 101.672 23.768 103.311C23.768 103.311 20.4897 97.4744 27.4562 97.4744C33.2958 97.4744 31.4517 103.208 31.4517 103.208C31.4517 103.208 32.5786 98.8055 35.9594 99.1126C41.4917 99.6246 38.2133 105.154 38.2133 105.154C38.2133 105.154 43.7455 103.925 43.7455 106.894C43.6431 109.863 37.8035 109.863 37.8035 109.863Z" fill="#01C7E2"/>
<path d="M102.757 139.863H67.7191C61.1624 139.863 56.4497 134.334 58.6012 129.01C58.6012 128.908 58.7036 128.805 58.7036 128.703C61.982 121.433 71.7146 123.379 74.3783 126.758C74.3783 126.758 67.8216 114.778 81.857 114.778C93.6387 114.778 90.0529 126.348 90.0529 126.348C90.0529 126.348 92.3068 117.44 99.1709 118.055C110.44 119.181 103.679 130.341 103.679 130.341C103.679 130.341 114.948 127.782 114.846 133.823C114.641 139.966 102.757 139.863 102.757 139.863Z" fill="#01C7E2"/>
<path d="M48.868 61.6382C48.9705 61.0239 48.9705 60.512 48.9705 59.8976C48.9705 59.2833 48.868 58.6689 48.868 58.157L46.1019 57.7474C45.9995 57.3379 45.897 56.9283 45.7946 56.5188L47.946 54.7782C47.5362 53.6519 46.9215 52.628 46.2044 51.7065L43.6431 52.7304C43.3358 52.4232 43.0285 52.116 42.7211 51.8089L43.7456 49.2492C42.8236 48.5324 41.7991 47.9181 40.6721 47.5085L38.9305 49.6587C38.5207 49.5563 38.1109 49.4539 37.7011 49.3515L37.2913 46.587C36.6766 46.4846 36.1644 46.4846 35.5497 46.4846C34.935 46.4846 34.3203 46.587 33.8081 46.587L33.3983 49.3515C32.9885 49.4539 32.5787 49.5563 32.1689 49.6587L30.4273 47.5085C29.3003 47.9181 28.2758 48.5324 27.3538 49.2492L28.3783 51.8089C28.0709 52.116 27.7636 52.4232 27.4562 52.7304L24.895 51.7065C24.1779 52.628 23.5632 53.6519 23.1534 54.7782L25.3048 56.5188C25.2024 56.9283 25.0999 57.3379 24.9975 57.7474L22.2314 58.157C22.1289 58.7713 22.1289 59.2833 22.1289 59.8976C22.1289 60.512 22.2314 61.1263 22.2314 61.6382L24.9975 62.0478C25.0999 62.4573 25.2024 62.8669 25.3048 63.2765L23.1534 65.0171C23.5632 66.1434 24.1779 67.1672 24.895 68.0887L27.4562 67.0649C27.7636 67.372 28.0709 67.6792 28.3783 67.9864L27.3538 70.5461C28.2758 71.2628 29.3003 71.8771 30.4273 72.2867L32.1689 70.1365C32.5787 70.2389 32.9885 70.3413 33.3983 70.4437L33.8081 73.2082C34.4228 73.3106 34.935 73.3106 35.5497 73.3106C36.1644 73.3106 36.7791 73.2082 37.2913 73.2082L37.7011 70.4437C38.1109 70.3413 38.5207 70.2389 38.9305 70.1365L40.6721 72.2867C41.7991 71.8771 42.8236 71.2628 43.7456 70.5461L42.7211 67.9864C43.0285 67.6792 43.3358 67.372 43.6431 67.0649L46.2044 68.0887C46.9215 67.1672 47.5362 66.1434 47.946 65.0171L45.7946 63.2765C45.897 62.8669 45.9995 62.4573 46.1019 62.0478L48.868 61.6382ZM35.5497 66.9625C31.6566 66.9625 28.4807 63.7884 28.4807 59.8976C28.4807 56.0068 31.6566 52.8328 35.5497 52.8328C39.4427 52.8328 42.6187 56.0068 42.6187 59.8976C42.6187 63.7884 39.4427 66.9625 35.5497 66.9625Z" fill="#FD425F"/>
<path d="M35.5497 52.0136C31.1444 52.0136 27.6611 55.5973 27.6611 59.8976C27.6611 64.3003 31.2468 67.7816 35.5497 67.7816C39.955 67.7816 43.4382 64.1979 43.4382 59.8976C43.5407 55.4949 39.955 52.0136 35.5497 52.0136ZM35.5497 64.8123C32.7836 64.8123 30.6321 62.5597 30.6321 59.8976C30.6321 57.1331 32.886 54.9829 35.5497 54.9829C38.2134 54.9829 40.4672 57.2355 40.4672 59.8976C40.4672 62.5597 38.3158 64.8123 35.5497 64.8123Z" fill="#110239"/>
<path d="M166.377 130.853C166.685 130.239 166.992 129.727 167.197 129.01C167.402 128.396 167.607 127.782 167.709 127.065L165.046 125.631C165.148 125.119 165.148 124.71 165.148 124.198L168.119 123.174C168.017 121.843 167.812 120.512 167.402 119.283L164.328 119.386C164.124 118.976 163.919 118.567 163.714 118.157L165.763 115.802C165.046 114.676 164.226 113.652 163.202 112.833L160.538 114.471C160.128 114.164 159.821 113.959 159.411 113.652L160.026 110.683C159.411 110.375 158.899 110.068 158.182 109.863C157.567 109.659 156.952 109.454 156.235 109.352L154.801 112.014C154.288 111.911 153.879 111.911 153.366 111.911L152.342 108.942C151.01 109.044 149.678 109.249 148.449 109.659L148.551 112.73C148.142 112.935 147.732 113.14 147.322 113.345L144.966 111.297C143.839 112.014 142.814 112.833 141.995 113.857L143.634 116.519C143.326 116.928 143.122 117.236 142.814 117.645L139.843 117.031C139.536 117.645 139.228 118.157 139.024 118.874C138.819 119.488 138.614 120.102 138.511 120.819L141.175 122.253C141.073 122.765 141.073 123.174 141.073 123.686L138.102 124.71C138.204 126.041 138.409 127.372 138.819 128.601L141.892 128.498C142.097 128.908 142.302 129.317 142.507 129.727L140.458 132.082C141.175 133.208 141.995 134.232 143.019 135.051L145.683 133.413C146.093 133.72 146.4 133.925 146.81 134.232L146.195 137.201C146.81 137.509 147.322 137.816 148.039 138.02C148.654 138.225 149.268 138.43 149.986 138.532L151.42 135.87C151.932 135.973 152.342 135.973 152.854 135.973L153.879 138.942C155.211 138.84 156.542 138.635 157.772 138.225L157.669 135.154C158.079 134.949 158.489 134.744 158.899 134.539L161.255 136.587C162.382 135.87 163.406 135.051 164.226 134.027L162.587 131.365C162.894 130.956 163.099 130.648 163.406 130.239L166.377 130.853ZM150.395 131.365C146.297 129.932 144.146 125.427 145.683 121.331C147.117 117.235 151.625 115.085 155.723 116.621C159.821 118.055 161.972 122.56 160.435 126.655C158.899 130.751 154.391 132.901 150.395 131.365Z" fill="#01C7E2"/>
<path d="M156.03 115.7C151.42 114.061 146.4 116.416 144.761 121.024C143.122 125.631 145.478 130.648 150.088 132.287C154.698 133.925 159.718 131.57 161.357 126.962C162.997 122.355 160.538 117.338 156.03 115.7ZM151.113 129.215C148.244 128.191 146.81 125.017 147.834 122.15C148.859 119.283 152.035 117.85 154.903 118.874C157.772 119.898 159.206 123.072 158.182 125.939C157.157 128.703 153.981 130.239 151.113 129.215Z" fill="#110239"/>
<path d="M20.7971 57.7474H18.8506V58.8737H20.7971V57.7474Z" fill="#110239"/>
<path d="M17.0066 58.8737H15.1625V57.7474H17.0066V58.8737ZM13.3185 58.8737H11.4744V57.7474H13.3185V58.8737ZM9.73275 58.8737H7.88867V57.7474H9.73275V58.8737Z" fill="#110239"/>
<path d="M5.83983 59.0785H4.71289V57.7474H6.04473V58.8737H5.83983V59.0785Z" fill="#110239"/>
<path d="M5.83983 87.8498H4.71289V86.2116H5.83983V87.8498ZM5.83983 84.6757H4.71289V83.0375H5.83983V84.6757ZM5.83983 81.5017H4.71289V79.8635H5.83983V81.5017ZM5.83983 78.3276H4.71289V76.6894H5.83983V78.3276ZM5.83983 75.0512H4.71289V73.4129H5.83983V75.0512ZM5.83983 71.8771H4.71289V70.2389H5.83983V71.8771ZM5.83983 68.7031H4.71289V67.0648H5.83983V68.7031ZM5.83983 65.529H4.71289V63.8908H5.83983V65.529ZM5.83983 62.3549H4.71289V60.7167H5.83983V62.3549Z" fill="#110239"/>
<path d="M6.04473 90.8191H4.71289V89.4881H5.83983V89.6928H6.04473V90.8191Z" fill="#110239"/>
<path d="M31.7591 90.8191H30.1199V89.6928H31.7591V90.8191ZM28.4807 90.8191H26.8415V89.6928H28.4807V90.8191ZM25.3048 90.8191H23.6656V89.6928H25.3048V90.8191ZM22.1289 90.8191H20.4897V89.6928H22.1289V90.8191ZM18.953 90.8191H17.3138V89.6928H18.953V90.8191ZM15.6746 90.8191H14.0354V89.6928H15.6746V90.8191ZM12.4987 90.8191H10.8595V89.6928H12.4987V90.8191ZM9.32277 90.8191H7.68359V89.6928H9.32277V90.8191Z" fill="#110239"/>
<path d="M34.7302 91.1263H33.6032V90.8191H33.2959V89.6928H34.7302V91.1263Z" fill="#110239"/>
<path d="M34.7305 103.413H33.6035V101.877H34.7305V103.413ZM34.7305 100.341H33.6035V98.8055H34.7305V100.341ZM34.7305 97.2696H33.6035V95.7338H34.7305V97.2696ZM34.7305 94.1979H33.6035V92.6621H34.7305V94.1979Z" fill="#110239"/>
<path d="M34.9353 106.382H33.6035V104.949H34.7305V105.256H34.9353V106.382Z" fill="#110239"/>
<path d="M64.7477 106.382H63.1085V105.256H64.7477V106.382ZM61.4694 106.382H59.8302V105.256H61.4694V106.382ZM58.191 106.382H56.5518V105.256H58.191V106.382ZM54.8102 106.382H53.171V105.256H54.8102V106.382ZM51.5318 106.382H49.8926V105.256H51.5318V106.382ZM48.2535 106.382H46.6143V105.256H48.2535V106.382ZM44.8727 106.382H43.2335V105.256H44.8727V106.382ZM41.5943 106.382H39.9551V105.256H41.5943V106.382ZM38.3159 106.382H36.6768V105.256H38.3159V106.382Z" fill="#110239"/>
<path d="M67.8211 106.587H66.6942V106.382H66.4893V105.256H67.8211V106.587Z" fill="#110239"/>
<path d="M67.8213 130.444H66.6943V128.703H67.8213V130.444ZM67.8213 127.065H66.6943V125.324H67.8213V127.065ZM67.8213 123.584H66.6943V121.843H67.8213V123.584ZM67.8213 120.205H66.6943V118.464H67.8213V120.205ZM67.8213 116.826H66.6943V115.085H67.8213V116.826ZM67.8213 113.447H66.6943V111.706H67.8213V113.447ZM67.8213 109.966H66.6943V108.225H67.8213V109.966Z" fill="#110239"/>
<path d="M68.0262 133.515H66.6943V132.082H67.8213V132.389H68.0262V133.515Z" fill="#110239"/>
<path d="M106.034 133.515H104.498V132.389H106.034V133.515ZM102.858 133.515H101.322V132.389H102.858V133.515ZM99.785 133.515H98.2482V132.389H99.785V133.515ZM96.6091 133.515H95.0723V132.389H96.6091V133.515ZM93.4332 133.515H91.8964V132.389H93.4332V133.515ZM90.2572 133.515H88.7205V132.389H90.2572V133.515ZM87.0813 133.515H85.5446V132.389H87.0813V133.515ZM83.9054 133.515H82.3687V132.389H83.9054V133.515ZM80.7295 133.515H79.1928V132.389H80.7295V133.515ZM77.5536 133.515H76.0169V132.389H77.5536V133.515ZM74.3777 133.515H72.8409V132.389H74.3777V133.515ZM71.2018 133.515H69.665V132.389H71.2018V133.515Z" fill="#110239"/>
<path d="M109.006 133.515H107.674V132.389H107.879V132.082H109.006V133.515Z" fill="#110239"/>
<path d="M109.006 130.546H107.879V128.908H109.006V130.546ZM109.006 127.27H107.879V125.631H109.006V127.27ZM109.006 123.993H107.879V122.355H109.006V123.993ZM109.006 120.819H107.879V119.181H109.006V120.819ZM109.006 117.543H107.879V115.904H109.006V117.543ZM109.006 114.266H107.879V112.628H109.006V114.266ZM109.006 111.092H107.879V109.454H109.006V111.092ZM109.006 107.816H107.879V106.177H109.006V107.816ZM109.006 104.642H107.879V103.003H109.006V104.642ZM109.006 101.365H107.879V99.727H109.006V101.365ZM109.006 98.0887H107.879V96.4505H109.006V98.0887Z" fill="#110239"/>
<path d="M109.006 94.9147H107.879V93.4812H109.313V94.6075H109.006V94.9147Z" fill="#110239"/>
<path d="M151.214 94.6075H149.575V93.4812H151.214V94.6075ZM147.936 94.6075H146.297V93.4812H147.936V94.6075ZM144.76 94.6075H143.121V93.4812H144.76V94.6075ZM141.482 94.6075H139.843V93.4812H141.482V94.6075ZM138.306 94.6075H136.667V93.4812H138.306V94.6075ZM135.13 94.6075H133.491V93.4812H135.13V94.6075ZM131.852 94.6075H130.212V93.4812H131.852V94.6075ZM128.676 94.6075H127.037V93.4812H128.676V94.6075ZM125.397 94.6075H123.758V93.4812H125.397V94.6075ZM122.221 94.6075H120.582V93.4812H122.221V94.6075ZM118.943 94.6075H117.304V93.4812H118.943V94.6075ZM115.767 94.6075H114.128V93.4812H115.767V94.6075ZM112.489 94.6075H110.85V93.4812H112.489V94.6075Z" fill="#110239"/>
<path d="M154.185 94.9147H153.058V94.6075H152.854V93.4812H154.185V94.9147Z" fill="#110239"/>
<path d="M154.186 104.334H153.059V102.799H154.186V104.334ZM154.186 101.16H153.059V99.6246H154.186V101.16ZM154.186 97.9863H153.059V96.4505H154.186V97.9863Z" fill="#110239"/>
<path d="M154.186 105.87H153.059V107.406H154.186V105.87Z" fill="#110239"/>
</svg>
