<svg width="201" height="176" viewBox="0 0 201 176" fill="none" xmlns="http://www.w3.org/2000/svg">
<g clip-path="url(#clip0_291_2345)">
<path d="M170.4 125.5H29.7002V146.2H170.4V125.5Z" fill="#110239"/>
<path d="M175.1 139.7H25.0004C20.2004 139.7 16.4004 135.8 16.4004 131.1V36.1C16.4004 31.3 20.3004 27.5 25.0004 27.5H175.2C180 27.5 183.8 31.4 183.8 36.1V131.1C183.8 135.8 179.9 139.7 175.1 139.7Z" fill="#110239"/>
<path d="M176 34.9H24V131.1H176V34.9Z" fill="#FEFEFE"/>
<path d="M0 169.7V172.8C0 174.5 1.8 175.9 4.1 175.9H196C198.3 175.9 200.1 174.5 200.1 172.8V169.7H0Z" fill="#110239"/>
<path d="M100.1 146H18.0004C17.7004 146.3 4.80037 157.9 0.900367 166.4C-0.799634 170.1 0.300367 172 3.50037 172H100.2H196.9C200 172 201.1 170.1 199.5 166.4C195.6 157.8 182.6 146.3 182.4 146H100.1Z" fill="#110239"/>
<path d="M189.7 167.6H14.7002L26.8002 149.7H177.6L189.7 167.6Z" fill="#9C9EB9"/>
<path d="M187.6 164.5L187.2 163.9H175.5L173.3 159.5H184.2L183.8 158.9H173L170.8 154.5H180.8L180.4 153.9H170.5L168.3 149.5H167.3L169.5 153.9H157L155.2 149.5H154.2L155.9 153.9H143.4L142.1 149.5H141.1L142.4 153.9H130L129.1 149.5H128.1L128.9 153.9H116.4L116 149.5H115L115.4 153.9H103.5V149.5H102.4V153.9H90.0998L90.4998 149.5H89.4998L89.0998 153.9H76.5998L77.3998 149.5H76.3998L75.4998 153.9H62.9998L64.2998 149.5H63.2998L61.9998 153.9H49.4998L51.1998 149.5H50.1998L48.3998 153.9H35.8998L38.0998 149.5H37.0998L34.8998 153.9H23.8998L23.4998 154.5H34.5998L32.3998 158.9H20.4998L20.0998 159.5H32.0998L29.8998 163.9H17.1998L16.7998 164.5H29.6998L28.0998 167.7H29.1998L30.6998 164.5H44.1998L42.8998 167.7H43.9998L45.1998 164.5H58.6998L57.7998 167.7H58.8998L59.7998 164.5H73.2998L72.6998 167.7H73.9998L74.5998 164.5H88.0998L87.7998 167.7H88.9998L89.2998 164.5H102.5V167.7H103.6V164.5H116.4L116.7 167.7H117.8L117.5 164.5H131L131.6 167.7H132.7L132.1 164.5H145.6L146.5 167.7H147.6L146.7 164.5H160.2L161.4 167.7H162.5L161.2 164.5H174.7L176.2 167.7H177.3L175.7 164.5H187.6ZM49.2998 154.6H61.8998L60.5998 159H47.5998L49.2998 154.6ZM35.6998 154.6H48.2998L46.5998 159H33.5998L35.6998 154.6ZM44.4998 163.9H31.0998L33.1998 159.5H46.1998L44.4998 163.9ZM59.0998 163.9H45.5998L47.2998 159.5H60.2998L59.0998 163.9ZM73.5998 163.9H60.1998L61.4998 159.5H74.4998L73.5998 163.9ZM74.5998 159H61.5998L62.8998 154.6H75.4998L74.5998 159ZM88.1998 163.9H74.6998L75.4998 159.5H88.4998L88.1998 163.9ZM88.5998 159H75.5998L76.3998 154.6H88.9998L88.5998 159ZM102.4 163.9H89.2998L89.6998 159.5H102.5V163.9H102.4ZM102.4 159H89.6998L90.0998 154.6H102.4V159ZM103.5 154.6H115.4L115.8 159H103.5V154.6ZM103.5 163.9V159.5H115.8L116.2 163.9H103.5ZM169.8 154.6L171.9 159H158.9L157.2 154.6H169.8ZM156.2 154.6L157.9 159H144.9L143.6 154.6H156.2ZM116.5 154.6H129L129.8 159H116.8L116.5 154.6ZM117.3 163.9L116.9 159.5H129.9L130.7 163.9H117.3ZM130.1 154.6H142.7L144 159H131L130.1 154.6ZM131.9 163.9L131.1 159.5H144.1L145.4 163.9H131.9ZM146.4 163.9L145.1 159.5H158.1L159.8 163.9H146.4ZM161 163.9L159.3 159.5H172.3L174.4 163.9H161Z" fill="#D0D1DE"/>
<path d="M100 172H91.5C91.5 172 91.5 172.7 91.9 173.2C92.1 173.4 92.3 173.4 92.5 173.4H99.9H107.3C107.5 173.4 107.8 173.3 107.9 173.2C108.3 172.8 108.3 172 108.3 172H100Z" fill="#110239"/>
<path d="M176 34.9H24V131.1H176V34.9Z" fill="#FEFEFE"/>
<path d="M102.9 84L89.1 90.1L71.8 72.7L24 109.1V131.1H176.1V18L112.5 94.9L102.9 84Z" fill="#41C7D0"/>
<path d="M58.9 101.7H54V105.4H58.9V101.7Z" fill="#FEFEFE"/>
<path d="M65.8004 101.7H60.9004V105.4H65.8004V101.7Z" fill="#FEFEFE"/>
<path d="M72.6002 101.7H67.7002V105.4H72.6002V101.7Z" fill="#FFA83E"/>
<path d="M79.4 101.7H74.5V105.4H79.4V101.7Z" fill="#FEFEFE"/>
<path d="M86.3004 101.7H81.4004V105.4H86.3004V101.7Z" fill="#FEFEFE"/>
<path d="M93.1002 101.7H88.2002V105.4H93.1002V101.7Z" fill="#FFA83E"/>
<path d="M58.9 108H54V111.7H58.9V108Z" fill="#FEFEFE"/>
<path d="M65.8004 108H60.9004V111.7H65.8004V108Z" fill="#FEFEFE"/>
<path d="M72.6002 108H67.7002V111.7H72.6002V108Z" fill="#FEFEFE"/>
<path d="M79.4 108H74.5V111.7H79.4V108Z" fill="#FEFEFE"/>
<path d="M86.3004 108H81.4004V111.7H86.3004V108Z" fill="#FFA83E"/>
<path d="M93.1002 108H88.2002V111.7H93.1002V108Z" fill="#FEFEFE"/>
<path d="M58.9 114.3H54V118H58.9V114.3Z" fill="#FEFEFE"/>
<path d="M65.8004 114.3H60.9004V118H65.8004V114.3Z" fill="#FFA83E"/>
<path d="M72.6002 114.3H67.7002V118H72.6002V114.3Z" fill="#FEFEFE"/>
<path d="M79.4 114.3H74.5V118H79.4V114.3Z" fill="#FEFEFE"/>
<path d="M86.3004 114.3H81.4004V118H86.3004V114.3Z" fill="#FEFEFE"/>
<path d="M93.1002 114.3H88.2002V118H93.1002V114.3Z" fill="#FEFEFE"/>
<path d="M58.9 120.6H54V124.3H58.9V120.6Z" fill="#FEFEFE"/>
<path d="M65.8004 120.6H60.9004V124.3H65.8004V120.6Z" fill="#FEFEFE"/>
<path d="M72.6002 120.6H67.7002V124.3H72.6002V120.6Z" fill="#FFA83E"/>
<path d="M79.4 120.6H74.5V124.3H79.4V120.6Z" fill="#FEFEFE"/>
<path d="M104.5 91.3L104 90.8L103.4 91.1L103 90.1L104.2 89.6L105.2 90.6L104.5 91.3Z" fill="white"/>
<path d="M93.5006 95.3L93.1006 94.3L94.8006 93.6L95.2006 94.6L93.5006 95.3ZM96.8006 93.9L96.4006 92.9L98.1006 92.2L98.5006 93.2L96.8006 93.9ZM100.101 92.5L99.7006 91.5L101.401 90.8L101.801 91.8L100.101 92.5Z" fill="white"/>
<path d="M90.6006 96.5L89.6006 95.6L90.2006 94.8L90.8006 95.3L91.4006 95L91.8006 96L90.6006 96.5Z" fill="white"/>
<path d="M88.1008 94.3L86.6008 93L87.2008 92.2L88.7008 93.5L88.1008 94.3ZM85.2008 91.7L83.7008 90.4L84.3008 89.6L85.8008 90.9L85.2008 91.7ZM82.2008 89.2L80.7008 87.9L81.3008 87.1L82.8008 88.4L82.2008 89.2ZM79.3008 86.6L77.8008 85.3L78.4008 84.5L79.9008 85.8L79.3008 86.6ZM76.3008 84L74.8008 82.7L75.4008 81.9L76.9008 83.2L76.3008 84Z" fill="white"/>
<path d="M73.4008 81.5L72.9008 81.1L72.4008 81.4L71.8008 80.6L73.0008 79.8L74.0008 80.7L73.4008 81.5Z" fill="white"/>
<path d="M27.5004 113L26.9004 112.1L28.7004 110.9L29.3004 111.8L27.5004 113ZM31.0004 110.5L30.4004 109.6L32.2004 108.4L32.8004 109.3L31.0004 110.5ZM34.5004 108L33.9004 107.1L35.7004 105.9L36.3004 106.8L34.5004 108ZM38.0004 105.6L37.4004 104.7L39.1004 103.5L39.7004 104.4L38.0004 105.6ZM41.5004 103.1L40.9004 102.2L42.6004 101L43.2004 101.9L41.5004 103.1ZM45.0004 100.7L44.4004 99.8L46.1004 98.6L46.7004 99.5L45.0004 100.7ZM48.5004 98.2L47.9004 97.3L49.6004 96.1L50.2004 97L48.5004 98.2ZM51.9004 95.8L51.3004 94.9L53.0004 93.7L53.6004 94.6L51.9004 95.8ZM55.4004 93.4L54.8004 92.5L56.5004 91.3L57.1004 92.2L55.4004 93.4ZM58.8004 91L58.2004 90.1L59.9004 88.9L60.5004 89.8L58.8004 91ZM62.2004 88.6L61.6004 87.7L63.3004 86.5L63.9004 87.4L62.2004 88.6ZM65.6004 86.2L65.0004 85.3L66.7004 84.1L67.3004 85L65.6004 86.2ZM69.0004 83.8L68.4004 82.9L70.1004 81.7L70.7004 82.6L69.0004 83.8Z" fill="white"/>
<path d="M116.301 98L115.601 97.3L116.901 95.8L117.601 96.5L116.301 98ZM118.901 95L118.201 94.3L119.501 92.8L120.201 93.5L118.901 95ZM121.501 92L120.801 91.3L122.101 89.8L122.801 90.5L121.501 92ZM124.101 88.9L123.401 88.2L124.701 86.7L125.401 87.4L124.101 88.9ZM126.701 85.9L126.001 85.2L127.301 83.7L128.001 84.4L126.701 85.9ZM129.201 83L128.501 82.3L129.801 80.8L130.501 81.5L129.201 83ZM131.801 80L131.101 79.3L132.401 77.8L133.101 78.5L131.801 80ZM134.401 77L133.701 76.3L135.001 74.8L135.701 75.5L134.401 77ZM136.901 74L136.201 73.3L137.501 71.8L138.201 72.5L136.901 74ZM139.401 71.1L138.701 70.4L140.001 68.9L140.701 69.6L139.401 71.1ZM141.901 68.1L141.201 67.4L142.501 65.9L143.201 66.6L141.901 68.1ZM144.501 65.2L143.801 64.5L145.101 63L145.801 63.7L144.501 65.2ZM147.001 62.3L146.301 61.6L147.601 60.1L148.301 60.8L147.001 62.3ZM149.501 59.4L148.801 58.7L150.001 57.2L150.701 57.9L149.501 59.4ZM152.001 56.5L151.301 55.8L152.501 54.4L153.201 55.1L152.001 56.5ZM154.401 53.6L153.701 52.9L154.901 51.5L155.601 52.2L154.401 53.6ZM156.901 50.7L156.201 50L157.401 48.6L158.101 49.3L156.901 50.7ZM159.401 47.9L158.701 47.2L159.901 45.8L160.601 46.5L159.401 47.9ZM161.801 45L161.101 44.3L162.301 42.9L163.001 43.6L161.801 45ZM164.301 42.1L163.601 41.4L164.801 40L165.501 40.7L164.301 42.1ZM166.701 39.3L166.001 38.6L167.201 37.2L167.901 37.9L166.701 39.3ZM169.101 36.5L168.401 35.8L169.601 34.4L170.301 35.1L169.101 36.5ZM171.401 33.8L170.701 33.1L171.901 31.7L172.601 32.4L171.401 33.8ZM173.701 31.1L173.001 30.4L174.201 29L174.901 29.7L173.701 31.1Z" fill="white"/>
<path d="M114 100.7L112.9 99.6L113.6 98.9L113.9 99.2L114.3 98.8L115 99.5L114 100.7Z" fill="white"/>
<path d="M111.2 97.9L109.5 96.2L110.2 95.5L111.9 97.2L111.2 97.9ZM107.9 94.6L106.2 92.9L106.9 92.2L108.6 93.9L107.9 94.6Z" fill="white"/>
<path d="M172 6.79999L112.7 81.9L103.1 70.3L89.1 77L71.3 58L24 96.4V101L71.1 62.7L88.7 81.4L102.7 74.8L112.8 87L174.3 8.99999C173.5 8.39999 172.7 7.59999 172 6.79999Z" fill="#FFA83E"/>
<path d="M181.2 0L167.2 4.7L176.5 14L181.2 0Z" fill="#FFA83E"/>
<path d="M42.3004 47.1C45.5004 47.3 48.3004 48.7 48.4004 51.8H43.1004C43.1004 50.6 41.8004 50.4 41.1004 50.4C40.6004 50.4 39.1004 50.4 39.1004 51.4C39.1004 53.6 48.8004 51.3 48.8004 57.4C48.8004 61.1 46.0004 62.5 42.4004 62.7L42.7004 66.6H39.5004L39.7004 62.7C36.4004 62.4 33.4004 60.9 33.4004 57.6H38.7004V57.7C38.7004 59.2 40.4004 59.4 41.2004 59.4C42.0004 59.4 43.6004 59.3 43.6004 58.3C43.6004 56.1 33.9004 58.2 33.9004 52.2C33.9004 48.8 36.5004 47.5 39.8004 47.2L39.6004 43.3H42.8004L42.3004 47.1Z" fill="#FFA83E"/>
<path d="M122.6 153C122.6 153 122.8 157.3 122.2 157.9C121.6 158.5 113.1 159.5 112.3 158.7C111.5 158 111.8 156.6 113.6 156C115.5 155.3 116.5 155.8 117.7 155.2C118.9 154.6 118.4 152.7 118.4 152.7L122.6 153Z" fill="#110239"/>
<path d="M150.4 153C150.4 153 150.2 157.3 150.8 157.9C151.4 158.5 159.9 159.5 160.7 158.7C161.5 158 161.2 156.6 159.4 156C157.5 155.3 156.5 155.8 155.3 155.2C154.1 154.6 154.6 152.7 154.6 152.7L150.4 153Z" fill="#110239"/>
<path d="M150.9 128.2C150 123.5 145 110.8 143.2 106.4C142.5 106.2 141.6 105.9 140.8 105.7C141 104.7 141.2 103.9 141.3 103.1C139.9 103.5 138.3 103.7 136.8 104.2C136.6 104.3 136.4 104.3 136.1 104.4C135.9 104.3 135.6 104.3 135.4 104.2C133.9 103.7 132.3 103.5 130.9 103.1C131.1 103.8 131.2 104.7 131.4 105.7C130.6 105.9 129.8 106.2 129 106.4C127.2 110.8 122.2 123.5 121.3 128.2C120 134.7 117.9 153.8 117.9 153.8L123.4 154.5C123.4 154.5 128.9 128.8 129.7 127.4C131.1 124.8 132.6 122.6 133.9 120.6C135 118.9 137.4 118.9 138.5 120.6C139.8 122.6 141.3 124.9 142.7 127.4C143.5 128.8 149 154.5 149 154.5L154.5 153.8C154.3 153.8 152.2 134.7 150.9 128.2Z" fill="#FFA83E"/>
<path d="M152.4 48.7C152.1 46.5 151.7 46.1 151 45.7C150.7 45.5 150.3 45.3 150.1 45C149.9 44.7 149.4 44.4 149.1 44.1C148.8 43.8 148.4 43.6 148.2 43.1C148 42.6 148.7 42.7 149.2 42.9C149.7 43.1 150.6 44.4 151.1 44.2C151.6 44 150.4 42.4 150.2 42.1C149.6 41.4 148.9 41.5 148.1 41.1C147.6 40.9 147.5 40.7 148 40.4C148.4 40.2 148.8 40.4 149.2 40.5C150 40.8 150.8 41.2 151.3 41.8C150.9 41.3 150 40.7 149.5 40.4C149.1 40.2 147.3 39.6 147.5 39C148 37.7 151.6 40.1 152 40.8C151.5 40.2 150.9 39.7 150.3 39.3C149.9 39 149 38.4 149.8 38.1C150.9 37.6 152.3 39.7 153.1 40.6C152.8 39.9 152.3 39.5 151.8 38.8C151.2 38 152 37.8 152.7 38.5C153 38.8 153.6 39.4 153.7 39.6C154.9 41.2 155 42.2 155.2 44.1C155.3 44.8 155.3 45.9 155.5 47.9C155.5 49.1 153.4 48.5 152.4 48.7Z" fill="#F88667"/>
<path d="M99.3001 79.7C97.2001 78.9 96.9001 78.1 96.7001 77.3C96.6001 76.9 96.5001 76.5 96.2001 76.2C95.9001 75.9 95.7001 75.4 95.5001 75C95.3001 74.6 95.1001 74.2 94.7001 73.9C94.2001 73.6 94.2001 74.3 94.3001 74.8C94.4001 75.3 95.5001 76.5 95.2001 77C94.9001 77.5 93.6001 75.9 93.4001 75.6C92.8001 74.9 93.1001 74.2 92.9001 73.4C92.8001 72.9 92.6001 72.7 92.2001 73.1C91.9001 73.4 92.0001 73.9 92.0001 74.3C92.1001 75.1 92.4001 76 92.8001 76.6C92.4001 76.1 92.0001 75.1 91.8001 74.5C91.7001 74.1 91.5001 72.2 90.8001 72.3C89.4001 72.5 91.1001 76.5 91.6001 77C91.1001 76.4 90.8001 75.7 90.5001 75C90.3001 74.6 89.9001 73.6 89.5001 74.2C88.8001 75.2 90.6001 77 91.2001 77.9C90.6001 77.4 90.3001 76.9 89.7001 76.2C89.1001 75.4 88.7001 76.1 89.2001 77C89.4001 77.4 89.9001 78.1 90.1001 78.2C91.4001 79.7 92.4001 80 94.2001 80.6C94.9001 80.8 95.5001 80.9 97.7001 81.9C98.9001 82.7 98.9001 80.6 99.3001 79.7Z" fill="#F88667"/>
<path d="M138.8 75.5C137.6 75.7 136.4 75.8 135.2 75.7C134.8 75.7 134.4 75.6 133.9 75.4C134 76.9 134 80.3 132.9 81.7C132.9 81.7 133.3 83.4 136.3 83.4C139.3 83.4 139.7 81.7 139.7 81.7C139.7 81.7 138.7 79.3 138.8 75.5Z" fill="#F88667"/>
<path d="M150.5 83.9C149.7 82.8 145.7 80.5 143.1 80.1C138.8 79.4 134.4 79.4 130.1 80.1C127.4 80.5 124.8 81.2 124 82.3C123 83.6 126.1 91 126.6 97.9C127 103.5 127.8 107.9 127.8 107.9C129.5 111 142.8 111.1 144.5 108C144.5 108 144.8 103.2 145.7 97.9C146.8 91 151.5 85.3 150.5 83.9Z" fill="#E5E6ED"/>
<path d="M129.1 96.2C129.2 94.4 129.8 91.1 129.1 89.4C128.1 87 126 86.1 123.9 85C124.5 88.1 126.1 93 126.4 97.8C126.8 103.4 127.6 107.8 127.6 107.8C127.9 108.4 128.7 108.8 129.6 109.2C127.8 105.6 128.9 99.8 129.1 96.2Z" fill="#ABADC4"/>
<path d="M142.9 67.2C142.9 67.2 136.6 63.5 135.7 64.4C134.7 65.3 133.3 68.4 132.5 68.9C131.8 69.4 130.6 69.8 130.7 70.4C130.8 71 131.2 71 131.1 71.6C131.1 72.2 129.8 74.8 130.5 75.6C131.2 76.4 135.8 78.1 138.5 76.3C141.3 74.5 146 68.9 142.9 67.2Z" fill="#F88667"/>
<path d="M144.3 68.6L139 68.7C139 68.7 138 71.3 135.7 73C135.7 73 135.8 73.8 136.4 73.6C137 73.4 137.3 73.4 137.7 72.8C138.1 72.2 139.2 70.7 140 72C140.8 73.4 139.1 73.8 138.4 73.8C138.4 73.8 136 76.7 137.9 77.3C137.9 77.3 140 77 143.2 73.6C146.3 70.2 145.7 68.3 144.3 68.6Z" fill="#110239"/>
<path d="M134.2 62.4C134.2 62.4 131.6 64 134.6 67.1C137.6 70.2 144.6 68.6 144.6 68.6C144.6 68.6 145.3 66.6 142.8 64.4C140.9 62.8 138.8 62 137.2 62.8C134.4 64.1 134.2 62.4 134.2 62.4Z" fill="#110239"/>
<path d="M98.5998 78.7L96.2998 82.3C96.2998 82.3 102.1 87.9 108.8 92.3C112.7 94.9 126 90.8 128 90.1C130.9 89.2 133.1 83 128.2 80.7C125.3 79.3 113.8 88.1 111 86.6C107.6 84.7 98.5998 78.7 98.5998 78.7Z" fill="#E5E6ED"/>
<path d="M151.4 47.8L155.9 47.1C155.9 47.1 158.9 60 158.7 64.7C158.5 69.4 151.1 86.3 149.4 87.6C147.4 89.2 141.7 84.6 145.8 79.7C149.9 74.8 152.5 64.6 152.6 64.1C152.8 63.6 151.4 47.8 151.4 47.8Z" fill="#E5E6ED"/>
<path d="M95.0004 40.4H58.9004V43.6H95.0004V40.4Z" fill="#D0D1DE"/>
<path d="M95.0004 45.5H58.9004V48.7H95.0004V45.5Z" fill="#D0D1DE"/>
<path d="M86.2004 50.7H58.9004V53.9H86.2004V50.7Z" fill="#D0D1DE"/>
</g>
<defs>
<clipPath id="clip0_291_2345">
<rect width="200.1" height="175.8" fill="white"/>
</clipPath>
</defs>
</svg>
