<svg width="201" height="176" viewBox="0 0 201 176" fill="none" xmlns="http://www.w3.org/2000/svg">
<path d="M177.601 138.3H38.3008C34.5008 138.3 31.3008 135.5 31.3008 132V26.3C31.3008 22.8 34.4008 20 38.3008 20H177.601C181.401 20 184.601 22.8 184.601 26.3V132C184.601 135.5 181.501 138.3 177.601 138.3Z" fill="#D0D1DE"/>
<path d="M177.601 27.4H38.3008V130.8H177.601V27.4Z" fill="white"/>
<path d="M132.944 118.265C154.672 105.314 161.787 77.2014 148.836 55.4733C135.885 33.7452 107.772 26.6298 86.0443 39.5807C64.3163 52.5316 57.2009 80.6444 70.1518 102.373C83.1026 124.101 111.215 131.216 132.944 118.265Z" fill="#110239"/>
<path d="M102.9 33.7C127.9 30.1 151.1 47.4 154.7 72.4C158.3 97.4 141 120.6 116 124.2L102.9 33.7Z" fill="#FD425F"/>
<path d="M106.3 124.6C106.2 124.6 106.2 124.6 106.1 124.6L109.3 79L147.5 53.4C153 61.6 155.9 71.5 155.2 82.1C153.4 107.4 131.5 126.4 106.3 124.6Z" fill="#01C7E2"/>
<path d="M103.5 124.3C106.2 124.7 108.8 124.8 111.4 124.7L109.6 79L64.1996 72.9C60.7996 97.9 78.3996 120.9 103.5 124.3Z" fill="#E5E6ED"/>
<path d="M91.0008 90.4L48.6008 68.1C46.8008 71.5 45.4008 75.2 44.4008 79.2C41.8008 90 43.1008 100.8 47.4008 110.2L91.0008 90.4Z" fill="#01C7E2"/>
<path d="M114.101 83.4L160.201 75.1C160.601 77.1 160.801 79.1 160.901 81.1C161.301 89.7 159.401 97.9 155.601 105.2L114.101 83.4Z" fill="#FD425F"/>
<path d="M49.6 67.1C49.1 66.9 47.4 67.6 46.4 68.2C45.8 68.6 44.5 69 43.5 69.3C43.6 69.9 43.7 70.4 43.7 71C43.7 71 45.3 70.7 45.5 70.7C46 70.5 46.5 70.1 47.1 70.3C47.4 70.4 47.7 70.6 47.9 70.7C48.2 70.9 49 71.7 49.4 71.5C50 71.3 49 70.6 48.9 70.4C48.7 70.1 48.8 69.6 49.2 69.7C49.8 69.9 50.8 70.6 51.5 70.3C52.3 69.9 49.8 69.2 49.4 68.9C50.1 69.2 52.3 69.9 52.5 69.5C52.8 68.7 50.5 68.4 49.8 68C50.5 68.3 51.3 68.5 51.7 68.4C52.5 68.1 50.1 67.3 49.6 67.1Z" fill="#F88667"/>
<path d="M47.2004 110.8C46.7004 110.9 45.0004 110.1 44.1004 109.3C43.6004 108.9 42.3004 108.3 41.4004 107.9C41.6004 107.4 41.7004 106.8 41.8004 106.3C41.8004 106.3 43.3004 106.8 43.5004 106.8C44.0004 107 44.4004 107.5 45.0004 107.4C45.3004 107.4 45.6004 107.2 45.9004 107.1C46.2004 107 47.1004 106.3 47.5004 106.5C48.1004 106.8 47.0004 107.4 46.9004 107.5C46.7004 107.8 46.7004 108.3 47.2004 108.2C47.8004 108.1 48.9004 107.5 49.5004 107.9C50.3004 108.4 47.7004 108.8 47.2004 109C47.9004 108.7 50.2004 108.3 50.4004 108.7C50.7004 109.5 48.3004 109.6 47.6004 109.9C48.3004 109.6 49.2004 109.6 49.5004 109.7C50.2004 110.1 47.7004 110.6 47.2004 110.8Z" fill="#F88667"/>
<path d="M19.6002 87.1C21.3002 88.5 23.8002 88.3 25.4002 86.8C28.1002 84.4 33.0002 80 34.6002 78.7C36.8002 77 46.9002 70.7 46.9002 70.7L45.4002 67.9C45.4002 67.9 32.9002 73.4 31.1002 74.8C29.3002 76.2 19.0002 82.4 18.6002 84.9C18.5002 85.8 18.9002 86.5 19.6002 87.1Z" fill="#FD425F"/>
<path d="M19.6002 87.1C21.3002 88.5 23.8002 88.3 25.4002 86.8C28.1002 84.4 33.0002 80 34.6002 78.7C36.8002 77 46.9002 70.7 46.9002 70.7L45.4002 67.9C45.4002 67.9 32.9002 73.4 31.1002 74.8C29.3002 76.2 19.0002 82.4 18.6002 84.9C18.5002 85.8 18.9002 86.5 19.6002 87.1Z" fill="#E42244"/>
<path d="M21.4004 74.8C21.5004 74.9 21.5004 74.9 21.6004 75C22.2004 75.6 22.9004 76.3 23.6004 76.8C24.1004 77.1 24.7004 77.3 25.1004 77.6C25.3004 77.7 25.4004 77.8 25.6004 77.9C25.4004 79.2 24.8004 82.5 24.9004 83.8C24.9004 83.8 20.9004 83.5 19.4004 81.9C19.5004 81.8 21.1004 77.3 21.4004 74.8Z" fill="#F88667"/>
<path d="M25.4004 79.1C25.5004 78.6 25.6004 78.2 25.6004 77.9C25.4004 77.8 25.3004 77.7 25.1004 77.6C24.7004 77.3 24.0004 77.1 23.6004 76.8C22.9004 76.3 22.2004 75.7 21.6004 75C21.5004 74.9 21.5004 74.9 21.4004 74.8C21.1004 77.4 19.4004 81.9 19.4004 81.9C19.9004 82.5 20.8004 82.9 21.7004 83.2C22.1004 81.2 23.3004 79.6 25.4004 79.1Z" fill="#E45940"/>
<path d="M23.7002 146.7C23.7002 146.7 23.8002 150.7 24.4002 151.3C25.0002 151.8 33.0002 152.1 33.7002 151.4C34.4002 150.7 34.0002 149.4 32.3002 149C30.5002 148.5 29.6002 149 28.4002 148.5C27.2002 148 27.6002 146.2 27.6002 146.2L23.7002 146.7Z" fill="#110239"/>
<path d="M3.80085 146.5C3.80085 146.5 3.20085 150.4 3.80085 151C4.40085 151.6 12.5008 152.2 13.3008 151.5C14.0008 150.8 13.7008 149.5 12.0008 149C10.2008 148.4 9.30085 148.8 8.10085 148.4C7.20085 148.1 7.80085 146.2 7.80085 146.2L3.80085 146.5Z" fill="#110239"/>
<path d="M9.70039 124C9.50039 112.9 10.8004 105.2 11.4004 101.7C12.7004 101.7 14.1004 101.9 15.4004 102.5C17.8004 103.6 20.3004 104.7 22.7004 105.7C20.7004 109.8 16.4004 123.3 15.8004 126.1C15.1004 129.6 7.80039 147.4 7.80039 147.4L3.40039 146.8C3.60039 144 9.80039 125 9.70039 124Z" fill="#D0D1DE"/>
<path d="M18.8001 104C20.1001 104.6 21.4002 105.1 22.7002 105.6C20.7002 109.6 17.2002 120.8 16.4001 123.8C15.8001 121.9 12.8002 117.4 11.6002 112.4C10.8002 109.1 10.7001 105.7 11.2001 102.3C13.8001 102.5 16.2001 102.7 18.8001 104Z" fill="#B8B9CD"/>
<path d="M15.5003 103.4C17.2003 104 20.4003 104.8 22.7003 105.7C24.4003 109.9 29.2003 119.7 29.5003 124.2C29.8003 129.1 28.1003 147.7 28.1003 147.7H23.0003C23.0003 147.7 22.5003 126.7 21.8003 125.4C19.5003 121 16.9003 117.4 15.4003 114.7C12.9003 110.1 12.1003 107.1 11.7003 104.9C11.5003 103.9 10.7003 100.7 12.3003 99.7C13.7003 100 14.1003 102.9 15.5003 103.4Z" fill="#D0D1DE"/>
<path d="M24.6002 106.7C24.6002 106.7 20.3002 108.4 16.2002 108C13.1002 107.7 11.5002 107.7 9.7002 106.7C9.7002 106.7 11.6002 91.6 13.9002 86.8C16.1002 82 19.8002 81.1 19.8002 81.1C19.8002 81.1 22.7002 82.8 25.1002 82.7C25.1002 82.7 25.0002 92 24.9002 95.7C24.6002 99.5 24.6002 106.7 24.6002 106.7Z" fill="#FD425F"/>
<path d="M24.8005 94.4C24.8005 94 24.8005 93.6 24.8005 93.1C24.8005 93 24.8005 93 24.8005 92.9C24.8005 92.5 24.8005 92 24.8005 91.5C24.8005 91.4 24.8005 91.3 24.8005 91.3C24.8005 90.8 24.8005 90.3 24.8005 89.7C24.6005 89.7 24.4005 89.7 24.2005 89.7C22.7005 89.4 21.4005 88.6 20.2005 87.8C20.0005 87.7 19.8005 87.6 19.5005 87.5C19.2005 89.5 20.1005 91.9 20.5005 93.5C21.6005 97.9 22.1005 103.4 21.2005 107.6C23.1005 107.2 24.4005 106.7 24.4005 106.7C24.4005 106.7 24.4005 99.5 24.5005 95.8C24.5005 95.5 24.5005 95.1 24.5005 94.7C24.8005 94.6 24.8005 94.5 24.8005 94.4Z" fill="#E42244"/>
<path d="M42.4007 109.5L44.2007 106C44.2007 106 35.4007 100.4 32.2007 97.1C29.0007 93.8 25.5007 87.2 23.0007 86.8C20.5007 86.4 18.1007 87.7 19.5007 91.2C20.9007 94.6 28.1007 99.2 29.6007 100.7C31.1007 102.2 41.0007 108.7 42.4007 109.5Z" fill="#FD425F"/>
<path d="M20.2003 67.9C20.2003 67.9 26.7003 67.2 27.2003 68.2C27.7003 69.3 27.7003 72.4 28.2003 73C28.6003 73.7 29.4003 74.4 29.1003 74.8C28.8003 75.2 28.5003 75.1 28.3003 75.6C28.1003 76.1 28.2003 78.7 27.3003 79.1C26.4003 79.5 22.1003 79.3 20.5003 76.8C18.9003 74.4 17.1003 68.1 20.2003 67.9Z" fill="#F88667"/>
<path d="M18.6009 68.5L22.9009 70.5C22.9009 70.5 22.8009 73 24.0009 75.2C24.0009 75.2 23.6009 75.8 23.2009 75.5C22.8009 75.2 22.5009 75 22.4009 74.4C22.3009 73.8 21.9009 72.1 20.8009 72.9C19.7009 73.7 20.9009 74.7 21.4009 75C21.4009 75 22.3009 78.3 20.6009 78C20.6009 78 19.0009 77 17.6009 73C16.3009 69.1 17.5009 67.8 18.6009 68.5Z" fill="#110239"/>
<path d="M29.1004 67.1C29.1004 67.1 30.6004 69.3 27.1004 70.8C23.5004 72.3 18.4004 68.4 18.4004 68.4C18.4004 68.4 18.5004 66.5 21.4004 65.6C23.5004 65 25.5004 65.1 26.6004 66.3C28.4004 68.4 29.1004 67.1 29.1004 67.1Z" fill="#110239"/>
<path d="M182.5 76.2C182.4 76.3 182.4 76.3 182.3 76.4C181.7 77 181.1 77.7 180.4 78.1C180 78.4 179.3 78.6 178.9 78.9C178.8 79 178.6 79.1 178.4 79.2C178.7 80.4 179.3 83.6 179.2 84.8C179.2 84.8 183.1 84.4 184.4 82.8C184.6 83 182.8 78.7 182.5 76.2Z" fill="#F88667"/>
<path d="M182.6 76.8C182.5 76.9 182.5 76.9 182.4 77C181.8 77.6 181.2 78.3 180.5 78.7C180.1 79 179.4 79.2 179 79.5C178.9 79.6 178.7 79.7 178.5 79.8C178.6 80.1 178.6 80.4 178.7 80.8C178.7 80.8 178.7 80.8 178.8 80.8C181.4 80.8 182.9 82.4 183.4 84.3C183.9 84.1 184.3 83.8 184.6 83.4C184.7 83.5 182.9 79.3 182.6 76.8Z" fill="#E45940"/>
<path d="M176.6 146.1C176.6 146.1 176.8 150 176.2 150.5C175.6 151 168 151.9 167.3 151.3C166.6 150.6 166.9 149.4 168.5 148.8C170.2 148.2 171.1 148.6 172.2 148C173.3 147.5 172.8 145.7 172.8 145.7L176.6 146.1Z" fill="#110239"/>
<path d="M194.8 146C194.8 146 195.9 149.7 195.4 150.3C194.9 150.9 187.2 152.5 186.4 152C185.6 151.4 185.8 150.2 187.4 149.5C189.1 148.7 190 149.1 191 148.4C192 147.8 191.4 146.1 191.4 146.1L194.8 146Z" fill="#110239"/>
<path d="M194.2 123.7C194.6 113 193.6 105.6 193.2 102.2C191.9 102.2 190.6 102.3 189.3 102.8C186.9 103.8 184.5 104.8 182.2 105.7C184 109.7 187.9 122.7 188.3 125.5C188.8 128.9 191.2 147.4 191.2 147.4L195.6 147.3C195.5 144.5 194.2 124.6 194.2 123.7Z" fill="#FD425F"/>
<path d="M186 104.3C184.7 104.9 183.5 105.3 182.2 105.7C184 109.6 187.8 122.6 188.3 125.4C188.9 123.6 191.5 117.3 192.7 112.5C193.5 109.3 193.7 106 193.3 102.8C190.9 102.9 188.5 103.1 186 104.3Z" fill="#E01F41"/>
<path d="M189.401 102C187.701 102.5 184.701 103.3 182.401 104.1C180.701 108.1 176.301 119.6 175.401 123.8C174.201 129.6 172.301 146.9 172.301 146.9L177.201 147.5C177.201 147.5 182.101 124.3 182.801 123C185.101 118.8 187.701 115.4 189.101 112.8C192.601 106.4 192.901 103.3 193.301 101.1C192.101 101.4 190.801 101.6 189.401 102Z" fill="#FD425F"/>
<path d="M159.601 72.7C160.101 72.8 161.101 74 161.701 75C162.001 75.6 162.801 76.4 163.501 77.1C163.201 77.5 162.901 77.9 162.601 78.3C162.601 78.3 161.501 77.4 161.401 77.3C161.101 76.9 160.901 76.4 160.401 76.3C160.201 76.2 159.801 76.3 159.601 76.3C159.301 76.3 158.301 76.6 158.101 76.3C157.701 75.9 158.801 75.8 159.001 75.6C159.201 75.4 159.401 75 159.001 74.9C158.501 74.8 157.401 74.9 157.001 74.4C156.501 73.8 158.801 74.3 159.301 74.3C158.601 74.3 156.601 73.8 156.601 73.4C156.701 72.7 158.701 73.4 159.301 73.4C158.601 73.4 157.901 73.1 157.701 72.9C156.801 72.3 159.101 72.7 159.601 72.7Z" fill="#F88667"/>
<path d="M189.4 90.1C189.7 88 188.4 86.1 186.4 85.4C183.1 84.4 177 82.4 175.2 81.7C172.7 80.7 162.5 75.4 162.5 75.4L160.9 78C160.9 78 171.6 85.7 173.6 86.5C175.6 87.3 185.8 92.8 188 91.9C188.9 91.6 189.3 90.9 189.4 90.1Z" fill="#01C7E2"/>
<path d="M189.4 90.1C189.7 88 188.4 86.1 186.4 85.4C183.1 84.4 177 82.4 175.2 81.7C172.7 80.7 162.5 75.4 162.5 75.4L160.9 78C160.9 78 171.6 85.7 173.6 86.5C175.6 87.3 185.8 92.8 188 91.9C188.9 91.6 189.3 90.9 189.4 90.1Z" fill="#01C7E2"/>
<path d="M180.4 107C180.4 107 184.4 107.6 188.4 107.1C191.4 106.7 194.1 105.6 194.7 104.5C194.7 104.5 192.5 92.1 190.2 87.6C187.9 83.1 184.4 82.3 184.4 82.3C184.4 82.3 181.7 84 179.4 84C179.4 84 179.7 92.9 180 96.5C180.2 100.1 180.4 107 180.4 107Z" fill="#01C7E2"/>
<path d="M183.8 94.2C184.1 92.7 184.9 90.3 184.6 88.4C184.4 88.5 184.2 88.6 184 88.7C182.8 89.5 181.6 90.3 180.2 90.6C180 90.6 179.8 90.6 179.7 90.7C179.8 92.9 179.9 95.1 180 96.5C180.3 100.1 180.5 107 180.5 107C180.5 107 181.6 107.2 183.2 107.2C182.1 103.2 182.9 98.5 183.8 94.2Z" fill="#00A7CC"/>
<path d="M184.3 72.1C184.3 72.1 182.5 68.7 180.3 68.9C178.1 69.1 176 69.8 175.7 70.6C175.4 71.5 175.8 73.3 175.2 74.2C174.7 75.1 173.6 76.3 174 76.7C174.3 77 174.9 77.4 175 77.6C175.1 77.8 175.9 80.6 176.3 80.9C176.8 81.2 180.9 79.3 181.5 78.1C182.1 76.9 184.5 74.4 184.3 72.1Z" fill="#F88667"/>
<path d="M180.9 69.1C180.9 69.1 179.1 74 174.8 73.6C174.8 73.6 173.7 71.6 174.8 70C175.6 68.8 178.1 67.7 180.9 69.1Z" fill="#110239"/>
<path d="M194.6 87C194.4 84.6 193.2 83.2 191.4 81.6C189.3 79.7 187.9 77.8 187.2 75C186.5 72.5 186.8 70.1 184.4 68.3C182.6 67 179.7 67.7 178.6 68.7C178.6 68.8 178.6 68.9 178.6 69C178.6 69 177 70.5 179.6 72.7C180.5 73.5 181 74.8 181 75C181.3 74.5 181.4 74.5 181.5 74.4C181.7 74.2 182.1 74.1 182.4 74.5C182.9 75 182.1 76 181.7 76.1C181.6 76.1 181.5 76.2 181.4 76.4C181.7 77.1 182.2 79.1 182.5 83C182.6 84.1 183.1 84.9 183.8 85.7C184.5 86.6 185.1 86.7 185.5 87.8C186 89 185 91.8 187.3 93.1C188.3 93.7 190.7 93.6 191.2 93.4C194.2 92.2 194.9 90 194.6 87Z" fill="#110239"/>
<path d="M159.3 102.4C158.7 102.6 158.1 102.8 157.5 102.7C157.2 102.6 156.9 102.6 156.7 102.6C156.4 102.7 156.1 102.6 155.7 102.6C155.4 102.6 155 102.5 154.7 102.7C154.4 102.9 154.8 103.2 155.1 103.3C155.4 103.4 156.6 103.2 156.8 103.5C157 103.8 155.6 104.1 155.3 104.2C154.6 104.3 154.3 103.9 153.7 103.7C153.4 103.6 153.2 103.6 153.3 104C153.4 104.3 153.7 104.4 154 104.5C154.5 104.7 155.2 104.9 155.7 104.8C155.3 104.9 154.5 104.8 154 104.7C153.7 104.6 152.4 104.1 152.3 104.5C152 105.4 155 105.8 155.6 105.6C155 105.7 154.5 105.7 153.9 105.6C153.6 105.6 152.8 105.4 153.1 106C153.5 106.8 155.2 106.3 156.1 106.2C155.6 106.4 155.1 106.4 154.5 106.5C153.8 106.6 154.1 107.1 154.9 107.1C155.2 107.1 155.8 107 156 107C157.4 106.7 158.1 106.3 159.1 105.4C159.5 105.1 160.5 104.9 160.5 104.4C160.6 103.7 159.7 102.9 159.3 102.4Z" fill="#F88667"/>
<path d="M159.4 105.6L158 102.4C158 102.4 167.1 97.1 170.7 94.3C174.3 91.5 178.6 85.4 181.1 85.3C183.6 85.2 185.9 86.9 184 90.1C182.2 93.3 174.4 96.9 172.8 98.2C171.1 99.4 160.9 105 159.4 105.6Z" fill="#01C7E2"/>
</svg>
