<svg width="63" height="62" viewBox="0 0 63 62" fill="none" xmlns="http://www.w3.org/2000/svg">
<path d="M0.5 31C0.5 13.8792 14.4911 0 31.75 0C49.0089 0 63 13.8792 63 31C63 48.1208 49.0089 62 31.75 62C14.4911 62 0.5 48.1208 0.5 31Z" fill="#00B900"/>
<path d="M32.2707 14.4667C21.6456 14.4667 13 21.3757 13 29.8682C13 37.4816 19.8558 43.8577 29.1165 45.0634C29.7442 45.1966 30.5983 45.4709 30.8144 45.9992C31.0087 46.479 30.9415 47.2307 30.8764 47.7153C30.8764 47.7153 30.6504 49.0546 30.6016 49.3398C30.5177 49.8197 30.2144 51.2164 32.2707 50.3629C34.3276 49.5093 43.3689 43.9272 47.4119 39.344C50.204 36.3279 51.5417 33.267 51.5417 29.8682C51.5417 21.3757 42.8971 14.4667 32.2707 14.4667Z" fill="white"/>
<path d="M26.9139 25.8333C26.7085 25.8333 26.5416 26.0042 26.5416 26.2142V34.7524C26.5416 34.9628 26.7085 35.1333 26.9139 35.1333H28.2531C28.4584 35.1333 28.625 34.9628 28.625 34.7524V26.2142C28.625 26.0042 28.4584 25.8333 28.2531 25.8333H26.9139Z" fill="#00B900"/>
<path d="M37.6085 25.8333H36.1987C35.9825 25.8333 35.8072 26.0042 35.8072 26.2142V31.2868L31.7939 26.0027C31.7846 25.9892 31.7742 25.9764 31.7634 25.964L31.7607 25.9618C31.753 25.9531 31.7453 25.9456 31.7372 25.9381C31.7349 25.9359 31.7326 25.934 31.7299 25.9317C31.7234 25.9257 31.7164 25.9201 31.7091 25.9148C31.706 25.9118 31.7026 25.9096 31.6991 25.9069C31.6922 25.9024 31.6856 25.8975 31.6787 25.8934C31.6748 25.8908 31.671 25.8885 31.6667 25.8867C31.6598 25.8825 31.6529 25.8784 31.6459 25.875C31.6417 25.8731 31.6378 25.8709 31.6336 25.8694C31.6263 25.866 31.619 25.8626 31.6112 25.86C31.6066 25.8585 31.6028 25.857 31.5985 25.8555C31.5908 25.8528 31.5831 25.8502 31.575 25.8483C31.5708 25.8468 31.5662 25.8461 31.5615 25.8446C31.5538 25.8431 31.5465 25.8412 31.5392 25.8397C31.5338 25.8389 31.528 25.8382 31.5226 25.8378C31.5157 25.8363 31.5088 25.8359 31.5018 25.8352C31.4953 25.8344 31.4887 25.8344 31.4818 25.8341C31.4768 25.8341 31.4729 25.8333 31.4679 25.8333H30.0585C29.8423 25.8333 29.6666 26.0042 29.6666 26.2142V34.7524C29.6666 34.9628 29.8423 35.1333 30.0585 35.1333H31.4679C31.6845 35.1333 31.8598 34.9628 31.8598 34.7524V29.6813L35.8781 34.9722C35.9058 35.0105 35.9401 35.0417 35.9775 35.0665C35.9787 35.0672 35.9802 35.0683 35.9814 35.0695C35.9894 35.0743 35.9975 35.0792 36.0056 35.0837C36.0095 35.086 36.0129 35.0875 36.0168 35.0894C36.0226 35.0927 36.0291 35.0958 36.0353 35.0984C36.0418 35.101 36.0476 35.1036 36.0546 35.1063C36.0584 35.1078 36.0623 35.1093 36.0661 35.1104C36.0754 35.1138 36.0838 35.1164 36.0927 35.119C36.0946 35.119 36.0966 35.1198 36.0985 35.1202C36.1305 35.1284 36.164 35.1333 36.1987 35.1333H37.6085C37.825 35.1333 38 34.9628 38 34.7524V26.2142C38 26.0042 37.825 25.8333 37.6085 25.8333Z" fill="#00B900"/>
<path d="M25.1193 32.9953H21.3866V26.2149C21.3866 26.0042 21.2158 25.8333 21.0056 25.8333H19.6315C19.4208 25.8333 19.25 26.0042 19.25 26.2149V34.7513V34.7521C19.25 34.8546 19.2909 34.9474 19.3566 35.0157C19.3581 35.0176 19.3596 35.0195 19.3619 35.0214C19.3638 35.0233 19.3656 35.0248 19.3675 35.0266C19.4362 35.0927 19.5286 35.1333 19.6311 35.1333H25.1193C25.3299 35.1333 25.5 34.962 25.5 34.7513V33.3769C25.5 33.1662 25.3299 32.9953 25.1193 32.9953Z" fill="#00B900"/>
<path d="M44.9109 27.9713C45.1216 27.9713 45.2916 27.8008 45.2916 27.5897V26.2153C45.2916 26.0046 45.1216 25.8333 44.9109 25.8333H39.4231H39.4223C39.3195 25.8333 39.2267 25.8746 39.158 25.9411C39.1565 25.9426 39.1546 25.9437 39.1535 25.9452C39.1513 25.9475 39.1494 25.9498 39.1475 25.952C39.0822 26.0204 39.0416 26.1128 39.0416 26.2149V26.2153V34.7517V34.7521C39.0416 34.8546 39.0825 34.9474 39.1483 35.0157C39.1498 35.0176 39.1516 35.0199 39.1535 35.0214C39.155 35.0233 39.1573 35.0251 39.1591 35.0266C39.2275 35.0924 39.3202 35.1333 39.4223 35.1333H44.9109C45.1216 35.1333 45.2916 34.962 45.2916 34.7517V33.3769C45.2916 33.1666 45.1216 32.9953 44.9109 32.9953H41.1786V31.5521H44.9109C45.1216 31.5521 45.2916 31.3812 45.2916 31.1705V29.7961C45.2916 29.5854 45.1216 29.4141 44.9109 29.4141H41.1786V27.9713H44.9109Z" fill="#00B900"/>
</svg>
