<svg width="173" height="179" viewBox="0 0 173 179" fill="none" xmlns="http://www.w3.org/2000/svg">
<g clip-path="url(#clip0_276_1508)">
<path d="M75.2 166.4C116.732 166.4 150.4 132.732 150.4 91.2C150.4 49.6682 116.732 16 75.2 16C33.6682 16 0 49.6682 0 91.2C0 132.732 33.6682 166.4 75.2 166.4Z" fill="#FFA83E"/>
<path d="M131.785 98.0577C135.604 66.8105 113.369 38.384 82.1212 34.5654C50.874 30.7469 22.4475 52.9823 18.6289 84.2295C14.8104 115.477 37.0458 143.903 68.293 147.722C99.5403 151.54 127.967 129.305 131.785 98.0577Z" fill="white"/>
<path d="M84.4811 130.818C106.368 125.697 119.96 103.804 114.839 81.9169C109.719 60.0301 87.825 46.4383 65.9382 51.5588C44.0514 56.6793 30.4596 78.573 35.5801 100.46C40.7005 122.347 62.5943 135.938 84.4811 130.818Z" fill="#FFA83E"/>
<path d="M103.2 91.2C103.2 106.7 90.7002 119.2 75.2002 119.2C59.7002 119.2 47.2002 106.7 47.2002 91.2C47.2002 75.7 59.7002 63.2 75.2002 63.2C90.6002 63.2 103.2 75.7 103.2 91.2Z" fill="white"/>
<path d="M88.0998 91.2C88.0998 98.3 82.2998 104.1 75.1998 104.1C68.0998 104.1 62.2998 98.3 62.2998 91.2C62.2998 84.1 68.0998 78.3 75.1998 78.3C82.2998 78.2 88.0998 84 88.0998 91.2Z" fill="#FFA83E"/>
<path d="M108.6 57.6C108.6 57.6 107.5 60.2 107.6 60.2C107.7 60.1 105.9 59.4 105.8 59.4C105.7 59.4 104.3 59.4 103.7 59.3C103.1 59.2 102.7 58.8 102.5 58.7C102.3 58.6 101.9 58.2 102.3 58.1C102.6 58 102.9 58.4 103.1 58.5C103.3 58.6 103.9 58.6 103.9 58.6C103.9 58.6 103.7 58.5 103.2 58.3C102.6 58.1 101.8 57.8 101.6 57.6C101.4 57.4 101.5 57.1 101.9 57.2C102.4 57.3 102.9 57.5 103 57.6C103.1 57.6 103.9 57.9 103.9 57.9C103.9 57.9 103.2 57.6 102.9 57.5C102.6 57.4 101.8 57.1 101.3 56.8C100.8 56.6 100.9 56.1 101.4 56.1C101.7 56.1 102.8 56.7 103 56.8C103.2 56.9 103.9 57.2 103.9 57.2C103.9 57.2 103 56.8 102.8 56.7C102.6 56.6 101.6 56.2 101.5 55.9C101.4 55.8 101.5 55.5 101.9 55.5C102.3 55.6 102.9 55.8 103.2 55.9C103.4 56 104.8 56.7 105.2 56.7C105.5 56.7 105.8 56.7 105.8 56.3L106.3 55.4C106.3 55.4 106.6 55.6 106.8 56.4C106.9 56.7 107.6 57.3 108.6 57.6Z" fill="#F88667"/>
<path d="M138.5 68.2C138.5 66 136.8 64.2 134.6 63.8C131 63.3 124.4 62.2 122.4 61.8C119.6 61.2 108.2 57.4 108.2 57.4L107 60.4C107 60.4 119.4 66.6 121.6 67.1C123.8 67.6 135.3 71.7 137.5 70.4C138.2 69.9 138.5 69.1 138.5 68.2Z" fill="#41C7D0"/>
<path d="M147.601 98L146.801 95.8H114.601L115.301 98H147.601Z" fill="#110239"/>
<path d="M151.4 109.5L150.7 107.3H118.3L119 109.5H151.4Z" fill="#110239"/>
<path d="M142.7 86.5L142 84.4H109.8L110.5 86.5H142.7Z" fill="#110239"/>
<path d="M155.3 121.1L154.5 118.9H122L122.7 121.1H155.3Z" fill="#110239"/>
<path d="M159.2 132.8L158.4 130.6H125.7L126.4 132.8H159.2Z" fill="#110239"/>
<path d="M163.1 144.7L162.4 142.4H129.5L130.2 144.7H163.1Z" fill="#110239"/>
<path d="M167.1 156.7L166.4 154.4H133.3L134 156.7H167.1Z" fill="#110239"/>
<path d="M170.8 173.9H171C172 173.9 172.7 172.9 172.4 171.9L142.2 81.3C142 80.7 141.4 80.3 140.8 80.3H138.7L169.5 172.9C169.6 173.5 170.2 173.9 170.8 173.9Z" fill="#110239"/>
<path d="M138 173.9H138.2C139.2 173.9 139.9 172.9 139.6 172L110.7 81.4C110.5 80.8 109.9 80.4 109.3 80.4C108.3 80.4 107.6 81.4 107.9 82.3L136.7 172.9C136.8 173.5 137.4 173.9 138 173.9Z" fill="#110239"/>
<path d="M138 54C137.9 54.1 137.9 54.1 137.8 54.2C137.2 54.8 136.5 55.5 135.8 56C135.3 56.3 134.6 56.5 134.2 56.8C134 56.9 133.9 57 133.7 57.1C133.9 58.4 134.5 61.7 134.4 63C134.4 63 138.5 62.7 140 61.1C140 61.1 138.3 56.6 138 54Z" fill="#F88667"/>
<path d="M135.801 60.8C136.101 59.6 136.701 58.5 137.701 57.7C138.001 57.4 138.301 57.2 138.701 57C138.401 55.9 138.201 54.9 138.101 54C138.001 54.1 138.001 54.1 137.901 54.2C137.301 54.8 136.601 55.5 135.901 56C135.401 56.3 134.701 56.5 134.301 56.8C134.101 56.9 134.001 57 133.801 57.1C134.001 58.4 134.601 61.7 134.501 63C134.501 63 135.201 62.9 136.101 62.8C135.701 62.2 135.601 61.5 135.801 60.8Z" fill="#E45940"/>
<path d="M135.7 126.7C135.7 126.7 135.6 130.8 135 131.3C134.4 131.9 126.3 132.1 125.6 131.4C124.9 130.7 125.3 129.4 127 128.9C128.9 128.4 129.8 128.9 130.9 128.4C132.1 127.9 131.8 126.1 131.8 126.1L135.7 126.7Z" fill="#110239"/>
<path d="M155.8 126.6C155.8 126.6 156.4 130.6 155.8 131.1C155.2 131.7 146.9 132.3 146.2 131.6C145.5 130.9 145.8 129.6 147.6 129.1C149.4 128.5 150.3 128.9 151.5 128.5C152.4 128.2 151.8 126.3 151.8 126.3L155.8 126.6Z" fill="#110239"/>
<path d="M149.8 103.8C150 92.5 148.7 84.8 148.1 81.2C146.8 81.3 145.4 81.4 144.1 82C141.6 83.1 139.1 84.2 136.7 85.3C138.7 89.5 143.1 103.1 143.7 105.9C144.4 109.4 151.8 127.5 151.8 127.5L156.3 126.9C156.1 124 149.8 104.8 149.8 103.8Z" fill="#D0D1DE"/>
<path d="M140.601 83.6C139.301 84.2 138.001 84.7 136.601 85.2C138.601 89.3 142.201 100.6 143.001 103.6C143.601 101.7 146.701 97.1 147.801 92.1C148.601 88.7 148.701 85.3 148.201 81.9C145.701 82 143.301 82.3 140.601 83.6Z" fill="#ABADC4"/>
<path d="M144 83C142.3 83.6 139.1 84.4 136.7 85.3C135 89.5 130.1 99.5 129.8 104C129.5 109 131.2 127.8 131.2 127.8H136.3C136.3 127.8 136.8 106.6 137.5 105.2C139.9 100.7 142.5 97.1 144 94.3C146.5 89.6 147.3 86.6 147.8 84.4C148 83.4 148.8 80.2 147.2 79.2C145.8 79.5 145.4 82.5 144 83Z" fill="#D0D1DE"/>
<path d="M134.8 86.3C134.8 86.3 139.1 88 143.3 87.6C146.4 87.3 148.1 87.2 149.9 86.3C149.9 86.3 147.9 71 145.7 66.2C143.4 61.4 139.7 60.5 139.7 60.5C139.7 60.5 136.8 62.2 134.4 62.2C134.4 62.2 134.5 71.6 134.6 75.4C134.8 79 134.8 86.3 134.8 86.3Z" fill="#41C7D0"/>
<path d="M134.601 73.9C134.601 73.5 134.601 73.1 134.601 72.6C134.601 72.5 134.601 72.5 134.601 72.4C134.601 72 134.601 71.5 134.601 71C134.601 70.9 134.601 70.8 134.601 70.8C134.601 70.3 134.601 69.7 134.601 69.2C134.801 69.2 135.001 69.2 135.201 69.2C136.701 68.9 138.001 68.1 139.301 67.3C139.501 67.2 139.701 67.1 140.001 67C140.301 69 139.401 71.5 139.001 73.1C137.901 77.5 137.301 83.1 138.301 87.4C136.401 87 135.001 86.5 135.001 86.5C135.001 86.5 135.001 79.2 134.901 75.4C134.901 75.1 134.901 74.7 134.901 74.3C134.601 74 134.601 73.9 134.601 73.9Z" fill="#00A5B0"/>
<path d="M140.101 50.2C140.101 50.2 138.401 46.6 136.001 46.7C133.701 46.8 132.201 47.2 131.901 48.1C131.601 49 131.101 51.5 130.501 52.4C129.901 53.3 128.601 54.5 128.701 54.9C128.701 55.3 130.101 55.5 130.101 55.6C130.201 55.8 130.901 58.8 131.401 59.1C131.901 59.4 136.301 57.7 137.001 56.3C137.701 55 140.301 52.5 140.101 50.2Z" fill="#F88667"/>
<path d="M135.401 50.5C135.201 50.5 134.901 50.7 134.701 50.7C134.401 50.8 134.001 50.8 133.701 50.8C133.001 50.9 132.301 51 131.601 50.8C130.601 50.5 130.901 49.5 130.501 48.8C130.301 48.5 129.801 48.5 129.601 48.1C129.401 47.7 129.301 47.2 129.301 46.8C129.301 45.7 130.301 45.6 131.201 45.4C132.101 45.2 132.201 44.6 132.701 43.9C133.801 42.1 135.401 44.6 136.701 44.4C137.301 44.3 138.001 43.9 138.601 44.3C139.101 44.6 139.501 45.1 139.801 45.6C140.201 46.1 140.501 45.9 141.101 46.1C141.501 46.3 141.901 46.6 142.201 47C142.801 47.7 143.301 48.8 143.101 49.8C142.901 50.6 142.301 51.1 142.201 51.9C142.201 52.6 142.201 53.4 141.901 54.1C141.401 55 140.301 55.1 139.601 55.7C138.901 56.3 137.901 56.7 137.001 56.5C136.901 55.9 137.001 54.8 137.501 54.5C137.701 54.4 138.001 54.4 138.401 54.1C139.001 53.6 138.701 52.2 137.401 52.4C136.701 52.5 136.301 54.5 135.501 54.2C134.901 54 135.601 52.9 135.801 52.6C136.001 52.1 136.101 51 135.701 50.6C135.501 50.5 135.501 50.5 135.401 50.5Z" fill="#110239"/>
<path d="M115.9 86.4C115.7 86.4 115.4 86.3 115.3 86.4C114.9 86.5 114.3 86.3 114 86.2C113.4 86 112.4 85.6 111.8 85.7C111.4 85.8 109.2 86.3 109.7 87.2C109.8 87.3 110 87.5 110.1 87.5C110.3 87.4 111 87.2 111 87.2C111 87.2 110.5 87.4 110.4 87.5C110.3 87.6 110.1 87.6 110.1 87.7C110 87.9 110.2 88.3 110.4 88.4C110.6 88.5 110.7 88.3 110.9 88.2C110.7 88.3 110.4 88.4 110.6 88.9C110.8 89.4 111 89.1 111.2 89C111.3 89 111.4 88.9 111.4 88.9C111.3 88.9 111 89.1 110.9 89.2C110.7 89.4 111.2 90 111.6 90C111.9 90 112.5 89.6 112.6 89.6C112.8 89.6 113 89.6 113.1 89.7C113.6 89.7 114.1 89.6 114.6 89.4C114.8 89.3 115.2 89.1 115.4 89C115.9 88.7 116.5 88.3 116.6 88.2C116.4 87.3 115.9 87.1 115.9 86.4Z" fill="#F88667"/>
<path d="M116.7 89.2L114.9 85.6C114.9 85.6 123.8 79.9 127.1 76.6C130.4 73.3 133.9 66.6 136.4 66.2C138.9 65.8 141.4 67.2 140 70.6C138.6 74.1 131.3 78.7 129.8 80.2C128.3 81.7 118.2 88.4 116.7 89.2Z" fill="#41C7D0"/>
<path d="M141.5 4.8C139.9 4.1 134.8 1.5 130.7 11.1C126.8 20.3 122.7 32.7 122.7 32.7C122.7 32.7 132.8 24.4 140 17.4C147.5 10.2 143 5.7 141.5 4.8Z" fill="#FFA83E"/>
<path d="M132.8 12.2L123.1 22.2C120.2 25.2 117.5 28.5 115.2 32L75.4004 91.2L120.4 42.5C125.5 37 129.6 30.7 132.7 23.9L136.5 15.5C135.1 14.7 133.8 13.5 132.8 12.2Z" fill="#110239"/>
<path d="M121.1 33.5C121.1 33.5 114.6 15.2 120.7 3.39999C126.8 -8.40001 134.8 14.1 134.8 14.1L121.1 33.5Z" fill="#FFA83E"/>
<path d="M121 33.4C121 33.4 140.4 33.4 149.4 23.6C158.4 13.8 134.6 13.9 134.6 13.9L121 33.4Z" fill="#FFA83E"/>
<path d="M106.6 57.6C106.5 57.5 106.3 57.9 106.2 57.9V57.5C106.1 57.1 104.6 57 104.3 56.8C103.3 56.3 103.7 55.6 104.2 55.8C104.5 55.9 105.2 56.1 105.5 56.2C105.8 56.3 106.3 56.3 106.5 56.3C106.8 56.4 107.5 57 107.8 57.2C108.2 57.6 107.1 57.9 106.6 57.6Z" fill="#F88667"/>
<path d="M36.5001 115.2C36.5001 115.2 28.5001 117.2 22.5001 121.6C16.5001 126 10.3001 139.8 9.10011 149.5C7.90011 159.2 5.40011 166.7 9.10011 171.7C12.8001 176.6 24.7001 177.6 34.9001 178.6C45.1001 179.6 59.2001 177.2 62.1001 173.6C64.9001 170 64.7001 143.1 59.4001 133C53.9001 122.8 44.2001 114.9 36.5001 115.2Z" fill="#41C7D0"/>
<path d="M50.0999 173.1C47.9999 172.4 45.8999 171.7 44.1999 170.3C40.5999 167.3 38.2999 166.4 33.7999 166.5C29.6999 166.5 25.6999 166.5 22.0999 164.2C18.8999 162.1 17.1999 157.4 17.8999 153.7C18.4999 151 19.2999 148.9 20.8999 146.7C23.1999 143.6 23.6999 141.4 22.7999 137.5C21.7999 132.9 21.6999 128.9 22.9999 124.3C23.6999 121.9 25.3999 120.2 27.1999 118.7C25.5999 119.5 23.8999 120.5 22.2999 121.7C16.2999 126.1 10.0999 139.9 8.89992 149.6C7.69992 159.3 5.19992 166.8 8.89992 171.8C12.5999 176.7 24.4999 177.7 34.6999 178.7C44.8999 179.7 58.9999 177.3 61.8999 173.7C62.4999 173 62.8999 171.4 63.1999 169.3C59.6999 172.7 55.0999 174.7 50.0999 173.1Z" fill="#00A5B0"/>
<path d="M35.4003 117.2C35.4003 117.2 26.8003 115.1 25.7003 108.6C24.5003 102.1 27.9003 99.9 30.6003 101.4C33.2003 102.9 33.6003 102.1 35.5003 101C37.3003 99.9 40.0003 101.7 41.3003 103.6C42.6003 105.5 42.9003 103.3 46.0003 103C49.2003 102.8 50.2003 105.7 48.6003 109.5C46.9003 113.2 45.3003 117.3 35.4003 117.2Z" fill="#41C7D0"/>
<path d="M44.6998 113.5C42.4998 114.1 43.7998 111.2 43.3998 110.2C42.7998 110.2 42.5998 111.2 42.3998 111.6C41.9998 112.5 40.9998 113.1 39.9998 113.1C38.5998 113.1 38.3998 111.6 37.7998 110.6C37.5998 110.2 37.3998 110.2 37.2998 110.7C37.0998 111.2 37.2998 111.8 36.7998 112.2C35.8998 112.9 34.3998 112.1 33.6998 111.5C32.8998 110.8 32.5998 109.8 31.7998 109.1C31.6998 109.3 31.5998 109.5 31.4998 109.7C31.2998 110.6 31.3998 112.4 29.7998 112.1C28.4998 111.8 27.5998 109.7 27.1998 108.6C26.6998 107.4 26.2998 105.9 26.2998 104.6C26.2998 104 26.2998 103.5 26.3998 102.9C26.3998 102.6 26.5998 101.9 26.6998 101.6C25.4998 102.7 24.6998 105 25.3998 108.6C26.3998 114.1 32.6998 116.5 34.5998 117C34.8998 117.1 35.2998 117.2 35.5998 117.2C43.3998 117.2 45.7998 114.5 47.3998 111.4C47.5998 111.4 45.4998 113.3 44.6998 113.5Z" fill="#00A5B0"/>
<path d="M38.9999 136.5C43.1999 136.9 46.9999 138.8 46.8999 143L39.8999 142.9C39.8999 141.3 38.2999 140.9 37.1999 140.9C36.5999 140.9 34.4999 140.9 34.3999 142.1C34.2999 145 47.2999 142.2 47.1999 150.4C47.0999 155.3 43.1999 157.1 38.4999 157.3L38.6999 162.5L34.3999 162.4L34.7999 157.2C30.3999 156.7 26.3999 154.5 26.4999 150.1L33.4999 150.2V150.4C33.4999 152.3 35.6999 152.8 36.7999 152.8C37.8999 152.8 39.9999 152.8 39.9999 151.4C40.0999 148.4 27.0999 150.9 27.1999 143C27.2999 138.4 30.7999 136.8 35.1999 136.5L34.9999 131.3L39.2999 131.4L38.9999 136.5Z" fill="white"/>
<path d="M29.0998 114.1L28.2998 118.2C28.2998 118.2 30.4998 120.3 36.4998 120.3C42.4998 120.3 45.6998 118.2 45.6998 118.2L45.2998 114.5C45.2998 114.5 37.0998 116.5 29.0998 114.1Z" fill="#110239"/>
</g>
<defs>
<clipPath id="clip0_276_1508">
<rect width="172.5" height="178.8" fill="white"/>
</clipPath>
</defs>
</svg>
