<svg width="50" height="50" viewBox="0 0 50 50" fill="none" xmlns="http://www.w3.org/2000/svg">
<path fill-rule="evenodd" clip-rule="evenodd" d="M3.125 43.75C3.125 43.75 0 43.75 0 40.625C0 37.5 3.125 28.125 18.75 28.125C34.375 28.125 37.5 37.5 37.5 40.625C37.5 43.75 34.375 43.75 34.375 43.75H3.125ZM18.75 25C21.2364 25 23.621 24.0123 25.3791 22.2541C27.1373 20.496 28.125 18.1114 28.125 15.625C28.125 13.1386 27.1373 10.754 25.3791 8.99587C23.621 7.23772 21.2364 6.25 18.75 6.25C16.2636 6.25 13.879 7.23772 12.1209 8.99587C10.3627 10.754 9.375 13.1386 9.375 15.625C9.375 18.1114 10.3627 20.496 12.1209 22.2541C13.879 24.0123 16.2636 25 18.75 25ZM40.625 29.6875C40.625 29.2731 40.7896 28.8757 41.0826 28.5826C41.3757 28.2896 41.7731 28.125 42.1875 28.125H48.4375C48.8519 28.125 49.2493 28.2896 49.5424 28.5826C49.8354 28.8757 50 29.2731 50 29.6875C50 30.1019 49.8354 30.4993 49.5424 30.7924C49.2493 31.0854 48.8519 31.25 48.4375 31.25H42.1875C41.7731 31.25 41.3757 31.0854 41.0826 30.7924C40.7896 30.4993 40.625 30.1019 40.625 29.6875ZM34.375 20.3125C34.375 19.8981 34.5396 19.5007 34.8326 19.2076C35.1257 18.9146 35.5231 18.75 35.9375 18.75H48.4375C48.8519 18.75 49.2493 18.9146 49.5424 19.2076C49.8354 19.5007 50 19.8981 50 20.3125C50 20.7269 49.8354 21.1243 49.5424 21.4174C49.2493 21.7104 48.8519 21.875 48.4375 21.875H35.9375C35.5231 21.875 35.1257 21.7104 34.8326 21.4174C34.5396 21.1243 34.375 20.7269 34.375 20.3125ZM34.375 10.9375C34.375 10.5231 34.5396 10.1257 34.8326 9.83265C35.1257 9.53962 35.5231 9.375 35.9375 9.375H48.4375C48.8519 9.375 49.2493 9.53962 49.5424 9.83265C49.8354 10.1257 50 10.5231 50 10.9375C50 11.3519 49.8354 11.7493 49.5424 12.0424C49.2493 12.3354 48.8519 12.5 48.4375 12.5H35.9375C35.5231 12.5 35.1257 12.3354 34.8326 12.0424C34.5396 11.7493 34.375 11.3519 34.375 10.9375ZM40.625 39.0625C40.625 38.6481 40.7896 38.2507 41.0826 37.9576C41.3757 37.6646 41.7731 37.5 42.1875 37.5H48.4375C48.8519 37.5 49.2493 37.6646 49.5424 37.9576C49.8354 38.2507 50 38.6481 50 39.0625C50 39.4769 49.8354 39.8743 49.5424 40.1674C49.2493 40.4604 48.8519 40.625 48.4375 40.625H42.1875C41.7731 40.625 41.3757 40.4604 41.0826 40.1674C40.7896 39.8743 40.625 39.4769 40.625 39.0625Z" fill="#FF6500"/>
</svg>
