<svg width="255" height="245" viewBox="0 0 255 245" fill="none" xmlns="http://www.w3.org/2000/svg">
<path d="M53.5152 92.8914C50.3702 70.3398 33.4948 62.9759 38.1739 48.5552C46.6116 22.2449 110.355 22.0915 120.71 22.0915C154.461 22.0148 209.152 21.8614 231.627 60.9049C241.983 78.9309 226.872 89.593 233.468 135.463C237.38 162.694 243.057 165.993 240.218 177.959C231.781 214.241 170.109 228.355 161.364 230.349C95.5503 245.384 12.4006 224.443 6.11068 190.308C0.434412 159.703 59.8051 137.611 53.5152 92.8914Z" fill="#E3EEFF"/>
<path d="M23.3697 161.237C19.6878 153.259 1.04815 112.682 18.4605 87.9055C28.509 73.5614 41.2423 78.0871 65.865 62.0554C99.4624 40.2708 94.7833 19.6368 118.869 7.21041C150.932 -9.35815 204.78 3.75863 220.505 33.0604C235.693 61.4418 204.55 84.8372 219.278 126.719C230.4 158.168 253.565 160.546 253.182 180.95C252.645 210.329 203.706 239.784 159.523 243.773C99.309 249.296 44.6941 207.644 23.3697 161.237Z" fill="#C4DBFB"/>
<path d="M132.676 3.45178C129.224 3.45178 126.463 6.21321 126.463 9.66499V20.4806H138.813V9.66499C138.889 6.21321 136.128 3.45178 132.676 3.45178ZM132.676 11.9662C131.219 11.9662 130.068 10.8156 130.068 9.35817C130.068 7.90075 131.219 6.75015 132.676 6.75015C134.134 6.75015 135.284 7.90075 135.284 9.35817C135.284 10.8156 134.134 11.9662 132.676 11.9662Z" fill="#3A81F3"/>
<path d="M216.9 16.8754H48.4526C45.1543 16.8754 42.3928 19.2533 42.3928 22.1681V238.403C42.3928 241.318 45.0775 243.696 48.4526 243.696H216.9C220.275 243.696 222.96 241.318 222.96 238.403V22.1681C222.96 19.2533 220.275 16.8754 216.9 16.8754Z" fill="#403A7A"/>
<path d="M210.61 24.9296H54.7426C51.6744 24.9296 49.1431 27.154 49.1431 29.9155V233.034C49.1431 235.795 51.6744 238.02 54.7426 238.02H210.61C213.678 238.02 216.209 235.795 216.209 233.034V29.9155C216.209 27.154 213.678 24.9296 210.61 24.9296Z" fill="white"/>
<path d="M172.64 20.0204H92.7123C91.2548 20.0204 90.1042 18.8698 90.1042 17.4123C90.1042 15.9549 91.2548 14.8043 92.7123 14.8043H172.64C174.098 14.8043 175.248 15.9549 175.248 17.4123C175.248 18.8698 174.098 20.0204 172.64 20.0204Z" fill="#3A81F3"/>
<path d="M165.2 17.7191V27.2307C165.2 27.691 164.816 28.0745 164.356 28.0745H137.892C137.509 28.0745 137.202 28.3813 137.048 28.7648C136.511 30.7592 134.747 32.2166 132.599 32.2166C130.452 32.2166 128.687 30.7592 128.15 28.7648C128.074 28.3813 127.767 28.0745 127.307 28.0745H100.996C100.536 28.0745 100.153 27.691 100.153 27.2307V17.7191C100.153 17.2589 99.7691 16.8754 99.3089 16.8754C98.8486 16.8754 98.4651 17.2589 98.4651 17.7191V28.0745V28.7648C98.4651 29.2251 98.8486 29.6086 99.3089 29.6086H100.153H126.309C126.693 29.6086 127 29.8387 127.077 30.1456C127.153 30.299 127.23 30.5291 127.307 30.6825C128.304 32.6769 130.298 34.0576 132.676 34.0576C135.054 34.0576 137.048 32.6769 138.046 30.6825C138.122 30.5291 138.199 30.3757 138.276 30.1456C138.429 29.8387 138.736 29.6086 139.043 29.6086H165.2H166.043C166.504 29.6086 166.887 29.2251 166.887 28.7648V28.0745V17.7191C166.887 17.2589 166.504 16.8754 166.043 16.8754C165.583 16.8754 165.2 17.2589 165.2 17.7191Z" fill="#3A81F3"/>
<path d="M95.9822 98.9788C98.2196 93.5775 95.6547 87.3852 90.2534 85.1478C84.8521 82.9105 78.6597 85.4754 76.4224 90.8767C74.1851 96.278 76.75 102.47 82.1513 104.708C87.5526 106.945 93.7449 104.38 95.9822 98.9788Z" fill="#F9C067"/>
<path d="M90.5643 89.1327C88.7233 91.7407 86.8057 94.3487 84.9647 96.9567C83.6607 95.7294 82.3567 94.5021 81.0527 93.2748C80.2856 94.272 79.5186 95.2692 78.6748 96.2664C80.8993 97.7238 83.0471 99.1812 85.2715 100.639C88.1097 97.6471 90.8711 94.5788 93.7092 91.5873C92.7121 90.7435 91.6382 89.9765 90.5643 89.1327Z" fill="white"/>
<path d="M86.1922 138.455C92.0384 138.455 96.7776 133.716 96.7776 127.869C96.7776 122.023 92.0384 117.284 86.1922 117.284C80.346 117.284 75.6067 122.023 75.6067 127.869C75.6067 133.716 80.346 138.455 86.1922 138.455Z" fill="#F9C067"/>
<path d="M90.5645 122.116C88.7236 124.724 86.8059 127.332 84.965 129.94C83.661 128.713 82.357 127.486 81.0529 126.259C80.2859 127.256 79.5188 128.253 78.675 129.25C80.8995 130.708 83.0473 132.165 85.2718 133.622C88.1099 130.631 90.8714 127.563 93.7095 124.571C92.7123 123.804 91.6384 122.96 90.5645 122.116Z" fill="white"/>
<path d="M86.1922 177.345C92.0384 177.345 96.7776 172.606 96.7776 166.76C96.7776 160.913 92.0384 156.174 86.1922 156.174C80.346 156.174 75.6067 160.913 75.6067 166.76C75.6067 172.606 80.346 177.345 86.1922 177.345Z" fill="#F9C067"/>
<path d="M90.5645 161.007C88.7236 163.615 86.8059 166.223 84.965 168.831C83.661 167.603 82.357 166.376 81.0529 165.149C80.2859 166.146 79.5188 167.143 78.675 168.14C80.8995 169.598 83.0473 171.055 85.2718 172.513C88.1099 169.521 90.8714 166.453 93.7095 163.461C92.7123 162.617 91.6384 161.774 90.5645 161.007Z" fill="white"/>
<path d="M86.1922 211.403C92.0384 211.403 96.7776 206.663 96.7776 200.817C96.7776 194.971 92.0384 190.232 86.1922 190.232C80.346 190.232 75.6067 194.971 75.6067 200.817C75.6067 206.663 80.346 211.403 86.1922 211.403Z" fill="#F9C067"/>
<path d="M90.5645 195.064C88.7236 197.672 86.8059 200.28 84.965 202.888C83.661 201.661 82.357 200.434 81.0529 199.206C80.2859 200.204 79.5188 201.201 78.675 202.198C80.8995 203.655 83.0473 205.113 85.2718 206.57C88.1099 203.579 90.8714 200.51 93.7095 197.519C92.7123 196.752 91.6384 195.908 90.5645 195.064Z" fill="white"/>
<path d="M181.001 94.8857H110.738C109.127 94.8857 107.747 93.5817 107.747 91.8941C107.747 90.2833 109.051 88.9026 110.738 88.9026H181.001C182.612 88.9026 183.993 90.2066 183.993 91.8941C183.993 93.5817 182.689 94.8857 181.001 94.8857Z" fill="#3A81F3"/>
<path d="M181.001 131.091H110.738C109.127 131.091 107.747 129.787 107.747 128.1C107.747 126.489 109.051 125.108 110.738 125.108H181.001C182.612 125.108 183.993 126.412 183.993 128.1C183.993 129.787 182.689 131.091 181.001 131.091Z" fill="#3A81F3"/>
<path d="M181.001 167.373H110.738C109.127 167.373 107.747 166.069 107.747 164.382C107.747 162.771 109.051 161.39 110.738 161.39H181.001C182.612 161.39 183.993 162.694 183.993 164.382C183.993 165.993 182.689 167.373 181.001 167.373Z" fill="#3A81F3"/>
<path d="M181.001 203.579H110.738C109.127 203.579 107.747 202.275 107.747 200.587C107.747 198.976 109.051 197.595 110.738 197.595H181.001C182.612 197.595 183.993 198.899 183.993 200.587C183.993 202.275 182.689 203.579 181.001 203.579Z" fill="#3A81F3"/>
<path d="M163.972 99.6415H108.897C108.59 99.6415 108.283 99.4114 108.283 99.0278C108.283 98.721 108.514 98.4142 108.897 98.4142H163.972C164.279 98.4142 164.586 98.6443 164.586 99.0278C164.586 99.3347 164.356 99.6415 163.972 99.6415Z" fill="#76AAFF"/>
<path d="M131.219 103.093H108.974C108.667 103.093 108.36 102.863 108.36 102.48C108.36 102.173 108.59 101.866 108.974 101.866H131.219C131.525 101.866 131.832 102.096 131.832 102.48C131.832 102.786 131.525 103.093 131.219 103.093Z" fill="#76AAFF"/>
<path d="M141.651 103.093H135.054C134.747 103.093 134.44 102.863 134.44 102.48C134.44 102.173 134.671 101.866 135.054 101.866H141.651C141.958 101.866 142.264 102.096 142.264 102.48C142.264 102.786 141.958 103.093 141.651 103.093Z" fill="#76AAFF"/>
<path d="M163.972 135.156H108.897C108.59 135.156 108.283 134.926 108.283 134.543C108.283 134.236 108.514 133.929 108.897 133.929H163.972C164.279 133.929 164.586 134.159 164.586 134.543C164.586 134.85 164.356 135.156 163.972 135.156Z" fill="#76AAFF"/>
<path d="M131.219 138.608H108.974C108.667 138.608 108.36 138.378 108.36 137.995C108.36 137.688 108.59 137.381 108.974 137.381H131.219C131.525 137.381 131.832 137.611 131.832 137.995C131.832 138.301 131.525 138.608 131.219 138.608Z" fill="#76AAFF"/>
<path d="M141.651 138.608H135.054C134.747 138.608 134.44 138.378 134.44 137.995C134.44 137.688 134.671 137.381 135.054 137.381H141.651C141.958 137.381 142.264 137.611 142.264 137.995C142.264 138.301 141.958 138.608 141.651 138.608Z" fill="#76AAFF"/>
<path d="M164.126 171.592H109.051C108.744 171.592 108.437 171.362 108.437 170.978C108.437 170.672 108.667 170.365 109.051 170.365H164.126C164.433 170.365 164.739 170.595 164.739 170.978C164.739 171.285 164.433 171.592 164.126 171.592Z" fill="#76AAFF"/>
<path d="M131.372 175.044H109.127C108.82 175.044 108.514 174.814 108.514 174.43C108.514 174.123 108.744 173.817 109.127 173.817H131.372C131.679 173.817 131.986 174.047 131.986 174.43C131.986 174.737 131.679 175.044 131.372 175.044Z" fill="#76AAFF"/>
<path d="M141.804 175.044H135.207C134.901 175.044 134.594 174.814 134.594 174.43C134.594 174.123 134.824 173.817 135.207 173.817H141.804C142.111 173.817 142.418 174.047 142.418 174.43C142.418 174.737 142.111 175.044 141.804 175.044Z" fill="#76AAFF"/>
<path d="M163.972 207.03H108.897C108.59 207.03 108.283 206.8 108.283 206.417C108.283 206.11 108.514 205.803 108.897 205.803H163.972C164.279 205.803 164.586 206.033 164.586 206.417C164.586 206.8 164.356 207.03 163.972 207.03Z" fill="#76AAFF"/>
<path d="M131.219 210.482H108.974C108.667 210.482 108.36 210.252 108.36 209.869C108.36 209.562 108.59 209.255 108.974 209.255H131.219C131.525 209.255 131.832 209.485 131.832 209.869C131.832 210.252 131.525 210.482 131.219 210.482Z" fill="#76AAFF"/>
<path d="M141.651 210.482H135.054C134.747 210.482 134.44 210.252 134.44 209.869C134.44 209.562 134.671 209.255 135.054 209.255H141.651C141.958 209.255 142.264 209.485 142.264 209.869C142.264 210.252 141.958 210.482 141.651 210.482Z" fill="#76AAFF"/>
<path d="M216.209 201.354L216.516 233.111C216.516 235.565 214.215 237.943 211.3 237.943L168.575 238.02C183.993 229.735 208.232 217.999 216.209 201.354Z" fill="#C5CBEB"/>
<path d="M216.209 201.354C211.454 221.374 190.82 236.946 168.575 238.02C177.933 230.809 185.067 218.153 185.603 205.036C185.757 201.891 188.672 199.59 191.74 200.28C200.638 202.351 209.382 204.039 216.209 201.354Z" fill="#D8DCF5"/>
<path d="M111.735 63.8197H115.647V73.408H121.784V76.5529H111.735V63.8197Z" fill="#8DB4F3"/>
<path d="M123.778 63.8197H127.69V76.5529H123.778V63.8197Z" fill="#8DB4F3"/>
<path d="M129.915 72.334L133.673 72.1039C133.75 72.7176 133.904 73.1778 134.134 73.4846C134.517 74.0216 135.131 74.2517 135.898 74.2517C136.435 74.2517 136.895 74.0983 137.202 73.8682C137.509 73.6381 137.662 73.3312 137.662 72.9477C137.662 72.6409 137.509 72.334 137.202 72.0272C136.895 71.7971 136.205 71.4903 135.208 71.2602C133.443 70.8766 132.216 70.3397 131.526 69.726C130.759 69.1124 130.375 68.2686 130.375 67.2714C130.375 66.5811 130.528 65.9674 130.912 65.4305C131.296 64.8168 131.832 64.3566 132.6 64.0498C133.367 63.7429 134.44 63.5128 135.744 63.5128C137.355 63.5128 138.583 63.8196 139.503 64.4333C140.347 65.0469 140.884 65.9674 141.037 67.3481L137.355 67.5783C137.279 67.0413 137.048 66.5811 136.742 66.351C136.435 66.1208 135.975 65.9674 135.438 65.9674C134.977 65.9674 134.671 66.0441 134.44 66.2742C134.21 66.5044 134.057 66.7345 134.057 66.9646C134.057 67.1947 134.134 67.3481 134.364 67.5015C134.517 67.655 134.977 67.8084 135.668 67.9618C137.355 68.3453 138.659 68.7288 139.35 69.1124C140.117 69.4959 140.654 69.9562 140.961 70.4931C141.267 71.03 141.497 71.7204 141.497 72.4108C141.497 73.2545 141.267 73.9449 140.807 74.6352C140.347 75.3256 139.733 75.8625 138.889 76.1694C138.046 76.5529 137.048 76.7063 135.821 76.7063C133.673 76.7063 132.139 76.3228 131.296 75.479C130.452 74.6352 129.992 73.5614 129.915 72.334Z" fill="#8DB4F3"/>
<path d="M142.495 63.7429H154.461V66.8879H150.472V76.4762H146.56V66.8879H142.571L142.495 63.7429Z" fill="#8DB4F3"/>
<path d="M248.719 133.761C249.601 128.324 245.909 123.202 240.473 122.32C235.037 121.438 229.915 125.13 229.032 130.566C228.15 136.002 231.842 141.124 237.278 142.006C242.714 142.889 247.836 139.197 248.719 133.761Z" fill="#C4DBFB"/>
<path d="M25.0573 69.1125C30.5646 69.1125 35.0291 64.6479 35.0291 59.1406C35.0291 53.6334 30.5646 49.1688 25.0573 49.1688C19.55 49.1688 15.0854 53.6334 15.0854 59.1406C15.0854 64.6479 19.55 69.1125 25.0573 69.1125Z" fill="#C4DBFB"/>
<path d="M37.7154 37.5011C38.4163 34.5327 36.5781 31.558 33.6097 30.8571C30.6412 30.1562 27.6666 31.9944 26.9657 34.9628C26.2648 37.9312 28.1029 40.9059 31.0714 41.6068C34.0398 42.3077 37.0144 40.4696 37.7154 37.5011Z" fill="#C4DBFB"/>
<path d="M31.1938 44.1061C34.2439 44.1061 36.7166 41.6335 36.7166 38.5833C36.7166 35.5331 34.2439 33.0604 31.1938 33.0604C28.1436 33.0604 25.6709 35.5331 25.6709 38.5833C25.6709 41.6335 28.1436 44.1061 31.1938 44.1061Z" fill="#C4DBFB"/>
<path d="M33.495 204.959C36.5452 204.959 39.0179 202.487 39.0179 199.436C39.0179 196.386 36.5452 193.914 33.495 193.914C30.4448 193.914 27.9722 196.386 27.9722 199.436C27.9722 202.487 30.4448 204.959 33.495 204.959Z" fill="#C4DBFB"/>
<path d="M253.16 110.605C253.861 107.636 252.023 104.661 249.055 103.961C246.086 103.26 243.112 105.098 242.411 108.066C241.71 111.035 243.548 114.009 246.516 114.71C249.485 115.411 252.46 113.573 253.16 110.605Z" fill="#C4DBFB"/>
<path d="M27.2818 169.061L29.3529 166.99C29.8131 166.53 29.8131 165.762 29.3529 165.302C28.8926 164.842 28.1256 164.842 27.6653 165.302L25.5943 167.373L23.5232 165.302C23.063 164.842 22.2959 164.842 21.8357 165.302C21.3754 165.762 21.3754 166.53 21.8357 166.99L23.9067 169.061L21.8357 171.132C21.3754 171.592 21.3754 172.359 21.8357 172.819C22.0658 173.05 22.3726 173.203 22.6794 173.203C22.9863 173.203 23.2931 173.05 23.5232 172.819L25.5943 170.748L27.6653 172.819C27.8955 173.05 28.2023 173.203 28.5091 173.203C28.8159 173.203 29.1228 173.05 29.3529 172.819C29.8131 172.359 29.8131 171.592 29.3529 171.132L27.2818 169.061Z" fill="#3A81F3"/>
<path d="M241.676 156.481L243.747 154.41C244.207 153.95 244.207 153.183 243.747 152.722C243.287 152.262 242.52 152.262 242.059 152.722L239.988 154.793L237.917 152.722C237.457 152.262 236.69 152.262 236.23 152.722C235.769 153.183 235.769 153.95 236.23 154.41L238.301 156.481L236.23 158.552C235.769 159.012 235.769 159.779 236.23 160.24C236.46 160.47 236.767 160.623 237.073 160.623C237.38 160.623 237.687 160.47 237.917 160.24L239.988 158.169L242.059 160.24C242.29 160.47 242.596 160.623 242.903 160.623C243.21 160.623 243.517 160.47 243.747 160.24C244.207 159.779 244.207 159.012 243.747 158.552L241.676 156.481Z" fill="#3A81F3"/>
<path d="M197.493 7.44052L199.641 5.44615C200.101 4.98592 200.178 4.21885 199.717 3.75862C199.257 3.29838 198.49 3.22167 198.03 3.68191L195.882 5.67627L193.888 3.5285C193.428 3.06826 192.66 2.99155 192.2 3.45179C191.74 3.91203 191.663 4.67909 192.124 5.13933L194.118 7.28711L191.97 9.28147C191.51 9.74171 191.433 10.5088 191.893 10.969C192.124 11.1991 192.43 11.3525 192.737 11.3525C193.044 11.3525 193.351 11.2758 193.581 11.0457L195.729 9.05135L197.723 11.1991C197.953 11.4292 198.26 11.5827 198.567 11.5827C198.874 11.5827 199.181 11.506 199.411 11.2758C199.871 10.8156 199.948 10.0485 199.487 9.5883L197.493 7.44052Z" fill="#3A81F3"/>
<path d="M31.1937 101.559L33.2647 99.4882C33.725 99.0279 33.725 98.2609 33.2647 97.8006C32.8045 97.3404 32.0374 97.3404 31.5772 97.8006L29.5061 99.8717L27.4351 97.8006C26.9748 97.3404 26.2078 97.3404 25.7475 97.8006C25.2873 98.2609 25.2873 99.0279 25.7475 99.4882L27.8186 101.559L25.7475 103.63C25.2873 104.091 25.2873 104.858 25.7475 105.318C25.9776 105.548 26.2845 105.701 26.5913 105.701C26.8981 105.701 27.2049 105.548 27.4351 105.318L29.5061 103.247L31.5772 105.318C31.8073 105.548 32.1141 105.701 32.421 105.701C32.7278 105.701 33.0346 105.548 33.2647 105.318C33.725 104.858 33.725 104.091 33.2647 103.63L31.1937 101.559Z" fill="#3A81F3"/>
<path d="M8.6421 158.705C8.87222 159.012 8.94892 159.473 8.79551 159.856C8.6421 160.393 8.25856 160.777 7.72162 160.93L2.659 162.387C2.12206 162.541 1.58511 162.387 1.20158 162.004C0.818051 161.62 0.664638 161.083 0.741345 160.546L1.96865 155.407C2.12206 154.87 2.50559 154.487 3.04253 154.333C3.57948 154.18 4.11642 154.333 4.49996 154.717L8.33527 158.399C8.48869 158.475 8.56539 158.552 8.6421 158.705ZM1.96865 161.16C2.04535 161.16 2.04535 161.16 1.96865 161.16C2.04535 161.237 2.19877 161.313 2.35218 161.313L7.4148 159.856C7.56821 159.779 7.64491 159.703 7.64491 159.626C7.64491 159.549 7.64492 159.473 7.56821 159.319L3.73289 155.637C3.57948 155.484 3.50277 155.561 3.42607 155.561C3.34936 155.561 3.27265 155.637 3.19595 155.791L1.96865 160.93C1.89194 161.007 1.96865 161.083 1.96865 161.16Z" fill="#F9C067"/>
<path d="M79.0586 6.98024C79.2887 7.28707 79.3654 7.74731 79.212 8.13084C79.0586 8.66778 78.6751 9.05131 78.1381 9.20473L73.0755 10.6621C72.5386 10.8156 72.0016 10.6621 71.6181 10.2786C71.2346 9.89508 71.0811 9.35814 71.1578 8.82119L72.3851 3.68187C72.5386 3.14493 72.9221 2.7614 73.459 2.60798C73.996 2.45457 74.5329 2.60798 74.9165 2.99151L78.7518 6.67342C78.9052 6.75012 78.9819 6.82683 79.0586 6.98024ZM72.4619 9.43485C72.5386 9.51155 72.692 9.58826 72.8454 9.58826L77.908 8.13084C78.0614 8.05413 78.1381 7.97743 78.1381 7.90072C78.1381 7.82401 78.1381 7.74731 78.0614 7.59389L74.2261 3.91199C74.0727 3.75858 73.996 3.83528 73.9193 3.83528C73.8426 3.83528 73.7659 3.91199 73.6892 4.0654L72.4619 9.20473C72.3852 9.28143 72.3852 9.35814 72.4619 9.43485Z" fill="#F9C067"/>
<path d="M241.446 214.317C241.139 214.548 240.756 214.701 240.372 214.701C239.835 214.624 239.375 214.317 239.145 213.857L236.92 209.101C236.69 208.641 236.767 208.028 237.074 207.567C237.38 207.107 237.917 206.877 238.454 206.954L243.747 207.414C244.284 207.491 244.744 207.797 244.974 208.258C245.204 208.718 245.128 209.332 244.821 209.792L241.829 214.164C241.599 214.164 241.523 214.241 241.446 214.317ZM237.994 208.181C237.917 208.181 237.917 208.181 237.994 208.181C237.917 208.258 237.841 208.411 237.917 208.564L240.142 213.32C240.219 213.474 240.372 213.474 240.372 213.474C240.449 213.474 240.602 213.474 240.679 213.32L243.67 208.948C243.747 208.795 243.747 208.641 243.67 208.641C243.67 208.564 243.594 208.488 243.44 208.488L238.147 208.028C238.071 208.104 237.994 208.104 237.994 208.181Z" fill="#F9C067"/>
<path d="M241.216 80.2348C241.062 80.6183 240.832 80.9252 240.449 81.1553C239.988 81.3854 239.375 81.3854 238.914 81.0786L234.465 78.2404C234.005 77.9336 233.775 77.4734 233.775 76.8597C233.775 76.3228 234.082 75.8625 234.619 75.5557L239.298 73.1778C239.758 72.9477 240.372 72.9477 240.832 73.2545C241.292 73.5614 241.522 74.0216 241.522 74.6352L241.292 79.928C241.292 80.0047 241.292 80.1581 241.216 80.2348ZM235.079 76.8597V76.9364C235.079 77.0131 235.079 77.1666 235.233 77.2433L239.682 80.0814C239.835 80.1581 239.988 80.1581 239.988 80.0814C240.065 80.0814 240.142 80.0047 240.142 79.7746L240.372 74.4818C240.372 74.3284 240.295 74.2517 240.218 74.175C240.142 74.175 240.065 74.0983 239.912 74.175L235.233 76.5529C235.079 76.7063 235.079 76.783 235.079 76.8597Z" fill="#F9C067"/>
</svg>
