<svg width="249" height="216" viewBox="0 0 249 216" fill="none" xmlns="http://www.w3.org/2000/svg">
<path d="M216.849 109.463C216.849 113.758 216.619 117.977 216.082 122.119C215.391 128.026 214.241 133.779 212.63 139.378C210.175 147.739 206.877 155.717 202.581 163.08C191.612 182.257 175.121 197.675 155.177 207.186C154.87 207.417 154.487 207.493 154.18 207.723C148.427 210.408 142.444 212.633 136.154 214.243C127.409 216.545 118.204 217.772 108.77 217.849H107.849C48.2483 217.542 0 169.14 0 109.463C0 49.555 48.5551 0.999878 108.386 0.999878C128.023 0.999878 146.432 6.21591 162.311 15.344C162.464 15.4207 162.541 15.4974 162.694 15.5741C165.149 16.9548 167.45 18.4122 169.674 20.023C169.981 20.2532 170.365 20.4833 170.748 20.7901C171.285 21.0969 171.822 21.4805 172.282 21.864C173.356 22.6311 174.354 23.3981 175.351 24.2419C177.729 26.0061 179.953 27.9238 182.101 29.9182C183.712 31.4523 185.323 32.9864 186.857 34.674C187.777 35.5944 188.621 36.5149 189.388 37.3587C190.462 38.586 191.536 39.8133 192.61 41.194C193.147 41.8843 193.683 42.5747 194.22 43.2651C195.831 45.3361 197.365 47.4839 198.823 49.6317C199.743 51.0124 200.664 52.3931 201.508 53.8505C209.485 67.1207 214.624 82.3086 216.235 98.4936C216.619 102.099 216.849 105.704 216.849 109.463Z" fill="#F1EEEE"/>
<path d="M129.095 216.615C128.825 216.817 128.487 216.885 128.217 217.088C123.153 219.451 117.887 221.409 112.35 222.827C104.653 224.852 96.5508 225.932 88.2459 226C87.9759 225.527 87.8408 225.055 87.6383 224.582L75.3498 189.945L73.5268 184.813L72.5815 182.113L71.3662 178.737L92.4996 171.175L95.9431 169.959L104.991 166.718L109.109 174.753L111.472 179.412L114.241 184.813L127.272 210.066C128.352 212.091 128.96 214.319 129.095 216.615Z" fill="#3E9DBB"/>
<path d="M94.3216 194.739C94.3216 192.106 92.161 189.945 89.5277 189.945C86.8945 189.945 84.7339 192.106 84.7339 194.739C84.7339 197.372 86.8945 199.533 89.5277 199.533C92.161 199.533 94.3216 197.44 94.3216 194.739Z" fill="#E6F7FF"/>
<path d="M57.0516 146.125C52.4603 133.297 38.4164 126.68 25.5878 131.203C12.8267 135.795 10.3961 148.286 14.9873 161.114C19.5786 173.875 29.3014 182.113 42.13 177.521C54.9585 172.93 61.5754 158.886 57.0516 146.125Z" fill="#E6F7FF"/>
<path d="M75.349 190.012C79.7377 189.202 84.1264 188.392 88.5152 187.582C96.955 186.029 105.597 185.219 114.307 184.746L104.99 166.718L71.2979 178.737L75.349 190.012Z" fill="#308DAB"/>
<path d="M129.095 216.615C128.825 216.817 128.487 216.885 128.217 217.088C123.153 219.451 117.887 221.409 112.35 222.827C113.228 221.611 113.971 220.328 114.511 218.978C116.334 214.387 116.064 209.188 113.836 204.799L103.91 185.421L101.142 180.087L99.1839 176.306L95.8755 169.959L104.923 166.718L109.042 174.753L111.405 179.412L114.173 184.813L127.204 210.066C128.352 212.091 128.96 214.319 129.095 216.615Z" fill="#308DAB"/>
<path d="M162.382 17.2991L221.326 184.611C163.8 173.133 143.004 177.454 64.2091 182.72C56.3094 183.261 49.0174 181.235 46.7217 174.753L32.5427 134.444C30.2471 127.963 34.6358 121.751 41.1852 117.295C106.543 72.1919 129.905 59.2283 162.382 17.2991Z" fill="#E6F7FF"/>
<path d="M221.325 184.611L163.529 20.5399C130.377 39.5127 180.003 137.213 169.065 153.35C157.857 169.959 87.5701 177.791 87.5701 177.791C83.1138 178.602 79.1977 179.952 75.8218 181.843C145.164 177.116 166.77 173.74 221.325 184.611Z" fill="#D6F2FF"/>
<path d="M230.847 185.359C247.878 179.275 247.743 135.315 230.545 87.1717C213.346 39.0281 185.598 4.93204 168.567 11.016C151.536 17.1 151.671 61.0601 168.87 109.204C186.068 157.347 213.816 191.443 230.847 185.359Z" fill="#3E9DBB"/>
<g opacity="0.6">
<g opacity="0.6">
<path opacity="0.6" d="M161.774 29.9253C161.504 30.0603 161.166 30.0603 160.828 29.9928C159.816 29.7902 159.141 28.845 159.343 27.8997C159.681 25.8066 160.153 23.9161 160.761 22.1606C161.099 21.2153 162.111 20.6752 163.057 21.0128C164.002 21.3504 164.542 22.3632 164.204 23.3084C163.664 24.8614 163.259 26.6844 162.922 28.5749C162.854 29.1826 162.381 29.6552 161.774 29.9253Z" fill="#ADD6E3"/>
</g>
</g>
<g opacity="0.6">
<g opacity="0.6">
<path opacity="0.6" d="M169.673 92.1775H169.605C168.66 92.4476 167.58 91.9075 167.31 90.9622C160.963 69.5587 157.925 50.6534 158.532 36.2719C158.6 35.2591 159.41 34.4489 160.423 34.5164C161.436 34.5839 162.246 35.3941 162.178 36.4069C161.638 50.3833 164.609 68.8835 170.821 89.9494C171.091 90.8947 170.551 91.84 169.673 92.1775Z" fill="#ADD6E3"/>
</g>
</g>
<path d="M230.57 169.673C242.264 165.495 240.049 129.372 225.623 88.9891C211.197 48.606 190.023 19.2554 178.33 23.4327C166.636 27.6099 168.851 63.7331 183.277 104.116C197.703 144.499 218.877 173.85 230.57 169.673Z" fill="#27859B"/>
<path d="M218.422 97.039C217.477 92.3127 215.114 85.966 210.928 81.7798C207.282 78.1338 202.083 76.1757 197.154 77.3911C197.154 77.3911 177.843 82.1174 176.561 82.455C178.384 89.4094 180.612 96.7015 183.245 104.129C185.878 111.556 188.781 118.578 191.752 125.059L192.968 124.452C192.968 124.452 211.873 114.797 211.94 114.797C218.49 111.353 219.705 103.656 218.422 97.039Z" fill="#E6F7FF"/>
<path d="M79.6706 141.061C74.3366 126.072 70.488 111.623 68.4624 98.6594L35.9183 116.687C23.1573 124.317 20.1189 137.955 25.5204 153.08L30.3818 166.786C37.4713 186.637 54.4185 188.662 62.5883 186.839L97.4956 180.695C91.0138 169.352 84.9371 155.848 79.6706 141.061Z" fill="#3E9DBB"/>
<path d="M62.0489 143.83L61.2387 144.1C60.1584 144.505 58.8756 143.897 58.4704 142.817L52.1912 125.127C51.7861 124.047 52.3937 122.764 53.474 122.359L54.2843 122.089C55.3646 121.683 56.6474 122.291 57.0525 123.371L63.3993 141.061C63.7369 142.209 63.1968 143.424 62.0489 143.83Z" fill="#E6F7FF"/>
<path d="M59.9557 143.56L53.4064 125.127C53.0688 124.182 53.879 123.101 55.2294 122.561C55.6345 122.426 56.0396 122.359 56.3772 122.359C55.7696 121.954 54.8243 121.886 53.879 122.224C52.5287 122.696 51.7184 123.844 52.056 124.789L58.6054 143.154C58.8079 143.83 59.6181 144.167 60.4959 144.167C60.2258 143.965 60.0233 143.762 59.9557 143.56Z" fill="#C7EDFF"/>
<path d="M52.3258 147.273L51.5156 147.543C50.4353 147.948 49.1524 147.341 48.7473 146.26L42.468 128.638C42.0629 127.558 42.6706 126.275 43.7509 125.87L44.5611 125.6C45.6414 125.194 46.9243 125.802 47.3294 126.882L53.6762 144.572C54.0138 145.653 53.4736 146.868 52.3258 147.273Z" fill="#E6F7FF"/>
<path d="M50.2326 147.003L43.6832 128.638C43.3457 127.693 44.1559 126.612 45.5063 126.072C45.9114 125.937 46.3165 125.87 46.6541 125.87C46.0464 125.465 45.1011 125.397 44.1559 125.735C42.8055 126.207 41.9953 127.355 42.3329 128.3L48.8822 146.665C49.0848 147.341 49.895 147.678 50.7727 147.678C50.5027 147.476 50.3676 147.273 50.2326 147.003Z" fill="#C7EDFF"/>
<path d="M42.6702 150.784L41.86 151.054C40.7796 151.459 39.4968 150.852 39.0917 149.771L32.7449 132.081C32.3398 131.001 32.9475 129.718 34.0278 129.313L34.838 129.043C35.9183 128.638 37.2011 129.246 37.6063 130.326L43.953 148.016C44.3581 149.164 43.7505 150.379 42.6702 150.784Z" fill="#E6F7FF"/>
<path d="M40.5094 150.447L33.9601 132.081C33.6225 131.136 34.4327 130.056 35.7831 129.516C36.1882 129.381 36.5933 129.313 36.9309 129.313C36.3233 128.908 35.378 128.84 34.4327 129.178C33.0824 129.651 32.2721 130.799 32.6097 131.744L39.1591 150.109C39.3616 150.784 40.1718 151.122 41.0496 151.122C40.847 150.919 40.6445 150.717 40.5094 150.447Z" fill="#C7EDFF"/>
<path d="M77.9151 101.63C77.9151 101.63 131.052 71.7195 146.717 47.2101C146.717 47.2101 145.569 65.3727 153.401 85.5608L79.333 110.34C79.333 110.34 76.9698 104.399 77.9151 101.63Z" fill="white"/>
<path d="M22.8863 158.279C22.4812 157.063 21.1308 156.388 19.9155 156.861L14.3789 158.819C14.5815 159.561 14.8515 160.304 15.1216 161.047C15.3917 161.79 15.6618 162.532 15.9994 163.208L21.5359 161.249C22.6837 160.844 23.2914 159.494 22.8863 158.279Z" fill="#C7EDFF"/>
<path d="M26.1279 167.461C25.7228 166.246 24.3724 165.571 23.157 166.043L18.1606 167.799C19.0384 169.217 19.9837 170.567 20.9964 171.782L24.71 170.499C25.9253 170.027 26.6005 168.676 26.1279 167.461Z" fill="#C7EDFF"/>
<path d="M16.6076 147.678L12.894 148.961C12.8265 150.514 12.9615 152.202 13.1641 153.822L18.1605 152.134C19.3758 151.729 20.051 150.379 19.5784 149.164C19.1733 147.881 17.8229 147.273 16.6076 147.678Z" fill="#C7EDFF"/>
<path d="M205.66 86.3034C205.66 88.6666 201.407 90.6246 196.14 90.6246C190.874 90.6246 186.62 88.6666 186.62 86.3034C186.62 83.9402 190.874 81.9822 196.14 81.9822C201.407 81.9822 205.66 83.8727 205.66 86.3034Z" fill="white"/>
</svg>
