<svg width="50" height="50" viewBox="0 0 50 50" fill="none" xmlns="http://www.w3.org/2000/svg">
<path d="M39.3985 16.497L13.178 6.50828C12.8702 6.39102 12.7163 6.33239 12.6081 6.40691C12.5 6.48144 12.5 6.64613 12.5 6.97553V27.6786L39.3985 17.4315C39.9147 17.2349 40.1727 17.1366 40.1727 16.9643C40.1727 16.792 39.9147 16.6937 39.3985 16.497Z" fill="#FF6500"/>
<path d="M12.5 27.6786V6.97553C12.5 6.64613 12.5 6.48144 12.6081 6.40691C12.7163 6.33239 12.8702 6.39102 13.178 6.50828L39.3985 16.497C39.9147 16.6937 40.1727 16.792 40.1727 16.9643C40.1727 17.1366 39.9147 17.2349 39.3985 17.4315L12.5 27.6786ZM12.5 27.6786V41.0714V43.75" stroke="#FF6500" stroke-width="4" stroke-linecap="round"/>
</svg>
