<svg width="50" height="50" viewBox="0 0 50 50" fill="none" xmlns="http://www.w3.org/2000/svg">
<path fill-rule="evenodd" clip-rule="evenodd" d="M8.33325 11.9047C8.33325 10.9575 8.70953 10.0491 9.3793 9.3793C10.0491 8.70953 10.9575 8.33325 11.9047 8.33325H19.0475C19.9947 8.33325 20.9031 8.70953 21.5729 9.3793C22.2427 10.0491 22.619 10.9575 22.619 11.9047V19.0475C22.619 19.9947 22.2427 20.9031 21.5729 21.5729C20.9031 22.2427 19.9947 22.619 19.0475 22.619H11.9047C10.9575 22.619 10.0491 22.2427 9.3793 21.5729C8.70953 20.9031 8.33325 19.9947 8.33325 19.0475V11.9047ZM27.3809 11.9047C27.3809 10.9575 27.7571 10.0491 28.4269 9.3793C29.0967 8.70953 30.0051 8.33325 30.9523 8.33325H38.0952C39.0424 8.33325 39.9508 8.70953 40.6205 9.3793C41.2903 10.0491 41.6666 10.9575 41.6666 11.9047V19.0475C41.6666 19.9947 41.2903 20.9031 40.6205 21.5729C39.9508 22.2427 39.0424 22.619 38.0952 22.619H30.9523C30.0051 22.619 29.0967 22.2427 28.4269 21.5729C27.7571 20.9031 27.3809 19.9947 27.3809 19.0475V11.9047ZM8.33325 30.9523C8.33325 30.0051 8.70953 29.0967 9.3793 28.4269C10.0491 27.7571 10.9575 27.3809 11.9047 27.3809H19.0475C19.9947 27.3809 20.9031 27.7571 21.5729 28.4269C22.2427 29.0967 22.619 30.0051 22.619 30.9523V38.0952C22.619 39.0424 22.2427 39.9508 21.5729 40.6205C20.9031 41.2903 19.9947 41.6666 19.0475 41.6666H11.9047C10.9575 41.6666 10.0491 41.2903 9.3793 40.6205C8.70953 39.9508 8.33325 39.0424 8.33325 38.0952V30.9523ZM27.3809 30.9523C27.3809 30.0051 27.7571 29.0967 28.4269 28.4269C29.0967 27.7571 30.0051 27.3809 30.9523 27.3809H38.0952C39.0424 27.3809 39.9508 27.7571 40.6205 28.4269C41.2903 29.0967 41.6666 30.0051 41.6666 30.9523V38.0952C41.6666 39.0424 41.2903 39.9508 40.6205 40.6205C39.9508 41.2903 39.0424 41.6666 38.0952 41.6666H30.9523C30.0051 41.6666 29.0967 41.2903 28.4269 40.6205C27.7571 39.9508 27.3809 39.0424 27.3809 38.0952V30.9523Z" fill="#FF6500"/>
</svg>
