<svg width="50" height="50" viewBox="0 0 50 50" fill="none" xmlns="http://www.w3.org/2000/svg">
<path fill-rule="evenodd" clip-rule="evenodd" d="M4.5303 33.2553C4.6522 33.1164 4.80226 33.0051 4.97049 32.9288C5.13872 32.8524 5.32126 32.8128 5.50597 32.8126H19.8158C20.1609 32.8126 20.4917 32.9498 20.7357 33.194C20.9797 33.4381 21.1167 33.7693 21.1167 34.1147C21.1167 35.1507 21.5279 36.1442 22.2598 36.8768C22.9917 37.6094 23.9844 38.0209 25.0194 38.0209C26.0545 38.0209 27.0472 37.6094 27.779 36.8768C28.5109 36.1442 28.9221 35.1507 28.9221 34.1147C28.9221 33.7693 29.0592 33.4381 29.3031 33.194C29.5471 32.9498 29.878 32.8126 30.223 32.8126H44.5329C44.7173 32.8126 44.8996 32.8519 45.0677 32.9279C45.2358 33.0038 45.3858 33.1147 45.5079 33.2531C45.6299 33.3915 45.7212 33.5543 45.7755 33.7306C45.8299 33.907 45.8462 34.093 45.8234 34.2761L44.8087 42.4115C44.6907 43.3566 44.2318 44.2259 43.5184 44.856C42.805 45.4862 41.8861 45.8338 40.9346 45.8334H9.10425C8.15275 45.8338 7.23388 45.4862 6.52045 44.856C5.80702 44.2259 5.34817 43.3566 5.23018 42.4115L4.21548 34.2761C4.19247 34.0929 4.20863 33.907 4.26291 33.7305C4.31719 33.5541 4.40833 33.3912 4.5303 33.2527V33.2553ZM14.1179 5.63289C14.4832 5.17587 14.9464 4.80684 15.4733 4.55307C16.0001 4.29929 16.5773 4.16727 17.162 4.16675H32.8768C33.4616 4.16727 34.0387 4.29929 34.5656 4.55307C35.0925 4.80684 35.5557 5.17587 35.9209 5.63289L45.5476 17.6772C45.7439 17.9481 45.8285 18.2843 45.7838 18.616C45.739 18.9477 45.5683 19.2494 45.3072 19.4585C45.0461 19.6676 44.7146 19.768 44.3814 19.7389C44.0483 19.7098 43.7392 19.5534 43.5182 19.3022L33.8915 7.2605C33.7699 7.108 33.6155 6.98482 33.4399 6.90008C33.2642 6.81534 33.0718 6.77119 32.8768 6.77091H17.162C16.967 6.77119 16.7746 6.81534 16.599 6.90008C16.4233 6.98482 16.269 7.108 16.1473 7.2605L6.52067 19.3022C6.41733 19.4448 6.28615 19.5649 6.13508 19.6553C5.984 19.7456 5.81618 19.8044 5.64176 19.828C5.46734 19.8516 5.28996 19.8395 5.12034 19.7924C4.95073 19.7454 4.79242 19.6644 4.65498 19.5544C4.51755 19.4443 4.40385 19.3075 4.32078 19.1522C4.23771 18.9969 4.18698 18.8263 4.17168 18.6508C4.15637 18.4753 4.1768 18.2986 4.23174 18.1312C4.28667 17.9638 4.37496 17.8094 4.49127 17.6772L14.1179 5.63289Z" fill="#FF6500"/>
<path fill-rule="evenodd" clip-rule="evenodd" d="M4.49203 17.1626C4.61405 17.007 4.76425 16.8823 4.93264 16.7969C5.10102 16.7114 5.28373 16.667 5.46861 16.6667H19.7917C20.1371 16.6667 20.4683 16.8204 20.7125 17.0939C20.9567 17.3674 21.0938 17.7383 21.0938 18.1251C21.0938 19.2854 21.5054 20.3982 22.238 21.2187C22.9705 22.0391 23.9641 22.5001 25.0001 22.5001C26.0362 22.5001 27.0297 22.0391 27.7623 21.2187C28.4949 20.3982 28.9065 19.2854 28.9065 18.1251C28.9065 17.7383 29.0436 17.3674 29.2878 17.0939C29.532 16.8204 29.8632 16.6667 30.2086 16.6667H44.5317C44.7163 16.6668 44.8988 16.7108 45.067 16.7959C45.2353 16.8809 45.3854 17.0051 45.5076 17.1601C45.6297 17.3151 45.7211 17.4974 45.7755 17.695C45.8299 17.8925 45.8463 18.1008 45.8234 18.3059L44.8077 27.4176C44.6896 28.476 44.2304 29.4497 43.5163 30.1554C42.8022 30.8612 41.8825 31.2505 40.9301 31.2501H9.07022C8.11784 31.2505 7.19812 30.8612 6.48403 30.1554C5.76994 29.4497 5.31066 28.476 5.19256 27.4176L4.17692 18.3059C4.15389 18.1008 4.17007 17.8925 4.2244 17.6948C4.27872 17.4972 4.36995 17.3148 4.49203 17.1597V17.1626Z" fill="#FF6500"/>
</svg>
