<svg width="626" height="428" viewBox="0 0 626 428" fill="none" xmlns="http://www.w3.org/2000/svg">
<path d="M529.8 373.9H127.4C77.2999 379.6 46.3999 387.5 46.3999 396.2C46.3999 413.7 172.7 427.9 328.6 427.9C484.5 427.9 610.8 413.7 610.8 396.2C610.8 387.5 579.9 379.6 529.8 373.9Z" fill="#A4B0BC"/>
<path d="M618.3 374.6C620.7 367 618.3 357.5 614.3 350C609.1 340.2 601.5 331.1 600.2 320C597.8 299 618.9 281.2 618.1 260C617.1 234.8 585.8 218.5 585.7 193.3C585.6 169.7 613.4 151.4 609.5 128.1C606 107.2 580.8 99.6 565.5 85.1C550.5 70.9 547.8 46.3 531.9 33C519.3 22.4 505.4 14.8 488.6 14.4C477.6 14.1 468.4 17.5 457.9 20.2C431 27 403.5 8.2 377.9 2.9C357.9 -1.2 336.5 -0.900005 316.6 3.7C302.2 7 288.4 12.1 274.1 15.9C259.6 19.7 247.9 19.7 233.3 16.6C199.2 9.2 146.8 30.6 122.8 51.1C96.1999 73.8 94.9999 103.1 82.3999 136C70.1999 167.8 67.0999 202.8 53.1999 233.9C45.4999 251 34.6999 266.6 27.6999 284.1C16.2999 312.7 16.0999 345.8 27.2999 374.5H618.3V374.6Z" fill="#C7D3DD"/>
<path d="M461.6 399.2C464.7 399.2 466.9 396.1 465.7 393.2C462.3 384.9 452.8 379.2 443.8 376.5C427.9 371.7 410.9 371.8 394.3 371.1C377.7 370.4 360.6 368.6 345.9 360.6C341.1 358 336.7 354.6 333 350.6V250.6H308.8V350.6C305 354.6 300.6 358 295.9 360.6C281.3 368.6 264.2 370.4 247.5 371.1C230.9 371.8 214 371.8 198 376.5C188.9 379.2 179.4 384.9 176.1 393.2C174.9 396.1 177.1 399.2 180.2 399.2C182.4 399.2 184.6 399.2 186.8 399.2L186.4 399.1C186.7 396.4 188.8 394.2 191.3 393.1C193.8 392 196.5 390.1 199.2 389.9C212.5 388.7 429.3 388.7 442.6 389.9C445.3 390.1 448.1 392 450.5 393.1C453 394.2 455.1 396.5 455.4 399.1L455 399.2H461.6Z" fill="#022A44"/>
<path d="M321.8 360H321.7C317.9 360 314.8 356.9 314.8 353.1V324C314.8 320.2 317.9 317.1 321.7 317.1H321.8C325.6 317.1 328.7 320.2 328.7 324V353.1C328.7 356.9 325.6 360 321.8 360Z" fill="#352F6C"/>
<path d="M573.3 347.9C403.2 322.5 231.4 322.5 61.2999 347.9C56.7999 348.6 52.7 345.1 52.7 340.5V30.8C52.7 26.2 56.7999 22.7 61.2999 23.4C231.4 48.8 403.2 48.8 573.3 23.4C577.8 22.7 581.9 26.2 581.9 30.8V340.5C581.9 345.1 577.8 348.6 573.3 347.9Z" fill="#022A44"/>
<path d="M567.7 346C398.3 319.9 227.3 319.9 57.8999 346C57.8999 241 57.8999 135.9 57.8999 30.9C227.3 57 398.3 57 567.7 30.9C567.7 135.9 567.7 241 567.7 346Z" fill="#A4B0BC"/>
<path d="M548.6 44.7H428.1V115.7H548.6V44.7Z" fill="#92A1AD"/>
<path d="M62.3999 28.1C62.3999 133.1 62.3999 238.2 62.3999 343.2C75.8999 341.1 89.3999 339.2 103 337.5L182 42.2C142 38.9 102.1 34.2 62.3999 28.1Z" fill="#C7D3DD"/>
<path d="M148.1 255.1C134.1 256.2 119.1 254 106.2 248.7C86.7 240.2 75.2 223.1 62.3 207.8C62.3 253 62.3 298.1 62.3 343.3C231.7 317.2 402.7 317.2 572.1 343.3C572.1 259.6 572.1 175.9 572.1 92.2C449.6 144.5 327.6 192 202.8 240.2C184.6 247.6 167.5 254.1 148.1 255.1Z" fill="#92A1AD"/>
<path d="M423 46.2H209V259.4H423V46.2Z" fill="#708491"/>
<path d="M204.7 90.6H61.8V207.8H204.7V90.6Z" fill="#92A1AD"/>
<path d="M572.1 133.7H428.6V256.2H572.1V133.7Z" fill="#708491"/>
<path d="M625.6 123.5H435.9V248.8H625.6V123.5Z" fill="#352F6C"/>
<path d="M475.2 138.2C463.2 138.2 453.5 147.9 453.5 159.9C453.5 171.9 463.2 181.6 475.2 181.6C487.2 181.6 496.9 171.9 496.9 159.9C496.9 147.9 487.2 138.2 475.2 138.2ZM475.2 173.1C467.9 173.1 462.1 167.2 462.1 160C462.1 152.7 468 146.9 475.2 146.9C482.5 146.9 488.3 152.8 488.3 160C488.4 167.2 482.5 173.1 475.2 173.1Z" fill="#FFD255"/>
<path d="M475.2 173.1C468.1 173.1 462.3 167.4 462.1 160.3H453.5C453.7 172.1 463.3 181.6 475.2 181.6C487.1 181.6 496.7 172.1 496.9 160.3H488.3C488.2 167.4 482.4 173.1 475.2 173.1Z" fill="#7D95C9"/>
<path d="M485.8 141L482.1 148.7C485.9 151 488.4 155.2 488.4 159.9C488.4 160 488.4 160.2 488.4 160.3H497C497 160.2 497 160 497 159.9C497 151.8 492.5 144.7 485.8 141Z" fill="#2070B4"/>
<path d="M526.6 138.2C514.6 138.2 504.9 147.9 504.9 159.9C504.9 171.9 514.6 181.6 526.6 181.6C538.6 181.6 548.3 171.9 548.3 159.9C548.3 147.9 538.6 138.2 526.6 138.2ZM526.6 173.1C519.3 173.1 513.5 167.2 513.5 160C513.5 152.7 519.4 146.9 526.6 146.9C533.9 146.9 539.7 152.8 539.7 160C539.8 167.2 533.9 173.1 526.6 173.1Z" fill="#FFD255"/>
<path d="M526.6 146.8C530.5 146.8 533.9 148.5 536.3 151.1L542.6 145.3C538.6 140.9 532.9 138.2 526.5 138.2C522.2 138.2 518.2 139.5 514.8 141.6L520.1 148.4C522.2 147.4 524.3 146.8 526.6 146.8Z" fill="#FFD255"/>
<path d="M548.3 159.2C548.1 153.9 546 149.1 542.7 145.4L536.4 151.2C538.3 153.3 539.6 156.1 539.8 159.2H548.3Z" fill="#7D95C9"/>
<path d="M520.3 148.5L515 141.7C509.2 145.4 505.3 151.8 505 159.2C505 159.5 505 159.7 505 160C505 165.7 507.2 170.8 510.7 174.7L517 168.9C514.8 166.6 513.5 163.4 513.5 160C513.5 159.7 513.5 159.5 513.5 159.2C513.8 154.6 516.5 150.6 520.3 148.5Z" fill="#7D95C9"/>
<path d="M548.4 160C548.4 159.7 548.4 159.5 548.4 159.2H539.8C539.8 159.5 539.8 159.7 539.8 160C539.8 163.5 538.4 166.7 536.2 169L541.5 175.8C545.7 171.8 548.4 166.2 548.4 160Z" fill="#2070B4"/>
<path d="M578.1 138.2C566.1 138.2 556.4 147.9 556.4 159.9C556.4 171.9 566.1 181.6 578.1 181.6C590.1 181.6 599.8 171.9 599.8 159.9C599.8 147.9 590 138.2 578.1 138.2ZM578.1 173.1C570.8 173.1 565 167.2 565 160C565 152.7 570.9 146.9 578.1 146.9C585.4 146.9 591.2 152.8 591.2 160C591.2 167.2 585.3 173.1 578.1 173.1Z" fill="#FFD255"/>
<path d="M591.2 160C591.2 164.7 588.7 168.9 585 171.2L591 177.5C596.4 173.5 599.8 167.2 599.8 160C599.8 153.6 597 147.9 592.7 143.9L586.5 149.9C589.4 152.3 591.2 155.9 591.2 160Z" fill="#7D95C9"/>
<path d="M471.6 221.6H447.3V225.2H471.6V221.6Z" fill="#FAA701"/>
<path d="M459.8 229.5H447.3V231H459.8V229.5Z" fill="#A4B0BC"/>
<path d="M469.9 229.5H461.9V231H469.9V229.5Z" fill="#A4B0BC"/>
<path d="M465.4 233.4V234.4H464.6V233.4H451.6V234.9H470.9V233.4H465.4Z" fill="#A4B0BC"/>
<path d="M450.6 233.4H447.3V234.9H450.6V233.4Z" fill="#A4B0BC"/>
<path d="M474.8 233.4H471.7V234.9H474.8V233.4Z" fill="#A4B0BC"/>
<path d="M472.7 237.3H447.3V238.8H472.7V237.3Z" fill="#A4B0BC"/>
<path d="M465.8 241.2H447.3V242.7H465.8V241.2Z" fill="#A4B0BC"/>
<path d="M474.8 241.2H467.1V242.7H474.8V241.2Z" fill="#A4B0BC"/>
<path d="M482.3 188.5H467.1V192.1H482.3V188.5Z" fill="#92A1AD"/>
<path d="M482.4 195.1H467.1V196.1H482.4V195.1Z" fill="#FFD255"/>
<path d="M482.4 199.3H467.1V200.3H482.4V199.3Z" fill="#FFD255"/>
<path d="M534.2 188.5H519V192.1H534.2V188.5Z" fill="#92A1AD"/>
<path d="M534.3 195.1H519V196.1H534.3V195.1Z" fill="#FFD255"/>
<path d="M534.3 199.3H519V200.3H534.3V199.3Z" fill="#FFD255"/>
<path d="M586.1 188.5H570.9V192.1H586.1V188.5Z" fill="#92A1AD"/>
<path d="M586.2 195.1H570.9V196.1H586.2V195.1Z" fill="#FFD255"/>
<path d="M586.2 199.3H570.9V200.3H586.2V199.3Z" fill="#FFD255"/>
<path d="M419.7 15H213.2V246.2H419.7V15Z" fill="white"/>
<path d="M304 22.5H251.4V28.5H304V22.5Z" fill="#E8E9EB"/>
<path d="M403.7 22.5H380.6V28.5H403.7V22.5Z" fill="#E8E9EB"/>
<path d="M403.7 36.5H380.6V38.5H403.7V36.5Z" fill="#E8E9EB"/>
<path d="M245.1 146.4C236.7 146.4 229.8 153.2 229.8 161.7C229.8 170.1 236.6 177 245.1 177C253.6 177 260.4 170.2 260.4 161.7C260.4 153.2 253.6 146.4 245.1 146.4ZM245.1 170.9C240 170.9 235.8 166.8 235.8 161.6C235.8 156.5 239.9 152.3 245.1 152.3C250.2 152.3 254.4 156.4 254.4 161.6C254.4 166.8 250.2 170.9 245.1 170.9Z" fill="#FFD255"/>
<path d="M245.1 155.6C241.7 155.6 239 158.3 239 161.7C239 165.1 241.7 167.8 245.1 167.8C248.5 167.8 251.2 165.1 251.2 161.7C251.2 158.3 248.5 155.6 245.1 155.6ZM245.1 167.1C242.1 167.1 239.7 164.7 239.7 161.7C239.7 158.7 242.1 156.3 245.1 156.3C248.1 156.3 250.5 158.7 250.5 161.7C250.5 164.7 248.1 167.1 245.1 167.1Z" fill="#FFD255"/>
<path d="M279 146.4C270.6 146.4 263.7 153.2 263.7 161.7C263.7 170.1 270.5 177 279 177C287.4 177 294.3 170.2 294.3 161.7C294.3 153.2 287.5 146.4 279 146.4ZM279 170.9C273.9 170.9 269.7 166.8 269.7 161.6C269.7 156.5 273.8 152.3 279 152.3C284.1 152.3 288.3 156.4 288.3 161.6C288.3 166.8 284.1 170.9 279 170.9Z" fill="#FFD255"/>
<path d="M279 155.6C275.6 155.6 272.9 158.3 272.9 161.7C272.9 165.1 275.6 167.8 279 167.8C282.4 167.8 285.1 165.1 285.1 161.7C285.1 158.3 282.4 155.6 279 155.6ZM279 167.1C276 167.1 273.6 164.7 273.6 161.7C273.6 158.7 276 156.3 279 156.3C282 156.3 284.4 158.7 284.4 161.7C284.4 164.7 282 167.1 279 167.1Z" fill="#FFD255"/>
<path d="M234.6 208.8L234.2 207.8L286.5 186.5L297.9 191.6L311.9 171.4L321.3 177.3L331.5 162.6L332.3 163.2L321.6 178.6L312.2 172.7L298.2 192.8L286.5 187.6L234.6 208.8Z" fill="#FFD255"/>
<path d="M259.5 197.3H250.3V234H259.5V197.3Z" fill="#7D95C9"/>
<path d="M274.3 203H265.1V234H274.3V203Z" fill="#7D95C9"/>
<path d="M289.2 196.4H280V234H289.2V196.4Z" fill="#7D95C9"/>
<path d="M304 206.8H294.8V234H304V206.8Z" fill="#7D95C9"/>
<path d="M318.9 181.2H309.7V234H318.9V181.2Z" fill="#7D95C9"/>
<path d="M333.8 176.1H324.6V234H333.8V176.1Z" fill="#7D95C9"/>
<path d="M265.7 47.4H253.8V138.3H265.7V47.4Z" fill="#E8E9EB"/>
<path d="M283 47.4H271.1V138.3H283V47.4Z" fill="#E8E9EB"/>
<path d="M300.4 47.4H288.5V138.3H300.4V47.4Z" fill="#E8E9EB"/>
<path d="M317.7 47.4H305.8V138.3H317.7V47.4Z" fill="#E8E9EB"/>
<path d="M335.1 47.4H323.2V138.3H335.1V47.4Z" fill="#E8E9EB"/>
<path d="M352.4 47.4H340.5V138.3H352.4V47.4Z" fill="#E8E9EB"/>
<path d="M369.8 47.4H357.9V138.3H369.8V47.4Z" fill="#E8E9EB"/>
<path d="M387.2 47.4H375.3V138.3H387.2V47.4Z" fill="#E8E9EB"/>
<path d="M404.5 47.4H392.6V138.3H404.5V47.4Z" fill="#E8E9EB"/>
<path d="M258.9 53.5H257.4V137.7H258.9V53.5Z" fill="white"/>
<path d="M276.4 53.5H274.9V137.7H276.4V53.5Z" fill="white"/>
<path d="M293.9 53.5H292.4V137.7H293.9V53.5Z" fill="white"/>
<path d="M311.4 53.5H309.9V137.7H311.4V53.5Z" fill="white"/>
<path d="M328.9 53.5H327.4V137.7H328.9V53.5Z" fill="white"/>
<path d="M346.4 53.5H344.9V137.7H346.4V53.5Z" fill="white"/>
<path d="M363.9 53.5H362.4V137.7H363.9V53.5Z" fill="white"/>
<path d="M381.4 53.5H379.9V137.7H381.4V53.5Z" fill="white"/>
<path d="M398.9 53.5H397.4V137.7H398.9V53.5Z" fill="white"/>
<path d="M260.9 95.7H255.4V137.7H260.9V95.7Z" fill="#FAA701"/>
<path d="M278.4 95.7H272.9V137.7H278.4V95.7Z" fill="#FAA701"/>
<path d="M295.9 109.3H290.4V137.7H295.9V109.3Z" fill="#FAA701"/>
<path d="M313.4 81H307.9V137.7H313.4V81Z" fill="#FAA701"/>
<path d="M313.4 81H307.9V92.9H313.4V81Z" fill="#FFD255"/>
<path d="M330.9 72.2H325.4V137.7H330.9V72.2Z" fill="#FAA701"/>
<path d="M348.4 95.7H342.9V137.7H348.4V95.7Z" fill="#FAA701"/>
<path d="M365.9 78.5H360.4V137.7H365.9V78.5Z" fill="#FAA701"/>
<path d="M365.9 78.5H360.4V82.5H365.9V78.5Z" fill="#FFD255"/>
<path d="M383.4 85H377.9V137.7H383.4V85Z" fill="#FAA701"/>
<path d="M400.9 95.7H395.4V137.7H400.9V95.7Z" fill="#FAA701"/>
<path d="M247.9 134.1H236.7V137.4H247.9V134.1Z" fill="#E8E9EB"/>
<path d="M247.9 120.7H236.7V124H247.9V120.7Z" fill="#E8E9EB"/>
<path d="M247.9 107.2H236.7V110.5H247.9V107.2Z" fill="#E8E9EB"/>
<path d="M247.9 93.8H236.7V97.1H247.9V93.8Z" fill="#E8E9EB"/>
<path d="M247.9 80.3H236.7V83.6H247.9V80.3Z" fill="#E8E9EB"/>
<path d="M247.9 66.9H236.7V70.2H247.9V66.9Z" fill="#E8E9EB"/>
<path d="M247.9 53.5H236.7V56.8H247.9V53.5Z" fill="#E8E9EB"/>
<path d="M265.7 43.1H253.8V44.4H265.7V43.1Z" fill="#A4B0BC"/>
<path d="M283 43.1H271.1V44.4H283V43.1Z" fill="#A4B0BC"/>
<path d="M300.4 43.1H288.5V44.4H300.4V43.1Z" fill="#A4B0BC"/>
<path d="M317.7 43.1H305.8V44.4H317.7V43.1Z" fill="#A4B0BC"/>
<path d="M335.1 43.1H323.2V44.4H335.1V43.1Z" fill="#A4B0BC"/>
<path d="M352.4 43.1H340.5V44.4H352.4V43.1Z" fill="#A4B0BC"/>
<path d="M369.8 43.1H357.9V44.4H369.8V43.1Z" fill="#A4B0BC"/>
<path d="M387.2 43.1H375.3V44.4H387.2V43.1Z" fill="#A4B0BC"/>
<path d="M404.5 43.1H392.6V44.4H404.5V43.1Z" fill="#A4B0BC"/>
<path d="M194.7 81.1H0V198.3H194.7V81.1Z" fill="white"/>
<path d="M163.2 151.5C179.272 151.5 192.3 138.471 192.3 122.4C192.3 106.329 179.272 93.3 163.2 93.3C147.129 93.3 134.1 106.329 134.1 122.4C134.1 138.471 147.129 151.5 163.2 151.5Z" fill="#FAA701"/>
<path d="M163.1 93.3C155 93.3 147.7 96.7 142.4 102.1L161.8 122.9L175.4 96C171.6 94.2 167.4 93.3 163.1 93.3Z" fill="#FFD255"/>
<path d="M188.2 107.5C185.2 102.5 180.7 98.4 175.3 95.9L161.7 122.8L162 123.1L188.2 107.5Z" fill="#352F6C"/>
<path d="M142.3 102C137.1 107.3 134 114.5 134 122.5C134 127.9 135.5 133 138.1 137.3L161.3 123.4L161.6 122.7L142.3 102Z" fill="#7D95C9"/>
<path d="M161.7 122.8L161.4 123.5L162 123.1L161.7 122.8Z" fill="#FAA701"/>
<path d="M182 144.6L162 123.1L161.4 123.5L149 147.9C153.2 150.2 158.1 151.6 163.2 151.6C170.4 151.5 177 148.9 182 144.6Z" fill="#352F6C"/>
<path d="M138.2 137.4C140.8 141.8 144.6 145.4 149.1 147.9L161.4 123.5L138.2 137.4Z" fill="#E8E9EB"/>
<path d="M188.2 107.5L162 123.1L182 144.6C188.3 139.2 192.3 131.2 192.3 122.3C192.3 116.9 190.8 111.9 188.2 107.5Z" fill="#7D95C9"/>
<path d="M163.2 142.7C174.411 142.7 183.5 133.611 183.5 122.4C183.5 111.189 174.411 102.1 163.2 102.1C151.989 102.1 142.9 111.189 142.9 122.4C142.9 133.611 151.989 142.7 163.2 142.7Z" fill="white"/>
<path d="M163.2 140C153.5 140 145.6 132.1 145.6 122.4C145.6 112.7 153.5 104.8 163.2 104.8C172.9 104.8 180.8 112.7 180.8 122.4C180.8 132.1 172.9 140 163.2 140ZM163.2 105.8C154 105.8 146.6 113.3 146.6 122.4C146.6 131.5 154.1 139 163.2 139C172.3 139 179.8 131.5 179.8 122.4C179.8 113.3 172.3 105.8 163.2 105.8Z" fill="#FAA701"/>
<path d="M171.2 158H162.5V160H171.2V158Z" fill="#FAA701"/>
<path d="M175.3 163.3H162.5V165.3H175.3V163.3Z" fill="#A4B0BC"/>
<path d="M183.3 163.3H177V165.3H183.3V163.3Z" fill="#A4B0BC"/>
<path d="M187.8 163.3H183.8V165.3H187.8V163.3Z" fill="#A4B0BC"/>
<path d="M168.6 168.6H162.5V170.6H168.6V168.6Z" fill="#A4B0BC"/>
<path d="M186 168.6H170.3V170.6H186V168.6Z" fill="#A4B0BC"/>
<path d="M187.9 173.9H180.7V175.9H187.9V173.9Z" fill="#A4B0BC"/>
<path d="M180 173.9H162.5V175.9H180V173.9Z" fill="#A4B0BC"/>
<path d="M173.5 179.2H162.5V181.2H173.5V179.2Z" fill="#A4B0BC"/>
<path d="M179.9 179.2H175.2V181.2H179.9V179.2Z" fill="#A4B0BC"/>
<path d="M183.4 179.2H180.7V181.2H183.4V179.2Z" fill="#A4B0BC"/>
<path d="M44.6001 174.8H22.4001V176.2H44.6001V174.8Z" fill="#FAA701"/>
<path d="M49.1001 178.4H22.4001V179.8H49.1001V178.4Z" fill="#A4B0BC"/>
<path d="M49.1001 182H32.6001V183.4H49.1001V182Z" fill="#A4B0BC"/>
<path d="M30.2001 182H22.4001V183.4H30.2001V182Z" fill="#A4B0BC"/>
<path d="M49.1001 185.6H22.4001V187H49.1001V185.6Z" fill="#A4B0BC"/>
<path d="M49.1001 189.3H22.4001V190.7H49.1001V189.3Z" fill="#A4B0BC"/>
<path d="M22.9001 100.2H21.9001V165.4H22.9001V100.2Z" fill="#022A44"/>
<path d="M41.5002 100.2H40.5002V165.4H41.5002V100.2Z" fill="#022A44"/>
<path d="M60.0002 100.2H59.0002V165.4H60.0002V100.2Z" fill="#022A44"/>
<path d="M78.5002 100.2H77.5002V165.4H78.5002V100.2Z" fill="#022A44"/>
<path d="M97.1001 100.2H96.1001V165.4H97.1001V100.2Z" fill="#022A44"/>
<path d="M115.6 100.2H114.6V165.4H115.6V100.2Z" fill="#022A44"/>
<path d="M25.4001 126.1H19.4001V165.4H25.4001V126.1Z" fill="#A4B0BC"/>
<path d="M44.1001 139.5H38.1001V165.3H44.1001V139.5Z" fill="#A4B0BC"/>
<path d="M62.5002 128.2H56.5002V165.3H62.5002V128.2Z" fill="#A4B0BC"/>
<path d="M81.0002 114.1H75.0002V165.4H81.0002V114.1Z" fill="#A4B0BC"/>
<path d="M99.6001 135.7H93.6001V165.3H99.6001V135.7Z" fill="#A4B0BC"/>
<path d="M118.7 166.6H9.7002V167.4H118.7V166.6Z" fill="#E8E9EB"/>
<path d="M121.5 114.4L115.1 103.3L108.7 114.4H112.1V165.4H118.1V114.4H121.5Z" fill="#FFD255"/>
<path d="M17.5001 162.2C17.5001 162.6 17.2001 163 16.7001 163H10.4001C10.0001 163 9.6001 162.7 9.6001 162.2C9.6001 161.8 9.9001 161.4 10.4001 161.4H16.7001C17.2001 161.4 17.5001 161.7 17.5001 162.2Z" fill="#E8E9EB"/>
<path d="M17.5001 151.3C17.5001 151.7 17.2001 152.1 16.7001 152.1H10.4001C10.0001 152.1 9.6001 151.8 9.6001 151.3C9.6001 150.9 9.9001 150.5 10.4001 150.5H16.7001C17.2001 150.5 17.5001 150.9 17.5001 151.3Z" fill="#E8E9EB"/>
<path d="M17.5001 140.4C17.5001 140.8 17.2001 141.2 16.7001 141.2H10.4001C10.0001 141.2 9.6001 140.9 9.6001 140.4C9.6001 140 9.9001 139.6 10.4001 139.6H16.7001C17.2001 139.7 17.5001 140 17.5001 140.4Z" fill="#E8E9EB"/>
<path d="M17.5001 129.6C17.5001 130 17.2001 130.4 16.7001 130.4H10.4001C10.0001 130.4 9.6001 130.1 9.6001 129.6C9.6001 129.2 9.9001 128.8 10.4001 128.8H16.7001C17.2001 128.8 17.5001 129.2 17.5001 129.6Z" fill="#E8E9EB"/>
<path d="M17.5001 118.7C17.5001 119.1 17.2001 119.5 16.7001 119.5H10.4001C10.0001 119.5 9.6001 119.2 9.6001 118.7C9.6001 118.3 9.9001 117.9 10.4001 117.9H16.7001C17.2001 118 17.5001 118.3 17.5001 118.7Z" fill="#E8E9EB"/>
<path d="M17.5001 107.9C17.5001 108.3 17.2001 108.7 16.7001 108.7H10.4001C10.0001 108.7 9.6001 108.4 9.6001 107.9C9.6001 107.5 9.9001 107.1 10.4001 107.1H16.7001C17.2001 107.1 17.5001 107.4 17.5001 107.9Z" fill="#E8E9EB"/>
<path d="M17.5001 97C17.5001 97.4 17.2001 97.8 16.7001 97.8H10.4001C10.0001 97.8 9.6001 97.5 9.6001 97C9.6001 96.6 9.9001 96.2 10.4001 96.2H16.7001C17.2001 96.2 17.5001 96.6 17.5001 97Z" fill="#E8E9EB"/>
<path d="M557.6 27.7H435.9V108.1H557.6V27.7Z" fill="white"/>
<path d="M458.2 65H447.7V94.4H458.2V65Z" fill="#7D95C9"/>
<path d="M471.3 73.9H460.8V94.4H471.3V73.9Z" fill="#7D95C9"/>
<path d="M484.5 53.5H474V94.5H484.5V53.5Z" fill="#7D95C9"/>
<path d="M497.6 65H487.1V94.4H497.6V65Z" fill="#7D95C9"/>
<path d="M510.8 53.5H500.3V94.5H510.8V53.5Z" fill="#7D95C9"/>
<path d="M524 56.7H513.5V94.4H524V56.7Z" fill="#7D95C9"/>
<path d="M537.1 48.6H526.6V94.5H537.1V48.6Z" fill="#7D95C9"/>
<path d="M458.2 91.5H447.7V94.4H458.2V91.5Z" fill="#2070B4"/>
<path d="M471.3 82.7H460.8V94.5H471.3V82.7Z" fill="#2070B4"/>
<path d="M484.5 88.5H474V94.4H484.5V88.5Z" fill="#2070B4"/>
<path d="M497.6 82.7H487.1V94.5H497.6V82.7Z" fill="#2070B4"/>
<path d="M510.8 75.6H500.3V94.5H510.8V75.6Z" fill="#2070B4"/>
<path d="M524 82.7H513.5V94.5H524V82.7Z" fill="#2070B4"/>
<path d="M537.1 65H526.6V94.4H537.1V65Z" fill="#2070B4"/>
<path d="M549.9 31.3H533.4V33.7H549.9V31.3Z" fill="#FAA701"/>
<path d="M541.9 36.7H533.4V37.7H541.9V36.7Z" fill="#A4B0BC"/>
<path d="M548.7 36.7H543.3V37.7H548.7V36.7Z" fill="#A4B0BC"/>
<path d="M545.7 39.3V40H545.1V39.3H536.3V40.3H549.4V39.3H545.7Z" fill="#A4B0BC"/>
<path d="M535.6 39.3H533.4V40.3H535.6V39.3Z" fill="#A4B0BC"/>
<path d="M552 39.3H549.9V40.3H552V39.3Z" fill="#A4B0BC"/>
<path d="M456.2 46.9H449.8C449.2 46.9 448.8 46.4 448.8 45.9C448.8 45.3 449.3 44.9 449.8 44.9H456.2C456.8 44.9 457.2 45.4 457.2 45.9C457.2 46.4 456.7 46.9 456.2 46.9Z" fill="#FAA701"/>
<path d="M469.3 46.9H462.9C462.3 46.9 461.9 46.4 461.9 45.9C461.9 45.3 462.4 44.9 462.9 44.9H469.3C469.9 44.9 470.3 45.4 470.3 45.9C470.3 46.4 469.8 46.9 469.3 46.9Z" fill="#FAA701"/>
<path d="M482.4 46.9H476C475.4 46.9 475 46.4 475 45.9C475 45.3 475.5 44.9 476 44.9H482.4C483 44.9 483.4 45.4 483.4 45.9C483.4 46.4 483 46.9 482.4 46.9Z" fill="#FAA701"/>
<path d="M495.6 46.9H489.2C488.6 46.9 488.2 46.4 488.2 45.9C488.2 45.3 488.7 44.9 489.2 44.9H495.6C496.2 44.9 496.6 45.4 496.6 45.9C496.6 46.4 496.1 46.9 495.6 46.9Z" fill="#FAA701"/>
<path d="M508.8 46.9H502.4C501.8 46.9 501.4 46.4 501.4 45.9C501.4 45.3 501.9 44.9 502.4 44.9H508.8C509.4 44.9 509.8 45.4 509.8 45.9C509.8 46.4 509.3 46.9 508.8 46.9Z" fill="#FAA701"/>
<path d="M521.9 46.9H515.5C514.9 46.9 514.5 46.4 514.5 45.9C514.5 45.3 515 44.9 515.5 44.9H521.9C522.5 44.9 522.9 45.4 522.9 45.9C522.9 46.4 522.5 46.9 521.9 46.9Z" fill="#FAA701"/>
<path d="M534.8 46.9H528.4C527.8 46.9 527.4 46.4 527.4 45.9C527.4 45.3 527.9 44.9 528.4 44.9H534.8C535.4 44.9 535.8 45.4 535.8 45.9C535.9 46.4 535.4 46.9 534.8 46.9Z" fill="#FAA701"/>
<path d="M106.7 247.7C107.1 248.8 106.8 250 107.4 251C107.9 251.9 108.9 252.3 109.9 252.4C110.9 252.4 111.9 252.1 112.8 251.8C114.5 251.2 116.2 250.5 117.9 249.7C119.1 249.1 120.3 248.5 121.1 247.4C121.9 246.2 122 244.7 122.1 243.3C122.5 236.9 123.5 230.6 124.9 224.3C125.3 222.8 125.7 221.2 125.5 219.6C125.4 218 124.6 216.4 123.3 215.6C122.4 215.1 121.4 215 120.3 215.1C118.9 215.1 117.5 215.4 116.5 216.3C114.9 217.6 114.5 219.7 114 221.6C112.8 226.2 110.5 230.5 107.3 234.1C106 235.5 104.6 236.9 103.8 238.6C102.9 240.3 102.6 242.5 103.7 244.1C104.5 245.5 106.1 246.2 106.7 247.7Z" fill="#FAA701"/>
<path d="M116.6 246.5C116.5 247.9 116.1 249.3 115.2 250.2C114.2 251.2 112.7 251.6 111.3 251.9C110.1 252.2 108.8 252.4 107.7 251.9C106.5 251.3 105.9 249.9 105.4 248.7C104.9 247.3 104.3 245.9 104.2 244.4C104.1 242.9 104.3 241.3 105.3 240.2C106.1 239.2 107.3 238.7 108.5 238.5C110.6 238.2 112.8 239 114.3 240.6C115.9 242.2 116.7 244.3 116.6 246.5Z" fill="#022A44"/>
<path d="M110.9 252C108.6 252.8 106.2 251.9 104.1 250.7C101.6 249.2 99.3001 247.1 97.6001 244.7C99.9001 243.7 101.7 241.4 102.3 238.8C104.1 239.8 106.3 240 108.3 240.5C110.3 241 112.4 241.8 113.7 243.6C114.6 245 114.9 246.9 114.4 248.6C113.7 250.1 112.4 251.4 110.9 252Z" fill="#E7A988"/>
<path d="M113.5 243.5C112.3 241.7 110.2 240.9 108.1 240.4C106.1 239.9 104 239.7 102.1 238.7C101.7 240.8 100.5 242.6 98.8 243.8C103 246.7 109.8 246.2 111.7 249.9C112 250.3 112.1 250.7 112.2 251.2C113.1 250.5 113.8 249.6 114.1 248.5C114.7 246.8 114.5 244.9 113.5 243.5Z" fill="#D88568"/>
<path d="M102.192 208.969L95.6067 210.663L108.211 259.669L114.797 257.975L102.192 208.969Z" fill="#022A44"/>
<path d="M96.1 236.3C96.1 235.7 96.2 235 96.3 234.4C96.9 232.1 99.3 227.2 99.4 224.8C101.6 227.8 100.1 230.2 100.2 231.4C101.4 231.4 102.5 231.4 103.7 231.6C104.1 231.7 104.5 231.9 104.6 232.3C104.6 232.6 104.5 232.9 104.3 233C104.1 233.2 103.8 233.2 103.6 233.3C104 233.5 104.4 233.7 104.6 234.1C104.9 234.4 105.1 234.9 105 235.4C104.9 235.8 104.4 236.2 104 236C104.3 236.3 104.7 236.6 104.8 237.1C104.9 237.6 104.5 238.1 104.1 238C104.5 238.3 104.5 239 104.3 239.5C104 240 103.6 240.3 103.3 240.8C102.7 241.6 102.4 242.5 101.9 243.4C101.4 244.3 100.8 245.1 99.8 245.3C98.8 245.5 97.9 244.8 97.2 244.1C96.9 243.8 96.5 243.4 96.3 243C96 242.4 96 241.8 96 241.2C96 239.7 96 238 96.1 236.3Z" fill="#E7A988"/>
<path d="M104.6 234.2C104.3 233.9 103.9 233.6 103.6 233.4C103.9 233.3 104.1 233.3 104.3 233.1C104.5 232.9 104.7 232.7 104.6 232.4C104.5 232 104.1 231.8 103.7 231.7C102.8 231.5 101.8 231.5 100.8 231.5C102.3 236.3 102.5 241.2 99.7002 245.4C100.6 245.2 101.3 244.4 101.8 243.5C102.3 242.6 102.6 241.6 103.2 240.9C103.5 240.5 104 240.1 104.2 239.6C104.5 239.1 104.5 238.4 104 238.1C104.4 238.2 104.8 237.6 104.7 237.2C104.6 236.7 104.3 236.4 103.9 236.1C104.3 236.3 104.8 235.9 104.9 235.5C105.1 235 104.9 234.5 104.6 234.2Z" fill="#D88568"/>
<path d="M104.4 236.5C103.3 235.9 101.9 235.5 100.6 235.5V235C102 235 103.4 235.4 104.6 236.1L104.4 236.5Z" fill="#022A44"/>
<path d="M104.4 238.3C103.2 237.8 101.9 237.5 100.5 237.5V237C101.9 237.1 103.3 237.3 104.6 237.9L104.4 238.3Z" fill="#022A44"/>
<path d="M103.5 241.3C102.9 241.1 102.5 240.6 102.4 240C102.4 239.9 102.4 239.8 102.3 239.8C102.3 239.8 102.2 239.8 102.1 239.8C101.6 239.8 101.1 239.8 100.6 239.9L100.5 239.4C101 239.3 101.5 239.3 102.1 239.3C102.2 239.3 102.4 239.3 102.6 239.5C102.8 239.6 102.8 239.8 102.8 240C102.9 240.5 103.2 240.8 103.6 241L103.5 241.3Z" fill="#022A44"/>
<path d="M127.1 192.1C129.2 191.9 131.8 190.5 133.8 189.9C134.4 192.6 135.7 199.5 137.5 202.7L138.2 203.7C133.3 207.5 128.2 209.3 122.3 210.9C129.1 207.2 126.8 198.7 127.1 192.1Z" fill="#E7A988"/>
<path d="M132.8 190.2C131 190.9 128.9 191.9 127.1 192.1C126.8 198.7 129.1 207.2 122.3 211C124.7 210.3 127 209.6 129.2 208.8C131.7 203 133 196.7 132.8 190.2Z" fill="#D88568"/>
<path d="M132.8 190.1C130.9 190.8 128.6 191.9 126.7 192.1C126.8 194.9 127.2 198.1 127.1 201.1C131.8 200.1 132.5 194.8 132.8 190.1Z" fill="#022A44"/>
<path d="M125.2 204.9C124 205.5 122.7 206.2 121.9 207.4C120.6 209.3 120.7 211.8 120 214C122.7 211.2 126.2 209.3 129.8 208C133.4 206.7 137.2 205.9 141.1 205.3C141.3 204.4 140.7 203.4 139.9 202.9C139.1 202.4 138.1 202.3 137.1 202.2C133 202 128.9 203.1 125.2 204.9Z" fill="#352F6C"/>
<path d="M134.2 181C132.2 178.6 129.6 177.1 126.6 176.6H124.7C123.5 178 122.8 178.1 121.9 179.7L121.6 180.9C121.4 181.7 120.9 182.7 120 183C118.9 183.4 118 184.1 117 184.8C116.6 185.1 116.3 185.4 116.3 185.9C116.3 186.3 116.6 186.5 116.8 186.8C117.3 187.3 117.9 187.9 118.4 188.4C118.2 190.2 118.5 192.1 118.6 193.9C118.6 194.9 118.6 196.1 119.2 196.9C119.8 197.7 120.7 197.9 121.6 198.1C125.1 198.7 128.8 197.7 131.8 195.6C133.8 194.2 135.5 192.3 136.2 189.9C137.2 186.8 136.2 183.4 134.2 181Z" fill="#E7A988"/>
<path d="M134.2 181C132.2 178.6 129.6 177.1 126.6 176.6H124.7C123.5 178 122.8 178.1 121.9 179.7L121.7 180.4C122 185.9 127.8 191.7 129.3 197.2C130.2 196.8 131.1 196.3 131.9 195.8C133.9 194.4 135.6 192.5 136.3 190.1C137.2 186.8 136.2 183.4 134.2 181Z" fill="#D88568"/>
<path d="M121.6 180.8C121.7 180.5 121.7 180.2 121.7 180L121.6 180.8Z" fill="white"/>
<path d="M146.8 176.1C146.1 174.7 145.3 173.4 144.4 172C144 171.4 143.5 170.7 142.8 170.6C142.1 170.5 141.4 170.9 140.9 171.4C140.3 171.8 139.7 172.3 139.1 172.7C138.2 172.2 137.2 171.6 136.4 171.3C133.5 170.3 130.3 170.4 127.6 171.7L124.9 170.8C123.2 171.9 122.5 174.1 122.2 176.2C121.8 179.8 122.8 183.5 124.6 186.5C126.4 189.5 129.7 193.3 132.7 194.9C134.4 195.8 135.8 195.3 137.5 194.7C137.7 194.6 137.8 194.6 137.9 194.5C138.7 194.2 139.6 193.8 140.3 193.3C142.6 191.7 144.3 189.6 145.9 187.3C147.2 185.3 148.5 183.1 148.4 180.8C148.3 179.2 147.6 177.6 146.8 176.1Z" fill="#022A44"/>
<path d="M125.2 179C125.2 180.3 125.6 181.6 126.3 182.8C126.4 181.9 126.5 180.9 126.6 180C127.2 180.6 127.9 181 128.7 181.3C128.8 180.7 129 180.1 129.1 179.5C129.4 180 129.9 180.5 130.5 180.7C130.7 180.3 130.8 179.9 131 179.6C131.2 179.9 131.6 180.2 132 180.1C132.1 179.8 132.2 179.4 132.3 179.1C132.4 179.6 132.9 180 133.4 179.8C133.9 179.7 134.1 179 133.9 178.6C134.3 178.9 134.6 179.1 135 179.4C135.2 179.2 135.2 178.9 135 178.7C136.4 179.1 138 179.1 139.4 178.8C138.1 177.8 137.1 176.5 136.5 174.9C136.6 175.5 136.3 176.1 135.7 176.4C135.2 176.7 134.5 176.7 134 176.3C133.6 176.7 133.2 177.1 132.9 177.6C132.5 177.2 131.9 177 131.4 177.1C130.8 177.1 130.3 177.4 129.8 177.5C128.1 177.9 126.2 177.7 124.7 176.8C124 179.1 124.3 181.7 125.4 183.8C124.9 182.2 124.8 180.6 125.2 179Z" fill="#2070B4"/>
<path d="M139.5 172.9C139.7 174.6 140.1 176.4 140.6 178C139.2 177.3 138.6 175.8 138.1 174.3C138 173.9 137.8 173.5 138 173.1C138.3 172.3 139 173.8 139.5 172.9Z" fill="#FFD255"/>
<path d="M97.5001 382C102.3 379.3 105.4 374.8 108 370.1C111.2 330.7 108 333.2 109.6 316.1H122.2C122.7 326.8 122.5 336.6 120.1 346.7C118.3 354.6 116.7 360.6 114.9 370C114.6 371.8 114.2 374.3 114.6 376.1C114.9 377.4 115.1 378.6 114.5 379.6C113 381.9 111.5 381.4 108.9 382.4C105.8 383.5 106.4 385.9 100.1 386.1C98.9001 386.1 97.6001 386.2 96.6001 385.4C96.2001 385.1 95.9001 384.7 95.8001 384.2C95.5001 383.2 96.6001 382.5 97.5001 382Z" fill="#E7A988"/>
<path d="M116.8 360.8C117.9 356 118.9 351.8 120.1 346.8C122.5 336.6 122.7 326.9 122.2 316.2H109.6C108.1 332 110.7 331 108.6 361.7C112.8 364.1 115.2 362.5 116.8 360.8Z" fill="#D88568"/>
<path d="M107.5 380.5C106.2 381.5 104.8 382.3 103.3 382.6C101.8 383 100.2 382.8 98.8002 382.1C98.6002 382 98.4002 381.9 98.2002 381.8C98.5002 381.5 98.9002 381.2 99.2002 381C99.3002 380.9 99.5002 380.8 99.6002 380.8C99.8002 380.8 99.9002 380.9 100 381C100.6 381.3 101.3 381.3 101.9 381.3C103.9 381.3 105.8 381.3 107.5 380.5Z" fill="#022A44"/>
<path d="M97.5001 382C98.0001 381.7 98.4001 381.4 98.8001 381.1C100 382.2 101.8 382.6 103.6 382.4C107.7 381.9 111.3 378.9 114.7 376.4C115 377.6 115.1 378.7 114.5 379.6C113 381.9 111.5 381.4 108.9 382.4C105.8 383.5 106.4 385.9 100.1 386.1C98.9001 386.1 97.6001 386.2 96.6001 385.4C96.2001 385.1 95.9001 384.7 95.8001 384.2C95.5001 383.2 96.6001 382.5 97.5001 382Z" fill="#FFD255"/>
<path d="M108.9 278.1C109.1 284.1 108.4 291.4 108.2 297.4C108 303.5 107.2 309.6 107.2 315.7C107.1 330.1 110.6 344.7 107.6 358.6C112.9 360.4 118.7 360.1 123.9 357.9C125.8 335.1 128.3 304.5 132.1 279.8C125.2 280.3 115.4 281 108.9 278.1Z" fill="#352F6C"/>
<path d="M130.3 283.6C129.1 283.7 128 283.6 126.8 283.5C127 284.8 127.1 286.1 126.6 287.7C123 297.8 116.5 312.8 116.5 321.9C116.5 335.2 116.5 345.7 116.3 359.9C119 359.8 121.5 359.1 124 358C125.9 335.1 126.5 308.3 130.3 283.6Z" fill="#022A44"/>
<path d="M126.6 386L129.2 383.9C131 381.3 131.6 378.6 131.2 375.4C129 358 123.3 336.5 120.6 319.3H136.2C138.5 337.4 141.1 359 137.6 376.1C137.2 378.2 137.1 380.3 137.4 382.4C137.6 383.8 137.8 385.1 137.9 386.5C138 387.8 138.1 389.3 137.4 390.2C136.8 390.9 134.7 390.5 133 391.3C128.6 393.4 123.6 393.8 120.5 392.2C118.7 390.7 122.6 388.3 126.6 386Z" fill="#E7A988"/>
<path d="M136.2 319.2H120.6C123.2 335.8 128.7 356.4 131 373.5C134.3 374.9 137.2 373 138.5 371.2C140.6 354.9 138.3 335.6 136.2 319.2Z" fill="#D88568"/>
<path d="M136.9 385.3C137 384.9 137 384.6 137 384.2C136.7 384.7 136.5 385.3 136.3 385.8C136.4 385.9 136.6 385.8 136.7 385.7C136.8 385.6 136.8 385.4 136.9 385.3Z" fill="#022A44"/>
<path d="M128.4 390.6C127.6 390.8 126.8 391.1 126 391.1C124.5 391.1 123 390.2 122.2 388.8C122.6 388.5 123.1 388.2 123.5 387.8C125.3 389.3 127.8 389.3 130 388.9C132.2 388.5 134.4 387.6 136.6 387.4C133.9 388.5 131.2 389.7 128.4 390.6Z" fill="#022A44"/>
<path d="M122.8 388.3C123.4 389.1 124.3 389.7 125.5 390C127.3 390.5 129.9 389.7 131.5 389C133.5 388.2 135.7 386.9 137.8 386.4C137.9 387.7 138 389.2 137.3 390.1C136.7 390.8 134.6 390.4 132.9 391.2C128.5 393.3 123.5 393.7 120.4 392.1C119.3 391.1 120.6 389.8 122.8 388.3Z" fill="#FFD255"/>
<path d="M140.9 281C143.6 291 140 301.5 138.7 311.8C136.5 330 146.3 351 142.8 369C137.4 371.6 131.6 373.7 125.5 370.5C126.5 359.7 123.3 345.5 121.5 334.8C120.6 329.3 119.1 323.9 118.6 318.4C117.4 304.8 121.9 290.7 118.3 277.6C124.7 277.3 131.1 277 137.4 276.7L140.9 281Z" fill="#352F6C"/>
<path d="M134.5 285.3C135.7 285.1 136.9 284.9 137.9 284.3C138.9 283.7 139.7 282.5 139.5 281.4C129.7 280.8 119.9 279.8 110.1 278.4C109.6 279.2 109.7 280.4 110.2 281.2C110.7 282.1 111.6 282.7 112.4 283.2C115.6 285.1 119.4 286 123.2 286.2C127 286.3 130.8 285.9 134.5 285.3Z" fill="#022A44"/>
<path d="M138.8 311.8C140.1 301.5 143.6 291 141 281L137.6 276.6C136.4 276.7 135.3 276.7 134.1 276.8C136.5 280.7 138.4 284.8 137.8 288.9C133.8 311.9 137.8 331.9 140.8 353.9C141.8 359.3 142 364.6 141.4 369.8C141.9 369.6 142.4 369.3 143 369.1C146.4 351 136.5 330 138.8 311.8Z" fill="#022A44"/>
<path d="M144.3 205.7C146.8 208.3 147.5 212.5 147.1 216.2C146.5 221.4 144.7 226.3 142.2 230.8C139.9 234.9 138.1 239.9 139.3 245.8C139.9 248.8 141 251.5 142.1 254.3C144.8 261.5 146.2 269.2 146.2 277C146.2 278.3 146.1 279.6 145.3 280.6C144.4 281.7 143 281.8 141.7 281.9C132.4 282.4 119.3 282.9 108.7 278.9C109.2 264.4 115 252.1 115.5 237.6C115.8 230.7 112.3 225.9 115 219.6C117.5 214 125.6 207.1 130.9 204.6C135.2 202.5 140.9 202.1 144.3 205.7Z" fill="#FFD255"/>
<path d="M118.3 258.8C118.6 251.2 121.2 243.8 120.9 236.1C128.3 233.3 135.1 229.1 140.9 223.8C137.6 231.6 134.1 240 135.5 248.4C136.3 253.8 139 258.6 141.1 263.6C143.1 268.6 144.5 275.7 142.7 280.8C133.8 281.8 125.7 281.9 117.7 279.6C119.6 272.9 118 265.7 118.3 258.8Z" fill="#FAA701"/>
<path d="M117.1 241.5C117.3 239.5 117.7 237.5 118.9 235.9C120 234.5 121.6 233.5 123.2 232.7C129.5 229.3 136 226.1 142.7 223.3C138.1 234.2 130.7 244 121.4 251.4C120.6 252 119.6 252.7 118.6 252.4C117.3 252 117 250.4 116.9 249.1C116.8 246.6 116.9 244 117.1 241.5Z" fill="#022A44"/>
<path d="M111 279.8C109.9 273.3 111.6 266.8 113.3 260.5C114 258 114.7 255.4 115.2 252.9C116.1 248.6 116.4 244.1 116.8 239.8C117.1 235.9 117.4 231.9 118.1 228.1C119.3 221.1 122.4 211.7 130.2 206.7L130.5 207.1C122.9 212 119.9 221.3 118.7 228.2C118 232.1 117.7 236 117.4 239.9C117.1 244.2 116.7 248.7 115.8 253.1C115.3 255.6 114.6 258.2 113.9 260.7C112.2 267 110.4 273.4 111.6 279.8H111Z" fill="#022A44"/>
<path d="M141.5 206.7C138.5 206.1 135.4 207.5 132.8 209C129 211.3 125.3 214 121.6 216.6C117.9 219.2 113.8 221.3 109.4 221.6C103.2 214.6 99.3 212.9 93.3 206.2C92.6 205.2 92.2 204.1 91.8 202.9C91.2 201.1 90.7 199.2 89.7 197.6C89.5 197.3 89.3 197 88.9 196.9C88.6 196.8 88.3 196.9 88 196.9C87.3 196.9 86.7 196.4 86.2 196C84.1 194.4 82 192.7 79.9 191C79 192.7 80.7 193.5 83.5 196.2C82.9 196.1 81.8 197.1 81.9 197.8C81.9 198.4 82.1 199.1 81.9 199.7C81.7 200.2 81.3 200.7 81.5 201.2C81.6 201.5 81.9 201.6 82 201.9C82.2 202.3 82 202.7 82 203.1C82 203.8 82.4 204.4 82.8 204.9C83.4 205.7 84.1 206.5 84.9 207.1C85.5 207.5 86.2 207.7 86.8 208C87.9 208.7 88.4 209.4 89 210.6C89.1 210.8 89.7 212.1 89.8 212.3C89.8 212.3 95.9 224.3 102.3 232.8C103.2 233.9 104.6 234.5 106 234.4C116.6 233.6 126.9 230.3 136.5 225.5C138.7 224.4 141 223.1 142.8 221.4C145 219.4 146.8 216.7 146.6 213.5C146.5 210.3 144.4 207.3 141.5 206.7Z" fill="#E7A988"/>
<path d="M141.5 206.7C138.5 206.1 135.4 207.5 132.8 209C129 211.3 125.3 214 121.6 216.6C117.9 219.2 113.8 221.3 109.4 221.6C108.6 220.7 107.8 219.8 107 219C106.6 219.3 106.2 219.6 105.7 219.9C98.7001 223.9 91.7001 214.9 88.7001 207.9C87.7001 206 84.0001 205.9 81.9001 203.2C81.9001 203.8 82.3001 204.4 82.7001 204.9C83.3001 205.7 84.0001 206.5 84.8001 207.1C85.4001 207.5 86.1001 207.7 86.7001 208C87.8001 208.7 88.3001 209.4 88.9001 210.6C89.0001 210.8 89.6001 212.1 89.7001 212.3C89.7001 212.3 95.8001 224.3 102.2 232.8C103.1 233.9 104.5 234.5 105.9 234.4C116.5 233.6 126.8 230.3 136.4 225.5C138.6 224.4 140.9 223.1 142.7 221.4C144.9 219.4 146.7 216.7 146.5 213.5C146.5 210.3 144.4 207.3 141.5 206.7Z" fill="#D88568"/>
<path d="M138.7 205.7C136.1 206 133.9 207.7 131.7 209.2C126.4 212.9 120.6 215.8 114.5 217.7C113.1 218.1 111.7 218.6 110.5 219.4C109.3 220.2 108.3 221.6 108.4 223C108.5 224.3 109.3 225.5 109.2 226.8C109.1 228.2 107.9 229.3 107 230.4C106.1 231.5 105.3 233.1 106.1 234.3C106.6 235 107.5 235.4 108.4 235.6C109.7 236 111.1 236.4 112.2 237.1C113.4 237.8 114.4 239 114.6 240.3C114.7 241.2 114.5 242 114.5 242.9C114.5 243.8 114.7 244.7 115.4 245.2C115.8 245.5 116.4 245.6 116.9 245.6C119.5 245.6 121.3 243.2 123 241.2C128.8 234.8 137.6 231.8 143.4 225.3C145.4 223.1 146.9 220.5 147.6 217.6C148.2 214.7 147.9 211.6 146.2 209.1C144.5 207 141.6 205.4 138.7 205.7Z" fill="#FFD255"/>
<path d="M109.6 220.8L109.2 220.5C110.2 218.9 112.1 217.8 114.7 217.1C115.5 216.9 116.4 216.8 117.2 216.6C118.5 216.4 119.8 216.2 121 215.8C123.7 214.9 126 213.1 128 211.4L128.7 210.8C130.6 209.2 132.5 207.5 134.8 206.4C137.7 204.9 140.7 204.7 143.1 205.7L142.9 206.2C140.6 205.3 137.7 205.5 135 206.9C132.8 208 130.9 209.6 129 211.2L128.3 211.8C126.3 213.5 123.9 215.4 121.1 216.3C119.8 216.7 118.5 216.9 117.2 217.1C116.4 217.2 115.5 217.4 114.7 217.6C112.3 218.2 110.6 219.3 109.6 220.8Z" fill="#022A44"/>
<path d="M119.3 222.7C117 223.9 114.5 224.5 111.9 224.5C111.2 224.5 110.3 224.5 109.8 225C110.2 226.3 110 227.7 109.3 228.9C110.4 227.5 112.2 227.1 113.8 226.4C115.9 225.6 117.8 224.3 119.3 222.7Z" fill="#FAA701"/>
<path d="M130.5 225.9C125.6 230.5 120.4 234.8 114.9 238.7C113.2 236.9 110.8 235.7 108.4 235.4C112.5 235.2 116.4 233.9 120.1 232.1C123.7 230.4 127.1 228.2 130.5 225.9Z" fill="#FAA701"/>
<path d="M118.9 244.3C121.7 242.6 123.8 239.9 126.2 237.7C128.8 235.4 131.7 233.8 134.7 232C137.7 230.2 140.6 227.9 141.6 224.6C139.5 228 136.2 230.4 132.7 232.3C129.2 234.2 125.6 235.8 122.4 238.1C119.9 239.9 117.8 242 115.8 244.3C116.1 244.8 116.8 245 117.3 244.9C117.9 244.9 118.5 244.6 118.9 244.3Z" fill="#FAA701"/>
<path d="M118.3 187C118.5 187.1 118.7 187.1 118.9 187.3C119.1 187.5 119.2 187.7 119.1 187.9C119 188.1 118.7 188.3 118.6 188.1C118 187.7 117.6 187.2 117.1 186.6C117.5 186.8 117.9 186.9 118.3 187Z" fill="#D88568"/>
<path d="M494.7 238.6C494.6 237.9 494.1 237.3 494.1 236.5C494.1 236 494.3 235.5 494.3 235.1C494.3 234.3 493.9 233.7 493.6 233C493.2 232.2 493 231.2 492.9 230.3C492.4 230.5 491.9 230.8 491.6 231.3C491.3 231.8 491.2 232.4 491.3 232.9C491.4 233.5 491.8 234.1 491.7 234.7C491.6 234.9 491.5 235.1 491.4 235.3L491.3 235.2C490.8 234.7 490.2 234.3 489.6 233.8C487.7 232.4 486.2 230.4 484.7 228.5C484.5 228.2 484.1 227.9 483.7 228.1C483.4 228.3 483.3 229 483.5 229.4C484.1 231.2 485.2 232.6 486.4 234.1C486.6 234.3 486.7 234.5 486.8 234.7C486.9 235 486.7 235.3 486.6 235.6C486.3 236.3 486 237 485.7 237.7C485.5 238.4 485.2 239.2 485.5 239.9C485.6 240.4 486 240.8 486.3 241.2C487 242.1 487.9 243 489 243.2C489.6 243.3 490.4 243.5 491.1 243.4C493.1 245.1 495 247 496.6 249.1C497.8 247.8 499.3 246.6 500.9 245.7C498.8 243.7 496.7 241.6 494.8 239.5C494.7 239.3 494.7 238.9 494.7 238.6Z" fill="#E7A988"/>
<path d="M486.1 240.3C485.8 239.6 485.9 238.8 486.1 238.1C486.3 236.9 486.5 235.7 486.7 234.5C487.2 235 487.9 235.1 488.5 235.3C489.1 235.5 489.8 235.8 490.1 236.4C490.2 236.6 490.2 236.8 490.2 237.1C490.3 238.3 490.5 239.5 490.6 240.8C490 241.4 489.1 241.8 488.2 241.8C487.3 241.7 486.4 241.2 486.1 240.3Z" fill="#D88568"/>
<path d="M486.3 236.4C486.7 236.7 487.1 237 487.5 237.2C487.7 237.3 488 237.5 488.2 237.4C488.4 237.3 488.6 237 488.6 236.8C488.6 236.3 488.4 235.7 488 235.3C487.6 234.9 487.2 234.6 486.7 234.3C486.5 234.2 486.2 234 486 234C485.6 234 485.3 234.3 485.2 234.7C485.1 235.1 485.2 235.4 485.5 235.8C485.7 235.9 486 236.2 486.3 236.4Z" fill="#E7A988"/>
<path d="M484.6 237.4C484.7 237.8 485.1 238 485.5 238.2C485.9 238.4 486.3 238.7 486.8 238.9C487.1 239.1 487.4 239.2 487.7 239.3C488 239.4 488.4 239.3 488.6 239C488.8 238.8 488.8 238.4 488.7 238.2C488.6 237.9 488.4 237.7 488.2 237.5C487.5 236.7 486.5 236.1 485.5 235.8C485.3 235.7 485.1 235.7 485 235.8C484.8 235.9 484.7 236.1 484.7 236.3C484.6 236.7 484.5 237.1 484.6 237.4Z" fill="#E7A988"/>
<path d="M484.8 238.8C484.6 239.2 484.7 239.7 485 240.1C485.3 240.5 485.7 240.7 486.1 240.9C486.5 241.1 487 241.1 487.4 241.2C487.6 241.2 487.9 241.3 488.1 241.2C488.3 241.2 488.6 241 488.7 240.8C488.9 240.5 488.7 240.1 488.4 239.8C488.1 239.5 487.6 239.3 487.2 239C486.8 238.8 486.4 238.6 486 238.4C485.8 238.3 485.5 238.2 485.3 238.2C485.1 238.4 484.9 238.6 484.8 238.8Z" fill="#E7A988"/>
<path d="M554.1 260.7L549.8 259.2C530.7 260 511.3 253.2 497 240.4C496.4 239.9 495.6 239.9 495 240.4C494.1 241.2 493.3 242 492.7 243C491.8 244.4 491.4 246.1 492 247.6C492.5 248.8 493.5 249.7 494.5 250.6C501.2 256.2 508 261.9 515.5 266.4C523 270.9 531.4 274.2 540.2 274.7C544.4 274.9 548.8 274.4 552.1 271.8C555.3 269.2 556.7 264 554.1 260.7Z" fill="#98A9D8"/>
<path d="M534 261.5C534 261.9 533.7 262.2 533.3 262.2C532.9 262.2 532.6 261.9 532.6 261.5C532.6 261.1 532.9 260.8 533.3 260.8C533.7 260.8 534 261.1 534 261.5Z" fill="#E8E9EB"/>
<path d="M524.2 266.3C524.2 266.6 523.9 266.9 523.6 266.9C523.3 266.9 523 266.6 523 266.3C523 266 523.3 265.7 523.6 265.7C524 265.8 524.2 266 524.2 266.3Z" fill="#E8E9EB"/>
<path d="M523 259.2C523.497 259.2 523.9 258.797 523.9 258.3C523.9 257.803 523.497 257.4 523 257.4C522.503 257.4 522.1 257.803 522.1 258.3C522.1 258.797 522.503 259.2 523 259.2Z" fill="#E8E9EB"/>
<path d="M511.9 254.3C512.176 254.3 512.4 254.076 512.4 253.8C512.4 253.524 512.176 253.3 511.9 253.3C511.624 253.3 511.4 253.524 511.4 253.8C511.4 254.076 511.624 254.3 511.9 254.3Z" fill="#E8E9EB"/>
<path d="M506.2 253.2C506.2 253.6 505.9 253.9 505.5 253.9C505.1 253.9 504.8 253.6 504.8 253.2C504.8 252.8 505.1 252.5 505.5 252.5C505.9 252.5 506.2 252.8 506.2 253.2Z" fill="#E8E9EB"/>
<path d="M500 245.6C500 245.9 499.7 246.2 499.4 246.2C499.1 246.2 498.8 245.9 498.8 245.6C498.8 245.3 499.1 245 499.4 245C499.7 245 500 245.3 500 245.6Z" fill="#E8E9EB"/>
<path d="M496.1 249.3C496.542 249.3 496.9 248.942 496.9 248.5C496.9 248.058 496.542 247.7 496.1 247.7C495.658 247.7 495.3 248.058 495.3 248.5C495.3 248.942 495.658 249.3 496.1 249.3Z" fill="#E8E9EB"/>
<path d="M492.3 243.7C491.7 244.9 491.4 246.4 491.9 247.7C492.4 248.9 493.4 249.8 494.4 250.7C501.1 256.3 507.9 262 515.4 266.5C522.9 271 531.3 274.3 540.1 274.8C544.3 275 548.7 274.5 552 271.9C553.4 270.8 554.5 269.2 555 267.4C532.3 271.1 507.3 261.7 492.3 243.7Z" fill="#7D95C9"/>
<path d="M515.8 255.7C515.2 257.8 515.9 260.2 517.6 261.6C517.6 259.5 517 257.4 515.8 255.7Z" fill="#7D95C9"/>
<path d="M516.2 396.7C514.2 396.7 512.5 398.4 512.5 400.4C512.5 402.4 514.2 404.1 516.2 404.1C518.2 404.1 519.9 402.4 519.9 400.4C519.9 398.3 518.2 396.7 516.2 396.7Z" fill="#022A44"/>
<path d="M585 396.9V396.2V395.3C585 394.5 584.4 393.8 583.5 393.7C579.1 393.3 566.3 392.3 561.4 391.7C555.4 391 552.9 387.8 552.9 387.8H552.1V367.3H551.3V338H548.3V367.4H547.5V387.9H546.7C546.7 387.9 544.2 391.1 538.2 391.8C533.3 392.4 520.4 393.4 516.1 393.8C515.3 393.9 514.6 394.6 514.6 395.4V396.3H515.2V398.9H517.6V396L545.4 393.8C544.8 394.3 544.2 394.7 543.6 395.1C543.1 395.4 542.6 395.8 542.2 396.3C542 396.5 541.9 396.8 541.8 397.1H540V404H546.1V397H544.2C544.2 396.8 544.2 396.6 544.3 396.5C546.7 396.2 549 395.1 550.8 393.5L582.5 396.1V397C581.1 397.5 580 398.9 580 400.5C580 402.5 581.7 404.2 583.7 404.2C585.7 404.2 587.4 402.5 587.4 400.5C587.5 398.7 586.5 397.4 585 396.9Z" fill="#022A44"/>
<path d="M506.6 346.3C504.7 347.9 503 350.3 503.7 352.7C504.6 355.8 508.7 356.3 511.9 356.2C523.7 356 535.5 355.8 547.3 355.6C555.1 355.5 563.5 355.1 569.5 350.2C573.8 346.7 576.2 341.4 578 336.2C580.6 328.7 582.5 320.9 583.1 313C583.5 307.7 583.3 302.1 580.9 297.3C578.5 292.5 573.3 288.8 568 289.6C564.3 290.1 561.1 292.7 559 295.7C556.9 298.8 555.7 302.4 554.7 306C552.1 314.7 549.6 324.1 542.8 330.1C532.7 338.9 516.7 337.6 506.6 346.3Z" fill="#FAA701"/>
<path d="M506.6 343.9C504.7 345.5 503 347.9 503.7 350.3C504.6 353.4 508.7 353.9 511.9 353.8C523.7 353.6 535.5 353.4 547.3 353.2C555.1 353.1 563.5 352.7 569.5 347.8C573.8 344.3 576.2 339 578 333.8C580.6 326.3 582.5 318.5 583.1 310.6C583.5 305.3 583.3 299.7 580.9 294.9C578.5 290.1 573.3 286.4 568 287.2C564.3 287.7 561.1 290.3 559 293.3C556.9 296.4 555.7 300 554.7 303.6C552.1 312.3 549.6 321.7 542.8 327.7C532.7 336.5 516.7 335.3 506.6 343.9Z" fill="#FFD255"/>
<path d="M574 297.1C576.2 297.8 577.7 300 578 302.3C578.4 304.6 577.9 306.9 577.3 309.2C576 314.6 574.5 319.9 572.8 325.2C570.7 331.5 568.2 338.1 563.2 342.5C557.9 347.3 550.6 349 543.5 350C535.2 351.2 526.8 351.5 518.4 351.3C515.9 351.2 513 350.9 511.8 348.7C511 347.3 511.1 345.6 511.8 344.1C512.5 342.6 513.7 341.5 514.9 340.5C521.7 335 530.6 333 538.1 328.5C544.5 324.6 549.7 318.7 552.9 311.8C554.2 308.9 555.2 305.9 556.6 303.1C558 300.3 559.9 297.6 562.6 296C565.3 294.4 569 294.1 571.6 295.9L574 297.1Z" fill="#352F6C"/>
<path d="M486.6 392.8C488.7 391.9 492.2 390.8 494.3 388.9C497.5 385.9 497.3 384.5 497.6 381.4C497.9 377.8 497.1 373.3 496.8 369.7C496.7 368.5 496.6 367.3 496.4 366.2H506.6C505.1 374.2 505.2 382.4 506.7 390.3C507 391.9 507.3 393.7 506.3 394.9C505.4 396 503.8 396.1 502.5 395.9C501.1 395.7 500.2 395.4 498.9 395.6C494.5 396.3 490.1 397.7 486 396.6C485.2 396.4 483.8 395.9 483.6 395.1C483.3 394.2 485.7 393.2 486.6 392.8Z" fill="#E7A988"/>
<path d="M506.7 390.3C505.1 382.4 505.1 374.1 506.6 366.2H496.4C496.5 367.4 496.6 368.5 496.8 369.7C496.9 371.1 497.1 372.7 497.3 374.3C501.1 375.7 502.1 380.5 503.8 383.9C505.8 388.9 500.8 391.9 496.8 392.9C492.8 394 488.1 394.9 483.6 395.1C483.6 395.1 483.6 395.1 483.6 395.2C483.8 396 485.2 396.5 486 396.7C490.1 397.8 494.6 396.4 498.9 395.7C500.3 395.5 501.2 395.8 502.5 396C503.9 396.2 505.4 396.1 506.3 395C507.3 393.7 507 391.9 506.7 390.3Z" fill="#D88568"/>
<path d="M487.6 397.9C486.2 397.8 484.7 397.5 483.6 396.6C483.1 396.2 482.6 395.6 482.8 395C482.9 394.6 483.3 394.2 483.6 394C484.6 393.3 485.8 392.7 487 392.4C487 393.1 487.4 393.7 488 394C488.6 394.4 489.2 394.5 489.9 394.6C492.8 395 495.8 394.5 498.7 393.8C501.6 393.1 504.5 392.3 507.4 392C507.8 393.4 507 395.1 505.7 395.8C504.1 396.6 502.2 396.1 500.4 396.1C498.3 396.1 496.2 396.9 494.1 397.4C491.9 398 489.7 398.1 487.6 397.9Z" fill="#2070B4"/>
<path d="M497 374.6C497 373 496.8 371.4 496.7 369.7C496.6 368.5 496.5 367.3 496.3 366.2H506.5C506 369 505.7 371.8 505.5 374.6H497Z" fill="#7D95C9"/>
<path d="M508.6 370.4L496.9 370.9C495.5 370.9 494.3 369.8 494.1 368.4C492.1 354.4 488.9 345.3 491.4 332.7C492.3 328.2 496.8 324.3 501.3 323.5C513.2 321.3 531.1 319.7 532.2 306.4L549.7 309.7C550.1 315.8 550.1 330.1 544.4 338.4L506.9 341C507.3 352.5 507.6 358.1 508.6 370.4Z" fill="#2070B4"/>
<path d="M548.9 326C533.5 328.3 516.8 326.6 501.7 331.9C498.7 333.9 494.7 336.9 495.7 340.9C496.9 351.2 497.4 361.1 498.2 370.9L508.5 370.4C507.4 358.1 507.2 352.5 506.7 341L544.2 338.4C546.7 335 548.1 330.5 548.9 326Z" fill="#22619C"/>
<path d="M494.1 403.3C496 402.2 499.6 400.6 502 399.3C504.6 397.9 505.6 396.5 506 393.7C506.5 390.1 505.4 383.8 505.1 380.2C505 379 504.9 377.8 504.7 376.7H514.9C514.6 385.1 513.5 392.9 515 400.8C515.3 402.4 515.6 404.2 514.6 405.4C513.1 407.2 510.3 406.5 508.3 406.5C505.9 406.5 503.4 406.6 501 406.9C498.8 407.2 496.4 407.7 494.2 407.1C493.4 406.9 492.6 406.4 492.4 405.6C492.3 404.6 493.2 403.8 494.1 403.3Z" fill="#E7A988"/>
<path d="M515.1 400.8C513.5 392.9 514.7 385.1 515 376.7H511.4C512.5 386.8 513.9 397.4 512 406.6C513.1 406.5 514 406.2 514.7 405.4C515.7 404.2 515.4 402.3 515.1 400.8Z" fill="#D88568"/>
<path d="M505.1 385.2C505.1 383.6 504.8 381.7 504.6 380.1C504.5 378.9 504.9 377.9 504.8 376.7L515.7 376.8C515.2 379.6 515.1 382.4 515 385.2H505.1Z" fill="#7D95C9"/>
<path d="M491.1 405.9C491.7 407.2 494.1 408.1 495.6 408.3C497 408.4 498.4 408.1 499.8 407.9C502.6 407.4 505.4 407.3 508.2 407.5C509.5 407.6 510.9 407.7 512.2 407.6C513.5 407.4 515.3 407.1 516.2 406.1C517.1 405.1 516.2 403.1 515.4 402C512.4 404 509.4 404.6 505.8 404.8C503.8 404.9 501.8 405.2 499.8 405.1C498.4 405.1 496.2 405.3 495.8 403.5C495.7 402.9 495.9 402.6 496.3 402.1C495.5 401.7 494.4 403 493 403.6C492.5 403.8 491.6 404.1 491.2 404.6C490.8 404.9 490.9 405.4 491.1 405.9Z" fill="#2070B4"/>
<path d="M514.8 381.6H505.5C503.9 381.6 502.5 380.4 502.3 378.8L498.8 352.5C498.3 348.7 497.5 344 499.3 340.6C500.5 338.4 501.8 336.2 503.9 334.8C512.5 328.9 524.6 327.3 531.3 320.8C534.6 317.6 534.8 313.4 536.1 307.9C542.5 309.2 551.7 311 556.8 315.1C558.8 355.2 533.8 339.7 517.6 347.4C517.6 358 518 368.5 517.5 378.9C517.5 380.4 516.3 381.6 514.8 381.6Z" fill="#2070B4"/>
<path d="M535.2 310.4C534 309.9 532.5 309.4 531.4 310.1C529.7 311.2 530.2 314 528.6 315.2C538.7 318.8 547.5 325.8 553.3 334.7C554.9 331.4 554.3 327.4 552.5 324.2C550.7 321 547.9 318.5 545 316.3C541.9 314 538.7 312 535.2 310.4Z" fill="#22619C"/>
<path d="M556.9 315C555.5 313.8 553.7 312.9 551.7 312C557.5 334.1 533.8 347.6 513.7 342.8C516.7 353.8 517.7 365.8 511.7 375.8C510 378.3 506.3 379.4 502.4 379.2C502.8 380.5 504.1 381.5 505.5 381.5H514.8C516.3 381.5 517.6 380.3 517.6 378.8C518 368.4 517.7 357.9 517.7 347.3C533.9 339.6 558.9 355.1 556.9 315Z" fill="#22619C"/>
<path d="M528.7 312.4C529.3 311.5 529.4 309.2 530 308.3C535.3 308.7 539.9 311.8 543.8 315.4C547.7 319 551 323.1 555.2 326.4C555.7 326.8 556.3 327.2 556.6 327.9C557.3 329.3 556.3 330.9 555.4 332.1C552.4 328.2 548.5 325 544.7 321.8C539.6 317.6 534.9 314.7 528.7 312.4Z" fill="#352F6C"/>
<path d="M534.2 291.6C532.9 289.1 531.8 286.5 531.5 283.7C531.2 279.7 532.8 275.9 535 272.4C534.9 264.7 541.1 258.3 548.8 258.3C552.6 258.3 556.5 258.7 560.3 259.4C563.9 260.1 567.6 261.3 569.9 264.1C571.7 266.2 572.3 269.1 572.8 271.8C574.9 285.2 560.6 298.9 557.9 328.1C557.8 328.9 556.9 329.4 556.2 328.9C548 322.9 538.1 309.9 528.9 308.9C531.2 306.1 533.1 299.5 534.2 291.6Z" fill="#98A9D8"/>
<path d="M572.8 271.8C572.4 269.1 571.7 266.2 569.9 264.1C567.6 261.3 563.9 260.1 560.3 259.4C558.8 259.1 557.4 258.9 555.9 258.7C552.5 263.1 549.5 267.6 550.4 272.9C550.6 278.4 550.9 283.9 550.8 289.3C547.6 289.1 544.5 288.9 541.3 288.7C539.8 288.6 538.4 288.5 537 288.1C535.6 287.7 534.3 286.8 533.5 285.6C533 284.7 532.6 283.6 531.6 283.5C532.2 287 533.8 290.3 536.1 293C536.3 293.2 536.5 293.4 536.8 293.5C537.5 293.6 537.8 292.5 538.5 292.1C539 291.8 539.7 292.1 540.1 292.4C540.6 292.8 540.9 293.2 541.5 293.5C542.7 294.1 544.2 293.4 545.5 293.6C547.5 293.8 548.9 295.7 550.5 297C549.9 304.6 548.3 312 544.8 318.6C548.8 322.3 552.7 326.3 556.3 328.9C557 329.4 557.9 328.9 558 328.1C560.6 299 574.9 285.3 572.8 271.8Z" fill="#7D95C9"/>
<path d="M542.4 260.7C541.8 261.5 541.7 262.5 541.7 263.5C541.6 266 542 268.7 543.8 270.4C544.8 271.4 546.2 272 547.6 272.2C549 272.4 550.5 272.2 551.9 271.9C555.6 271.1 559.1 269.2 561.8 266.5C562.9 265.4 563.9 263.9 563.5 262.4C563.1 261.1 561.8 260.4 560.6 259.9C555.5 257.7 549.5 257.1 544.4 259.3C543.7 259.6 542.9 260 542.4 260.7Z" fill="#022A44"/>
<path d="M538.7 297.5C538.5 297.2 538.1 297 537.8 297.1C537.5 297.2 537.2 297.6 537.3 298C537.4 298.4 537.9 298.7 538.3 298.6C538.7 298.4 538.9 297.9 538.7 297.5Z" fill="#E8E9EB"/>
<path d="M538.2 277.7C538.6 277.4 538.6 276.7 538.2 276.4C537.8 276.2 537.1 276.5 537.1 277C537.1 277.6 537.8 278 538.2 277.7Z" fill="#E8E9EB"/>
<path d="M546.7 282.6C547 283 547.8 282.9 548 282.4C548.2 281.9 547.8 281.3 547.3 281.3C546.7 281.3 546.3 282.1 546.7 282.6Z" fill="#E8E9EB"/>
<path d="M541.6 307.5C541 307.6 540.8 308.5 541.3 308.9C541.8 309.3 542.6 308.9 542.6 308.3C542.6 307.8 542.1 307.4 541.6 307.5Z" fill="#E8E9EB"/>
<path d="M554.7 306.3C554.9 306.1 555.1 305.8 555.1 305.5C555.2 305.2 555.1 304.9 554.9 304.7C554.5 304.4 553.9 304.8 553.9 305.3C553.8 305.7 554.2 306.2 554.7 306.3Z" fill="#E8E9EB"/>
<path d="M553.6 316.6C553.6 317 553.2 317.4 552.8 317.4C552.4 317.4 552 317 552 316.6C552 316.2 552.4 315.8 552.8 315.8C553.3 315.8 553.6 316.1 553.6 316.6Z" fill="#E8E9EB"/>
<path d="M548.2 301.2C548.642 301.2 549 300.842 549 300.4C549 299.958 548.642 299.6 548.2 299.6C547.758 299.6 547.4 299.958 547.4 300.4C547.4 300.842 547.758 301.2 548.2 301.2Z" fill="#E8E9EB"/>
<path d="M539.1 287.1C539.542 287.1 539.9 286.742 539.9 286.3C539.9 285.858 539.542 285.5 539.1 285.5C538.658 285.5 538.3 285.858 538.3 286.3C538.3 286.742 538.658 287.1 539.1 287.1Z" fill="#E8E9EB"/>
<path d="M557 324.5C557 324.9 556.7 325.2 556.3 325.2C555.9 325.2 555.6 324.9 555.6 324.5C555.6 324.1 555.9 323.8 556.3 323.8C556.7 323.8 557 324.1 557 324.5Z" fill="#E8E9EB"/>
<path d="M545.5 315.6C545.5 315.9 545.2 316.2 544.9 316.2C544.6 316.2 544.3 315.9 544.3 315.6C544.3 315.3 544.6 315 544.9 315C545.2 315 545.5 315.3 545.5 315.6Z" fill="#E8E9EB"/>
<path d="M535.6 306.8C535.6 307.3 535.2 307.7 534.7 307.7C534.2 307.7 533.8 307.3 533.8 306.8C533.8 306.3 534.2 305.9 534.7 305.9C535.2 305.9 535.6 306.3 535.6 306.8Z" fill="#E8E9EB"/>
<path d="M555.8 227.7C554.1 227.1 553 225.2 551.2 225.2C549.5 225.3 548.5 227.2 547 227.9C545.5 228.5 543.6 228.1 542.5 229.2C541.2 230.4 541.8 232.5 541.3 234.2C540.9 235.7 539.7 236.9 538.7 238.1C537.7 239.3 536.9 240.9 537.4 242.4C537.7 243.3 538.6 244 538.5 245C538.5 245.4 538.2 245.8 538.1 246.2C537.8 247.2 538.1 248.4 538.4 249.4C538.8 250.4 538.5 251.3 538.4 252.4C538.4 253.5 537.4 254.4 537.7 256.2C548.4 258.1 559 259.4 569.6 256.9C568.8 256.2 568.8 254.4 569.3 253.5C569.6 252.9 570.2 252.3 570 251.7C569.8 251.1 568.9 251 568.5 250.6C567.4 249.4 567.2 247.9 567.7 247.5C568.6 246.7 568.5 245.3 568.5 244.2C568.5 241.8 566.2 240.1 565 238C564 236.3 563.8 234.3 563.2 232.4C562.6 230.5 561.4 228.6 559.5 228.2C558.4 227.7 557.1 228.1 555.8 227.7Z" fill="#FFD255"/>
<path d="M543.1 234.1C542.4 235 541.8 236.1 542.1 237.2C542.3 237.9 542.9 238.5 543 239.2C543.1 240.8 540.7 241.6 540.5 243.3C540.4 244.2 541.1 244.9 541.4 245.8C541.8 246.9 541.6 248.2 541.2 249.3C540.8 250.4 540.3 251.5 540.1 252.7C539.9 253.9 540.2 255.2 541.1 256C541.6 256.4 542.2 256.6 542.9 256.7C546.3 257.6 549.7 258.2 553.2 258.2C556.7 258.2 560.2 257.5 563.3 255.9C563.4 255.9 563.5 255.8 563.5 255.7C563.7 255.4 563.3 255.1 563 255C562.3 254.5 562.1 253.5 562.2 252.7C562.3 251.8 562.7 251 562.8 250.2C563 249.3 562.9 248.4 562.4 247.7C561.6 246.7 560 246.9 558.9 246.3C557.5 245.6 556.9 244 556.6 242.5C556.3 241 555.9 239.4 554.7 238.3C553.4 237.2 551.4 237.1 550.4 235.7C549.9 234.9 549.8 233.9 549.3 233.1C548.6 232.1 547.2 231.8 546 232.1C544.9 232.4 543.9 233.2 543.1 234.1Z" fill="#D88568"/>
<path d="M547.7 258.6C549.4 254.8 549.6 251.2 550 247.1C552.9 247.9 555.2 248 558.2 247.7C558.8 251.6 559.4 255.5 560 259.4C560.7 259.7 561.2 260.2 561.4 260.8C561.6 261.6 561.2 262.4 560.7 263.2C559.1 265.7 556.9 268 554.2 269.1C551.5 270.3 548.1 270.2 545.7 268.4C543.3 266.6 542.5 262.9 544.2 260.5C544.8 259.8 546.9 259 547.7 258.6Z" fill="#E7A988"/>
<path d="M561.2 260.4C559.3 266.5 553 270.2 546.7 267.9C545.8 267.9 544.4 266.8 543.5 265.4C543.9 266.6 544.6 267.7 545.6 268.5C548 270.3 551.4 270.4 554.1 269.2C556.8 268 559 265.7 560.6 263.3C561.1 262.6 561.5 261.8 561.3 260.9C561.4 260.7 561.3 260.6 561.2 260.4Z" fill="#D88568"/>
<path d="M557.5 247.8C554.9 248 552.7 247.8 550 247.1C549.6 251.2 549.3 254.8 547.7 258.6C546.9 259 544.8 259.8 544.3 260.5C543.7 261.4 543.4 262.4 543.4 263.5C546.8 261.2 551.1 259.8 554.8 258.9C557.4 258 556.9 252.5 557.5 247.8Z" fill="#D88568"/>
<path d="M548.8 255.3C549.5 252.7 549.7 250 550 247.1C552.4 247.8 554.6 248 557 247.8C556.8 252.8 553.2 254.5 548.8 255.3Z" fill="#022A44"/>
<path d="M543.7 239.7C544 239.3 544 238.7 544 238.2C543.9 237.1 544.3 235.3 544.7 234.2L545.4 232.2C549.7 230 554.8 230.9 558.5 234C560 235.3 561.3 237 561.5 239C561.7 241 560.9 242.9 560.1 244.7C559.2 246.7 558.2 248.8 556.6 250.3C555.1 251.7 553 252.5 551 253C549.6 253.3 548.1 253.4 546.6 253.4C545.5 253.4 544.5 252.7 544.1 251.6C543.1 248.6 542.4 245.5 542.8 242.2C542.8 241.2 543.2 240.4 543.7 239.7Z" fill="#E7A988"/>
<path d="M561.5 238.9C561.3 236.9 560 235.2 558.5 233.9C555.6 231.5 552 230.4 548.6 231.1C549 231.3 549.4 231.6 549.8 231.9C552.4 233.6 552 238.3 555 240.2C556 240.8 556.6 241.9 556.5 243C556.4 245.1 556.7 247.2 557.7 249C558.7 247.7 559.4 246.1 560.1 244.6C560.9 242.8 561.7 240.9 561.5 238.9Z" fill="#D88568"/>
<path d="M564.4 249.8C564.6 248 565.2 246.2 565.1 244.3C565 242.9 564.6 241.6 563.8 240.5C563.6 240.2 563.4 240 563.2 239.8C563.2 239.6 563.2 239.4 563.2 239.2C563.3 237.6 563.2 235.8 562.5 234.4C561.6 232.6 559.9 231.3 558 230.5C555.5 229.4 552.4 228.8 549.7 229.1L547.1 230.3C548.2 230 551.5 231 552.1 232C552.6 232.9 552.6 234 552.9 234.9C553.3 236.1 554.2 237 555.3 237.5C556.2 237.8 557.2 238 557.7 238.7C558.2 239.4 557.9 240.4 557.7 241.3C557.4 242.5 557.2 243.7 557.4 245C557.5 245.6 557.7 246.2 558 246.8C558.1 247.5 558.7 248.2 559.3 248.7C560.1 249.3 561.1 249.8 561.5 250.7C562 251.7 561.8 253.1 562.5 254C563.2 254.9 564.4 255 565.5 255.1C564.4 253.7 564.2 251.6 564.4 249.8Z" fill="#FFD255"/>
<path d="M538.4 243C538.7 243.3 539 243.5 539.1 243.9C539.2 244.4 538.9 244.8 538.7 245.2C538.3 246.2 538.5 247.4 539.3 248.1C538.9 247.1 539 246.1 539.4 245.1C539.7 244.6 540.1 244 539.9 243.5C539.8 242.7 538.8 242.3 538.5 241.6C538.3 241 538.5 240.4 538.8 239.9C539.1 239.4 539.5 238.9 539.6 238.3C539 238.9 538.3 239.6 538 240.4C537.8 241.3 537.8 242.3 538.4 243Z" fill="#FAA701"/>
<path d="M540.4 249.6C539.8 250.6 539.3 251.7 539.1 252.8C538.9 253.9 539.2 255.2 540.1 256C539.5 253.9 539.6 251.7 540.4 249.6Z" fill="#FAA701"/>
<path d="M559.6 237.1C560.4 237.3 560.8 238.2 560.8 239C560.8 239.8 560.4 240.6 560.2 241.4C560 242.2 559.9 243.1 560.3 243.8C560.7 244.5 561.5 244.8 562.2 245.2C562.9 245.6 563.5 246.3 563.4 247.1C563.3 247.7 562.8 248.1 562.8 248.7C562.8 249.1 563.1 249.5 563.4 249.8C563.7 250.1 564.1 250.3 564.3 250.7C564.6 251.1 564.6 251.6 564.5 252.1C564.4 252.6 564.2 253 564 253.5C564.5 253.1 564.9 252.6 564.9 251.9C565 251.3 564.8 250.6 564.4 250.2C564.2 249.9 563.9 249.7 563.7 249.4C563.5 248.9 563.7 248.3 563.9 247.8C564.1 247.3 564.4 246.8 564.3 246.2C564.2 245.5 563.5 245.1 562.8 244.7C562.2 244.4 561.4 244 561.2 243.3C560.9 242.5 561.4 241.7 561.6 240.8C562.1 239.3 561.1 237.5 559.6 237.1Z" fill="#FAA701"/>
<path d="M567.1 246C567.4 245.3 568 244.7 567.9 244C567.8 243.3 567.1 242.8 566.5 242.5C566.8 242.7 567.1 242.9 567.3 243.1C567.5 243.4 567.7 243.7 567.6 244C567.5 244.5 567.1 244.8 566.7 245.2C565.8 246.2 565.5 247.8 566.1 249C566.4 249.6 567 250.2 567.2 250.8C567.6 251.7 567.5 252.7 567.1 253.6C566.7 254.5 566.2 255.3 565.6 256C566.3 255.4 566.9 254.9 567.4 254.2C567.9 253.5 568.2 252.6 568.1 251.7C567.9 250.7 567.2 249.9 566.8 249C566.5 248.2 566.6 247 567.1 246Z" fill="#FAA701"/>
<path d="M550 228.6C551.3 228.9 552.3 229.8 553.3 230.8C551.2 229.4 548.4 229.2 546.2 230.4C546.9 229 548.5 228.2 550 228.6Z" fill="#FAA701"/>
<path d="M556.5 233.5C556 233 555.7 232.3 555.4 231.7C555.1 231.1 554.8 230.4 554.3 229.9C553.8 229.4 553.1 229 552.5 229.1C553.1 229.3 553.6 229.9 553.9 230.5C554.2 231.1 554.5 231.8 554.8 232.3C555.3 232.9 555.9 233.4 556.5 233.5Z" fill="#FAA701"/>
<path d="M556.4 230.8C556.5 231.6 557.1 232.3 557.9 232.5C557.9 232 557.6 231.4 557.2 231.1C556.8 230.7 556.9 230.7 556.4 230.8Z" fill="#FAA701"/>
<path d="M573.2 311.2L563.5 312.5C564 303.9 563.5 295.3 562.1 286.8C561.1 280.4 559.6 273.6 562 267.6C562.9 265.3 564.7 263 567.2 262.8C568.9 262.6 570.5 263.5 571.7 264.7C572.9 265.9 573.6 267.5 574.2 269.1C577.3 277.4 576.6 283.7 575.8 292.5C575.2 298.4 575.3 305.4 573.2 311.2Z" fill="#98A9D8"/>
<path d="M561.4 269.3C559.8 274.9 561.1 281 562.1 286.9C563.5 295.4 563.9 304 563.5 312.6L566.2 312.2C567.6 297.9 565.4 283 561.4 269.3Z" fill="#7D95C9"/>
<path d="M565.6 269.9C565.931 269.9 566.2 269.631 566.2 269.3C566.2 268.969 565.931 268.7 565.6 268.7C565.269 268.7 565 268.969 565 269.3C565 269.631 565.269 269.9 565.6 269.9Z" fill="#E8E9EB"/>
<path d="M572.7 275.4C573.252 275.4 573.7 274.952 573.7 274.4C573.7 273.848 573.252 273.4 572.7 273.4C572.148 273.4 571.7 273.848 571.7 274.4C571.7 274.952 572.148 275.4 572.7 275.4Z" fill="#E8E9EB"/>
<path d="M568.2 285C568.2 285.4 567.8 285.8 567.4 285.8C567 285.8 566.6 285.4 566.6 285C566.6 284.6 567 284.2 567.4 284.2C567.9 284.2 568.2 284.5 568.2 285Z" fill="#E8E9EB"/>
<path d="M574.4 286.1C574.842 286.1 575.2 285.742 575.2 285.3C575.2 284.858 574.842 284.5 574.4 284.5C573.958 284.5 573.6 284.858 573.6 285.3C573.6 285.742 573.958 286.1 574.4 286.1Z" fill="#E8E9EB"/>
<path d="M572.6 296.8C572.6 297.2 572.3 297.5 571.9 297.5C571.5 297.5 571.2 297.2 571.2 296.8C571.2 296.4 571.5 296.1 571.9 296.1C572.3 296.1 572.6 296.5 572.6 296.8Z" fill="#E8E9EB"/>
<path d="M561.4 282C561 282.5 560.1 283 560 283.6C559.9 283.8 560.1 283.9 560.1 284.1C560.1 285.1 560.1 286.1 560.3 287.2C558.6 288.9 556.8 288.9 555 289.6L554.8 287.7C554.7 287.3 554.5 286.7 554.2 286.4C554 286 553.6 285.8 553.3 285.5C552.6 284.8 552.3 283.8 552.2 282.9C552.1 281.9 552.2 281 552.2 280C552.2 277.2 551.6 274.4 551.3 271.6C551.3 271.2 551.2 270.8 551.4 270.5C551.7 270.5 552.2 270.9 552.3 271.2C552.8 273 553.2 274.3 553.6 276.7C554 276.2 553.8 275.6 553.7 274.9C553.7 274.2 553.5 273.4 553.4 272.7C553.2 271.6 552.9 270.7 552.9 269.6C552.9 269.3 553.2 268.8 553.4 268.7C553.7 268.6 553.9 268.8 554 269.2C553.9 268.7 554 268.7 554 268.4C554 268.1 554.3 267.8 554.6 267.9C555.5 269 556.6 270.8 556.9 272.2C557.2 273.6 557.2 274.1 557.1 275.9C557.4 274.5 557.3 273 556.8 271.7C556.6 271.1 556.2 270.5 556.1 269.8C555.9 269.2 555.9 268.4 556.3 267.9C557.9 270.2 559.5 272.7 559.4 275.5C559.4 276.7 559 277.8 559.4 278.9C559.9 278.6 560.5 278.2 560.8 277.7C561.1 277.2 561.2 276.7 561.5 276.2C561.8 275.7 562.2 275.3 562.7 275.2C562.8 275.2 563 275.2 563.1 275.3C563.2 275.4 563.2 275.6 563.2 275.8C562.9 277.2 562.1 278.4 561.9 279.8C561.8 280.6 561.9 281.4 561.4 282Z" fill="#E7A988"/>
<path d="M552.8 284.7C552.9 284.9 553.1 285.2 553.3 285.4C553.6 285.7 554 286 554.2 286.3C554.4 286.7 554.7 287.2 554.8 287.6L555 289.5C556.8 288.8 558.6 288.8 560.3 287.1C560.2 286.1 560.1 285.1 560.1 284C560.1 283.8 559.9 283.7 560 283.5C557.7 284.7 555.3 284.9 552.8 284.7Z" fill="#D88568"/>
<path d="M561.4 282C561.8 281.4 561.8 280.6 561.9 279.8C562.1 278.4 562.9 277.2 563.2 275.8C563.2 275.6 563.2 275.5 563.1 275.3C563 275.2 562.9 275.2 562.7 275.2C562.2 275.2 561.7 275.7 561.5 276.2C561.2 276.7 561.1 277.2 560.8 277.7C560.4 278.2 559.9 278.6 559.4 278.9C559.1 277.8 559.4 276.6 559.4 275.5C559.5 272.7 557.8 270.2 556.3 267.9C555.9 268.4 555.9 269.2 556.1 269.8C556.3 270.4 556.6 271 556.8 271.7C557.3 273 557.4 274.5 557.1 275.9C557.2 274.1 557.2 273.6 556.9 272.2C556.6 270.8 555.5 269 554.6 267.9C554.3 267.8 554 268.1 554 268.4C554 268.7 553.9 268.7 554 269.2C553.9 268.9 553.8 268.6 553.4 268.7C553.2 268.8 552.9 269.4 552.9 269.6C552.9 270.7 553.1 271.6 553.4 272.7C553.5 273.3 553.7 274.2 553.7 274.9C553.7 275.6 554 276.1 553.6 276.7C553.3 274.3 552.9 273 552.3 271.2C552.2 270.9 551.8 270.4 551.4 270.5C551.2 270.8 551.2 271.2 551.3 271.6C551.6 274.4 552.2 277.2 552.2 280C552.2 281 552.1 281.9 552.2 282.9C552.3 283.6 552.5 284.3 552.8 284.9C555.3 285.1 557.6 284.9 560 283.8C560.2 283 561.1 282.6 561.4 282Z" fill="#E7A988"/>
<path d="M555.9 276.4H555.4C555.4 273.8 554.8 271.3 553.5 269L553.9 268.7C555.2 271 555.9 273.7 555.9 276.4Z" fill="#022A44"/>
<path d="M569.1 315.5C566.9 315.9 564.1 315.1 562.8 313.3C561.4 311.5 560.1 308.9 559.5 306.7C557.6 300.1 555.8 293.3 553.9 286.7C556.4 286.6 559.7 285.2 561 283.1C563.2 288.5 565.7 293.8 568.9 298.7C570.8 301.5 573 304.3 573.6 307.6C574.1 310.9 572.4 314.9 569.1 315.5Z" fill="#98A9D8"/>
<path d="M570.8 306C570.8 301.6 568.7 297.5 566.6 294C566 293 565.4 292.1 564.8 291.2C563.2 288.8 561.7 286.5 560.8 283.4L561.3 283.3C562.2 286.3 563.7 288.6 565.2 290.9C565.8 291.8 566.4 292.7 567 293.8C569.1 297.3 571.2 301.5 571.3 306.1L570.8 306Z" fill="#022A44"/>
<path d="M564.9 308.5C565.342 308.5 565.7 308.142 565.7 307.7C565.7 307.258 565.342 306.9 564.9 306.9C564.458 306.9 564.1 307.258 564.1 307.7C564.1 308.142 564.458 308.5 564.9 308.5Z" fill="#E8E9EB"/>
<path d="M566.4 299.8C566.731 299.8 567 299.531 567 299.2C567 298.869 566.731 298.6 566.4 298.6C566.069 298.6 565.8 298.869 565.8 299.2C565.8 299.531 566.069 299.8 566.4 299.8Z" fill="#E8E9EB"/>
<path d="M560.1 295.6C560.1 295.9 559.8 296.2 559.5 296.2C559.2 296.2 558.9 295.9 558.9 295.6C558.9 295.3 559.2 295 559.5 295C559.9 295 560.1 295.3 560.1 295.6Z" fill="#E8E9EB"/>
<path d="M561.4 289.7C561.4 290 561.1 290.3 560.8 290.3C560.5 290.3 560.2 290 560.2 289.7C560.2 289.4 560.5 289.1 560.8 289.1C561.1 289.2 561.4 289.4 561.4 289.7Z" fill="#E8E9EB"/>
<path d="M505.5 381.8C503.7 381.8 502.2 380.5 502 378.7L498.4 351.6C497.9 348 497.3 343.5 499 340.3C500.2 338.1 501.6 335.8 503.7 334.4C507.6 331.7 512.2 329.9 516.7 328.2C522.2 326 527.5 324 531.2 320.4L531.5 320.8C527.8 324.4 522.5 326.5 516.9 328.7C512.5 330.4 507.9 332.2 504 334.9C502 336.3 500.7 338.5 499.5 340.7C497.8 343.7 498.4 348.1 498.9 351.7L499 352.4L502.5 378.7C502.7 380.2 504 381.3 505.5 381.3V381.8Z" fill="#022A44"/>
<path d="M264.1 205.7C264.5 208.3 263.8 211 262.3 213C261.3 217.8 257.4 221.9 252.8 222.9C248.5 221 245.5 216.1 245.8 211.2C246.1 206.3 249.5 201.8 254 200.4C256.5 199.7 259.5 200 261.3 201.9L264.1 205.7Z" fill="#E7A988"/>
<path d="M256.9 200C255.9 200 254.9 200.1 254 200.4C249.5 201.7 246 206.3 245.8 211.2C245.5 216.1 248.5 221 252.8 222.9C253.2 222.8 253.7 222.7 254.1 222.5C252.5 214.8 252.4 206.3 256.9 200Z" fill="#D88568"/>
<path d="M235.8 226.1C235.3 225.5 235.8 224.7 236.2 224.1C239.8 219.3 242.3 214.1 243.2 208.2C246.8 209.7 250.4 210.4 254.3 211C252.7 217.4 251.5 224 250.9 230.6C246.1 229.2 241.4 227.9 236.6 226.5C236.3 226.4 236 226.3 235.8 226.1Z" fill="#E7A988"/>
<path d="M267.3 205.1C269.4 204.4 271.1 202.5 271.5 200.3C270.1 201.1 268.4 201.3 266.8 200.9C267.3 200.9 267.7 200.7 268 200.4C266.1 200.3 264.4 199.3 262.9 198.2C261.4 197.1 260 195.8 258.5 194.8C256.9 193.8 255 193.1 253.2 193.4C253 193.4 252.8 193.5 252.5 193.6C251.4 193.5 250.3 193.5 249.3 193.8C245.7 194.7 243.2 198.1 242.4 201.7C241.6 205.3 241.2 209.5 242.2 213.1C245.8 214.8 251.2 214.7 255 213.6C255.5 213.4 256.1 213.2 256.6 213C256.8 212.3 256.9 211.5 257 210.8C257.1 209.9 257.4 209.1 258 208.4C258.6 207.8 259.6 207.5 260.4 208C260.9 208.3 261.1 208.9 261.1 209.5C261.1 209.8 261.1 210 261 210.3C261.8 209.7 262.5 208.9 263.1 208.2C265.7 208.4 268.4 207.1 269.8 204.9C269 205.1 268.1 205.2 267.3 205.1Z" fill="#352F6C"/>
<path d="M259.4 210.9C259.5 210.7 259.7 210.6 259.9 210.5C260.3 210.2 260.4 209.6 260.3 209.2C260.1 208.7 259.6 208.5 259.1 208.6C258.7 208.8 258.4 209.3 258.4 209.8C258.4 210.3 258.6 210.8 258.7 211.3C258.5 211.1 258.2 211.1 258 211.3C257.8 211.5 257.7 211.7 257.8 212C257.9 212.2 258 212.3 258.1 212.4C258.2 212.5 258.3 212.7 258.2 212.9C258.2 213 258.1 213.1 258 213.2C257.9 213.3 258 213.4 258.1 213.5C258.2 213.5 258.2 213.5 258.3 213.4C258.8 213.1 259.1 212.5 259.2 212C259.2 211.5 259.2 211.2 259.4 210.9Z" fill="#D88568"/>
<path d="M257.6 198.6C258 198.9 258 199.5 258.3 199.9C258.7 200.3 259.4 200.2 260 200.2C261.1 200.2 262.1 200.8 262.9 201.5C263.7 202.2 264.2 203.2 264.8 204.1C265.2 203.5 265.6 202.9 265.9 202.3C262.1 200.1 258.2 197.8 254.4 195.6C254.6 196.5 254.8 197.5 255 198.4C255 198.6 255.1 198.8 255.2 198.9C255.5 199.2 256 199.1 256.4 198.8C256.7 198.6 257.2 198.4 257.6 198.6Z" fill="#2070B4"/>
<path d="M214.1 403.3C213.2 402.8 211.8 402.6 210.8 402.5C209.8 402.4 208.9 402.1 208 401.6C207.1 401.1 206.4 400.1 206.7 399.1C204.1 398.9 202.1 398 199.8 396.8C199.8 398.7 198.6 400.4 198 402.2C197.9 402.6 197.9 403.2 197.9 403.7C197.7 404.9 197.7 406.2 198.1 407.4C200.3 408.6 202.8 409.2 205.3 408.8C205.4 408.4 205.5 408 205.6 407.6C206.9 407.3 207.9 407.1 209.1 407.3C210.4 407.5 210.9 407.8 211.7 407.7C212.4 407.6 212.8 407.3 213.5 407C214.2 406.7 215 405.9 215.2 405.2C215.5 404.3 215 403.9 214.1 403.3Z" fill="#022A44"/>
<path d="M206.2 400.8C204.3 399.9 202.3 399 200.2 398.5C199.9 398.9 199.7 399.3 199.5 399.8C199.4 400.3 199.4 400.8 199.7 401.2C200 401.6 200.4 401.8 200.9 401.9C202.7 402.4 204.7 402 206.2 400.8Z" fill="#E8E9EB"/>
<path d="M202.8 377.4C201.8 379.8 200.5 388.6 199.3 391.8C198.3 394.2 197.3 395.5 198.8 397.7C200.3 399.9 204.9 402.2 207.3 401.2C214 384 221.9 367.2 228.1 349.8C234.3 332.4 238.9 314.1 238.5 295.6C228.5 292.4 218.5 289.3 208.5 286.1C199.1 308.5 205.3 315.2 206.2 331.6C207.1 347.9 208.8 362.1 202.8 377.4Z" fill="#2070B4"/>
<path d="M238.5 295.5C231.2 293.2 223.8 290.8 216.5 288.5C206.5 310.8 215.7 335.8 213.8 358.9C212.5 373.7 208.9 387.6 203.8 401C205.1 401.4 206.4 401.6 207.4 401.1C214.1 383.9 222 367.1 228.2 349.7C234.3 332.3 238.9 314 238.5 295.5Z" fill="#22619C"/>
<path d="M215.8 288.3C223.4 290.7 231 293.1 238.5 295.5C238.9 314 234.3 332.3 228.1 349.7C224 361.1 219.3 372.1 214.6 383.3C215.4 379.2 215.8 375 216.4 371.1C222.4 342.5 201.2 315.4 215.8 288.3Z" fill="#022A44"/>
<path d="M244.9 413.7C244.4 412.6 243.2 412 242 411.8C240.8 411.6 239.6 411.8 238.4 411.8C233.6 411.8 229 409.4 224.3 410.1C224.3 412.1 224 414.2 224.2 416.2C224.2 416.6 224.3 416.9 224.4 417.3C224.4 418.3 224.6 419.4 224.8 420.4C224.9 420.9 225 421.5 225.3 421.9C225.7 422.5 226.4 422.7 227.1 422.9C229.7 423.6 232.5 423.1 234.7 421.6C235 421.4 235.2 421.2 235.4 420.9C235.5 420.7 235.5 420.5 235.5 420.2C236.2 419.9 236.9 419.6 237.7 419.4C239.4 418.9 240.1 418.7 241.7 417.9C243.3 417.2 245.7 415.3 244.9 413.7Z" fill="#022A44"/>
<path d="M235.8 412.9C236.2 412.8 236.6 413.1 236.7 413.5C236.8 413.9 236.6 414.3 236.3 414.6C236 414.9 235.6 415 235.2 415.1C233.5 415.6 231.7 415.7 229.9 415.7C228.8 415.7 227.7 415.6 226.7 415.2C225.7 414.8 224.8 414 224.5 413C224.2 412 224.8 410.7 225.8 410.4L235.8 412.9Z" fill="#E8E9EB"/>
<path d="M210.3 290.1L210.9 283.4C220.2 287.6 230.8 292.2 240.9 293.8C240.9 315.9 243 334.6 242.4 354.9C241.8 373.7 238.5 393.9 235.8 413.7C231.3 414.8 228.2 415.1 224.1 412.1C223.9 395.4 222.9 382.4 223.9 375C224.9 367.7 221.4 349.5 219.2 342.4C212.2 319.9 205.7 316.5 210.3 290.1Z" fill="#2070B4"/>
<path d="M230.7 351.9C228.9 331.7 219.4 309.8 224.9 289.3C220.1 287.5 215.3 285.4 210.9 283.4L210.3 290.1C205.7 316.5 212.2 319.9 219.1 342.3C221.3 349.5 224.8 367.6 223.8 374.9C222.8 382.3 223.8 395.3 224 412C225.9 413.4 227.6 414.1 229.4 414.3C231.1 393.6 232.4 372.9 230.7 351.9Z" fill="#22619C"/>
<path d="M233.4 413.1C240.9 375.9 238.3 337 234.8 300.5L235.6 300.4C238.4 337.5 241.3 375.8 234 412.9C233.7 412.9 233.7 413 233.4 413.1Z" fill="#27B2E4"/>
<path d="M229.1 224.1C225.7 223.5 222.3 226.1 221 229.3C219.7 232.5 220 236.2 220.7 239.6C222.5 249.1 226.6 258 232.1 266C234.3 269.1 236.7 272.2 239.6 274.6C247.1 280.7 257.1 282.3 266.6 283.7C267.5 281.6 268.5 279.6 269.4 277.5C258.6 271.7 249.7 262.5 244.3 251.6C240.5 244 238.5 235.6 236.4 227.4L229.1 224.1Z" fill="#022A44"/>
<path d="M281.3 293.7H262.1L269.9 261.8H289.1L281.3 293.7Z" fill="#022A44"/>
<path d="M280.4 288.7H264.2L270.8 261.8H287L280.4 288.7Z" fill="white"/>
<path d="M270.8 261.8L264.7 286.7C269.9 280.6 275.8 276.1 283.5 275.9L287 261.8H270.8Z" fill="#C7D3DD"/>
<path d="M230.5 223.7C232.7 222.4 234.4 220.4 235.4 218C243.2 218.5 250.6 223.2 254.2 230.1C251 228.9 247.8 227.7 244.6 226.5C240.6 225 236.4 223.4 232.1 223.5L230.5 223.7Z" fill="#352F6C"/>
<path d="M244.5 307.7C244.8 304.5 243.5 297.6 244 286.9C244.3 278.3 244.6 281.5 244.8 278.9C245.3 272.4 247.4 270.3 250.6 264.6C253 260.3 256.8 253 259.3 248.8C261.8 244.6 263.2 239 260.6 234.7C259 232.1 256.3 230.4 253.6 229C249.6 226.9 245.4 225.2 241.2 223.8C236.4 222.2 230.8 221.1 226.6 224C223.8 225.9 220.5 229.6 218.8 232.5C209.3 248.3 210.6 254.1 205.7 281.4C205.3 283.6 198 299.2 196.9 304.1C199.3 305 201.7 305.8 204.2 306.4C205.3 299.8 207.1 293.5 209.6 287.7C209.6 295.1 207.5 300.2 207.9 307.3C219.6 309.7 232.1 309.2 244.5 307.7Z" fill="#352F6C"/>
<path d="M232.7 224.2C238.1 224.6 243.4 225.7 248.5 227.4C244 224.4 238.7 222.7 233.3 222.6C232.9 222.6 232.5 222.6 232.1 222.8C231.7 223 231.5 223.5 231.8 223.9C232 224.2 232.4 224.2 232.7 224.2Z" fill="#292666"/>
<path d="M230 223.3C226.8 224.3 223.9 226.6 222.3 229.6C224.8 227.5 227.4 225.4 230 223.3Z" fill="#22619C"/>
<path d="M255.7 233.3C254.3 235.3 252.8 237.2 251.4 239.2C251.9 236.8 253.5 234.6 255.7 233.3Z" fill="#22619C"/>
<path d="M238.1 308.4C240.2 308.2 242.4 308 244.5 307.7C244.8 304.5 243.5 297.6 244 286.9C244.3 278.3 244.6 281.5 244.8 278.9C245.3 272.4 247.4 270.3 250.6 264.6C253 260.3 256.8 253 259.3 248.8C261.7 244.9 263 239.8 261.1 235.7C235.1 249.6 235.4 280.2 238.1 308.4Z" fill="#292666"/>
<path d="M272.6 236.9C274.1 236.1 275.7 235.4 277.4 235C276.6 233.3 276.2 231.5 276.3 229.6C276.4 228.5 276.5 227.3 275.8 226.6C275.4 226.2 274.8 226 274.2 225.9C272.9 225.6 271.5 225.2 270.2 224.9C268.9 224.6 268.5 225 267.8 223.8C267.5 223.3 266.3 222 266 221.6C265.7 221.2 264.8 219.4 263.9 220.2C263.5 220.6 264.4 222.3 264.6 222.8C265.2 224.1 265.7 225.4 266.3 226.7C266.7 227.7 267 228.4 266.2 229.2C265.9 229.5 265.2 229.5 264.9 229.7C264.6 229.9 264.7 231.1 264.8 231.5C264.9 231.7 265.1 231.9 265.3 232C267.7 233.6 270.2 235.3 272.6 236.9Z" fill="#E7A988"/>
<path d="M278.8 235.2C278.3 234.2 277.8 233.3 277.2 232.3C274.9 232.2 272.7 233.1 271 234.6C270.7 234.8 270.5 235.2 270.5 235.5C270.5 235.7 270.6 235.9 270.7 236C271.4 237.3 272 238.6 272.7 239.9C274.6 237.9 276.4 236.8 279.2 236.3L278.8 235.2Z" fill="#98A9D8"/>
<path d="M287.1 274.2C288.9 273.6 290 271.9 290.6 270.1C291.7 266.8 291.3 263.1 290.2 259.7C289.1 256.4 287.4 253.2 286 250C284.1 245.6 282.9 240.9 280.7 236.6C280.2 235.7 279.7 234.7 278.8 234.2C277.6 233.7 276.1 234.3 274.7 234.5C273.7 234.6 272.8 235.7 271.8 236.1C271.1 236.4 270.8 237.2 271 237.9C272.6 244.2 273.9 250.2 274.6 256.7C275 260.1 275.3 263.6 276.5 266.8C277.7 270 280.1 273 283.4 274.1C284.6 274.5 285.9 274.6 287.1 274.2Z" fill="#352F6C"/>
<path d="M271.8 236.2C271.1 236.5 270.8 237.3 271 238C272.6 244.3 273.9 250.3 274.6 256.8C275 260.2 275.3 263.7 276.5 266.9C277.7 270.1 280.1 273.1 283.4 274.2C283.5 274.2 283.5 274.2 283.6 274.2C282.8 260.7 279 247.3 273.7 235C273 235.4 272.4 235.9 271.8 236.2Z" fill="#292666"/>
<path d="M250.2 245.4C250.9 240.8 253.5 236.6 257.3 233.9C258.1 233.3 259 232.8 260 233C260.8 233.1 261.4 233.7 262 234.2C269.2 241.1 274.6 249.7 281.8 256.5C283.8 258.4 285.9 260.1 287.5 262.3C289.1 264.5 290.3 267.2 290 269.9C289.7 272.6 287.7 275.2 285 275.6C282.9 275.8 280.9 274.8 279.2 273.6C276.1 271.5 273.4 268.9 270.6 266.4C266 262.4 261.1 258.9 255.9 255.8C254.3 254.8 252.6 253.9 251.5 252.3C250 250.5 249.8 247.8 250.2 245.4Z" fill="#352F6C"/>
<path d="M283.5 258.1C286.4 260.6 288.1 264.4 288 268.2C288.6 266.3 288.5 264.1 287.7 262.3C286.9 260.5 285.4 258.9 283.5 258.1Z" fill="#22619C"/>
<path d="M282.7 272.9C274.3 260.3 259.5 255.5 250.3 244.7C250.3 244.9 250.2 245.2 250.2 245.4C249.8 247.8 250 250.4 251.4 252.4C252.5 253.9 254.2 254.9 255.8 255.9C261 259 265.9 262.5 270.5 266.5C273.3 268.9 276 271.5 279.1 273.7C280.7 274.8 282.5 275.8 284.3 275.7C283.8 274.8 283.3 273.9 282.7 272.9Z" fill="#292666"/>
<path d="M210.1 283.9C210.9 265.8 216 247.8 224.9 232C215.5 247.6 210.3 265.7 210.1 283.9Z" fill="#292666"/>
<path d="M404.2 400.5C402.8 403.5 404.9 406.1 404.9 408.8C407.8 409 410.1 408.9 413 409C413 408.4 413 407.7 413 407.1C418.5 409.5 424.8 410 430.6 408.4C430.8 407 429.7 405.7 428.4 405.1C427.1 404.5 425.7 404.5 424.3 404.3C422.2 404 420.1 403.4 418.3 402.3C416.5 401.1 415.1 399.3 414.6 397.2C411.9 397.5 409.3 397.7 406.6 398C405.9 398.1 405.1 398.2 404.7 398.7C404.2 399.1 404.4 399.9 404.2 400.5Z" fill="#022A44"/>
<path d="M407.1 401.8C409.2 402.4 411.5 402.6 413.6 402.3C413.9 402.3 414.3 402.2 414.5 401.9C414.6 401.7 414.6 401.4 414.5 401.1C414.3 400.2 414.2 399.3 414 398.4C411 398.9 408 399.5 405 400.4C405.4 401.2 406.3 401.5 407.1 401.8Z" fill="white"/>
<path d="M373.8 263.7C373.6 273.3 376.1 282.5 377.9 291.2C385.8 328.7 394.2 364.1 402.9 402.2C406.1 401.1 412.7 399.9 415.9 398.8C413.4 352.8 408 309 400.3 263.7H373.8Z" fill="#352F6C"/>
<path d="M373.8 263.7C373.6 273.3 376.1 282.5 377.9 291.2C385.8 328.7 394.2 364.1 402.9 402.2C404.6 401.6 407.2 401 409.8 400.4C402.8 353.6 389.8 308.6 374.7 263.7H373.8Z" fill="#292666"/>
<path d="M405.6 401.2C404.2 394.4 402.9 388.5 401.6 382.1C395.3 350.8 390 324 382.1 291.6L382.4 291.3C390.3 323.7 395.8 350.7 402.1 382C403.4 388.5 404.5 394.3 405.9 401.1L405.6 401.2Z" fill="#7D95C9"/>
<path d="M363.7 414.5C364.7 413.8 364.7 412.4 364.7 411.2C364.6 409.5 364.5 407.8 364.4 406.2C364.4 405.7 364.3 405.1 364 404.7C363.6 404.2 362.8 404.1 362.1 404.1C358.9 404.1 355.6 404.1 352.4 404.2C350.7 408.5 349 412.9 347.3 417.2C347 418.1 346.6 419.1 347.2 419.8C347.6 420.3 349.2 420.9 349.9 421C352.8 421.2 352.6 421.1 355.5 421.1C356.5 421.1 359.8 419.7 360.3 418.8C361.1 417.6 360.1 416.6 361.1 415.6C361.8 414.9 363 415 363.7 414.5Z" fill="#022A44"/>
<path d="M354.5 408.9C355.4 409 356.2 409 357.1 409.1C358.3 409.2 359.6 409.3 360.8 408.9C362 408.6 363.1 407.8 363.5 406.6C360.6 405.6 357.5 405.2 354.5 405.5C353.9 405.6 353.3 405.6 352.8 405.9C352.3 406.2 351.9 406.8 352 407.4C352.1 407.9 352.5 408.4 353 408.6C353.4 408.8 353.9 408.8 354.5 408.9Z" fill="white"/>
<path d="M357.5 263.7L357.2 267C354.2 295.3 351.6 313.8 351.5 337.1C351.3 360.4 352.3 383.8 349.8 407C355.2 406.4 360.6 406.7 365.9 407.7C369.6 363.7 377.6 325.9 384.5 285.3C385.5 279.3 385 271.5 384.2 263.7H357.5Z" fill="#352F6C"/>
<path d="M363.2 300.9C369.5 283.8 377.7 299.1 383.1 263.7H357.5L357.2 267C354.2 295.3 351.6 313.8 351.5 337.1C351.3 360.4 352.3 383.8 349.8 407C351.2 406.9 352.6 406.8 354 406.7C353.6 375.9 352.4 329.9 363.2 300.9Z" fill="#292666"/>
<path d="M363.2 406.7L362.8 406.5C366 366.3 372.9 330.5 382.3 289L382.7 289.2C373.3 330.6 366.4 366.5 363.2 406.7Z" fill="#7D95C9"/>
<path d="M377.2 272.8C377.2 271.9 377.2 270.9 377.2 269.9C371.4 270.1 365.7 270.5 359.9 271.1C359.4 272.7 358.9 274.3 358.4 275.9C364.6 274.9 370.9 274.2 377.3 273.9C377.3 273.5 377.3 273.2 377.2 272.8Z" fill="white"/>
<path d="M378.4 269.9C378.5 270.9 378.4 271.9 378.5 272.8C378.5 273.1 378.5 273.5 378.5 273.8C379.1 273.8 379.8 273.7 380.4 273.7C380.4 272.4 380.4 271 380.4 269.7C379.8 269.8 379.1 269.8 378.4 269.9Z" fill="white"/>
<path d="M393.2 273.8C395.7 273.9 398.1 274 400.5 274.2C400.2 272.7 400 271.3 399.7 269.8C397.5 269.7 395.3 269.7 393.1 269.7C393.1 271.1 393.1 272.4 393.2 273.8Z" fill="white"/>
<path d="M392 273.8C392 272.4 392 271.1 391.9 269.7C391.1 269.7 390.4 269.7 389.6 269.7C389.9 271 389.9 272.4 389.9 273.7C390.6 273.7 391.3 273.7 392 273.8Z" fill="white"/>
<path d="M388.3 269.7C386.1 269.7 383.8 269.7 381.6 269.8C381.6 271.1 381.6 272.4 381.6 273.8C384 273.7 386.3 273.7 388.7 273.8C388.8 272.3 388.7 271 388.3 269.7Z" fill="#FFD255"/>
<path d="M373.7 207.5C373.8 207.8 373.8 208.2 373.7 208.6C373.3 210.6 372.8 212.5 372.4 214.5C369 211.9 368.8 206.6 365.8 203.5C368.1 204.5 370.4 205.6 372.7 206.6C373.1 206.8 373.6 207 373.7 207.5Z" fill="#352F6C"/>
<path d="M391.3 201.9C379.2 197 367.9 196.5 354.8 197.9C351.5 198.2 348 199 345.9 201.4C343.5 204.2 344 208.2 344.7 211.7C348.8 231.3 356.8 250.6 356 270.6C370.9 268.3 386.1 267.7 401.1 268.6C397.5 252 396.9 237 399.9 220.4C400.6 216.5 400.1 211.1 397.5 207.9C396.2 206.3 393.4 202.8 391.3 201.9Z" fill="#E8E9EB"/>
<path d="M375.6 185.2C371.8 185.9 365.7 186.2 361.9 185.5C363 190.9 363.6 193.3 361.7 198.5C385.8 204.8 379.2 203.4 379.6 201.9C376.2 197.1 376.2 191 375.6 185.2Z" fill="#E7A988"/>
<path d="M379.5 201.9C376.2 197.1 376.2 191 375.5 185.2C372.1 185.8 367.1 186.1 363.3 185.7C364.1 190.5 365.5 195.2 366.9 199.9C384.7 204.6 379.1 203.3 379.5 201.9Z" fill="#D88568"/>
<path d="M377.4 197.4C376.2 193.6 376 189.4 375.6 185.2C372.3 185.8 367.4 186.1 363.6 185.8C364.2 193.1 370.6 196.8 377.4 197.4Z" fill="#352F6C"/>
<path d="M371.8 169.1C369.7 168.2 367.4 168.1 365.2 168.7C362.8 169.4 359.8 170.2 358.2 172.3C356.6 174.4 356.7 177.3 357.5 179.8C359.1 184.4 362.4 188.4 366.9 190.3C371.5 192.3 374.7 192.1 378.5 191.4C379.7 191.2 380.5 190.1 380.4 188.9C380.1 186 380 183.3 379 180.7C378.7 179.8 377.8 179.2 377.5 178.3C377.2 177.4 377.6 176.6 377.3 175.7C376.2 172.8 374.7 170.4 371.8 169.1Z" fill="#E7A988"/>
<path d="M369.7 191.4C372.9 192.3 375.5 192.1 378.4 191.5C379.6 191.3 380.4 190.2 380.3 189C380.3 188.6 380.2 188.1 380.2 187.7C377.1 190.9 373.5 191.8 369.7 191.4Z" fill="#D88568"/>
<path d="M364.7 175.9C368.3 175.7 369.3 175.6 372.3 174.6C374.1 174.3 375.2 173.7 375.9 172.8C374.9 171.1 373.6 169.8 371.7 169C369.1 167.8 366 168.3 363.2 169.2C361.3 169.8 359.3 170.6 358.1 172.3C356.5 174.4 356.6 177.3 357.4 179.8C358.7 183.6 361.2 187 364.6 189.1C364.8 184.8 362.2 180.2 364.7 175.9Z" fill="#D88568"/>
<path d="M378 162.7C377.4 164 376.3 165 375.1 165.6C375.6 165.1 375.9 164.3 375.9 163.6C374.7 165.3 372.6 166.1 370.5 166.5C368.4 166.9 366.3 166.8 364.3 167.1C362.2 167.4 360.1 168 358.7 169.6C357.1 171.3 354.8 173.6 355.6 176.1C354.7 177.3 354.3 178.8 354.6 180.2C355 182 356.5 183.5 358 184.5C359.5 185.6 361.3 186.5 362.5 187.9C362.9 186.6 363.1 185.2 363.1 183.8C363.7 184.2 364.2 184.7 364.7 185.2C365.1 185.3 365.4 184.9 365.5 184.5C365.5 184.1 365.1 182.8 364.9 182.5C364.4 181.6 364 181.8 363.5 181C363.4 180.7 363.2 180.5 363.1 180.2C363.1 178.4 363.2 176.7 363.7 175.1C363.9 175.1 364 175.1 364.2 175C367 174.7 369.8 174.7 372.4 173.7C375 172.7 377.3 170.4 377.4 167.7C377 168.1 376.5 168.5 376.1 168.9C377.2 167.1 377.9 164.9 378 162.7Z" fill="#352F6C"/>
<path d="M365.6 185C365.5 184.4 362.5 182.6 361.9 182.8C361.3 183 360.9 183.6 360.9 184.2C360.8 184.8 361 185.4 361.3 186C361.6 186.8 362.1 187.5 362.7 188.1C363.1 188.6 363.6 189 364.2 189.2C364.8 189.4 365.6 189.2 365.9 188.6L365.6 185Z" fill="#E7A988"/>
<path d="M399.9 220.4C400.6 216.5 400.1 211.1 397.5 207.9C396.1 206.2 393.3 202.7 391.2 201.9C389 201 386.8 200.3 384.6 199.6C392.7 221.5 390.9 245.1 391.7 268.2C394.8 268.3 397.9 268.4 401 268.6C397.6 252.1 396.9 237.1 399.9 220.4Z" fill="#352F6C"/>
<path d="M386.1 268.5C386 268.5 385.9 268.5 385.9 268.4C385.8 268.3 385.9 268.1 386 268.1L389.6 266.1C389.3 265.8 388.9 265.6 388.5 265.6C388.4 265.6 388.3 265.5 388.3 265.4C388.3 265.3 388.4 265.2 388.5 265.1C389.5 264.9 390.1 263.9 390.2 262.9C390.3 262 390 261 389.7 260.1L389.6 259.8C387.9 254.1 387.7 248 387.6 242.1C387.5 237.9 387 233.1 386.5 228.4C386 223.7 385.5 218.9 385.4 214.7C385.4 214.6 385.5 214.5 385.6 214.5C385.7 214.5 385.8 214.6 385.8 214.7C385.9 218.9 386.4 223.7 386.9 228.4C387.4 233.1 387.9 237.9 388 242.1C388.1 247.9 388.3 254 390 259.6L390.1 259.9C390.4 260.9 390.7 261.9 390.6 262.9C390.5 263.8 390.1 264.7 389.3 265.2C389.7 265.4 390 265.6 390.2 266C390.3 266.1 390.2 266.3 390.1 266.3L386.3 268.4C386.2 268.5 386.2 268.5 386.1 268.5Z" fill="#352F6C"/>
<path d="M384.4 207.2C383.7 208.3 383.8 210.5 382.7 211.1C385.2 225.8 385.5 238.1 383 252.8C385.9 255.1 388.1 256.1 390.1 257.5C390.3 253.6 391.7 253.3 391.7 251.4C391.7 249.7 391.2 247.3 390.7 243.4C389.1 231.5 387.9 218.6 384.4 207.2Z" fill="#352F6C"/>
<path d="M358.6 195.8C358 195.8 357.4 197.6 356.8 197.6C355.7 197.7 355.8 197.8 354.7 198C351.4 198.4 347.9 199.1 345.8 201.7C343.4 204.7 344.2 209 344.6 212.8C347.5 239.3 359.8 249.7 353.5 290.3C358.5 289.5 365 288 370.9 287.1C374.6 286.5 377.3 283.2 377.1 279.5C376 260.1 375.3 232.8 372.9 215.2C371.9 207.2 365.4 199.9 358.6 195.8Z" fill="#7D95C9"/>
<path d="M357.3 272C362.7 271.2 367.6 267.8 370.2 263.1C366.2 266.4 361.7 269.2 357.3 272Z" fill="#C7D3DD"/>
<path d="M344.3 209.6C344.4 210.7 344.5 211.7 344.7 212.8C345.3 218.4 346.3 223.3 347.5 228C352.8 240.3 363.5 249.6 376 255.1C375.6 247.3 375.2 239.4 374.7 232C361.6 227.7 349.7 221.4 344.3 209.6Z" fill="#352F6C"/>
<path d="M375.4 284.7C375.3 284.7 375.2 284.6 375.2 284.5C374.4 264.8 371.2 245.2 365.8 226.2C365.8 226.1 365.8 226.1 365.8 226C365.8 225.9 365.9 225.9 366 225.9C367.6 225.6 369.1 225 370.5 224.1L366.2 223.5C366.1 223.5 366.1 223.5 366 223.4C365.9 223.3 365.9 223.3 366 223.2C368 213.7 364.2 203.4 356.4 197.7C356.3 197.6 356.3 197.5 356.4 197.4C356.5 197.3 356.6 197.3 356.7 197.4C364.5 203.2 368.5 213.5 366.5 223.1L371.2 223.7C371.3 223.7 371.4 223.8 371.4 223.9C371.4 224 371.4 224.1 371.3 224.1C369.8 225.1 368.1 225.9 366.3 226.2C371.7 245.1 374.8 264.7 375.7 284.3C375.7 284.6 375.6 284.7 375.4 284.7Z" fill="#352F6C"/>
<path d="M353.8 289.9C353.7 289.9 353.6 289.9 353.6 289.8C353.5 289.7 353.6 289.5 353.7 289.5C356.6 287.9 360.1 287.6 363.3 287.3C363.8 287.3 364.3 287.2 364.8 287.2C368.4 286.8 372.4 286.1 375.1 283.4C375.2 283.3 375.3 283.3 375.4 283.4C375.5 283.5 375.5 283.6 375.4 283.7C372.6 286.5 368.5 287.2 364.8 287.6C364.3 287.6 363.8 287.7 363.3 287.7C360.1 288 356.7 288.3 353.8 289.8C353.9 289.9 353.8 289.9 353.8 289.9Z" fill="#352F6C"/>
<path d="M357.4 271.2C357.3 271.2 357.2 271.2 357.2 271.1C357.1 271 357.2 270.8 357.3 270.8C361.6 268.1 365.9 265.3 370.1 262.3C370.2 262.2 370.3 262.2 370.4 262.4C370.5 262.5 370.5 262.6 370.3 262.7C366.2 265.7 361.9 268.5 357.5 271.2C357.5 271.2 357.5 271.2 357.4 271.2Z" fill="#352F6C"/>
<path d="M392.9 202.9C399.4 208.4 399.1 212.8 402.4 220.7C404.6 225.8 407 233.2 407.7 238.7C408.3 243.4 407.1 249.2 406.3 253.9C404.5 264 404.5 272.8 401.6 282.6C398.8 279.3 395.9 277 395.5 272.7C395.3 271 395.6 269.2 395.9 267.5C397 261.5 398.4 255.5 397.9 249.4C397.5 243.4 395.3 237.7 393.8 231.8C391.7 223.3 391.2 214.6 390.7 205.9L392.9 202.9Z" fill="#98A9D8"/>
<path d="M391.5 215.6C392 221.1 392.7 226.5 394 231.8C395.4 237.6 397.6 243.4 398.1 249.4C398.5 255.5 397.1 261.5 396.1 267.5C395.8 269.2 395.5 271 395.7 272.7C396.1 277 399 279.3 401.8 282.6C402 281.9 402.2 281.2 402.4 280.5C402.7 257.9 403.5 235.2 391.5 215.6Z" fill="#352F6C"/>
<path d="M382.6 236.1C383.4 231.2 381.8 229.8 378.7 225.8C375.6 221.8 372.8 222.1 368.8 219.1C363.7 215.3 358.6 206 353.5 202.2C352.3 201.3 351 200.4 349.5 200C346.6 199.4 343.5 201.4 342.2 204C340.9 206.7 341 209.9 341.6 212.8C343 219.5 346.9 225.6 351.7 230.4C356.6 235.2 362.4 239 368.4 242.4C371.7 244.3 375.8 246.1 379.3 244.6C382 243.5 382.1 239 382.6 236.1Z" fill="#98A9D8"/>
<path d="M343.8 215.1C342.9 210.4 344.5 205.4 348 202.1C346.9 201.5 345.6 202.3 344.8 203.2C343.3 204.8 342.4 206.8 342.2 209C342 211.2 342.6 213.3 343.8 215.1Z" fill="#C7D3DD"/>
<path d="M351.1 204.6C351.4 204.1 351 203.3 350.4 203.2C349.9 203.1 349.4 203.5 349.3 204C349.2 204.5 349.7 205 350.2 205C350.6 205.1 350.9 204.9 351.1 204.6Z" fill="#C7D3DD"/>
<path d="M367.9 219.4C366 222.8 365.4 227 366.2 230.8C367 234.7 369.3 238.2 372.5 240.5C370.1 234.6 370 227.8 372.2 221.7C370.7 221 369.3 220.2 367.9 219.4Z" fill="#352F6C"/>
<path d="M377.9 189.7C378.8 189.3 379.8 189.1 380.8 189C382.1 188.8 383.5 188.7 384.8 189C386.2 189.3 387.1 190.2 388.4 190.7C388.9 190.9 389.2 191.4 389 191.9C388.8 192.5 388.6 193 388.4 193.7C388.3 194.1 388.4 194.8 388 194.9C387.6 195 387.2 194.7 387 194.3C386.9 193.9 386.9 193.5 387 193C386.1 193.9 385 194.7 383.8 195.2C383.5 196.5 383.5 197.9 383.7 199.3C381.6 199.1 379.4 198.8 377.3 198.4C376.8 198.3 376.2 198.2 375.9 197.7C375.8 197.4 375.7 197.1 375.7 196.8C375.7 195.2 376.1 193.9 376.1 192.2C376.6 191.2 376.9 190.1 377.9 189.7Z" fill="#E7A988"/>
<path d="M376 194.4C375.9 195.2 375.8 196 375.8 196.8C375.8 197.1 375.8 197.4 376 197.7C376.3 198.2 376.8 198.3 377.4 198.4C379.5 198.8 381.6 199.1 383.8 199.3C383.6 198.4 383.6 197.4 383.7 196.5C381 196.1 378.5 195.4 376 194.4Z" fill="#D88568"/>
<path d="M378.2 245.7C380.2 245.2 381.8 243.4 382.5 241.4C383.2 239.4 383.3 237.3 383.4 235.2C383.8 223.4 384.7 209.9 385.1 198.1C382.5 197.3 376.4 197 373.9 196.2C372.5 209.4 367.7 223.1 369.5 236.3C369.8 238.7 370.4 241.2 371.9 243.1C373.4 245 375.9 246.3 378.2 245.7Z" fill="#98A9D8"/>
<path d="M373.8 204.1C372.2 210.1 370.6 216.1 369.8 222.3C369 228.5 369 234.8 370.6 240.8C370 228.4 371 216 373.8 204.1Z" fill="#C7D3DD"/>
<path d="M384.9 202C381 202 377.2 201.3 373.5 200C373.4 200 373.3 199.8 373.4 199.7C373.4 199.6 373.6 199.5 373.7 199.6C377.3 200.9 381.1 201.6 384.9 201.6C385 201.6 385 201.6 385.1 201.6C385.2 201.6 385.3 201.7 385.3 201.8C385.3 201.9 385.2 202 385.1 202C385 202 384.9 202 384.9 202Z" fill="#352F6C"/>
<path d="M400.9 285.5C401.9 285.7 403 285.8 403.9 285.9C400.3 268.2 396.9 239.9 399.9 222.1C400.6 217.9 400.7 211.9 398.2 208.5C396.8 206.7 393.8 202.7 391.7 201.8C389.6 200.9 386.6 200 384.5 199.4C386.3 202.2 388.5 205.7 388.9 208.7C392.4 227.9 392.4 258.1 394.7 279.1C395.1 282.4 397.6 285 400.9 285.5Z" fill="#7D95C9"/>
<path d="M397.4 283.3C397.3 283.3 397.2 283.2 397.2 283.1C395.7 268.3 395 243.1 396.3 228.9L393.1 229.4C393 229.4 392.9 229.4 392.8 229.3C392.8 229.2 392.8 229.1 392.9 229L396.8 226.3C394.9 217.4 391.7 208.9 387.1 201C387 200.9 387.1 200.7 387.2 200.7C387.3 200.6 387.5 200.7 387.5 200.8C392.1 208.8 395.4 217.4 397.2 226.4C397.2 226.5 397.2 226.6 397.1 226.6L393.9 228.8L396.4 228.4C396.5 228.4 396.5 228.4 396.6 228.5C396.7 228.5 396.7 228.6 396.7 228.7C395.4 242.8 396.1 268.3 397.6 283.1C397.7 283.2 397.6 283.3 397.4 283.3Z" fill="#352F6C"/>
<path d="M403.1 285.1C400.9 285.1 398.7 284.4 396.9 283.1C396.8 283 396.8 282.9 396.8 282.8C396.9 282.7 397 282.7 397.1 282.7C398.9 284 401.2 284.7 403.4 284.6C403.5 284.6 403.6 284.7 403.6 284.8C403.6 284.9 403.5 285 403.4 285C403.3 285.1 403.2 285.1 403.1 285.1Z" fill="#352F6C"/>
<path d="M400.3 267.3C400.2 267.3 400.2 267.3 400.2 267.2L398.1 265.5C398 265.4 398 265.3 398.1 265.2C398.2 265.1 398.3 265.1 398.4 265.2L400.5 266.9C400.6 267 400.6 267.1 400.5 267.2C400.4 267.3 400.3 267.3 400.3 267.3Z" fill="#352F6C"/>
<path d="M361.8 184C362.5 184.2 363.2 184.6 363.8 185.2C363.9 185.3 363.9 185.4 364 185.5C364 185.7 363.8 185.9 363.8 186.1C363.6 186.4 363.8 186.9 364.2 187.1C364.4 187.2 364.7 187.2 364.7 187.4C364.7 187.5 364.6 187.6 364.5 187.7C364.2 187.9 364.1 188.3 364.3 188.7C363.9 188.4 363.5 188.1 363.2 187.7C362.9 187.3 362.8 186.7 363.1 186.3C363.1 186.2 363.2 186.2 363.1 186.1H363C362.6 186.1 362.2 185.8 362 185.4C361.6 184.8 361.6 184.4 361.8 184Z" fill="#D88568"/>
</svg>
