<svg width="286" height="245" viewBox="0 0 286 245" fill="none" xmlns="http://www.w3.org/2000/svg">
<path d="M133.999 201.124C126.252 201.124 118.504 201.354 110.834 202.428C107.919 202.811 105.081 203.655 102.166 204.039C96.3361 204.729 90.5831 206.033 84.7534 206.647C80.0743 207.107 75.3186 207.414 70.6395 208.028C66.2672 208.564 61.358 208.488 56.9857 207.491C53.7641 206.8 50.4657 206.417 47.3207 205.266C43.7922 204.039 39.8802 203.118 36.1983 203.118C30.9056 203.195 25.7663 203.195 20.7036 205.42C18.9394 206.187 16.7149 207.491 15.4109 209.101C12.3427 212.86 11.8824 222.142 14.9507 226.054C20.1667 232.574 31.2124 235.105 38.4995 235.258C46.477 235.412 54.2243 234.645 62.2018 234.261C69.6423 233.878 77.0061 233.341 84.4466 233.341C99.6345 233.417 114.822 233.341 130.01 232.113C144.278 230.963 158.545 231.346 172.812 231.346C187.463 231.346 201.961 231.5 216.535 233.801C222.902 234.798 229.345 235.182 235.712 235.872C241.388 236.486 246.911 235.872 252.587 235.258C257.343 234.798 262.098 233.264 266.394 230.809C269.846 228.815 275.906 222.678 276.98 217.999C279.894 204.729 235.481 205.113 228.655 205.113C220.984 205.113 213.313 205.42 205.719 205.113C202.498 204.959 199.353 204.192 196.208 203.348C193.063 202.505 189.918 202.735 186.773 202.351C173.579 200.894 160.309 201.124 147.116 201.124C142.667 201.124 138.371 201.124 133.999 201.124Z" fill="#F0F1F1"/>
<path d="M247.141 157.708L248.215 181.871L245.146 222.909L240.621 223.215L235.021 185.936L227.351 154.41L247.141 157.708Z" fill="#427CCC"/>
<path d="M240.774 225.133L245.837 227.281L248.138 224.596L245.53 222.295L240.544 222.679L240.774 225.133Z" fill="#223041"/>
<path d="M214.847 149.194L213.85 167.45L216.842 221.681L221.367 221.911L228.271 186.32L234.254 147.353L214.847 149.194Z" fill="#427CCC"/>
<path d="M221.291 223.829L216.228 226.054L213.85 223.446L216.458 221.144L221.367 221.375L221.291 223.829Z" fill="#223041"/>
<path d="M241.388 95.4995L227.12 93.9653C227.12 93.9653 219.22 94.8091 213.773 113.679C210.782 124.188 209.861 140.679 209.631 153.259C209.938 155.024 211.933 162.924 220.217 161.62C234.407 159.319 242.001 157.018 248.138 158.169C253.431 159.319 252.97 152.032 252.357 146.509L250.286 129.404L241.388 95.4995Z" fill="#E2E2E2"/>
<path d="M238.703 77.7036C235.098 76.9365 231.416 76.1694 227.811 76.9365C227.044 77.0899 226.2 77.3967 225.74 78.0104C225.586 78.2405 225.509 78.5473 225.433 78.8542C224.512 82.2292 223.362 87.2152 225.586 90.3601C226.046 90.9738 226.583 91.434 227.197 91.8175C228.041 92.3545 228.884 92.6613 229.882 92.8914C229.652 93.7352 229.421 94.579 229.115 95.346C229.958 96.5733 233.794 96.7267 234.484 95.5761C234.561 94.579 234.561 93.5051 234.637 92.5079C235.098 92.3545 235.558 92.1244 235.941 91.8175C237.552 90.7436 238.626 89.1328 239.317 87.2919C240.007 85.2975 240.927 83.3798 241.618 81.3855C241.848 80.6184 242.001 79.7746 241.618 79.161C241.234 78.4706 240.314 78.2405 239.47 78.0104C239.086 77.857 238.933 77.7803 238.703 77.7036Z" fill="#BE6753"/>
<path d="M226.737 79.6979C228.501 78.5473 231.186 78.0871 232.873 78.1638C237.936 78.5473 239.777 82.2292 240.007 86.9083C241.388 85.1441 243.996 82.9196 244.149 80.6184C244.303 78.7774 243.996 76.2461 242.999 74.6353C242.001 73.1012 239.547 72.3341 238.013 71.4136C236.632 70.5699 235.251 69.8028 233.794 68.959C233.487 68.8056 233.18 68.6522 232.873 68.5755C232.49 68.4988 232.106 68.5755 231.723 68.7289C228.424 69.5727 225.126 70.4165 221.828 71.2602C221.214 71.4136 220.447 71.6438 220.217 72.2574C220.063 72.6409 220.14 73.0245 220.217 73.408C220.6 75.0955 221.291 76.8598 221.521 78.624C221.751 79.6212 222.288 84.8372 224.129 84.2236C224.666 83.3798 224.742 82.3059 225.126 81.3855C225.433 80.6951 225.97 80.1582 226.737 79.6979Z" fill="#504A45"/>
<path d="M227.197 93.9653L221.904 95.5762L202.651 115.75L201.5 122.347L210.705 137.535L213.16 132.012L209.325 120.736L215.461 116.44L223.745 97.8774L227.197 93.9653Z" fill="#A5B4BA"/>
<path d="M251.129 88.289C250.746 88.1356 250.439 87.9055 250.056 87.7521C253.661 82.536 255.578 76.1694 255.578 69.4193C255.578 53.1575 244.072 39.8873 229.959 39.8873C215.845 39.8873 204.339 53.1575 204.339 69.4193C204.339 76.1694 206.256 82.536 209.861 87.7521C209.325 87.9822 208.941 88.2123 208.788 88.289C193.753 95.1926 184.088 110.227 184.088 126.642V136.844C184.088 141.216 187.693 144.822 192.066 144.822H267.851C272.224 144.822 275.829 141.216 275.829 136.844V126.642C275.829 110.227 266.164 95.1926 251.129 88.289Z" fill="white"/>
<path d="M249.902 90.8203C249.749 90.9737 249.595 91.1271 249.519 91.3573C244.379 97.4171 237.399 100.792 229.959 100.792C222.518 100.792 215.614 97.4171 210.398 91.3573C210.245 91.2038 210.092 91.0504 210.015 90.8203C196.361 97.0335 186.85 110.841 186.85 126.719V136.921C186.85 139.836 189.151 142.137 192.066 142.137H267.852C270.766 142.137 273.068 139.836 273.068 136.921V126.719C273.068 110.764 263.556 97.0335 249.902 90.8203Z" fill="#06529C"/>
<path d="M229.959 96.2665C235.942 96.2665 241.388 93.5818 245.453 89.1328C249.979 84.2236 252.74 77.2433 252.74 69.496C252.74 54.6917 242.538 42.7255 229.882 42.7255C217.302 42.7255 207.023 54.6917 207.023 69.496C207.023 77.2433 209.862 84.2236 214.311 89.1328C218.529 93.5051 223.976 96.2665 229.959 96.2665Z" fill="#06529C"/>
<path d="M188.46 108.309L191.299 106.698L193.83 111.378L191.145 116.21L186.85 114.216L188.46 108.309Z" fill="#BE6753"/>
<path d="M271.457 106.162L268.618 104.551L266.087 109.23L268.772 113.986L273.067 111.991L271.457 106.162Z" fill="#BE6753"/>
<path d="M60.7444 159.703L40.8774 152.416L44.9429 187.087L42.6417 217.079L42.565 217.309V217.386L46.477 217.693L46.6304 217.769L55.3749 191.076L59.9773 162.617L60.7444 159.703Z" fill="#33435A"/>
<path d="M46.3236 219.073L42.2582 218.997L41.1843 222.448H41.3377H41.261L48.0112 226.437L51.1561 226.744L51.5397 223.139L50.6959 222.525L46.3236 219.073Z" fill="#33435A"/>
<path d="M74.2446 160.316L68.2616 219.764L64.3495 219.917L60.4375 187.777L53.5339 155.867L74.2446 160.316Z" fill="#33435A"/>
<path d="M68.2616 221.144L73.4776 224.059L72.9406 226.514L63.6592 225.133L64.1961 221.605L68.2616 221.144Z" fill="#33435A"/>
<path d="M83.5261 175.197C84.7534 174.354 84.8301 172.819 84.8301 171.285C84.8301 168.447 84.2931 165.532 83.6795 162.771C82.4522 157.555 80.9948 151.342 80.3811 144.591C78.7703 127.179 73.2474 115.52 73.2474 115.52L71.4832 110.764C71.0997 110.15 70.7928 109.537 70.4093 108.923C68.1848 105.471 64.3495 99.5649 60.2074 98.5677C60.1307 98.5677 60.0539 98.491 59.9772 98.491C55.6817 97.5705 50.0821 97.954 46.1701 100.102C45.403 100.485 44.7894 101.022 44.099 101.559C42.1814 103.093 40.6472 103.937 39.8035 106.315C39.1131 108.386 38.9597 110.611 38.4995 112.682C37.7324 116.977 37.1955 121.349 36.5818 125.645C35.3545 133.776 34.3573 141.907 33.0533 149.961C32.363 154.103 31.7493 158.322 31.4425 162.541C31.1357 166.299 27.8373 170.058 25.9196 173.356C25.2293 174.507 34.6641 177.498 35.5079 177.729C39.4199 178.649 43.5621 178.419 47.6275 178.419C56.4487 178.496 65.27 178.189 74.0912 177.575C77.006 177.345 80.6112 176.808 83.2193 175.351C83.3727 175.351 83.4494 175.274 83.5261 175.197Z" fill="#5BB5DC"/>
<path d="M55.068 98.0307C55.068 98.0307 50.082 96.65 49.3917 107.926C48.7013 119.125 47.5507 147.583 45.9399 155.33C44.3291 163.154 41.9512 178.419 41.9512 178.419L57.2157 178.956L74.6281 177.575C74.6281 177.575 68.645 166.606 67.7245 158.782C66.804 150.958 68.4149 121.656 64.5028 110.687C60.6675 99.6416 59.8237 98.2608 55.068 98.0307Z" fill="#5BB5DC"/>
<path d="M77.6196 123.037L78.7702 124.418L82.8356 118.665L66.3438 100.332L60.2073 98.491L63.1221 106.545L77.6196 123.037Z" fill="#8C6655"/>
<path d="M63.8125 118.281L60.2073 115.52L61.2812 113.909L64.196 115.29L64.3494 114.292L67.1876 116.977L66.2671 118.818L63.8125 118.281Z" fill="#F7C1A3"/>
<path d="M78.0033 117.591L77.8498 117.974L66.574 115.75L64.8865 119.432L78.7703 124.418L78.0033 117.591Z" fill="#8C6655"/>
<path d="M62.0485 89.1328C62.8156 91.3573 61.7417 93.8119 60.7445 95.8829C59.9007 97.7239 59.5939 98.8745 61.7417 99.4114C62.969 99.7182 65.1168 100.178 66.1906 99.258C67.0344 98.5676 66.5742 96.3432 66.1139 95.4994C65.8071 94.809 65.0401 94.5022 64.7332 93.8119C64.5798 93.505 64.5798 93.1982 64.5798 92.9681C64.5798 91.7408 64.7332 90.5135 65.0401 89.3629C65.2702 88.5958 65.577 87.7521 65.6537 86.985C65.7304 85.7577 64.8866 84.377 64.5031 83.3031C63.6593 81.232 60.8212 78.5473 58.3666 80.1581C57.8297 80.5417 57.5228 81.1553 57.216 81.769C57.0626 82.1525 56.9092 82.536 56.9092 82.9196C56.9092 84.4537 58.2899 84.7605 59.2871 85.5276C60.5911 86.2946 61.5116 87.6753 62.0485 89.1328Z" fill="#3A332D"/>
<path d="M57.446 97.954C59.5171 97.4938 61.2046 95.7296 61.9717 93.7352C62.7388 91.7408 62.8155 89.5163 62.5853 87.3686C61.895 80.2349 52.9971 80.6951 50.0055 86.1413C47.3975 90.8971 51.3862 99.4115 57.446 97.954Z" fill="#DBC6AA"/>
<path d="M57.446 97.1869C57.446 98.0307 57.3693 98.7977 57.3693 99.6415C57.3693 99.7949 57.3693 99.8716 57.2926 99.9483C57.2159 100.025 57.0625 100.025 56.9091 100.025C56.2187 100.025 55.6051 99.9483 54.9147 99.9483C54.6079 99.9483 54.2243 99.9483 53.9942 99.7949C53.3806 99.4881 53.2272 98.5676 53.3039 97.8773C53.3806 97.1869 53.6874 96.4198 53.534 95.7295C54.9147 96.4198 56.2187 94.8857 57.5227 95.5761L57.446 97.1869Z" fill="#DBC6AA"/>
<path d="M54.6078 75.0188C52.3066 75.7859 50.7725 78.1638 48.548 79.0843C47.244 79.6212 45.7099 79.6979 44.636 80.6184C42.2581 82.6895 44.1758 87.0617 42.1814 89.5163C41.7979 90.0533 41.2609 90.4368 40.8007 90.8971C39.9569 91.9709 39.8035 93.5051 39.7268 94.9625C39.7268 95.2693 39.7268 95.6528 39.7268 95.9597C40.0336 99.1813 44.7894 99.0279 46.6304 98.7978C48.7014 98.5677 48.0111 97.4171 48.0111 97.4171L47.9344 97.3404C47.7043 96.0364 48.3179 94.579 49.3151 93.7352C49.6986 93.4284 50.1589 93.1982 50.4657 92.738C51.0793 91.8175 50.4657 90.5902 50.6191 89.4396C51.0026 84.9907 58.5199 85.9111 60.5909 82.7662C63.1989 78.9309 58.9801 73.5614 54.6078 75.0188Z" fill="#3A332D"/>
<path d="M77.0828 88.289C76.6993 88.1356 76.3925 87.9055 76.0089 87.7521C79.6141 82.536 81.5318 76.1694 81.5318 69.4193C81.5318 53.1575 70.0259 39.8873 55.9119 39.8873C41.7979 39.8873 30.292 53.1575 30.292 69.4193C30.292 76.1694 32.2096 82.536 35.8148 87.7521C35.2779 87.9822 34.8944 88.2123 34.7409 88.289C19.7065 95.1926 10.0415 110.227 10.0415 126.642V136.844C10.0415 141.216 13.6467 144.822 18.019 144.822H93.8048C98.1771 144.822 101.782 141.216 101.782 136.844V126.642C101.782 110.227 92.1173 95.1926 77.0828 88.289Z" fill="white"/>
<path d="M75.8556 90.8203C75.7022 90.9737 75.5488 91.1271 75.472 91.3573C70.3327 97.4171 63.3525 100.792 55.9119 100.792C48.4714 100.792 41.5679 97.4171 36.3518 91.3573C36.1984 91.2038 36.045 91.0504 35.9683 90.8203C22.3146 97.0335 12.803 110.841 12.803 126.719V136.921C12.803 139.836 15.1042 142.137 18.019 142.137H93.8049C96.7197 142.137 99.0209 139.836 99.0209 136.921V126.719C99.0209 110.764 89.5093 97.0335 75.8556 90.8203Z" fill="#06529C"/>
<path d="M55.912 96.2665C61.8951 96.2665 67.3412 93.5818 71.4066 89.1328C75.9323 84.2236 78.6937 77.2433 78.6937 69.496C78.6937 54.6917 68.4918 42.7255 55.8352 42.7255C43.3321 42.7255 33.0535 54.6917 33.0535 69.496C33.0535 77.2433 35.8916 84.2236 40.3406 89.1328C44.4827 93.5051 49.9289 96.2665 55.912 96.2665Z" fill="#06529C"/>
<path d="M14.4138 108.309L17.2519 106.698L19.86 111.378L17.0985 116.21L12.803 114.216L14.4138 108.309Z" fill="#F7C1A3"/>
<path d="M97.41 106.162L94.5718 104.551L92.0405 109.23L94.7252 113.986L99.0208 111.991L97.41 106.162Z" fill="#F7C1A3"/>
<path d="M162.61 219.84L162.994 222.755L157.548 226.437L154.249 223.906L156.781 220.607L162.227 217.002L162.61 219.84Z" fill="#2E3D51"/>
<path d="M162.764 218.92L158.622 181.947L163.607 140.679L162.534 131.858L140.059 131.014L139.215 145.358L142.973 182.024L157.164 220.761L162.764 218.92Z" fill="#D3D3D3"/>
<path d="M137.911 90.2067L126.635 93.2749L113.595 116.364L119.808 122.117L128.476 111.838L137.911 90.2067Z" fill="#33435A"/>
<path d="M123.567 135.157L123.49 172.436L131.007 220.377L136.377 220.301L139.368 175.964L146.348 131.551L123.567 135.157Z" fill="#D3D3D3"/>
<path d="M136.377 222.602L130.624 225.517L127.632 222.679L130.547 219.687H136.377V222.602Z" fill="#2E3D51"/>
<path d="M165.985 147.813C165.909 146.202 165.832 144.822 165.832 144.361C165.679 140.066 165.295 135.693 164.758 131.398C164.298 127.563 163.684 117.974 162.994 114.139C162.457 110.994 160.539 103.093 159.159 100.178C155.784 92.8914 156.781 92.201 141.823 90.0532C135.226 89.1328 133.692 93.1982 128.323 97.8773C127.786 98.3375 127.786 101.099 127.709 101.866C127.479 103.17 127.249 104.474 127.019 105.701C126.789 106.699 126.558 107.696 126.328 108.693C123.644 118.972 120.575 128.943 119.962 139.606C119.808 142.597 118.888 145.512 118.964 148.58C118.964 148.964 118.964 149.271 119.195 149.577C120.115 150.728 125.101 148.964 126.635 148.81C130.47 148.427 134.459 148.197 138.294 148.197C142.283 148.197 146.272 148.657 150.184 149.271C152.792 149.731 155.477 150.344 157.855 151.572C160.079 152.722 161.69 154.487 163.991 155.637C164.221 155.714 164.451 155.867 164.681 155.867C165.985 155.791 166.062 151.188 165.985 147.813Z" fill="#33435A"/>
<path d="M141.823 92.1244C142.59 92.5079 144.354 92.6613 146.195 91.8943C146.579 91.7409 146.809 91.3573 146.809 90.9738C146.809 89.8232 146.732 88.7493 146.502 87.5987C147.883 87.1385 149.494 86.3714 149.724 84.914C149.8 84.4538 149.724 83.9935 149.647 83.5333C149.34 81.6156 148.957 79.7747 148.65 77.857C148.573 77.1667 148.42 76.553 148.036 75.9394C147.422 74.9422 146.195 74.5586 145.045 74.3285C142.13 73.7916 138.908 74.4819 136.607 76.3996C135.993 76.9365 135.456 77.5502 135.149 78.2406C134.766 79.3911 135.073 80.6952 135.38 81.8457C135.686 82.9196 135.917 83.9935 136.223 85.1441C136.53 86.3714 137.067 87.8288 138.218 88.2891C138.831 88.5192 139.598 88.4425 140.212 88.826C141.439 89.5164 141.286 91.0505 141.823 92.1244Z" fill="#DBC6AA"/>
<path d="M125.638 73.1012C125.101 68.4221 127.172 63.4362 131.084 64.4334C133.462 65.047 135.533 66.0442 137.911 65.1237C140.135 64.2799 141.746 64.6635 144.047 65.4305C146.579 66.351 149.954 66.5044 152.178 67.8084C153.099 68.3454 153.866 69.1892 154.48 70.1096C156.551 73.2546 156.551 77.6268 154.48 80.7718C154.019 81.4622 153.482 82.1525 152.869 82.7662C151.718 84.0702 150.261 85.6043 148.65 86.1413C148.573 84.6838 149.954 80.0815 148.803 78.8541C147.039 76.9365 142.974 77.6268 140.826 78.0871C138.448 78.624 136.3 80.3116 133.922 80.6951C128.706 81.4622 126.098 77.3967 125.638 73.1012Z" fill="#3A332D"/>
<path d="M169.207 63.0526C168.824 62.8225 168.363 62.6691 167.98 62.4389C172.122 56.3791 174.423 48.9386 174.423 41.0379C174.423 22.0147 160.999 6.52002 144.508 6.52002C128.016 6.52002 114.592 22.0147 114.592 41.0379C114.592 48.9386 116.817 56.3791 121.035 62.4389C120.422 62.7458 119.962 62.9759 119.731 63.0526C102.166 71.1067 90.8899 88.6725 90.8899 107.926V119.892C90.8899 125.031 95.1087 129.25 100.248 129.25H188.767C193.906 129.25 198.125 125.031 198.125 119.892V107.926C198.125 88.7492 186.773 71.1067 169.207 63.0526Z" fill="white"/>
<path d="M167.826 65.9674C167.673 66.1975 167.52 66.3509 167.366 66.5811C161.306 73.7147 153.175 77.5501 144.508 77.5501C135.84 77.5501 127.709 73.638 121.649 66.5811C121.496 66.3509 121.342 66.1975 121.189 65.9674C105.234 73.2545 94.1116 89.3628 94.1116 107.926V119.892C94.1116 123.267 96.873 126.028 100.248 126.028H188.767C192.142 126.028 194.904 123.267 194.904 119.892V107.926C194.904 89.3628 183.781 73.2545 167.826 65.9674Z" fill="#427CCC"/>
<path d="M144.508 72.3341C151.488 72.3341 157.931 69.1891 162.687 63.9731C167.903 58.2201 171.201 50.0892 171.201 41.0379C171.201 23.779 159.235 9.7417 144.508 9.7417C129.78 9.7417 117.814 23.779 117.814 41.0379C117.814 50.0892 121.112 58.2968 126.328 63.9731C131.084 69.1891 137.451 72.3341 144.508 72.3341Z" fill="#427CCC"/>
<path d="M114.285 129.097L113.058 126.105L118.044 124.188L122.416 127.486L119.885 131.475L114.285 129.097Z" fill="#F7C1A3"/>
<path d="M169.744 129.097L170.971 126.105L166.062 124.188L161.613 127.486L164.144 131.475L169.744 129.097Z" fill="#F7C1A3"/>
</svg>
