<svg width="105" height="105" viewBox="0 0 105 105" fill="none" xmlns="http://www.w3.org/2000/svg">
<path d="M29.2979 13.1531C17.3752 13.1531 7.71002 22.8183 7.71002 34.741V42.4591C7.71002 42.4591 7.70993 42.4664 7.70953 42.4714C7.70894 42.4779 7.70786 42.4859 7.70589 42.4955C7.70283 42.5098 7.69771 42.5275 7.68914 42.549C7.6785 42.5755 7.66254 42.6077 7.6386 42.6461C7.56835 42.7584 7.44648 42.8932 7.27101 43.0242C5.65379 44.2325 4.78375 46.0599 4.48986 47.8254C4.19834 49.5768 4.43706 51.4807 5.30217 52.9597C5.57714 53.4296 5.90177 53.8747 6.19428 54.265C6.26738 54.3626 6.33802 54.4562 6.40659 54.5471C6.62856 54.8411 6.82846 55.1059 7.01791 55.3811C7.52392 56.1161 7.70993 56.5928 7.70993 56.9698V64.1711C7.70993 68.6285 11.3234 72.2419 15.7808 72.2419H21.4592C22.195 72.2419 22.6896 72.6971 22.7882 73.2118C23.2459 75.6056 23.5391 78.9351 23.3099 82.378C23.0839 85.7721 22.3582 89.1541 20.887 91.8469H24.4737C25.7292 88.9437 26.3256 85.6803 26.5311 82.5925C26.7797 78.8583 26.4653 75.2527 25.959 72.6055C25.5307 70.366 23.5276 69.0136 21.4592 69.0136H15.7808C13.1063 69.0136 10.9383 66.8455 10.9383 64.1711V56.9698C10.9383 55.5638 10.2601 54.3974 9.6769 53.5503C9.4434 53.2112 9.18616 52.8705 8.95671 52.5668L8.92548 52.5254C8.87454 52.4578 8.82508 52.3923 8.77779 52.3292C8.49297 51.9491 8.26401 51.6291 8.08884 51.3296C7.67879 50.6287 7.48027 49.5214 7.67436 48.3555C7.86618 47.2035 8.4045 46.2073 9.20331 45.6105C10.017 45.0025 10.9384 43.9275 10.9384 42.4591V34.741C10.9384 31.7008 11.6773 28.8331 12.9854 26.3079C13.4961 28.285 14.2388 30.3375 15.1252 32.4062C16.6877 36.0529 18.7421 39.8538 20.9044 43.53C22.9455 47.0003 25.1013 50.3907 27.0509 53.4567L27.3981 54.0028C29.4507 57.2317 31.2254 60.0426 32.4063 62.2326C33.2368 63.7727 33.782 65.9266 34.0667 68.5071C34.3488 71.0661 34.3632 73.9329 34.2063 76.824C33.8922 82.6106 32.9002 88.3504 32.1111 91.6421L32.0621 91.8469H50.8858V34.741C50.8858 22.8183 41.2206 13.1531 29.2979 13.1531Z" fill="#FF6500"/>
<path d="M12.2222 43.842C12.2222 42.9459 12.9487 42.2194 13.8448 42.2194H17.3991C18.2952 42.2194 19.0216 42.9459 19.0216 43.842C19.0216 44.7382 18.2952 45.4646 17.3991 45.4646H13.8448C12.9487 45.4646 12.2222 44.7382 12.2222 43.842Z" fill="#FF6500"/>
<path d="M75.7019 13.1531C87.6246 13.1531 97.2898 22.8183 97.2898 34.741V42.4591C97.2898 42.4591 97.2899 42.4664 97.2903 42.4714C97.2909 42.4779 97.292 42.4859 97.294 42.4955C97.297 42.5098 97.3021 42.5275 97.3107 42.549C97.3214 42.5755 97.3373 42.6077 97.3613 42.6461C97.4315 42.7584 97.5534 42.8932 97.7288 43.0242C99.3461 44.2325 100.216 46.0599 100.51 47.8254C100.802 49.5768 100.563 51.4807 99.6977 52.9597C99.4227 53.4296 99.0981 53.8747 98.8056 54.265C98.7325 54.3626 98.6618 54.4562 98.5933 54.5471C98.3713 54.8411 98.1714 55.1059 97.9819 55.3811C97.4759 56.1161 97.2899 56.5928 97.2899 56.9698V64.1711C97.2899 68.6285 93.6765 72.2419 89.2191 72.2419H83.5406C82.8049 72.2419 82.3102 72.6971 82.2117 73.2118C81.754 75.6056 81.4607 78.9351 81.6899 82.378C81.9159 85.7721 82.6416 89.1541 84.1128 91.8469H80.5262C79.2706 88.9437 78.6743 85.6803 78.4688 82.5925C78.2201 78.8583 78.5346 75.2527 79.0409 72.6055C79.4692 70.366 81.4723 69.0136 83.5406 69.0136H89.2191C91.8935 69.0136 94.0616 66.8455 94.0616 64.1711V56.9698C94.0616 55.5638 94.7397 54.3974 95.323 53.5503C95.5565 53.2112 95.8137 52.8705 96.0431 52.5668L96.0744 52.5254C96.1253 52.4578 96.1748 52.3923 96.2221 52.3292C96.5069 51.9491 96.7358 51.6291 96.911 51.3296C97.3211 50.6287 97.5196 49.5214 97.3255 48.3555C97.1337 47.2035 96.5953 46.2073 95.7965 45.6105C94.9829 45.0025 94.0615 43.9275 94.0615 42.4591V34.741C94.0615 31.7008 93.3226 28.8331 92.0144 26.3079C91.5038 28.285 90.761 30.3375 89.8746 32.4062C88.3122 36.0529 86.2577 39.8538 84.0955 43.53C82.0543 47.0003 79.8985 50.3907 77.949 53.4567L77.6018 54.0028C75.5492 57.2317 73.7744 60.0426 72.5936 62.2326C71.763 63.7727 71.2178 65.9266 70.9332 68.5071C70.651 71.0661 70.6366 73.9329 70.7936 76.824C71.1077 82.6106 72.0997 88.3504 72.8887 91.6421L72.9378 91.8469H54.1141V34.741C54.1141 22.8183 63.7793 13.1531 75.7019 13.1531Z" fill="#C0C0C0"/>
<path d="M92.7777 43.842C92.7777 42.9459 92.0512 42.2194 91.155 42.2194H87.6008C86.7046 42.2194 85.9782 42.9459 85.9782 43.842C85.9782 44.7382 86.7046 45.4646 87.6008 45.4646H91.155C92.0512 45.4646 92.7777 44.7382 92.7777 43.842Z" fill="#C0C0C0"/>
</svg>
