<svg width="91" height="97" viewBox="0 0 91 97" fill="none" xmlns="http://www.w3.org/2000/svg">
<path d="M55.3141 10.1887C55.3141 15.6086 50.9204 20.0024 45.5005 20.0024C40.0805 20.0024 35.6868 15.6086 35.6868 10.1887C35.6868 4.76874 40.0805 0.375 45.5005 0.375C50.9204 0.375 55.3141 4.76874 55.3141 10.1887Z" fill="#FF6500"/>
<path d="M82.5395 14.2517C82.5395 19.0968 78.6117 23.0246 73.7666 23.0246C68.9214 23.0246 64.9936 19.0968 64.9936 14.2517C64.9936 9.40653 68.9214 5.47875 73.7666 5.47875C78.6117 5.47875 82.5395 9.40653 82.5395 14.2517Z" fill="#C0C0C0"/>
<path d="M26.0067 14.2517C26.0067 19.0968 22.0789 23.0246 17.2338 23.0246C12.3886 23.0246 8.46081 19.0968 8.46081 14.2517C8.46081 9.40653 12.3886 5.47875 17.2338 5.47875C22.0789 5.47875 26.0067 9.40653 26.0067 14.2517Z" fill="#C0C0C0"/>
<path d="M39.8016 24.5444C35.3181 24.5444 31.5107 27.8279 30.852 32.2629L27.251 56.5068C26.6356 60.65 29.4996 64.4101 33.4877 65.0566L35.2426 95.2045C35.2891 96.0019 35.9493 96.6249 36.7481 96.6249H54.2529C55.0516 96.6249 55.7119 96.0019 55.7583 95.2045L57.5132 65.0566C61.5013 64.4101 64.3652 60.65 63.7499 56.5068L60.1489 32.2629C59.4902 27.8279 55.6828 24.5444 51.1993 24.5444H39.8016Z" fill="#FF6500"/>
<path d="M27.3715 28.8498L23.1749 57.104C22.5894 61.0458 24.5781 64.7038 27.7859 66.5077L26.4037 90.2515C26.3622 90.9644 25.772 91.5212 25.0581 91.5212H9.40957C8.69554 91.5212 8.10539 90.9644 8.06379 90.2515L6.49499 63.3007C2.92983 62.7227 0.369599 59.3615 0.919713 55.6577L4.13881 33.9848C4.72767 30.0202 8.13125 27.0849 12.1393 27.0849H22.3283C24.2221 27.0849 25.9808 27.7402 27.3715 28.8498Z" fill="#C0C0C0"/>
<path d="M63.2145 66.5081C66.4226 64.7043 68.4115 61.046 67.8261 57.104L63.6293 28.8493C65.0199 27.74 66.7785 27.0849 68.672 27.0849H78.861C82.869 27.0849 86.2726 30.0202 86.8615 33.9848L90.0806 55.6577C90.6308 59.3615 88.0705 62.7227 84.5053 63.3007L82.9365 90.2515C82.895 90.9644 82.3048 91.5212 81.5908 91.5212H65.9423C65.2283 91.5212 64.6382 90.9644 64.5965 90.2515L63.2145 66.5081Z" fill="#C0C0C0"/>
</svg>
