<svg width="97" height="97" viewBox="0 0 97 97" fill="none" xmlns="http://www.w3.org/2000/svg">
<path d="M51.4062 6.5625C60.2755 6.5625 68.9456 9.19254 76.3201 14.12C83.6946 19.0475 89.4424 26.0512 92.8365 34.2453C96.2306 42.4394 97.1186 51.456 95.3883 60.1548C93.658 68.8537 89.3871 76.8441 83.1156 83.1156C76.8441 89.3871 68.8537 93.658 60.1548 95.3883C51.456 97.1186 42.4394 96.2306 34.2453 92.8365C26.0512 89.4424 19.0475 83.6946 14.12 76.3201C9.19254 68.9456 6.5625 60.2755 6.5625 51.4062H51.4062V6.5625Z" fill="#C0C0C0"/>
<path d="M0 44.8437C1.03975e-06 32.9504 4.7246 21.5443 13.1344 13.1344C21.5443 4.72459 32.9505 -1.41826e-07 44.8438 0V44.8438L0 44.8437Z" fill="#FF6500"/>
</svg>
