<svg width="80" height="80" viewBox="0 0 80 80" fill="none" xmlns="http://www.w3.org/2000/svg">
<path d="M0 40C0 17.9086 17.9086 0 40 0C62.0914 0 80 17.9086 80 40C80 62.0914 62.0914 80 40 80C17.9086 80 0 62.0914 0 40Z" fill="white"/>
<path d="M39.639 21.7805L25.2557 28.9722L25.2556 28.9722C24.4751 29.3625 24.0848 29.5577 24.0848 29.8667C24.0848 30.1757 24.4751 30.3708 25.2556 30.7611L25.2557 30.7611L39.639 37.9528C40.0779 38.1722 40.2974 38.282 40.5335 38.282C40.7695 38.282 40.989 38.1722 41.4279 37.9528L55.8113 30.7611C56.5918 30.3708 56.9821 30.1757 56.9821 29.8667C56.9821 29.5577 56.5918 29.3625 55.8113 28.9722L41.4279 21.7805C40.989 21.5611 40.7695 21.4514 40.5335 21.4514C40.2974 21.4514 40.0779 21.5611 39.639 21.7805Z" fill="#FF6500"/>
<path fill-rule="evenodd" clip-rule="evenodd" d="M29.8662 37.3342L38.7445 41.7733L38.7445 41.7733C39.6223 42.2122 40.0612 42.4317 40.5333 42.4317C41.0055 42.4317 41.4444 42.2122 42.3222 41.7733L51.2005 37.3342L55.8112 39.6395C56.5917 40.0298 56.982 40.2249 56.982 40.5339C56.982 40.8429 56.5917 41.0381 55.8112 41.4284L41.4278 48.62C40.9889 48.8395 40.7694 48.9492 40.5333 48.9492C40.2973 48.9492 40.0778 48.8395 39.6389 48.62L25.2555 41.4284L25.2555 41.4284C24.475 41.0381 24.0847 40.8429 24.0847 40.5339C24.0847 40.2249 24.475 40.0298 25.2555 39.6395L29.8662 37.3342Z" fill="#FF6500"/>
<path fill-rule="evenodd" clip-rule="evenodd" d="M29.8652 48.0008L38.7445 52.4405C39.6223 52.8794 40.0612 53.0989 40.5334 53.0989C41.0055 53.0989 41.4444 52.8794 42.3222 52.4405L51.2016 48.0009L55.8112 50.3056C56.5917 50.6959 56.982 50.8911 56.982 51.2001C56.982 51.5091 56.5917 51.7042 55.8112 52.0945L41.4278 59.2862C40.9889 59.5056 40.7694 59.6154 40.5333 59.6154C40.2973 59.6154 40.0778 59.5056 39.6389 59.2862L25.2555 52.0945C24.475 51.7042 24.0847 51.5091 24.0847 51.2001C24.0847 50.8911 24.475 50.6959 25.2555 50.3057L25.2555 50.3056L29.8652 48.0008Z" fill="#FF6500"/>
</svg>
