<svg width="505" height="355" viewBox="0 0 505 355" fill="none" xmlns="http://www.w3.org/2000/svg">
<g style="mix-blend-mode:multiply">
<path d="M252.308 354.724C391.654 354.724 504.616 350.465 504.616 345.21C504.616 339.956 391.654 335.696 252.308 335.696C112.962 335.696 0 339.956 0 345.21C0 350.465 112.962 354.724 252.308 354.724Z" fill="#C8C8C8"/>
</g>
<path d="M115.584 303.32C94.404 296.298 57.7636 251.787 61.2181 204.84C64.6726 157.894 100.35 149.909 102.672 112.59C104.994 75.2704 104.088 34.6666 148.317 17.5076C192.546 0.348672 221.315 18.1306 259.427 33.987C297.54 49.8435 329.71 75.9159 361.537 54.1133C386.319 46.8259 422.095 50.4273 434.427 80.3481C451.921 122.792 420.996 132.606 418.391 186.745C430.054 285.854 365.679 303.15 287.188 313.57C208.697 323.99 115.584 303.32 115.584 303.32Z" fill="#FFFF90"/>
<path d="M205.741 24.8129C205.741 25.8889 204.891 26.7384 203.815 26.7384C202.739 26.7384 201.89 25.8889 201.89 24.8129C201.89 23.737 202.739 22.8875 203.815 22.8875C204.835 22.8309 205.741 23.737 205.741 24.8129Z" stroke="white" stroke-width="1.3" stroke-miterlimit="10" stroke-linecap="round" stroke-linejoin="round"/>
<path d="M81.3783 117.064C81.3783 118.14 80.5288 118.989 79.4528 118.989C78.3768 118.989 77.5273 118.14 77.5273 117.064C77.5273 115.988 78.3768 115.138 79.4528 115.138C80.5288 115.138 81.3783 115.988 81.3783 117.064Z" stroke="white" stroke-width="1.3" stroke-miterlimit="10" stroke-linecap="round" stroke-linejoin="round"/>
<path d="M409.867 47.7854C409.867 48.8614 409.017 49.7109 407.941 49.7109C406.865 49.7109 406.016 48.8614 406.016 47.7854C406.016 46.7095 406.865 45.86 407.941 45.86C409.017 45.86 409.867 46.7095 409.867 47.7854Z" stroke="white" stroke-width="1.3" stroke-miterlimit="10" stroke-linecap="round" stroke-linejoin="round"/>
<path d="M281.173 15.469C281.173 16.545 280.324 17.3944 279.248 17.3944C278.172 17.3944 277.323 16.545 277.323 15.469C277.323 14.393 278.172 13.5435 279.248 13.5435C280.324 13.4869 281.173 14.393 281.173 15.469Z" stroke="white" stroke-width="1.3" stroke-miterlimit="10" stroke-linecap="round" stroke-linejoin="round"/>
<path d="M471.738 140.961C471.738 142.037 470.889 142.887 469.813 142.887C468.737 142.887 467.887 142.037 467.887 140.961C467.887 139.885 468.737 139.036 469.813 139.036C470.889 139.036 471.738 139.885 471.738 140.961Z" stroke="white" stroke-width="1.3" stroke-miterlimit="10" stroke-linecap="round" stroke-linejoin="round"/>
<path d="M134.782 205.746V209.767" stroke="white" stroke-width="1.3" stroke-miterlimit="10" stroke-linecap="round" stroke-linejoin="round"/>
<path d="M136.764 207.729H132.743" stroke="white" stroke-width="1.3" stroke-miterlimit="10" stroke-linecap="round" stroke-linejoin="round"/>
<path d="M129.232 45.1998V49.2205" stroke="white" stroke-width="1.3" stroke-miterlimit="10" stroke-linecap="round" stroke-linejoin="round"/>
<path d="M131.215 47.2385H127.194" stroke="white" stroke-width="1.3" stroke-miterlimit="10" stroke-linecap="round" stroke-linejoin="round"/>
<path d="M461.996 99.7346V103.755" stroke="white" stroke-width="1.3" stroke-miterlimit="10" stroke-linecap="round" stroke-linejoin="round"/>
<path d="M463.979 101.717H460.014" stroke="white" stroke-width="1.3" stroke-miterlimit="10" stroke-linecap="round" stroke-linejoin="round"/>
<path d="M310.678 22.7743V26.795" stroke="white" stroke-width="1.3" stroke-miterlimit="10" stroke-linecap="round" stroke-linejoin="round"/>
<path d="M312.661 24.813H308.697" stroke="white" stroke-width="1.3" stroke-miterlimit="10" stroke-linecap="round" stroke-linejoin="round"/>
<path d="M360.967 3.01033C352.982 -1.12367 343.128 1.99099 338.994 10.0325C336.615 14.6762 336.672 19.9428 338.654 24.3033L334.973 29.5133C334.747 29.853 335.03 30.3061 335.483 30.2495L341.656 28.7771C342.901 30.0796 344.317 31.2122 346.016 32.0616C354.001 36.1956 363.855 33.081 367.989 25.0395C372.067 16.998 368.952 7.14434 360.967 3.01033Z" stroke="white" stroke-width="2" stroke-miterlimit="10"/>
<path d="M362.602 14.6195C362.263 12.5809 360.677 10.9386 358.638 10.5988C356.316 10.2024 354.277 11.4482 353.428 13.317C352.522 11.4482 350.483 10.2024 348.218 10.5988C346.236 10.9386 344.594 12.5809 344.254 14.6195C343.971 16.2618 344.594 17.7908 345.613 18.8668L352.522 25.7757C353.032 26.2854 353.824 26.2854 354.277 25.7757L361.187 18.8668C362.263 17.7908 362.885 16.2618 362.602 14.6195Z" fill="#FFDA58"/>
<path d="M413.861 83.765C405.763 81.5565 396.928 85.2374 392.851 92.5993C389.679 98.319 389.906 104.775 392.511 109.985L388.094 117.8C387.924 118.14 388.207 118.536 388.603 118.423L396.815 115.535C399.363 117.8 402.591 119.385 406.442 119.952C414.371 121.028 422.299 116.78 425.697 109.532C430.624 99.1118 425.074 86.8231 413.861 83.765Z" fill="white" stroke="white" stroke-width="4" stroke-miterlimit="10"/>
<path d="M417.485 101.717H400.722V112.137H417.485V101.717Z" stroke="#F7633A" stroke-miterlimit="10"/>
<path d="M418.561 96.62H399.646V101.604H418.561V96.62Z" stroke="#F7633A" stroke-miterlimit="10"/>
<path d="M410.576 96.4503H407.574C407.574 95.6008 408.254 94.9779 409.047 94.9779C409.896 94.9779 410.576 95.6574 410.576 96.4503Z" stroke="#F7633A" stroke-miterlimit="10"/>
<path d="M409.103 94.9779C409.103 94.9779 405.479 89.9944 402.647 92.203C400.155 94.185 402.704 96.2237 406.045 96.6201" stroke="#F7633A" stroke-miterlimit="10"/>
<path d="M409.103 94.9779C409.103 94.9779 412.728 89.9944 415.559 92.203C418.051 94.185 415.503 96.2237 412.161 96.6201" stroke="#F7633A" stroke-miterlimit="10"/>
<path d="M96.7257 77.479L93.5544 71.6461C94.4605 70.1737 95.14 68.4748 95.5364 66.6627C97.4053 57.9982 91.9687 49.5037 83.3041 47.5783C74.6395 45.7095 66.1448 51.146 64.2194 59.8104C62.3506 68.4748 67.7872 76.9694 76.4517 78.8948C81.4353 79.9708 86.4188 78.6116 90.0999 75.6102L96.3293 77.9321C96.6124 77.9887 96.839 77.7056 96.7257 77.479Z" stroke="white" stroke-width="2" stroke-miterlimit="10"/>
<path d="M71.2988 59.5838C71.2988 58.1681 71.582 57.1487 72.2049 56.4692C72.8279 55.7896 73.6773 55.4498 74.7533 55.4498C75.8293 55.4498 76.7354 55.7896 77.3017 56.4692C77.9247 57.1487 78.2078 58.1681 78.2078 59.6405C78.2078 61.0562 77.9247 62.0756 77.3017 62.7551C76.6788 63.4347 75.8293 63.7745 74.7533 63.7745C73.6773 63.7745 72.7712 63.4347 72.2049 62.7551C71.6386 62.0756 71.2988 60.9996 71.2988 59.5838ZM73.6773 59.5838C73.6773 60.6032 73.7906 61.2827 74.0171 61.6225C74.187 61.9057 74.4702 62.0189 74.7533 62.0189C75.0931 62.0189 75.3196 61.9057 75.4895 61.6225C75.7161 61.2827 75.8293 60.6032 75.8293 59.5838C75.8293 58.5645 75.7161 57.8849 75.4895 57.5452C75.3196 57.262 75.0365 57.1487 74.7533 57.1487C74.4135 57.1487 74.187 57.262 74.0171 57.5452C73.7906 57.8849 73.6773 58.5645 73.6773 59.5838ZM76.4523 72.0425H76.3956C75.6594 72.0425 75.2064 71.3063 75.5462 70.6267L82.9649 55.9595C83.1348 55.6197 83.4745 55.4498 83.8143 55.4498C84.5505 55.4498 85.0036 56.186 84.6638 56.8656L77.3017 71.5328C77.1318 71.8726 76.8487 72.0425 76.4523 72.0425ZM81.9455 67.9085C81.9455 66.4927 82.2287 65.4734 82.8516 64.7938C83.4745 64.1143 84.324 63.7745 85.4 63.7745C86.476 63.7745 87.3255 64.1143 87.9484 64.7938C88.5714 65.4734 88.8545 66.5494 88.8545 67.9085C88.8545 69.3242 88.5714 70.4002 87.9484 71.0798C87.3255 71.7593 86.476 72.0991 85.4 72.0991C84.324 72.0991 83.4179 71.7593 82.8516 71.0798C82.2287 70.4002 81.9455 69.3242 81.9455 67.9085ZM84.2674 67.9085C84.2674 68.9278 84.3806 69.6074 84.6072 69.9472C84.7771 70.2303 85.0602 70.3436 85.3434 70.3436C85.6832 70.3436 85.9097 70.2303 86.0796 69.9472C86.3061 69.6074 86.4194 68.9278 86.4194 67.9085C86.4194 66.8891 86.3061 66.2096 86.0796 65.8698C85.9097 65.5866 85.6265 65.4734 85.3434 65.4734C85.0036 65.4734 84.7771 65.5866 84.6072 65.8698C84.4373 66.2096 84.2674 66.8891 84.2674 67.9085Z" fill="#FFDA58"/>
<path d="M397.947 256.204H372.52V241.367C372.52 236.383 376.597 232.306 381.581 232.306H388.83C393.813 232.306 397.891 236.383 397.891 241.367V256.204H397.947Z" stroke="#FF8C78" stroke-width="2" stroke-miterlimit="10"/>
<path d="M362.666 251.277L356.833 317.365L415.843 317.138L410.633 251.107L362.666 251.277Z" fill="#FFB9AE"/>
<path d="M415.842 317.138L410.632 251.107L423.091 311.532L415.842 317.138Z" fill="#FF8C78"/>
<path d="M189.658 168.937H105.277C100.917 168.937 97.4055 165.426 97.4055 161.065V112.646C97.4055 108.286 100.917 104.775 105.277 104.775H189.658C194.018 104.775 197.529 108.286 197.529 112.646V161.065C197.529 165.426 194.018 168.937 189.658 168.937Z" fill="#75A9EA"/>
<path d="M117.876 130.557C122.673 128.57 124.951 123.071 122.964 118.274C120.977 113.478 115.478 111.2 110.681 113.187C105.884 115.174 103.606 120.673 105.593 125.47C107.58 130.266 113.079 132.544 117.876 130.557Z" fill="white"/>
<path d="M181.163 133.996H141.634C137.84 133.996 134.782 130.938 134.782 127.144C134.782 123.349 137.84 120.291 141.634 120.291H181.163C184.957 120.291 188.015 123.349 188.015 127.144C188.015 130.938 184.957 133.996 181.163 133.996Z" fill="#F6EBE5"/>
<path d="M184.56 117.064H138.179C136.254 117.064 134.725 115.535 134.725 113.609C134.725 111.684 136.254 110.155 138.179 110.155H184.56C186.486 110.155 188.015 111.684 188.015 113.609C188.015 115.478 186.486 117.064 184.56 117.064Z" fill="#F6EBE5"/>
<path d="M122.833 147.417H104.427C103.465 147.417 102.729 146.625 102.729 145.719C102.729 144.756 103.521 144.02 104.427 144.02H122.833C123.795 144.02 124.532 144.812 124.532 145.719C124.532 146.625 123.795 147.417 122.833 147.417Z" fill="#F6EBE5"/>
<path d="M186.316 147.417H129.798C128.835 147.417 128.099 146.625 128.099 145.719C128.099 144.756 128.892 144.02 129.798 144.02H186.316C187.279 144.02 188.015 144.812 188.015 145.719C188.015 146.625 187.222 147.417 186.316 147.417Z" fill="#F6EBE5"/>
<path opacity="0.25" d="M182.975 162.255H111.96C110.997 162.255 110.261 161.462 110.261 160.556C110.261 159.593 111.054 158.857 111.96 158.857H182.975C183.938 158.857 184.674 159.65 184.674 160.556C184.674 161.518 183.938 162.255 182.975 162.255Z" fill="#F6EBE5"/>
<path d="M356.013 323.749H159.319C153.018 323.749 147.966 318.801 147.966 312.752V65.1099C147.966 59.0068 153.075 54.1134 159.319 54.1134H356.013C362.314 54.1134 367.366 59.0618 367.366 65.1099V312.752C367.366 318.856 362.314 323.749 356.013 323.749Z" fill="#0CD350" stroke="white" stroke-width="3" stroke-miterlimit="10"/>
<path d="M360.343 60.2068H155.111V302.697H360.343V60.2068Z" stroke="white" stroke-width="3" stroke-miterlimit="10"/>
<path d="M271.376 54.0342H244.193C243.457 54.0342 242.89 53.4679 242.89 52.7317C242.89 51.9955 243.457 51.4292 244.193 51.4292H271.376C272.112 51.4292 272.678 51.9955 272.678 52.7317C272.678 53.4679 272.055 54.0342 271.376 54.0342Z" fill="#2E87BF"/>
<path d="M257.785 319.007C260.85 319.007 263.335 316.522 263.335 313.457C263.335 310.392 260.85 307.907 257.785 307.907C254.72 307.907 252.235 310.392 252.235 313.457C252.235 316.522 254.72 319.007 257.785 319.007Z" fill="white"/>
<path d="M366.12 52.7317C363.798 46.7855 358.078 42.5949 351.339 42.5949H164.173C157.434 42.5949 151.658 46.7855 149.392 52.7317L137.273 75.8935H378.296L366.12 52.7317Z" fill="#0CD350"/>
<path d="M160.379 75.8935H186.939L199.171 42.5949H175.273L160.379 75.8935Z" fill="#F4F2F9"/>
<path d="M246.118 42.5949H221.484L214.178 75.8935H242.097L246.118 42.5949Z" fill="#F4F2F9"/>
<path d="M340.522 42.5949H316.624L328.856 75.8935H355.416L340.522 42.5949Z" fill="#F4F2F9"/>
<path d="M294.312 42.5949H269.677L273.698 75.8935H301.617L294.312 42.5949Z" fill="#F4F2F9"/>
<path d="M232.301 91.6367H224.033C218.596 91.6367 214.235 87.2196 214.235 81.8397V75.8935H242.155V81.8397C242.098 87.2762 237.737 91.6367 232.301 91.6367Z" fill="#D4D3DD"/>
<path d="M204.665 91.6367H196.397C191.13 91.6367 186.883 87.3894 186.883 82.1228V75.8935H214.122V82.1228C214.179 87.3894 209.932 91.6367 204.665 91.6367Z" fill="#0CAE50"/>
<path d="M173.63 91.6366C166.268 91.6366 160.322 85.6904 160.322 78.3285V75.8368H186.882V78.3285C186.939 85.6904 180.992 91.6366 173.63 91.6366Z" fill="#D4D3DD"/>
<path d="M148.826 91.6366C142.483 91.6366 137.273 86.4833 137.273 80.0841V75.8935H160.322V80.0841C160.379 86.4833 155.225 91.6366 148.826 91.6366Z" fill="#0CAE50"/>
<path d="M283.608 91.6367H291.649C297.142 91.6367 301.616 87.1629 301.616 81.6698V75.8935H273.697V81.6698C273.64 87.2196 278.114 91.6367 283.608 91.6367Z" fill="#D4D3DD"/>
<path d="M312.999 91.6367H320.815C326.194 91.6367 330.498 87.2762 330.498 81.953V75.8935H303.315V81.953C303.315 87.3328 307.676 91.6367 312.999 91.6367Z" fill="#0CAE50"/>
<path d="M338.201 91.6367H346.016C351.226 91.6367 355.417 87.4461 355.417 82.2361V75.8935H328.8V82.2361C328.8 87.4461 332.991 91.6367 338.201 91.6367Z" fill="#D4D3DD"/>
<path d="M366.913 91.6367C373.256 91.6367 378.352 86.54 378.352 80.1974V75.8935H355.473V80.1974C355.473 86.54 360.627 91.6367 366.913 91.6367Z" fill="#0CAE50"/>
<path d="M257.898 91.6367C249.176 91.6367 242.097 84.5579 242.097 75.8935H273.641C273.641 84.6146 266.619 91.6367 257.898 91.6367Z" fill="#0CAE50"/>
<path d="M221.37 281.178H155.111V177.035H221.313C226.637 177.035 230.941 181.339 230.941 186.662V271.438C230.997 276.817 226.693 281.178 221.37 281.178Z" stroke="white" stroke-width="2" stroke-miterlimit="10"/>
<path d="M213.499 202.802C218.941 202.802 223.352 198.39 223.352 192.948C223.352 187.506 218.941 183.094 213.499 183.094C208.056 183.094 203.645 187.506 203.645 192.948C203.645 198.39 208.056 202.802 213.499 202.802Z" stroke="white" stroke-width="2" stroke-miterlimit="10"/>
<path d="M207.156 190.4L213.498 196.686L223.352 184.68" stroke="white" stroke-width="4" stroke-miterlimit="10" stroke-linecap="round" stroke-linejoin="round"/>
<path d="M214.234 216.959H155.111V227.606H214.234V216.959Z" fill="white"/>
<path d="M190.109 198.951H155.111V188.361H190.109C193.054 188.361 195.433 190.739 195.433 193.684C195.433 196.572 193.054 198.951 190.109 198.951Z" stroke="white" stroke-width="2" stroke-miterlimit="10"/>
<path d="M214.234 237.686H155.111V259.545H214.234V237.686Z" fill="white"/>
<path d="M258.747 281.178H360.4V177.035H258.747C253.423 177.035 249.119 181.339 249.119 186.662V271.438C249.063 276.817 253.423 281.178 258.747 281.178Z" stroke="white" stroke-width="2" stroke-miterlimit="10"/>
<path opacity="0.65" d="M360.399 216.959H316.85V227.606H360.399V216.959Z" fill="white"/>
<path d="M337.69 198.951H265.316C262.371 198.951 259.992 196.572 259.992 193.628C259.992 190.683 262.371 188.304 265.316 188.304H337.69C340.635 188.304 343.014 190.683 343.014 193.628C343.014 196.572 340.635 198.951 337.69 198.951Z" fill="white"/>
<path opacity="0.65" d="M360.399 237.686H316.85V259.545H360.399V237.686Z" fill="white"/>
<path d="M292.895 259.545H261.748C260.786 259.545 260.049 258.809 260.049 257.846V212.429C260.049 211.466 260.786 210.73 261.748 210.73H292.895C293.858 210.73 294.594 211.466 294.594 212.429V257.846C294.594 258.809 293.801 259.545 292.895 259.545Z" stroke="white" stroke-width="2" stroke-miterlimit="10"/>
<path d="M282.362 232.816L284.231 225.397L287.968 227.719L290.743 222.735L285.42 218.941C284.627 218.375 283.721 218.092 282.758 218.092H279.87C279.87 218.148 279.87 218.205 279.87 218.205C279.87 219.621 278.738 220.753 277.322 220.753C275.906 220.753 274.773 219.621 274.773 218.205C274.773 218.148 274.773 218.092 274.773 218.092H271.829C270.866 218.092 269.96 218.375 269.167 218.941L263.844 222.735L266.618 227.719L270.356 225.397L272.225 232.816L266.165 252.24H276.302H278.341H288.478L282.362 232.816Z" fill="#FFDA58"/>
<path d="M245.438 165.539H173.29C171.308 165.539 169.722 163.953 169.722 161.971V119.499C169.722 117.517 171.308 115.931 173.29 115.931H245.438C247.42 115.931 249.006 117.517 249.006 119.499V161.971C249.006 163.897 247.42 165.539 245.438 165.539Z" fill="white"/>
<path d="M241.02 129.296H218.198C216.442 129.296 215.027 127.88 215.027 126.125C215.027 124.369 216.442 122.953 218.198 122.953H241.02C242.776 122.953 244.192 124.369 244.192 126.125C244.192 127.823 242.776 129.296 241.02 129.296Z" fill="#B2D1FF"/>
<path d="M241.02 139.036H218.198C216.442 139.036 215.027 137.62 215.027 135.865C215.027 134.109 216.442 132.694 218.198 132.694H241.02C242.776 132.694 244.192 134.109 244.192 135.865C244.192 137.62 242.776 139.036 241.02 139.036Z" fill="#B2D1FF"/>
<path d="M241.02 148.777H218.198C216.442 148.777 215.027 147.361 215.027 145.605C215.027 143.85 216.442 142.434 218.198 142.434H241.02C242.776 142.434 244.192 143.85 244.192 145.605C244.192 147.361 242.776 148.777 241.02 148.777Z" fill="#B2D1FF"/>
<path d="M232.526 158.517H218.198C216.442 158.517 215.027 157.101 215.027 155.346C215.027 153.59 216.442 152.174 218.198 152.174H232.526C234.281 152.174 235.697 153.59 235.697 155.346C235.754 157.101 234.281 158.517 232.526 158.517Z" fill="#B2D1FF"/>
<path d="M221.823 157.215H220.067C220.067 157.215 220.067 157.215 220.011 157.215C219.897 157.215 219.784 157.101 219.728 156.988C219.728 156.931 219.728 156.931 219.728 156.875V153.76C219.728 153.534 219.897 153.42 220.067 153.42H221.653C222.559 153.42 223.069 154.383 222.559 155.119C222.559 155.119 222.559 155.176 222.502 155.176C222.502 155.176 222.502 155.119 222.559 155.119C223.408 155.799 222.899 157.215 221.823 157.215ZM222.163 155.742C221.993 155.516 221.71 155.516 221.596 155.516H220.973C220.747 155.516 220.634 155.346 220.634 155.176C220.634 155.006 220.747 154.836 220.973 154.836C220.973 154.836 220.973 154.836 221.03 154.836H221.596H221.653C222.163 154.836 222.163 154.1 221.653 154.1H220.407V156.535H221.766C222.163 156.478 222.389 156.082 222.163 155.742ZM221.54 155.572H221.596H221.54ZM221.71 155.572C221.936 155.572 222.163 155.459 222.333 155.289C222.163 155.459 221.936 155.516 221.71 155.572ZM221.71 154.836H221.766C221.766 154.836 221.766 154.836 221.71 154.836H221.766H221.71ZM222.446 155.176C222.446 155.233 222.389 155.233 222.446 155.176C222.389 155.233 222.446 155.233 222.446 155.176Z" fill="#749BE8"/>
<path d="M226.862 153.704V155.742C226.862 156.592 226.07 157.271 225.164 157.271C224.257 157.271 223.465 156.592 223.465 155.742V153.704C223.465 153.477 223.634 153.364 223.804 153.364C224.031 153.364 224.144 153.534 224.144 153.704V155.742C224.144 156.195 224.597 156.535 225.107 156.535C225.617 156.535 226.07 156.139 226.07 155.742V153.704C226.07 153.477 226.239 153.364 226.409 153.364C226.749 153.307 226.862 153.477 226.862 153.704Z" fill="#749BE8"/>
<path d="M230.996 153.93L229.637 155.856V156.818C229.637 156.988 229.524 157.158 229.354 157.158C229.354 157.158 229.354 157.158 229.298 157.158C229.298 157.158 229.298 157.158 229.241 157.158C229.071 157.158 228.958 156.988 228.958 156.818V155.742C228.958 155.799 228.958 155.799 228.958 155.856L227.599 153.93C227.542 153.873 227.542 153.817 227.542 153.704C227.542 153.477 227.712 153.364 227.882 153.364C227.995 153.364 228.108 153.42 228.165 153.534L229.354 155.119L230.543 153.534C230.6 153.42 230.713 153.364 230.827 153.364C231.053 153.364 231.166 153.534 231.166 153.704C231.053 153.817 231.053 153.873 230.996 153.93ZM228.958 155.516C228.958 155.572 228.901 155.572 228.901 155.629C228.901 155.572 228.901 155.572 228.958 155.516C228.901 155.572 228.901 155.572 228.901 155.572C228.901 155.572 228.901 155.572 228.958 155.516C228.958 155.572 228.958 155.572 228.958 155.516C228.958 155.572 228.958 155.572 228.958 155.516C228.958 155.572 228.958 155.516 228.958 155.516ZM229.524 155.516C229.581 155.516 229.581 155.516 229.524 155.516C229.581 155.516 229.581 155.516 229.524 155.516ZM229.581 155.629C229.581 155.686 229.581 155.686 229.581 155.629C229.581 155.686 229.581 155.686 229.581 155.629C229.581 155.686 229.581 155.629 229.581 155.629Z" fill="#749BE8"/>
<path d="M207.608 158.517H177.027C175.668 158.517 174.535 157.384 174.535 156.025V125.445C174.535 124.086 175.668 122.953 177.027 122.953H207.608C208.967 122.953 210.1 124.086 210.1 125.445V156.025C210.156 157.384 209.024 158.517 207.608 158.517Z" fill="#B2D1FF"/>
<path d="M198.378 127.257C197.868 127.031 197.302 126.861 196.735 126.861H195.603V126.917C195.603 128.673 194.187 130.145 192.375 130.145C190.619 130.145 189.147 128.729 189.147 126.917V126.861H188.014C187.448 126.861 186.882 126.974 186.372 127.257L177.707 131.334L180.426 137.847L183.993 136.488V153.59H200.756V136.488L204.324 137.847L207.042 131.334L198.378 127.257Z" fill="#DCE9FF"/>
<path d="M342.22 165.539H270.072C268.09 165.539 266.504 163.953 266.504 161.971V119.499C266.504 117.517 268.09 115.931 270.072 115.931H342.22C344.202 115.931 345.788 117.517 345.788 119.499V161.971C345.788 163.897 344.202 165.539 342.22 165.539Z" fill="white"/>
<path d="M337.802 129.296H314.98C313.224 129.296 311.809 127.88 311.809 126.125C311.809 124.369 313.224 122.953 314.98 122.953H337.802C339.558 122.953 340.974 124.369 340.974 126.125C340.974 127.823 339.558 129.296 337.802 129.296Z" fill="#B2D1FF"/>
<path d="M337.802 139.036H314.98C313.224 139.036 311.809 137.62 311.809 135.865C311.809 134.109 313.224 132.694 314.98 132.694H337.802C339.558 132.694 340.974 134.109 340.974 135.865C340.974 137.62 339.558 139.036 337.802 139.036Z" fill="#B2D1FF"/>
<path d="M337.802 148.777H314.98C313.224 148.777 311.809 147.361 311.809 145.605C311.809 143.85 313.224 142.434 314.98 142.434H337.802C339.558 142.434 340.974 143.85 340.974 145.605C340.974 147.361 339.558 148.777 337.802 148.777Z" fill="#B2D1FF"/>
<path d="M329.308 158.517H314.98C313.224 158.517 311.809 157.101 311.809 155.346C311.809 153.59 313.224 152.174 314.98 152.174H329.308C331.063 152.174 332.479 153.59 332.479 155.346C332.536 157.101 331.063 158.517 329.308 158.517Z" fill="#B2D1FF"/>
<path d="M318.605 157.214H316.849C316.849 157.214 316.849 157.214 316.793 157.214C316.679 157.214 316.566 157.101 316.51 156.988C316.51 156.931 316.51 156.931 316.51 156.875V153.76C316.51 153.533 316.679 153.42 316.849 153.42H318.435C319.341 153.42 319.851 154.383 319.341 155.119C319.341 155.119 319.341 155.176 319.284 155.176C319.284 155.176 319.284 155.119 319.341 155.119C320.191 155.799 319.681 157.214 318.605 157.214ZM318.945 155.742C318.775 155.516 318.492 155.516 318.378 155.516H317.755C317.529 155.516 317.416 155.346 317.416 155.176C317.416 155.006 317.529 154.836 317.755 154.836C317.755 154.836 317.755 154.836 317.812 154.836H318.378H318.435C318.945 154.836 318.945 154.1 318.435 154.1H317.189V156.535H318.548C318.945 156.478 319.171 156.082 318.945 155.742ZM318.322 155.572H318.378H318.322ZM318.492 155.572C318.718 155.572 318.945 155.459 319.115 155.289C318.945 155.459 318.718 155.516 318.492 155.572ZM318.492 154.836H318.548C318.548 154.836 318.548 154.836 318.492 154.836H318.548H318.492ZM319.228 155.176C319.228 155.232 319.171 155.232 319.228 155.176C319.171 155.232 319.228 155.232 319.228 155.176Z" fill="#749BE8"/>
<path d="M323.644 153.703V155.742C323.644 156.592 322.852 157.271 321.946 157.271C321.039 157.271 320.247 156.592 320.247 155.742V153.703C320.247 153.477 320.416 153.364 320.586 153.364C320.813 153.364 320.926 153.533 320.926 153.703V155.742C320.926 156.195 321.379 156.535 321.889 156.535C322.399 156.535 322.852 156.138 322.852 155.742V153.703C322.852 153.477 323.022 153.364 323.191 153.364C323.531 153.307 323.644 153.477 323.644 153.703Z" fill="#749BE8"/>
<path d="M327.78 153.93L326.421 155.855V156.818C326.421 156.988 326.307 157.158 326.137 157.158C326.137 157.158 326.137 157.158 326.081 157.158C326.081 157.158 326.081 157.158 326.024 157.158C325.854 157.158 325.741 156.988 325.741 156.818V155.742C325.741 155.799 325.741 155.799 325.741 155.855L324.382 153.93C324.325 153.873 324.325 153.817 324.325 153.703C324.325 153.477 324.495 153.364 324.665 153.364C324.778 153.364 324.891 153.42 324.948 153.534L326.137 155.119L327.327 153.534C327.383 153.42 327.497 153.364 327.61 153.364C327.836 153.364 327.95 153.534 327.95 153.703C327.836 153.817 327.836 153.873 327.78 153.93ZM325.741 155.516C325.741 155.572 325.684 155.572 325.684 155.629C325.684 155.572 325.684 155.572 325.741 155.516C325.684 155.572 325.684 155.572 325.684 155.572C325.684 155.572 325.684 155.572 325.741 155.516C325.741 155.572 325.741 155.572 325.741 155.516C325.741 155.572 325.741 155.572 325.741 155.516C325.741 155.572 325.741 155.516 325.741 155.516ZM326.307 155.516C326.364 155.516 326.364 155.516 326.307 155.516C326.364 155.516 326.364 155.516 326.307 155.516ZM326.364 155.629C326.364 155.685 326.364 155.685 326.364 155.629C326.364 155.685 326.364 155.685 326.364 155.629C326.364 155.685 326.364 155.629 326.364 155.629Z" fill="#749BE8"/>
<path d="M304.39 158.517H273.809C272.45 158.517 271.317 157.384 271.317 156.025V125.445C271.317 124.086 272.45 122.953 273.809 122.953H304.39C305.749 122.953 306.882 124.086 306.882 125.445V156.025C306.938 157.384 305.806 158.517 304.39 158.517Z" fill="#B2D1FF"/>
<path d="M296.801 130.938H281.454L275.111 153.137H287.287H290.968H303.144L296.801 130.938Z" fill="#DCE9FF"/>
<path d="M296.744 128.729H281.454V130.881H296.744V128.729Z" fill="#DCE9FF"/>
<path d="M283.266 130.938H294.762" stroke="white" stroke-miterlimit="10"/>
<path d="M288.986 131.108C288.136 131.108 287.174 131.221 286.381 131.618C285.871 131.901 284.908 132.694 285.984 133.033C286.664 133.26 287.74 132.864 288.25 132.467C288.589 132.184 288.986 131.448 288.986 131.108Z" stroke="white" stroke-miterlimit="10"/>
<path d="M289.043 131.278C288.873 133.713 287.684 135.808 286.438 136.941" stroke="white" stroke-miterlimit="10"/>
<path d="M289.042 131.278C289.098 133.26 289.891 135.299 291.477 136.601" stroke="white" stroke-miterlimit="10"/>
<path d="M289.042 131.165C289.835 131.051 290.741 131.165 291.477 131.448C291.93 131.618 292.496 132.071 292.496 132.524C292.496 133.147 291.703 133.203 291.25 133.147C290.118 133.033 289.155 131.901 289.042 131.165Z" stroke="white" stroke-miterlimit="10"/>
<path d="M249.176 296.751C250.084 296.751 250.819 296.016 250.819 295.109C250.819 294.202 250.084 293.467 249.176 293.467C248.269 293.467 247.534 294.202 247.534 295.109C247.534 296.016 248.269 296.751 249.176 296.751Z" fill="white"/>
<path d="M257.784 296.751C258.691 296.751 259.426 296.016 259.426 295.109C259.426 294.202 258.691 293.467 257.784 293.467C256.877 293.467 256.142 294.202 256.142 295.109C256.142 296.016 256.877 296.751 257.784 296.751Z" fill="white"/>
<path d="M266.393 296.751C267.3 296.751 268.035 296.016 268.035 295.109C268.035 294.202 267.3 293.467 266.393 293.467C265.486 293.467 264.75 294.202 264.75 295.109C264.75 296.016 265.486 296.751 266.393 296.751Z" fill="white"/>
<path d="M40.0382 315.269L27.636 338.374C28.1456 339.167 29.4482 340.3 29.4482 340.3C29.4482 340.3 32.1665 344.094 32.5062 343.981C32.1665 344.151 26.7299 341.716 24.2381 339.677C23.2754 338.884 23.0488 336.959 23.0488 336.959L27.636 321.838" fill="#FFDACF"/>
<path d="M23.0485 336.959C23.0485 336.959 21.5761 338.544 21.3495 339.281C21.0664 340.017 20.9531 341.319 20.9531 341.319L22.5954 341.886L22.9918 341.206C22.9918 341.206 24.9739 342.735 27.1826 343.528L28.8249 344.151C31.0335 344.944 33.2421 344.547 32.5625 343.471C31.7697 342.169 29.4478 340.357 29.4478 340.357C29.4478 340.357 28.9948 340.979 27.579 340.47C24.0112 339.167 23.0485 336.959 23.0485 336.959Z" fill="#011E3B"/>
<path d="M82.4542 315.383L78.6033 341.319C79.3961 341.886 80.9252 342.508 80.9252 342.508C80.9252 342.508 84.7761 345.17 85.0592 344.944C84.7761 345.227 78.8298 344.774 75.8284 343.698C74.6391 343.301 73.7897 341.546 73.7897 341.546L72.9402 325.746" fill="#FFDACF"/>
<path d="M73.8465 341.602C73.8465 341.602 72.9971 343.584 72.9971 344.321C72.9971 345.113 73.3369 346.416 73.3369 346.416H75.0924L75.2057 345.623C75.2057 345.623 77.5842 346.416 79.9061 346.359H81.6617C84.0402 346.359 85.9656 345.283 84.9463 344.434C83.757 343.471 80.9254 342.565 80.9254 342.565C80.9254 342.565 80.6989 343.301 79.2265 343.301C75.4888 343.358 73.8465 341.602 73.8465 341.602Z" fill="#011E3B"/>
<path d="M60.3127 219.394C62.6346 239.951 64.2769 259.998 66.5988 277.44C67.958 288.03 71.9221 336.789 71.9221 336.789L83.6448 336.506C83.6448 336.506 89.9309 301.168 91.2334 263.226C92.1395 237.686 84.6075 219.734 84.6075 219.734L73.9042 212.542" fill="#99BEFF"/>
<path d="M40.2082 215.374C32.0533 236.78 35.5078 258.639 34.3752 272.174C33.2426 285.652 23.8418 332.994 23.8418 332.994L35.6211 336.052C35.6211 336.052 56.0083 303.773 63.5403 266.511C66.655 250.994 68.6937 218.092 68.6937 218.092" fill="#99BEFF"/>
<path d="M54.706 227.436C54.706 227.436 54.4795 252.806 50.8551 273.759C45.8716 302.584 32.6199 335.26 32.6199 335.26" stroke="#C8DBFC" stroke-miterlimit="10"/>
<path d="M80.3035 336.562C80.3035 336.562 86.7028 298.563 86.7028 273.759C86.7028 248.955 82.2856 224.378 82.2856 224.378" stroke="#C8DBFC" stroke-miterlimit="10"/>
<path d="M37.3765 224.491C37.3765 224.491 62.2942 232.759 85.8528 223.019" stroke="#C8DBFC" stroke-miterlimit="10"/>
<path d="M64.6733 259.602L66.6554 242.896" stroke="#749BE8" stroke-width="0.5" stroke-miterlimit="10"/>
<path d="M79.9626 204.218C82.4544 211.24 84.663 219.734 84.663 219.734C84.663 219.734 80.3024 222.736 63.7094 223.755C51.4205 224.548 38.6218 219.848 38.6218 219.848L43.3788 202.519" fill="#FFDACF"/>
<path d="M40.2076 170.806C40.3208 169.56 41.6233 168.824 42.756 168.257C47.2865 166.105 51.9868 164.067 56.9704 163.387C61.9539 162.708 67.3339 163.5 71.2981 166.558C77.0745 170.976 83.3605 178.338 83.6437 185.926C83.9268 194.251 78.9999 195.27 81.0386 206.596C80.8688 206.936 51.8736 214.298 39.4713 206.879C40.3208 203.765 41.1703 200.537 40.4907 197.365C40.2076 196.063 39.6979 194.874 39.3015 193.628C37.1495 187.115 38.1122 180.036 39.1882 173.241" fill="#2C79E8"/>
<path d="M125.098 181.565L131.271 178.111C130.988 177.375 131.497 175.789 132.573 173.977C132.857 173.467 133.706 171.768 134.272 172.052C134.669 172.221 133.706 173.694 134.159 173.864C134.556 174.034 137.047 171.202 137.67 171.372C138.237 171.598 135.462 174.203 135.462 174.203C135.462 174.203 138.52 171.542 138.973 171.882C139.426 172.165 136.254 174.826 136.254 174.826C136.254 174.826 139.313 172.448 139.539 172.901C139.766 173.241 137.047 175.563 137.047 175.563C137.047 175.563 139.596 173.807 139.766 174.317C139.879 174.657 137.784 176.186 136.934 176.922C136.028 177.715 135.688 179.81 133.366 180.036C133.14 180.15 127.816 185.869 127.816 185.869" fill="#FFDACF"/>
<path d="M133.99 174.6C133.99 174.6 134.556 176.808 133.367 177.828" stroke="#F7A794" stroke-width="0.75" stroke-miterlimit="10"/>
<path d="M93.7813 172.901C97.1791 178.337 105.504 184.227 110.261 184.227C117.17 184.227 131.271 178.111 131.271 178.111L133.253 180.036C133.253 180.036 119.945 198.441 106.806 199.857C95.0838 201.159 84.7203 194.987 80.7561 191.589" fill="#FFDACF"/>
<path d="M65.9189 159.366C74.4136 158.064 80.8696 160.556 88.7413 167.974C91.7994 170.862 98.1987 177.545 98.1987 177.545L85.7965 195.213L76.962 190.173" fill="#2C79E8"/>
<path d="M80.3032 172.052C80.3032 172.052 80.3599 173.581 81.266 176.072C82.1721 178.564 83.5878 183.378 83.5878 186.606C83.5878 189.89 82.4552 192.722 82.4552 192.722" stroke="#021D3B" stroke-width="0.5" stroke-miterlimit="10"/>
<path d="M50.1192 187.965C50.1192 187.965 51.7049 202.519 55.7257 208.918C59.6899 215.374 78.095 238.309 79.4542 237.629L78.718 240.008C78.718 240.008 56.6318 237.856 40.6052 219.791C34.489 212.882 30.4116 197.592 30.1284 190.626" fill="#FFDACF"/>
<path d="M45.4183 161.009C45.4183 161.009 36.6971 163.104 31.8268 174.317C28.1457 182.755 30.5243 195.27 30.5243 195.27L51.3079 190.853L50.3452 179.244L52.9502 164.803" fill="#2C79E8"/>
<path d="M50.8542 190.966L49.3818 178.621" stroke="#021D3B" stroke-width="0.5" stroke-miterlimit="10"/>
<path d="M66.5411 223.528L56.8005 210.164" stroke="#F7A794" stroke-width="0.75" stroke-miterlimit="10"/>
<path d="M141.918 268.889H165.363V255.185C165.363 250.541 161.626 246.803 156.982 246.803H150.243C145.599 246.803 141.861 250.541 141.861 255.185V268.889H141.918Z" stroke="#FF8C78" stroke-width="2" stroke-miterlimit="10"/>
<path d="M174.537 264.302L179.861 325.349L125.381 325.123L130.195 264.132L174.537 264.302Z" fill="#FFB9AE"/>
<path d="M166.326 286.784H183.599V277.667C183.599 274.382 180.937 271.721 177.653 271.721H172.216C168.931 271.721 166.27 274.382 166.27 277.667V286.784H166.326Z" stroke="#2C79E8" stroke-width="2" stroke-miterlimit="10"/>
<path d="M190.338 283.67L194.302 325.35L154.15 325.18L157.662 283.613L190.338 283.67Z" fill="#2C79E8"/>
<path d="M140.162 337.525C140.162 341.942 136.594 345.567 132.12 345.567C127.703 345.567 124.079 341.999 124.079 337.525C124.079 333.108 127.647 329.484 132.12 329.484C136.594 329.484 140.162 333.108 140.162 337.525Z" fill="#FF8C78"/>
<path d="M135.858 337.525C135.858 339.564 134.216 341.263 132.12 341.263C130.082 341.263 128.383 339.62 128.383 337.525C128.383 335.486 130.025 333.787 132.12 333.787C134.216 333.787 135.858 335.43 135.858 337.525Z" fill="#F7633A"/>
<path d="M195.547 337.525C195.547 341.942 191.98 345.567 187.506 345.567C183.089 345.567 179.464 341.999 179.464 337.525C179.464 333.108 183.032 329.484 187.506 329.484C191.98 329.484 195.547 333.108 195.547 337.525Z" fill="#FF8C78"/>
<path d="M191.243 337.525C191.243 339.564 189.601 341.263 187.506 341.263C185.467 341.263 183.768 339.62 183.768 337.525C183.768 335.486 185.41 333.787 187.506 333.787C189.601 333.787 191.243 335.43 191.243 337.525Z" fill="#F7633A"/>
<path d="M122.777 326.086H196.907L211.178 259.602H108.506L122.777 326.086Z" stroke="#163491" stroke-width="2.3" stroke-miterlimit="10" stroke-linecap="round" stroke-linejoin="round"/>
<path d="M207.327 276.478H112.13" stroke="#163491" stroke-width="2.3" stroke-miterlimit="10" stroke-linecap="round" stroke-linejoin="round"/>
<path d="M204.099 292.617H115.584" stroke="#163491" stroke-width="2.3" stroke-miterlimit="10" stroke-linecap="round" stroke-linejoin="round"/>
<path d="M200.645 308.757H119.039" stroke="#163491" stroke-width="2.3" stroke-miterlimit="10" stroke-linecap="round" stroke-linejoin="round"/>
<path d="M191.98 259.602L183.315 326.086L187.506 337.525" stroke="#163491" stroke-width="2.3" stroke-miterlimit="10" stroke-linecap="round" stroke-linejoin="round"/>
<path d="M127.646 259.602L136.368 326.086L132.12 337.525" stroke="#163491" stroke-width="2.3" stroke-miterlimit="10" stroke-linecap="round" stroke-linejoin="round"/>
<path d="M167.402 326.086L171.366 259.602" stroke="#163491" stroke-width="2.3" stroke-miterlimit="10" stroke-linecap="round" stroke-linejoin="round"/>
<path d="M152.281 326.086L148.316 259.602" stroke="#163491" stroke-width="2.3" stroke-miterlimit="10" stroke-linecap="round" stroke-linejoin="round"/>
<path d="M122.776 326.086L106.297 249.239C105.787 246.803 103.635 245.105 101.2 245.105H91.2327" stroke="#163491" stroke-width="2.3" stroke-miterlimit="10" stroke-linecap="round" stroke-linejoin="round"/>
<path d="M98.2549 248.163H79.1702C77.4712 248.163 76.1121 246.803 76.1121 245.105C76.1121 243.406 77.4712 242.046 79.1702 242.046H98.2549V248.163Z" fill="#FF8C78"/>
<path d="M76.1692 239.158C76.3957 239.668 76.7921 240.064 77.1319 240.461C77.6416 241.084 78.1513 241.65 78.8309 242.103C79.3405 242.443 79.9635 242.669 80.4732 243.009C81.3793 243.689 81.8323 244.765 82.6818 245.501C82.795 245.614 82.9649 245.671 83.0782 245.558C83.1348 245.501 83.1348 245.444 83.1348 245.388C83.1348 244.991 83.0216 244.651 82.8517 244.312C82.6252 243.802 82.342 243.236 82.0588 242.726C82.7384 243.349 83.3614 244.085 83.871 244.878C84.1542 245.274 84.3807 245.727 84.8338 245.841C84.947 245.161 84.7771 244.425 84.494 243.802C84.2108 243.179 83.7578 242.613 83.3047 242.103C84.4374 242.783 85.1736 243.915 85.7965 245.105C85.8531 245.161 85.8531 245.218 85.9664 245.274C86.1363 245.388 86.3062 245.105 86.3628 244.935C86.4194 244.368 86.1929 243.802 85.9098 243.292C85.5133 242.556 85.0037 241.877 84.4374 241.31C85.3435 241.82 86.023 242.613 86.7026 243.349C86.7592 243.406 86.8159 243.462 86.8725 243.406C86.9291 243.406 86.9291 243.349 86.9858 243.292C87.099 243.009 86.9858 242.669 86.8725 242.386C86.0797 240.574 84.7205 239.045 83.0216 238.026C82.1155 237.459 81.0961 237.12 80.0201 236.893C78.8875 236.667 77.6982 236.553 76.6789 236.044" fill="#FFDACF"/>
<path d="M63.7096 150.985C63.7096 150.985 60.9346 151.551 58.3862 150.136" stroke="#EF977F" stroke-width="0.75" stroke-miterlimit="10"/>
<path d="M56.4034 157.554L45.417 161.009C45.417 161.009 47.9088 167.068 52.9489 170.013C56.7999 172.278 63.3691 172.675 67.4465 171.146C76.281 167.918 75.1484 159.48 75.1484 159.48L63.7089 157.498" fill="#FFDACF"/>
<path d="M62.0103 133.09C62.1235 132.637 61.6139 132.241 61.1608 132.071C58.8389 131.221 56.1773 131.674 53.912 132.75C52.8926 133.26 51.8733 133.883 51.1371 134.732C49.5514 136.601 49.2116 139.206 49.4948 141.641C49.6647 142.944 50.0045 144.246 50.684 145.379C51.7034 146.964 53.459 147.984 55.2712 148.154C57.14 148.323 59.0088 147.531 60.2547 146.115" fill="#F7633A"/>
<path d="M64.6723 136.205C68.7497 140.282 71.0716 149.569 64.6723 150.815C59.5755 151.835 56.574 149.853 55.2715 145.775C53.346 139.716 60.5948 132.127 64.6723 136.205Z" fill="#FFDACF"/>
<path d="M67.107 141.528C67.107 141.868 66.8238 142.094 66.5407 142.094C66.2575 142.094 65.9744 141.811 65.9744 141.528C65.9744 141.188 66.2575 140.962 66.5407 140.962C66.8238 140.962 67.107 141.245 67.107 141.528Z" fill="#060A47"/>
<path d="M60.6511 143.906C60.6511 144.246 60.9343 144.473 61.2174 144.473C61.5572 144.473 61.7837 144.19 61.7837 143.906C61.7837 143.623 61.5006 143.34 61.2174 143.34C60.8776 143.34 60.6511 143.567 60.6511 143.906Z" fill="#060A47"/>
<path d="M62.0097 141.528C60.6506 141.018 59.0083 141.698 58.7251 143.17C58.7251 143.227 58.8384 143.283 58.8384 143.227C59.4613 141.981 60.5939 141.301 61.9531 141.698C62.0664 141.698 62.123 141.585 62.0097 141.528Z" fill="#060A47"/>
<path d="M67.3345 139.489C66.3151 138.583 64.2197 139.263 64.3896 140.792C64.3896 140.848 64.5029 140.848 64.5029 140.792C64.6728 140.282 64.9559 139.772 65.409 139.489C65.9753 139.149 66.6549 139.263 67.2212 139.602C67.3344 139.659 67.3911 139.546 67.3345 139.489Z" fill="#060A47"/>
<path d="M64.3884 142.321C64.3884 142.321 66.6537 144.756 66.4272 145.322C66.0307 146.228 64.6716 146.228 64.6716 146.228" stroke="#F7A794" stroke-width="0.75" stroke-miterlimit="10"/>
<path d="M63.3689 147.814L66.427 147.021C66.427 147.021 66.8234 148.833 65.804 149.116C63.8786 149.626 63.3689 147.814 63.3689 147.814Z" fill="white"/>
<path d="M57.8189 148.72L56.4031 157.554C56.4031 157.554 57.3658 160.895 61.8397 160.895C65.011 160.895 64.7279 157.724 64.7279 157.724L63.4253 148.72" fill="#FFDACF"/>
<path d="M61.7268 132.071H61.6702C58.8386 132.014 56.5734 133.77 54.5913 135.582C54.025 136.091 53.5153 136.658 53.2321 137.337C52.8923 138.13 52.8923 139.036 52.949 139.942C53.0622 142.434 53.2888 145.096 54.8178 147.134C54.8744 147.248 54.9877 147.361 55.101 147.361C55.3275 147.417 55.554 147.191 55.6673 146.964C56.8565 144.982 57.4795 142.717 57.5927 140.395C59.6881 139.489 62.01 138.413 63.0293 136.375C64.0487 137.904 65.6344 138.98 67.4466 139.319C67.7297 136.884 66.5405 133.826 64.2752 132.637C63.4824 132.241 62.5763 132.071 61.7268 132.071Z" fill="#F7633A"/>
<path d="M57.4237 146.002C56.5742 145.379 55.6115 145.832 55.2717 146.171C54.4222 147.078 54.5355 148.72 55.5549 149.456C56.0645 149.852 56.8007 150.022 57.3671 149.796C57.99 149.569 58.443 148.946 58.3864 148.323" fill="#FFDACF"/>
<path d="M52.8927 133.486C51.2504 132.75 49.5515 132.014 47.7959 131.674C46.0403 131.391 44.0583 131.561 42.5858 132.637C41.9063 133.09 41.34 133.77 40.717 134.336C37.2059 137.507 31.9958 138.017 28.0316 140.565C25.1434 142.434 22.9914 145.435 22.0853 148.777C21.8022 149.853 21.6889 150.985 21.8022 152.118C22.142 154.836 24.1807 157.101 26.6158 158.347C29.051 159.593 31.8259 159.876 34.6008 159.763C37.9421 159.706 41.7364 158.8 43.2654 155.855C44.2848 153.873 44.0583 151.551 44.0016 149.343C44.0016 147.134 44.398 144.643 46.2102 143.34C46.8898 142.887 47.7393 142.604 48.3056 142.038C48.702 141.641 48.9852 141.131 49.2683 140.565C50.1744 138.81 51.0805 136.997 52.0433 135.242" fill="#F7633A"/>
<path d="M73.2232 215.317C72.8834 216.11 72.7135 217.469 73.2798 218.205C73.3364 218.318 73.5063 218.262 73.563 218.149C73.563 217.696 73.4497 217.242 73.3931 216.789C73.3931 216.336 73.4497 215.883 73.5063 215.43C73.5063 215.204 73.2798 215.204 73.2232 215.317Z" fill="#F7A794"/>
<path d="M434.984 153.817C418.787 155.629 410.349 161.858 403.1 160.952C395.851 160.046 375.294 148.154 375.294 148.154L373.142 149.796C373.142 149.796 385.318 177.092 406.385 179.243C418.277 180.433 431.189 176.072 431.189 176.072" fill="#FFDACF"/>
<path d="M434.926 153.817C418.164 154.27 410.179 160.726 402.93 159.819C395.681 158.913 386.167 153.59 386.167 153.59L378.692 164.973C378.692 164.973 387.979 179.357 405.705 181.452C416.238 182.698 431.189 175.959 431.189 175.959" fill="#B2D1FF"/>
<path d="M384.356 152.344L390.132 155.289L380.958 168.824L375.748 162.651L384.356 152.344Z" fill="#749BE8"/>
<path d="M375.804 151.268C374.784 151.381 373.708 151.325 372.746 150.985C371.783 150.645 370.877 150.022 370.31 149.116C370.14 148.833 369.971 148.55 369.914 148.21C369.914 148.097 369.857 147.984 369.971 147.87C370.084 147.757 370.31 147.814 370.48 147.927C370.763 148.097 371.047 148.323 371.33 148.38C372.859 148.72 371.613 146.794 371.273 146.341C370.65 145.492 369.914 144.699 369.461 143.736C369.348 143.51 369.291 143.34 369.404 143.17C369.801 142.377 372.349 145.379 372.519 145.549C372.746 145.209 373.199 145.152 373.595 145.152C373.991 145.209 374.331 145.322 374.728 145.379C374.954 145.379 375.124 145.379 375.351 145.435C375.86 145.549 376.257 146.058 376.483 146.511C377.05 147.701 377.05 149.116 376.483 150.362" fill="#FFDACF"/>
<path d="M434.869 332.032C436.398 334.184 436.342 337.695 435.379 338.091C434.813 338.318 423.09 338.658 422.92 337.978C422.071 334.58 431.754 332.598 431.754 332.598" fill="#000E45"/>
<path d="M427.847 318.837L430.169 332.995C430.169 332.995 431.188 333.561 432.887 333.504C434.586 333.504 435.266 332.655 435.266 332.655L436.229 316.855" fill="#FFDACF"/>
<path d="M424.223 217.469C414.992 257.959 429.093 328.407 429.093 328.407H435.832C435.832 328.407 444.101 249.918 447.329 246.577C450.557 243.236 452.992 232.816 446.592 220.131" fill="#F6EBE5"/>
<path d="M434.416 327.275C434.416 327.275 437.417 262.15 442.684 244.821" stroke="#CCA593" stroke-width="0.5" stroke-miterlimit="10"/>
<path d="M435.832 328.351H428.754L428.414 326.199H436.229L435.832 328.351Z" fill="#CCA593"/>
<path d="M480.854 323.99C483.233 325.123 484.875 328.294 484.195 329.03C483.799 329.483 473.662 335.486 473.209 334.977C470.831 332.428 478.362 326.029 478.362 326.029" fill="#000E45"/>
<path d="M469.358 314.816L477.229 327.105C477.229 327.105 478.362 327.105 479.835 326.255C481.307 325.406 481.533 324.33 481.533 324.33L474.624 305.359" fill="#FFDACF"/>
<path d="M441.608 219.055C441.608 219.055 441.891 257.676 446.988 272.853C455.313 297.771 474.058 322.291 474.058 322.291L479.664 318.724C479.664 318.724 469.811 276.478 469.811 270.078C469.811 262.263 469.924 247.256 469.924 245.274C474.341 237.12 475.417 225.907 467.375 214.637" fill="#F6EBE5"/>
<path d="M480.287 319.97L474.171 323.311L472.868 321.612L479.608 317.931L480.287 319.97Z" fill="#CCA593"/>
<path d="M478.589 320.253C478.589 320.253 467.206 276.478 467.206 270.078C467.206 264.245 467.262 254.392 467.262 248.955C467.262 246.747 467.716 244.595 468.565 242.613C471.85 234.741 471.906 224.718 464.771 214.637" stroke="#CCA593" stroke-width="0.5" stroke-miterlimit="10"/>
<path d="M423.203 224.095C423.203 224.095 445.289 228.625 471.68 223.075" stroke="#CCA593" stroke-width="0.5" stroke-miterlimit="10"/>
<path d="M447.102 225.624L446.875 220.98" stroke="#CCA593" stroke-width="0.5" stroke-miterlimit="10"/>
<path d="M443.251 223.812C444.383 223.812 444.383 222.056 443.251 222.056C442.118 222.056 442.118 223.812 443.251 223.812Z" fill="white"/>
<path d="M441.609 225.85C441.609 225.85 441.326 233.156 442.118 241.707C443.251 251.844 444.214 259.885 444.214 259.885" stroke="#CCA593" stroke-width="0.5" stroke-miterlimit="10"/>
<path d="M438.55 225.737C438.55 225.737 439.116 235.194 439.796 235.874C440.476 236.553 441.552 236.95 441.552 236.95" stroke="#CCA593" stroke-width="0.5" stroke-miterlimit="10"/>
<path d="M467.376 168.597C467.376 168.597 468.396 206.992 462.449 219.791C452.822 222.566 429.717 221.49 425.129 220.187C420.542 218.941 418.22 168.597 418.22 168.597L431.812 154.1C431.812 154.1 435.663 153.703 437.418 153.703C445.97 153.024 449.254 153.477 449.254 153.477L467.376 168.597Z" fill="#F7633A"/>
<path d="M433.851 147.644L432.831 154.043C432.831 154.043 432.831 157.951 438.155 157.951C445.97 157.951 446.989 153.703 446.989 153.703L444.441 141.641" fill="#FFDACF"/>
<path d="M430.169 140.622C430.113 140.282 429.66 140.169 429.32 140.282C428.867 140.395 428.527 140.848 428.357 141.301C428.187 141.754 428.187 142.264 428.244 142.717C428.301 143.17 428.414 143.623 428.64 144.019C429.094 144.699 430.113 144.869 430.792 144.416" fill="#F9BBAF"/>
<path d="M429.66 134.223C429.66 134.223 428.357 145.209 430.226 147.191C432.944 150.136 438.437 149.626 440.533 147.757C442.288 146.228 442.911 139.263 442.685 137.507C442.005 132.75 431.812 131.391 429.66 134.223Z" fill="#FFDACF"/>
<path d="M444.95 131.561C443.818 130.145 442.175 129.239 440.476 128.503C438.494 127.653 436.342 126.917 434.247 127.144C432.888 127.257 431.585 127.767 430.339 128.39C429.886 128.616 429.49 128.843 429.15 129.239C428.867 129.579 428.697 130.258 428.187 130.258C427.168 130.315 427.565 131.448 427.678 132.127C427.791 132.75 428.074 133.373 428.584 133.826C429.037 134.223 429.66 134.392 430.226 134.506C431.585 134.732 433.001 134.619 434.36 134.562C436.399 134.506 438.494 134.562 440.476 134.789C440.307 136.997 440.533 139.206 441.099 141.301C441.552 141.018 442.232 140.735 442.628 141.131C442.742 141.245 442.798 141.415 442.855 141.584C443.138 142.321 443.478 143.057 443.874 143.736C444.101 144.133 444.441 144.586 444.894 144.529C446.139 144.359 446.026 142.547 446.14 141.641C446.366 140.225 446.479 138.81 446.479 137.337C446.649 135.355 446.196 133.203 444.95 131.561Z" fill="#011E3B"/>
<path d="M433.851 149.286C433.851 149.286 437.588 149.513 439.91 147.814C441.722 146.455 442.119 143.906 442.119 143.906" stroke="#F7A794" stroke-miterlimit="10"/>
<path d="M440.419 140.622C440.589 140.225 441.269 139.602 441.722 139.546C442.175 139.546 442.571 139.716 442.911 139.999C444.497 141.358 443.421 144.586 441.269 144.529C440.476 144.529 440.532 143.453 440.532 143.453" fill="#FFDACF"/>
<path d="M432.945 139.263C432.945 139.263 431.699 141.924 431.812 142.491C431.869 143.113 433.511 143.17 433.511 143.17" stroke="#F7A794" stroke-miterlimit="10" stroke-linejoin="round"/>
<path d="M435.832 139.772C435.832 140.055 435.946 140.282 436.172 140.282C436.399 140.282 436.569 140.112 436.569 139.829C436.569 139.546 436.455 139.319 436.229 139.319C436.059 139.263 435.889 139.489 435.832 139.772Z" fill="#011E3B"/>
<path d="M429.943 139.263C429.943 139.546 430.056 139.772 430.282 139.772C430.509 139.772 430.679 139.602 430.679 139.319C430.679 139.036 430.566 138.81 430.339 138.81C430.169 138.753 429.943 138.979 429.943 139.263Z" fill="#011E3B"/>
<path d="M435.72 145.039L432.152 145.096C432.152 145.096 432.435 147.587 434.078 147.587C436.06 147.644 435.72 145.039 435.72 145.039Z" fill="white"/>
<path d="M438.098 137.45C438.042 137.337 437.928 137.224 437.872 137.054C437.815 136.997 437.815 136.941 437.759 136.941C437.702 136.884 437.645 136.884 437.589 136.884C437.079 136.884 436.513 136.941 436.003 137.054C435.777 137.111 435.493 137.167 435.267 137.281C434.984 137.45 435.04 137.394 435.154 137.734C435.154 137.79 435.21 137.79 435.21 137.79C435.267 137.847 435.323 137.79 435.38 137.79C436.23 137.564 437.136 137.45 437.985 137.564C438.042 137.564 438.098 137.564 438.098 137.507C438.155 137.564 438.098 137.507 438.098 137.45Z" fill="#011E3B"/>
<path d="M429.49 137.281C429.546 137.167 429.603 137.054 429.716 136.941C429.716 136.884 429.773 136.827 429.829 136.827C429.886 136.771 429.943 136.771 429.999 136.827C430.396 136.884 430.849 136.941 431.245 137.111C431.415 137.167 431.642 137.224 431.811 137.337C432.038 137.507 431.981 137.507 431.868 137.79L431.811 137.847C431.755 137.847 431.698 137.847 431.698 137.847C431.019 137.564 430.339 137.45 429.603 137.507C429.546 137.507 429.546 137.507 429.49 137.45C429.433 137.337 429.49 137.281 429.49 137.281Z" fill="#011E3B"/>
<path d="M449.199 153.477C449.199 153.477 445.461 166.615 448.066 195.44C449.538 212.202 454.918 230.607 454.918 230.607C454.918 230.607 473.21 228.965 473.21 226.473C473.21 224.038 468.85 210.22 468.85 201.669C468.85 193.118 467.717 161.688 467.717 161.688C467.717 161.688 459.279 154.553 449.199 153.477Z" fill="#B2D1FF"/>
<path d="M455.314 155.289C455.314 155.289 453.389 173.637 452.143 174.826C451.747 175.166 448.972 175.449 448.972 176.242C448.972 177.035 451.124 177.148 451.124 179.13C451.124 181.112 450.048 190.003 448.575 196.119" stroke="#607FAD" stroke-width="0.5" stroke-miterlimit="10"/>
<path d="M431.756 154.1C431.756 154.1 430.226 228.229 429.207 230.607C424.733 231.57 416.465 229.078 416.465 229.078C416.465 229.078 418.617 204.84 418.164 197.705C417.484 186.549 416.861 173.637 416.861 173.637L417.258 159.31C417.315 159.31 422.695 155.912 431.756 154.1Z" fill="#B2D1FF"/>
<path d="M426.658 154.609C426.658 154.609 425.356 171.372 427.338 174.826C427.621 175.279 430.453 175.619 430.453 176.355C430.396 177.148 428.301 177.148 428.187 179.13C428.074 181.112 429.263 189.833 430.453 196.516" stroke="#607FAD" stroke-width="0.5" stroke-miterlimit="10"/>
<path d="M417.202 179.3L417.032 168.314" stroke="#607FAD" stroke-width="0.5" stroke-miterlimit="10"/>
<path d="M454.463 252.863C454.463 252.863 456.332 239.045 464.6 239.668C471.509 240.178 472.869 252.976 472.869 252.976" stroke="#2C79E8" stroke-miterlimit="10"/>
<path d="M448.801 251.107L446.875 292.844L483.969 291.145L478.985 249.748L448.801 251.107Z" fill="#B2D1FF"/>
<path d="M483.969 291.145L478.986 249.748L488.387 287.464L483.969 291.145Z" fill="#749BE8"/>
<path d="M459.562 255.071C459.562 255.071 455.712 241.424 463.923 239.781C470.719 238.422 474.796 250.258 474.796 250.258" stroke="#FF8C78" stroke-miterlimit="10"/>
<path d="M453.672 253.316L459.618 289.842L491.502 281.574L479.552 246.577L453.672 253.316Z" fill="#FFB9AE"/>
<path d="M491.502 281.574L479.552 246.577L494.616 277.554L491.502 281.574Z" fill="#FF8C78"/>
<path d="M484.761 194.477C487.026 209.088 466.583 236.27 466.583 236.27L462.675 234.798C462.675 234.798 470.66 203.368 468.338 198.271" fill="#FFDACF"/>
<path d="M454.521 175.11C454.521 175.11 466.243 191.759 467.093 198.724C468.055 207.106 465.337 219.961 465.337 219.961C470.491 222.339 476.493 224.774 476.493 224.774C476.493 224.774 489.292 209.484 487.027 193.514C484.478 175.846 470.037 159.706 457.295 155.515" fill="#B2D1FF"/>
<path d="M465.337 220.017C465.337 220.017 468.395 205.35 467.093 198.781C465.79 192.212 456.616 178.224 456.616 178.224" stroke="#607FAD" stroke-width="0.5" stroke-miterlimit="10"/>
<path d="M463.978 233.325C462.109 234.571 460.75 237.12 460.637 239.385C460.58 240.461 460.92 241.763 461.882 242.386C462.336 242.669 463.072 243.009 463.581 243.066C463.865 243.122 465.394 242.613 465.394 242.613C466.356 243.179 467.319 242.613 467.942 241.65C468.565 240.687 468.905 239.555 468.282 238.649C468.169 238.479 467.829 238.252 467.829 238.252C467.829 238.252 468.395 234.628 465.564 233.269" fill="#FFDACF"/>
<path d="M470.038 242.216C470.038 242.216 468.623 240.461 466.754 240.178" stroke="#FF8C78" stroke-miterlimit="10"/>
<path d="M469.812 243.292C469.812 243.292 468.113 240.914 466.754 240.121" stroke="#2C79E8" stroke-miterlimit="10"/>
<path d="M465.677 215.544L463.525 221.603L475.87 227.493L479.891 220.357L465.677 215.544Z" fill="#749BE8"/>
<path d="M346.018 303.207C346.018 303.207 361.081 332.032 360.968 333.164C360.912 334.523 359.043 336.109 359.043 336.109C359.043 336.109 355.928 341.093 355.532 340.923C355.985 341.093 362.554 337.638 365.499 334.92C366.631 333.844 366.801 331.465 366.801 331.465L359.836 308.983" fill="#FFDACF"/>
<path d="M366.801 331.409C366.801 331.409 368.386 332.372 368.896 334.184C369.123 335.146 369.462 335.939 369.009 336.392C368.67 336.732 367.48 337.072 365.895 337.808C364.649 338.374 363.346 339.337 362.214 339.847L360.175 340.696C357.457 341.829 354.738 341.546 355.475 340.13C356.267 338.601 357.626 337.468 358.816 336.279C358.986 336.109 359.156 335.883 359.325 335.713C359.665 335.203 359.835 334.637 360.175 334.127C360.232 334.07 360.288 334.014 360.345 333.957C360.401 333.901 360.458 333.901 360.515 333.901C361.024 333.901 361.534 334.184 362.044 334.24C362.214 334.24 362.327 334.24 362.497 334.297C362.61 334.354 362.78 334.467 362.78 334.637C362.78 334.75 362.723 334.863 362.667 334.977C362.61 335.09 362.61 335.26 362.667 335.316C362.78 335.43 362.95 335.316 363.063 335.26C364.026 334.637 364.932 333.957 365.668 333.051C365.951 332.711 366.234 332.372 366.518 332.032C366.461 332.088 366.857 331.465 366.801 331.409Z" fill="#011E3B"/>
<path d="M370.029 305.529C370.029 305.529 377.561 337.128 377.221 338.261C376.824 339.507 374.672 340.64 374.672 340.64C374.672 340.64 370.425 344.66 370.085 344.434C370.482 344.717 377.73 342.961 381.242 341.036C382.601 340.3 383.337 337.978 383.337 337.978L382.091 314.476" fill="#FFDACF"/>
<path d="M383.28 337.978C383.28 337.978 384.583 339.337 384.583 341.206C384.583 342.169 384.696 343.075 384.13 343.414C383.734 343.641 382.488 343.698 380.732 344.037C379.373 344.321 377.9 344.887 376.655 345.113L374.446 345.453C371.558 345.906 368.953 344.943 370.029 343.754C371.161 342.508 372.804 341.715 374.219 340.809C374.446 340.696 374.673 340.526 374.842 340.356C375.295 339.96 375.635 339.45 376.088 339.054C376.145 338.997 376.202 338.941 376.258 338.941C376.315 338.941 376.371 338.941 376.428 338.941C376.938 339.054 377.334 339.45 377.844 339.677C377.957 339.733 378.127 339.79 378.24 339.847C378.354 339.96 378.467 340.073 378.41 340.243C378.41 340.356 378.297 340.47 378.184 340.583C378.127 340.696 378.07 340.809 378.127 340.923C378.24 341.036 378.41 340.979 378.523 340.923C379.599 340.526 380.675 340.13 381.582 339.394C381.921 339.11 382.318 338.884 382.658 338.601C382.827 338.544 383.337 338.035 383.28 337.978Z" fill="#011E3B"/>
<path d="M371.557 211.07C374.106 227.549 366.8 230.381 366.8 230.381C366.8 230.381 358.023 259.602 358.023 268.153C358.023 276.704 367.027 317.195 367.027 317.195C362.836 329.087 344.091 331.522 344.091 331.522C344.091 331.522 334.011 299.356 332.822 270.701C331.633 241.593 349.018 208.974 349.018 208.974" fill="#2C79E8"/>
<path d="M363.629 212.429C362.61 225.68 360.968 252.183 362.044 276.874C363.289 304.736 364.535 330.333 364.535 331.862C380.052 334.863 393.927 327.841 393.927 327.841C393.927 327.841 388.49 243.066 388.49 237.289C388.49 231.513 390.982 223.528 382.657 208.691" fill="#2C79E8"/>
<path d="M347.093 213.052C347.093 213.052 352.189 216.846 363.176 216.846C375.918 216.846 384.922 213.052 384.922 213.052" stroke="#021D3B" stroke-width="0.5" stroke-miterlimit="10"/>
<path d="M360.911 213.788C360.401 212.655 359.722 213.335 359.722 214.298C359.665 215.997 361.364 214.751 360.911 213.788Z" fill="white"/>
<path d="M372.521 216.166C372.521 216.166 371.784 213.052 372.124 210.786" stroke="#021D3B" stroke-width="0.5" stroke-miterlimit="10"/>
<path d="M354.342 215.827C354.342 215.827 354.455 213.108 355.531 210.05" stroke="#021D3B" stroke-width="0.5" stroke-miterlimit="10"/>
<path d="M360.967 216.789C361.307 216.789 363.176 216.903 363.176 214.298C363.176 211.749 362.779 211.353 360.967 211.353" stroke="#021D3B" stroke-width="0.5" stroke-miterlimit="10"/>
<path d="M362.043 246.52C362.043 246.52 360.514 233.495 361.93 216.619" stroke="#021D3B" stroke-width="0.5" stroke-miterlimit="10"/>
<path d="M377.221 215.317C377.221 215.317 377.901 224.548 384.866 227.492" stroke="#021D3B" stroke-width="0.5" stroke-miterlimit="10"/>
<path d="M342.505 223.585C342.505 223.585 348.225 224.661 351.566 215.147" stroke="#021D3B" stroke-width="0.5" stroke-miterlimit="10"/>
<path d="M366.29 286.388C366.29 286.388 370.368 305.019 377.843 323.65" stroke="#1447C6" stroke-width="0.5" stroke-miterlimit="10"/>
<path d="M358.872 216.619C358.872 216.619 358.022 228.399 358.872 231.57C359.098 232.476 361.364 233.835 361.364 233.835" stroke="#021D3B" stroke-width="0.5" stroke-miterlimit="10"/>
<path d="M364.308 321.895L363.006 297.77" stroke="#021D3B" stroke-width="0.5" stroke-miterlimit="10"/>
<path d="M372.52 292.107C372.52 292.107 378.806 302.301 382.204 305.699" stroke="#1447C6" stroke-width="0.5" stroke-miterlimit="10"/>
<path d="M336.503 281.348C336.503 281.348 345.394 303.717 349.755 309.323" stroke="#1447C6" stroke-width="0.5" stroke-miterlimit="10"/>
<path d="M382.658 214.184C382.658 214.184 386.565 228.625 384.866 238.932C384.866 245.218 390.473 329.37 390.473 329.37" stroke="#021D3B" stroke-width="0.5" stroke-miterlimit="10"/>
<path d="M373.256 133.316C375.464 133.939 377.163 135.638 378.013 137.734C378.579 139.149 378.466 140.678 378.635 142.151C378.862 145.209 380.674 146.455 382.543 148.72C384.638 151.212 385.658 155.799 383.449 158.573C382.033 160.329 379.315 160.442 377.503 161.801C376.483 162.594 375.804 163.727 374.785 164.463C373.935 165.086 372.859 165.426 371.783 165.709C369.744 166.275 367.649 166.728 365.554 166.728C363.458 166.728 361.25 166.275 359.551 165.086C357.965 164.01 356.776 162.368 354.964 161.801C354.284 161.632 353.548 161.518 353.038 161.065C351.453 159.649 350.83 157.498 351.339 155.459C351.849 153.477 353.888 152.061 354.227 150.079C354.624 147.927 353.151 145.605 354.058 143.51C354.681 142.151 356.153 141.358 357.286 140.282C358.475 139.149 359.381 137.79 360.23 136.431C363.968 130.202 366.516 132.637 369.971 132.58" fill="#011E3B"/>
<path d="M359.098 144.756C357.456 144.303 355.021 147.304 356.55 148.55C357.229 149.116 358.249 148.663 358.815 148.21C359.551 147.644 360.174 146.681 360.004 145.718C360.004 145.605 359.834 145.662 359.834 145.718C359.551 146.908 358.815 148.55 357.286 148.437C355.983 148.323 356.493 146.851 356.946 146.172C357.456 145.379 358.135 144.926 359.041 144.926C359.155 144.869 359.211 144.756 359.098 144.756Z" fill="#F7633A"/>
<path d="M363.629 133.996C360.797 137.394 356.493 146.568 358.589 148.776C359.438 149.739 361.024 150.305 362.893 150.305C366.97 150.305 370.311 148.493 371.897 146.285C373.879 143.623 371.331 129.466 363.629 133.996Z" fill="#FFDACF"/>
<path d="M378.239 139.659C378.295 143 375.464 145.719 372.066 147.134C372.009 147.191 371.896 147.191 371.839 147.134C371.783 147.078 371.726 147.021 371.726 146.964C371.5 146.398 371.047 145.945 370.48 145.719C369.914 145.492 369.234 145.605 368.725 145.888C368.951 144.076 370.707 141.415 370.707 141.415C367.705 139.829 366.346 136.375 366.46 135.242C364.761 135.412 363.062 135.921 361.533 136.714C361.023 133.203 364.761 131.561 366.686 131.108C370.707 130.202 375.237 132.75 377.276 136.261C377.899 137.451 378.182 138.583 378.239 139.659Z" fill="#011E3B"/>
<path d="M364.081 149.343L363.628 155.969L355.076 156.535C355.076 156.535 349.243 174.487 364.93 174.487C380.617 174.487 382.429 158.743 381.863 158.177C381.07 157.384 372.575 155.799 372.575 155.799L370.423 146.172" fill="#FFDACF"/>
<path d="M362.666 140.792C362.666 140.792 360.005 142.66 360.118 143.34C360.174 144.019 361.647 144.359 361.647 144.359" stroke="#DB8F77" stroke-width="0.5" stroke-miterlimit="10" stroke-linejoin="round"/>
<path d="M366.064 142.377C366.064 142.434 366.064 142.491 366.064 142.491C366.064 142.83 365.95 143.057 365.837 143.34C365.667 143.793 364.874 143.397 365.157 142.944C365.327 142.66 365.497 142.377 365.724 142.151C365.95 141.981 366.064 142.151 366.064 142.377Z" fill="#030334"/>
<path d="M362.212 139.885C362.212 139.942 362.212 139.999 362.212 139.999C362.155 140.338 361.985 140.565 361.815 140.792C361.532 141.188 360.853 140.678 361.192 140.282C361.419 140.055 361.645 139.772 361.929 139.602C362.155 139.489 362.212 139.659 362.212 139.885Z" fill="#030334"/>
<path d="M368.612 143.057C368.612 143.057 368.725 142.83 368.725 142.434C368.725 142.038 368.612 141.585 368.329 141.131C368.046 140.735 367.593 140.395 367.196 140.339C367.026 140.282 366.856 140.339 366.743 140.339C366.63 140.339 366.573 140.395 366.573 140.395C366.573 140.395 366.63 140.452 366.743 140.452C366.856 140.509 366.913 140.565 367.026 140.678C367.253 140.905 367.536 141.188 367.706 141.528C367.932 141.868 368.102 142.207 368.272 142.491C368.329 142.66 368.442 142.774 368.442 142.887C368.555 143 368.612 143.057 368.612 143.057Z" fill="#030334"/>
<path d="M363.799 139.036C363.799 139.036 363.799 138.979 363.799 138.923C363.799 138.866 363.742 138.696 363.685 138.583C363.516 138.3 363.176 138.073 362.836 138.017C362.44 137.96 362.043 138.073 361.817 138.243C361.59 138.413 361.477 138.583 361.477 138.583C361.477 138.583 361.533 138.583 361.59 138.583C361.647 138.583 361.76 138.583 361.873 138.583C362.1 138.583 362.383 138.64 362.666 138.696C362.949 138.753 363.176 138.81 363.402 138.866C363.629 138.923 363.799 139.036 363.799 139.036Z" fill="#030334"/>
<path d="M363.346 146.455C361.873 149.116 358.985 148.55 359.721 145.209L363.346 146.455Z" fill="white"/>
<path d="M369.291 148.89C369.291 148.89 367.139 150.589 363.968 150.645" stroke="#F7A794" stroke-width="0.75" stroke-miterlimit="10"/>
<path d="M369.915 146.115C371.104 144.926 372.35 146.058 372.576 146.568C372.746 146.964 372.576 147.361 372.406 147.757C371.953 148.663 371.104 149.343 370.085 149.626C369.745 149.739 369.348 149.739 369.009 149.626C368.046 149.343 367.876 148.38 368.329 147.644" fill="#FFDACF"/>
<path d="M373.652 133.6C375.351 133.939 377.559 133.26 377.389 131.051C377.219 128.899 375.351 128.05 373.595 128.786C372.802 129.126 372.179 129.862 372.066 130.655C371.896 131.504 372.179 132.41 372.802 132.977" fill="#011E3B"/>
<path d="M371.896 131.448C373.255 131.901 374.615 132.75 375.521 133.883" stroke="#F7633A" stroke-miterlimit="10"/>
<path d="M365.101 155.459C365.101 155.459 350.603 154.44 338.767 158.517C326.138 162.877 322.231 164.859 317.36 164.859C310.225 164.859 292.386 157.781 292.386 157.781L291.367 159.763C291.367 159.763 301.504 175.166 321.155 178.337C336.558 180.829 346.865 175.959 346.865 175.959" fill="#FFDACF"/>
<path d="M350.829 197.931C350.829 197.931 350.886 205.01 349.017 209.031C358.135 214.411 380.731 210.673 382.656 208.691C382.656 208.691 380.108 204.954 379.485 201.046C379.485 195.61 359.607 192.438 359.607 192.438L350.829 197.931Z" fill="#FFDACF"/>
<path d="M360.344 207.728C360.344 208.125 360.401 208.465 360.288 208.861C360.174 209.144 360.004 209.427 359.948 209.767C359.948 209.824 360.004 209.88 360.118 209.88C360.797 209.597 360.91 208.351 360.627 207.728C360.514 207.559 360.344 207.559 360.344 207.728Z" fill="#F7A794"/>
<path d="M360.117 214.014V213.958C360.117 213.958 360.117 213.958 360.061 213.958V214.014C360.004 214.071 360.117 214.071 360.117 214.014Z" fill="white"/>
<path d="M382.656 158.121L378.692 157.101C375.181 159.593 373.595 165.652 370.65 168.144C366.516 171.712 360.853 171.429 357.908 168.54C355.813 166.445 356.322 158.234 359.211 155.346L356.039 155.459C351.622 158.121 350.886 162.821 348.96 167.578C347.941 170.013 345.223 175.166 345.279 179.074C345.393 184.623 346.412 194.42 345.902 202.632C353.491 205.407 372.236 205.52 382.939 201.839C384.072 191.646 383.845 169.163 382.656 158.121Z" fill="#F7633A"/>
<path d="M364.874 192.382L366.629 194.194" stroke="#FFAD76" stroke-miterlimit="10" stroke-linecap="round" stroke-linejoin="round"/>
<path d="M377.219 189.72L378.975 189.89" stroke="#FFAD76" stroke-miterlimit="10" stroke-linecap="round" stroke-linejoin="round"/>
<path d="M351.906 178.111L353.321 176.129" stroke="#FFAD76" stroke-miterlimit="10" stroke-linecap="round" stroke-linejoin="round"/>
<path d="M351.565 167.634L353.661 166.898" stroke="#FFAD76" stroke-miterlimit="10" stroke-linecap="round" stroke-linejoin="round"/>
<path d="M353.944 159.31L355.36 161.179" stroke="#FFAD76" stroke-miterlimit="10" stroke-linecap="round" stroke-linejoin="round"/>
<path d="M376.314 163.727L376.597 166.105" stroke="#FFAD76" stroke-miterlimit="10" stroke-linecap="round" stroke-linejoin="round"/>
<path d="M347.488 182.925L349.64 183.661" stroke="#FFAD76" stroke-miterlimit="10" stroke-linecap="round" stroke-linejoin="round"/>
<path d="M370.706 184.963L372.632 183.944" stroke="#FFAD76" stroke-miterlimit="10" stroke-linecap="round" stroke-linejoin="round"/>
<path d="M371.33 173.524L373.142 174.826" stroke="#FFAD76" stroke-miterlimit="10" stroke-linecap="round" stroke-linejoin="round"/>
<path d="M364.025 176.129L364.705 178.111" stroke="#FFAD76" stroke-miterlimit="10" stroke-linecap="round" stroke-linejoin="round"/>
<path d="M378.975 200.027L380.39 198.215" stroke="#FFAD76" stroke-miterlimit="10" stroke-linecap="round" stroke-linejoin="round"/>
<path d="M359.551 184.963L358.362 187.172" stroke="#FFAD76" stroke-miterlimit="10" stroke-linecap="round" stroke-linejoin="round"/>
<path d="M361.759 200.99L363.967 200.31" stroke="#FFAD76" stroke-miterlimit="10" stroke-linecap="round" stroke-linejoin="round"/>
<path d="M354.907 197.875L357.172 196.799" stroke="#FFAD76" stroke-miterlimit="10" stroke-linecap="round" stroke-linejoin="round"/>
<path d="M372.519 198.215L373.481 196.063" stroke="#FFAD76" stroke-miterlimit="10" stroke-linecap="round" stroke-linejoin="round"/>
<path d="M351.622 191.193L353.604 192.325" stroke="#FFAD76" stroke-miterlimit="10" stroke-linecap="round" stroke-linejoin="round"/>
<path d="M349.187 197.818L350.093 200.253" stroke="#FFAD76" stroke-miterlimit="10" stroke-linecap="round" stroke-linejoin="round"/>
<path d="M368.158 189.89C368.158 189.89 373.141 189.324 376.086 185.756" stroke="#C14021" stroke-width="0.5" stroke-miterlimit="10"/>
<path d="M385.771 199.064C385.771 198.441 411.255 189.72 411.255 189.72C411.255 189.72 426.489 213.505 423.941 216.619C422.072 218.885 395.512 229.135 393.586 227.719C391.604 226.247 385.771 199.687 385.771 199.064Z" fill="#011E3B"/>
<path d="M392.85 164.35C390.075 161.575 386.904 159.48 382.713 158.12C379.542 159.876 376.427 172.108 379.542 178.96C379.995 180.036 382.203 180.829 383.109 179.98C387.81 184.17 393.133 189.097 392.51 195.326C391.434 205.237 383.109 219.394 383.109 219.394C383.676 221.546 386.224 220.81 386.224 220.81C386.224 220.81 398.173 211.523 405.365 198.158C409.896 189.607 403.383 174.883 392.85 164.35Z" fill="#FFDACF"/>
<path d="M383.052 179.98C383.052 179.98 381.07 177.488 379.484 177.092" stroke="#F7A794" stroke-width="0.75" stroke-miterlimit="10"/>
<path d="M384.469 218.035C383.676 218.658 382.996 219.451 382.373 220.244C381.807 221.037 381.411 221.999 381.297 223.019C381.241 223.528 381.184 224.038 381.184 224.548C381.184 224.887 381.241 225.624 381.694 225.114C381.977 224.831 382.034 224.491 382.147 224.151C382.203 223.981 382.43 223.075 382.77 223.415C383.393 224.038 383.506 224.944 383.676 225.793C383.789 226.416 383.902 227.096 383.959 227.719C384.016 228.059 384.016 228.342 384.072 228.682C384.072 228.851 384.016 229.305 384.242 229.418C384.639 229.588 384.865 228.682 384.865 228.455C384.978 227.889 385.262 226.133 384.865 224.718C385.092 225.454 385.318 226.19 385.375 226.926C385.488 227.776 385.545 228.682 385.601 229.531C385.601 229.701 385.715 229.984 385.941 229.871C386.847 229.305 386.451 226.133 386.224 225.057C386.281 225.34 386.507 225.68 386.564 226.02C386.677 226.36 386.734 226.7 386.791 227.039C386.847 227.436 386.904 227.889 386.904 228.285C386.904 228.512 386.847 228.795 386.904 229.021C387.017 229.305 387.244 229.248 387.357 229.021C387.414 228.908 387.697 228.398 387.697 227.209C388.659 225.793 388.15 224.151 387.923 223.698C387.13 221.773 386.394 220.357 384.865 219.338" fill="#FFDACF"/>
<path d="M387.81 227.662C387.81 226.7 387.753 225.793 387.527 224.887C387.64 225.114 387.697 225.34 387.753 225.567C387.81 225.793 387.866 226.02 387.866 226.247C387.923 226.7 387.866 227.209 387.81 227.662Z" fill="#F7A794"/>
<path d="M387.074 201.612C387.074 201.612 374.218 163.104 383.336 159.536C389.339 157.214 404.799 176.129 412.105 191.759" stroke="#011E3B" stroke-miterlimit="10"/>
<path d="M293.123 161.009C292.103 161.122 291.027 161.065 290.065 160.725C289.102 160.386 288.196 159.763 287.629 158.857C287.46 158.573 287.29 158.29 287.233 157.951C287.233 157.837 287.176 157.724 287.29 157.611C287.403 157.498 287.629 157.554 287.799 157.667C288.083 157.837 288.366 158.064 288.649 158.12C290.178 158.46 288.932 156.535 288.592 156.082C287.969 155.232 287.233 154.439 286.78 153.477C286.667 153.25 286.61 153.08 286.723 152.91C287.12 152.118 289.668 155.119 289.838 155.289C290.065 154.949 290.518 154.893 290.914 154.893C291.31 154.949 291.65 155.062 292.047 155.119C292.273 155.119 292.443 155.119 292.67 155.176C293.179 155.289 293.576 155.799 293.802 156.252C294.369 157.441 294.369 158.857 293.802 160.103" fill="#FFDACF"/>
<path d="M369.122 148.833C367.423 148.72 365.668 152.231 367.48 153.08C369.179 153.873 370.765 150.928 370.255 149.569C370.198 149.456 370.085 149.513 370.085 149.569C370.028 150.815 369.745 152.231 368.443 152.684C366.857 153.25 367.083 151.268 367.48 150.419C367.82 149.626 368.329 149.116 369.235 148.946C369.235 148.946 369.235 148.833 369.122 148.833Z" fill="#F7633A"/>
<path d="M341.826 111.74H173.291C171.309 111.74 169.724 110.155 169.724 108.173V101.207C169.724 99.225 171.309 97.6393 173.291 97.6393H341.769C343.751 97.6393 345.337 99.225 345.337 101.207V108.173C345.394 110.155 343.808 111.74 341.826 111.74Z" fill="white"/>
<path d="M192.009 106.367C192.009 106.877 191.725 107.556 191.329 107.896C190.989 108.179 188.611 109.708 187.988 110.104C187.875 110.161 187.761 110.161 187.705 110.104C187.082 109.708 184.816 108.292 184.363 107.896C183.91 107.443 183.684 106.877 183.684 106.367V101.327C183.684 100.817 184.137 100.534 184.59 100.421C184.59 100.421 185.609 100.024 187.818 100.024C190.027 100.024 191.046 100.421 191.046 100.421C191.556 100.591 191.952 100.817 191.952 101.327V106.367H192.009Z" fill="#0CD350"/>
<path d="M187.995 102.26L188.585 103.439C188.585 103.439 188.585 103.505 188.65 103.505L189.961 103.701C190.026 103.701 190.026 103.767 190.026 103.832L189.109 104.75V104.815L189.305 106.126C189.305 106.191 189.24 106.257 189.174 106.191L187.995 105.602H187.929L186.75 106.191C186.684 106.191 186.619 106.191 186.619 106.126L186.815 104.815V104.75L185.898 103.832C185.832 103.767 185.898 103.701 185.963 103.701L187.274 103.505C187.274 103.505 187.339 103.505 187.339 103.439L187.929 102.26C187.864 102.194 187.995 102.194 187.995 102.26Z" fill="white"/>
</svg>
