<svg width="80" height="80" viewBox="0 0 80 80" fill="none" xmlns="http://www.w3.org/2000/svg">
<path d="M0 40C0 17.9086 17.9086 0 40 0C62.0914 0 80 17.9086 80 40C80 62.0914 62.0914 80 40 80C17.9086 80 0 62.0914 0 40Z" fill="white"/>
<path fill-rule="evenodd" clip-rule="evenodd" d="M57.6 38.4C57.6 32.4076 57.6 29.4114 56.1619 27.2591C55.5393 26.3274 54.7393 25.5274 53.8075 24.9048C51.6552 23.4667 48.659 23.4667 42.6667 23.4667H38.4C32.4076 23.4667 29.4114 23.4667 27.2591 24.9048C26.3274 25.5274 25.5274 26.3274 24.9048 27.2591C23.4667 29.4114 23.4667 32.4076 23.4667 38.4C23.4667 44.3924 23.4667 47.3886 24.9048 49.5409C25.5274 50.4726 26.3274 51.2726 27.2591 51.8952C29.1394 53.1515 31.6636 53.3103 36.2667 53.3304V53.3333L38.6252 58.0504C39.4114 59.6228 41.6553 59.6228 42.4415 58.0504L44.8 53.3333V53.3304C49.4031 53.3103 51.9273 53.1515 53.8075 51.8952C54.7393 51.2726 55.5393 50.4726 56.1619 49.5409C57.6 47.3886 57.6 44.3924 57.6 38.4ZM34.1333 33.1333C33.5811 33.1333 33.1333 33.581 33.1333 34.1333C33.1333 34.6856 33.5811 35.1333 34.1333 35.1333H46.9333C47.4856 35.1333 47.9333 34.6856 47.9333 34.1333C47.9333 33.581 47.4856 33.1333 46.9333 33.1333H34.1333ZM34.1333 41.6667C33.5811 41.6667 33.1333 42.1144 33.1333 42.6667C33.1333 43.219 33.5811 43.6667 34.1333 43.6667H40.5333C41.0856 43.6667 41.5333 43.219 41.5333 42.6667C41.5333 42.1144 41.0856 41.6667 40.5333 41.6667H34.1333Z" fill="#FF6500"/>
</svg>
