<svg width="80" height="80" viewBox="0 0 80 80" fill="none" xmlns="http://www.w3.org/2000/svg">
<path d="M0 40C0 17.9086 17.9086 0 40 0C62.0914 0 80 17.9086 80 40C80 62.0914 62.0914 80 40 80C17.9086 80 0 62.0914 0 40Z" fill="white"/>
<rect x="56.5334" y="34.1333" width="8.53333" height="8.53334" rx="4.26667" transform="rotate(90 56.5334 34.1333)" fill="#FF6500" stroke="#FF6500" stroke-width="2"/>
<rect x="56.5334" y="51.2" width="8.53333" height="8.53334" rx="4.26667" transform="rotate(90 56.5334 51.2)" fill="#FF6500" stroke="#FF6500" stroke-width="2"/>
<rect x="24.5334" y="29.8667" width="8.53333" height="8.53333" rx="4.26667" transform="rotate(-90 24.5334 29.8667)" fill="#FF6500" stroke="#FF6500" stroke-width="2"/>
<path d="M28.8 27.7333V51.4667C28.8 53.3523 28.8 54.2951 29.3858 54.8809C29.9716 55.4667 30.9144 55.4667 32.8 55.4667H48" stroke="#FF6500" stroke-width="4"/>
<path d="M28.8 29.8667V34.4C28.8 36.2856 28.8 37.2284 29.3858 37.8142C29.9716 38.4 30.9144 38.4 32.8 38.4H48" stroke="#FF6500" stroke-width="4"/>
</svg>
