<svg width="80" height="80" viewBox="0 0 80 80" fill="none" xmlns="http://www.w3.org/2000/svg">
<path d="M0 40C0 17.9086 17.9086 0 40 0C62.0914 0 80 17.9086 80 40C80 62.0914 62.0914 80 40 80C17.9086 80 0 62.0914 0 40Z" fill="white"/>
<g clip-path="url(#clip0_87_3254)">
<path d="M64.5281 28.0246C62.8213 26.2499 60.2855 24.671 57.4084 23.5572C56.7134 23.288 56.0063 23.0554 55.3236 22.8473C55.3236 21.8804 54.9335 20.9502 54.263 20.2771C53.5681 19.5794 52.6415 19.2 51.6784 19.2H39.17C38.2069 19.2 37.2804 19.5794 36.5976 20.2648L13.8607 43.0914C12.4465 44.5111 12.4465 46.8244 13.8607 48.2564L26.3569 60.8018C27.7833 62.2216 30.0753 62.2216 31.5016 60.8018L54.2508 37.963C54.58 37.6448 54.8238 37.2654 55.0067 36.8493C56.7378 37.3266 58.4324 37.5714 60.0051 37.5714C62.2727 37.5714 64.0892 37.0329 65.284 36.0415C65.8692 35.5641 66.3081 34.9644 66.5641 34.2912C66.7592 33.8016 66.8445 33.2876 66.8445 32.749C66.8323 31.2314 66.0399 29.5913 64.5281 28.0246ZM63.1993 32.9816C63.053 33.3733 62.0655 33.9608 59.9929 33.9608C58.1764 33.9608 56.0063 33.5079 53.885 32.6879C52.0076 31.9657 50.2886 30.9866 48.9963 29.9217C48.9841 29.934 48.9719 29.9462 48.9597 29.9707C47.7528 31.1824 45.79 31.1824 44.583 29.9707C43.3761 28.759 43.3761 26.7884 44.583 25.5767C45.79 24.365 47.7528 24.365 48.9597 25.5767C49.5205 26.1398 49.8253 26.8741 49.8619 27.6207C51.1298 28.7223 52.8732 29.7381 54.7994 30.4848C54.9701 30.546 55.1408 30.6071 55.3114 30.6683V26.6416C55.5797 26.7272 55.8357 26.8252 56.1039 26.9353C58.469 27.8533 60.5903 29.1751 61.9314 30.5582C62.224 30.8642 62.4556 31.1457 62.6507 31.415C63.1627 32.1248 63.309 32.7001 63.1993 32.9816Z" fill="#FF6500"/>
<path d="M25.918 51.7324C26.0278 51.8426 26.2106 51.8548 26.3325 51.7446L28.1734 50.0066C28.2954 49.8965 28.4539 49.921 28.5392 50.0189C28.6123 50.1046 28.6611 50.2637 28.527 50.3861L26.2228 52.5769C25.7717 53.0053 25.3694 52.9808 24.9793 52.5769L21.4438 48.8194C21.0293 48.3788 21.4072 48.0116 21.4804 47.9504C21.7852 47.6689 22.1021 47.6689 22.3703 47.9504L25.918 51.7324Z" fill="white"/>
<path d="M29.4292 49.4314C29.5023 49.5905 29.417 49.7129 29.3682 49.7618C29.2707 49.8598 29.0878 49.872 28.9781 49.7496C28.9537 49.7251 28.9415 49.7129 28.9293 49.6762L26.3569 44.1317C26.174 43.7401 26.3325 43.3484 26.5764 43.1036C26.7836 42.9078 27.1372 42.7119 27.6004 42.9445L32.6599 45.5148C32.7452 45.5637 32.7818 45.5882 32.8184 45.6249C33.0378 45.8575 33.0622 46.2491 32.733 46.5674C32.4526 46.8366 32.2332 46.7265 32.0503 46.6286L30.7336 45.9554L28.7099 47.877L29.4292 49.4314ZM28.466 47.3629L30.2338 45.6861L27.3688 44.2296C27.2347 44.1562 27.1616 44.1317 27.1006 44.1929C27.0274 44.2663 27.0762 44.3643 27.125 44.4744L28.466 47.3629Z" fill="white"/>
<path d="M34.5739 44.658C34.1228 45.0864 33.7205 45.0619 33.3304 44.658L30.0387 41.1698C29.6486 40.7536 29.6608 40.3375 30.1119 39.9214L31.6846 38.4282C32.1966 37.9386 33.2085 37.2532 34.135 38.2446C34.9762 39.138 34.4154 39.9214 34.1594 40.2763C34.4642 40.0682 35.4639 39.3828 36.427 40.4109C37.1097 41.1453 37.2316 42.1245 36.1344 43.1648L34.5739 44.658ZM32.3307 41.7573L33.306 40.8393C33.9765 40.2029 33.562 39.5909 33.2573 39.2604C32.794 38.7709 32.2819 38.624 31.7455 39.1258L30.9531 39.8724C30.8434 39.9703 30.8434 40.1662 30.9409 40.2763L32.3307 41.7573ZM32.6964 42.1367L34.2813 43.8135C34.3789 43.9237 34.5739 43.9359 34.6958 43.8257L35.5492 43.0179C36.2076 42.3937 35.9028 41.7573 35.4639 41.2922C34.6958 40.4721 34.1228 40.7781 33.7571 41.1331L32.6964 42.1367Z" fill="white"/>
<path d="M38.7677 35.7844C38.8897 35.6743 39.0482 35.6988 39.1457 35.7844C39.2432 35.8823 39.2432 36.0537 39.1335 36.1639L37.3292 37.8774L38.8409 39.493C38.9506 39.6031 39.1335 39.6154 39.2554 39.5052L41.0597 37.7917C41.1816 37.6815 41.3401 37.6938 41.4377 37.7917C41.5352 37.8896 41.5352 38.061 41.4255 38.1711L39.1335 40.3375C38.6824 40.7659 38.2801 40.7414 37.89 40.3375L34.5983 36.8493C34.2082 36.4331 34.2204 36.017 34.6714 35.6008L36.8781 33.5079C37 33.3855 37.1707 33.4222 37.256 33.5079C37.3535 33.6181 37.3535 33.7772 37.2438 33.8873L35.5005 35.5396C35.3907 35.6498 35.3907 35.8334 35.4883 35.9435L36.9512 37.498L38.7677 35.7844Z" fill="white"/>
<path d="M42.7177 35.8211C42.8274 35.9313 43.0103 35.9435 43.1322 35.8334L44.9731 34.0954C45.095 33.9852 45.2535 34.0097 45.3389 34.1076C45.412 34.1933 45.4608 34.3524 45.3267 34.4748L43.0225 36.6657C42.5714 37.094 42.1691 37.0696 41.779 36.6657L38.2435 32.9082C37.829 32.4675 38.2069 32.1004 38.2801 32.0392C38.5848 31.7577 38.9018 31.7577 39.17 32.0392L42.7177 35.8211Z" fill="white"/>
</g>
<defs>
<clipPath id="clip0_87_3254">
<rect width="54.0444" height="42.6667" fill="white" transform="translate(12.8 19.2)"/>
</clipPath>
</defs>
</svg>
