<svg width="121" height="16" viewBox="0 0 121 16" fill="none" xmlns="http://www.w3.org/2000/svg">
<path d="M5.70379 0.245117L0.387695 15.8034H3.86732L4.93054 12.6132H10.3916L11.4548 15.8034H15.7077L10.295 0.245117H5.70379ZM5.84878 9.71751L7.63692 4.26966L9.42506 9.71751H5.84878Z" fill="black"/>
<path d="M26.9683 9.91383C26.9683 10.7973 26.9199 11.4353 26.7266 11.7789C26.5816 12.1715 26.2433 12.466 25.8084 12.6623C25.3251 12.9077 24.7452 13.0059 23.9719 13.0059C23.2953 13.0059 22.7154 12.9077 22.2804 12.6623C21.7971 12.4169 21.5072 12.1224 21.3622 11.7298C21.2172 11.3371 21.1205 10.6991 21.1205 9.86475V0.245117H16.8193L16.8677 9.91383C16.8677 11.4844 17.1093 12.6623 17.5926 13.4967C18.0759 14.331 18.8008 14.92 19.7674 15.3617C20.7339 15.8034 22.0388 15.9997 23.6819 15.9997C25.3251 15.9997 26.63 15.7543 27.6932 15.2635C28.7564 14.7727 29.433 14.1347 29.8196 13.3985C30.2062 12.6132 30.3995 11.4844 30.3995 9.91383L30.3512 0.245117H26.9683V9.91383Z" fill="black"/>
<path d="M55.1438 6.28193H49.8277V0.245117H45.9131L46.0097 15.8034H49.9243L49.876 9.37395H55.1438L55.1921 15.8034H59.1067L59.01 0.245117H55.0954L55.1438 6.28193Z" fill="black"/>
<path d="M87.2334 9.32564V6.38086H83.1738V9.32564H87.2334Z" fill="black"/>
<path d="M76.9394 15.8034H89.0215L88.9732 12.7114H80.9507L80.9023 9.32487V6.38009L80.854 3.1899H88.9248V0.245117H76.8428L76.9394 15.8034Z" fill="black"/>
<path d="M98.0104 2.99387C99.7985 2.99387 100.765 4.07362 100.813 6.28221L104.97 6.03681C104.438 2.01227 102.167 0 98.107 0C95.739 0 93.9025 0.736196 92.5493 2.25767C91.1961 3.77914 90.5195 5.69325 90.5678 8C90.5678 10.5031 91.2928 12.4663 92.6943 13.8896C94.0958 15.3129 95.9323 16 98.1554 16C99.9918 16 101.538 15.5092 102.795 14.5276C104.051 13.546 104.776 12.1227 105.018 10.3067L101.152 10.1104C100.813 12.0736 99.7985 13.0552 98.1554 13.0552C97.1405 13.0552 96.3672 12.7117 95.7873 12.0245C95.2073 11.3374 94.9174 10.0123 94.9174 8.04908C94.9174 4.66258 95.9323 2.99387 98.0104 2.99387Z" fill="black"/>
<path d="M36.102 15.8033H40.1133L40.0649 5.39844H36.0537L36.102 15.8033Z" fill="black"/>
<path d="M31.8008 3.33714H36.0053H40.0166H44.2211V0.245117H31.8008V3.33714Z" fill="black"/>
<path d="M66.9839 15.8033H71.0434L70.9468 5.39844H66.9355L66.9839 15.8033Z" fill="black"/>
<path d="M62.7309 3.33714H66.9355H70.9467H75.1513L75.103 0.245117H62.6826L62.7309 3.33714Z" fill="black"/>
<path d="M116.424 0.245117L116.472 6.28193H111.156V0.245117H107.241L107.338 15.8034H111.252L111.204 9.37395H116.472L116.52 15.8034H120.435L120.338 0.245117H116.424Z" fill="black"/>
</svg>
