<svg width="37" height="24" viewBox="0 0 37 24" fill="none" xmlns="http://www.w3.org/2000/svg">
<g clip-path="url(#clip0_791_2267)">
<path d="M9.7326 0H8.80442C8.43315 0 8.0884 0.159116 7.8232 0.39779L7.47845 0.954696L0.132597 15.063C0.0530387 15.2751 0 15.4873 0 15.726C0 16.0177 0.079558 16.2829 0.212155 16.5215C0.503867 17.0519 1.06077 17.3967 1.69724 17.3967C1.72376 17.3967 1.72376 17.3967 1.75028 17.3967H6.81547L12.3845 5.99337L9.7326 0Z" fill="#3E3A39"/>
<path fill-rule="evenodd" clip-rule="evenodd" d="M17.5821 0.875138C17.3699 0.344751 16.8661 0 16.2827 0H16.2296H16.1766H9.73238H8.8042C9.36111 0 9.83845 0.318232 10.0771 0.79558C10.1036 0.848619 10.1036 0.875138 10.1302 0.928177L12.3313 6.01989L19.3059 22.0906C19.7832 23.2309 20.897 23.947 22.1434 23.947H27.5799L17.5821 0.875138Z" fill="url(#paint0_linear_791_2267)"/>
<path fill-rule="evenodd" clip-rule="evenodd" d="M26.9438 0.875138C26.7316 0.344751 26.2277 0 25.6443 0H25.5913H25.5648H19.1206H18.1924C18.7493 0 19.2266 0.318232 19.4653 0.79558C19.4918 0.848619 19.4918 0.875138 19.5183 0.928177L21.7195 6.01989L29.4896 23.947H36.9416L26.9438 0.875138Z" fill="url(#paint1_linear_791_2267)"/>
<path d="M1.697 17.3968C1.06053 17.3703 0.503627 17.0255 0.211914 16.4951L0.689262 17.3968L3.84506 22.9924C4.42849 24.0266 5.75446 24.3448 6.73567 23.6553L15.9114 17.3968H1.697Z" fill="url(#paint2_linear_791_2267)"/>
</g>
<defs>
<linearGradient id="paint0_linear_791_2267" x1="22.6796" y1="23.4493" x2="16.396" y2="7.34742" gradientUnits="userSpaceOnUse">
<stop stop-color="#EA5E00"/>
<stop offset="1" stop-color="#F9BC00"/>
</linearGradient>
<linearGradient id="paint1_linear_791_2267" x1="32.0622" y1="23.4493" x2="25.7785" y2="7.34742" gradientUnits="userSpaceOnUse">
<stop stop-color="#EA5E00"/>
<stop offset="1" stop-color="#F9BC00"/>
</linearGradient>
<linearGradient id="paint2_linear_791_2267" x1="2.28992" y1="20.5036" x2="10.2563" y2="18.0378" gradientUnits="userSpaceOnUse">
<stop stop-color="#EA5E00"/>
<stop offset="1" stop-color="#F9BC00"/>
</linearGradient>
<clipPath id="clip0_791_2267">
<rect width="36.968" height="24" fill="white"/>
</clipPath>
</defs>
</svg>
