<svg width="310" height="49" viewBox="0 0 310 49" fill="none" xmlns="http://www.w3.org/2000/svg">
<g clip-path="url(#clip0_180_4339)">
<path d="M19.8707 0H17.9757C17.2177 0 16.5138 0.324862 15.9724 0.812155L15.2685 1.94917L0.270718 30.7536C0.108287 31.1867 0 31.6199 0 32.1072C0 32.7028 0.162431 33.2442 0.433149 33.7315C1.02873 34.8144 2.16575 35.5182 3.46519 35.5182C3.51934 35.5182 3.51934 35.5182 3.57348 35.5182H13.9149L25.2851 12.2365L19.8707 0Z" fill="#3E3A39"/>
<path fill-rule="evenodd" clip-rule="evenodd" d="M35.8973 1.78674C35.4641 0.703867 34.4354 0 33.2442 0H33.1359H33.0276H19.8707H17.9757C19.1127 0 20.0873 0.649724 20.5746 1.62431C20.6287 1.7326 20.6287 1.78674 20.6829 1.89503L25.1768 12.2906L39.4166 45.1017C40.3912 47.4298 42.6652 48.8917 45.21 48.8917H56.3094L35.8973 1.78674Z" fill="url(#paint0_linear_180_4339)"/>
<path fill-rule="evenodd" clip-rule="evenodd" d="M55.01 1.78674C54.5768 0.703867 53.5481 0 52.3569 0H52.2487H52.1945H39.0376H37.1426C38.2796 0 39.2542 0.649724 39.7415 1.62431C39.7956 1.7326 39.7956 1.78674 39.8498 1.89503L44.3437 12.2906L60.2078 48.8917H75.4221L55.01 1.78674Z" fill="url(#paint1_linear_180_4339)"/>
<path d="M3.46515 35.5183C2.1657 35.4641 1.02869 34.7602 0.433105 33.6774L1.40769 35.5183L7.85078 46.9426C9.04194 49.0542 11.7491 49.7039 13.7524 48.2962L32.4861 35.5183H3.46515Z" fill="url(#paint2_linear_180_4339)"/>
</g>
<path d="M101.112 10.4447L91.4762 38.6441H97.783L99.7101 32.8619H109.608L111.535 38.6441H119.244L109.433 10.4447H101.112ZM101.374 27.6134L104.615 17.7392L107.856 27.6134H101.374Z" fill="black"/>
<path d="M139.653 27.9692C139.653 29.5705 139.566 30.7269 139.215 31.3496C138.953 32.0613 138.34 32.595 137.551 32.9508C136.675 33.3956 135.624 33.5735 134.223 33.5735C132.996 33.5735 131.945 33.3956 131.157 32.9508C130.281 32.5061 129.755 31.9723 129.492 31.2607C129.23 30.549 129.054 29.3926 129.054 27.8803V10.4447H121.259L121.346 27.9692C121.346 30.8159 121.784 32.9508 122.66 34.4631C123.536 35.9754 124.85 37.0429 126.602 37.8435C128.354 38.6441 130.719 38.9999 133.697 38.9999C136.675 38.9999 139.04 38.5551 140.967 37.6656C142.894 36.776 144.121 35.6195 144.822 34.2852C145.522 32.8619 145.873 30.8159 145.873 27.9692L145.785 10.4447H139.653V27.9692Z" fill="black"/>
<path d="M190.721 21.3864H181.086V10.4447H173.99L174.166 38.6441H181.261L181.173 26.9907H190.721L190.809 38.6441H197.904L197.729 10.4447H190.633L190.721 21.3864Z" fill="black"/>
<path d="M248.884 26.9018V21.5643H241.526V26.9018H248.884Z" fill="black"/>
<path d="M230.226 38.6441H252.125L252.038 33.0398H237.497L237.409 26.9018V21.5643L237.322 15.7821H251.95V10.4447H230.051L230.226 38.6441Z" fill="black"/>
<path d="M268.418 15.4264C271.659 15.4264 273.411 17.3834 273.498 21.3865L281.031 20.9417C280.068 13.6472 275.951 10 268.593 10C264.301 10 260.972 11.3344 258.52 14.092C256.067 16.8497 254.841 20.319 254.928 24.5C254.928 29.0368 256.242 32.5951 258.782 35.1748C261.323 37.7546 264.651 39 268.681 39C272.009 39 274.812 38.1104 277.09 36.3313C279.367 34.5521 280.681 31.9724 281.119 28.681L274.111 28.3252C273.498 31.8834 271.659 33.6626 268.681 33.6626C266.841 33.6626 265.44 33.0399 264.388 31.7945C263.337 30.5491 262.812 28.1472 262.812 24.589C262.812 18.4509 264.651 15.4264 268.418 15.4264Z" fill="black"/>
<path d="M156.209 38.6442H163.479L163.391 19.7853H156.121L156.209 38.6442Z" fill="black"/>
<path d="M148.413 16.049H156.033H163.304H170.925V10.4447H148.413V16.049Z" fill="black"/>
<path d="M212.182 38.6442H219.54L219.364 19.7853H212.094L212.182 38.6442Z" fill="black"/>
<path d="M204.473 16.049H212.094H219.365H226.985L226.898 10.4447H204.386L204.473 16.049Z" fill="black"/>
<path d="M301.791 10.4447L301.879 21.3864H292.244V10.4447H285.148L285.324 38.6441H292.419L292.331 26.9907H301.879L301.967 38.6441H309.062L308.887 10.4447H301.791Z" fill="black"/>
<defs>
<linearGradient id="paint0_linear_180_4339" x1="46.3047" y1="47.8756" x2="33.4756" y2="15.001" gradientUnits="userSpaceOnUse">
<stop stop-color="#EA5E00"/>
<stop offset="1" stop-color="#F9BC00"/>
</linearGradient>
<linearGradient id="paint1_linear_180_4339" x1="65.4601" y1="47.8756" x2="52.631" y2="15.001" gradientUnits="userSpaceOnUse">
<stop stop-color="#EA5E00"/>
<stop offset="1" stop-color="#F9BC00"/>
</linearGradient>
<linearGradient id="paint2_linear_180_4339" x1="4.67569" y1="41.8613" x2="20.9403" y2="36.8271" gradientUnits="userSpaceOnUse">
<stop stop-color="#EA5E00"/>
<stop offset="1" stop-color="#F9BC00"/>
</linearGradient>
<clipPath id="clip0_180_4339">
<rect width="75.4762" height="49" fill="white"/>
</clipPath>
</defs>
</svg>
